G04 Layer_Physical_Order=1*
G04 Layer_Color=658098*
%FSLAX44Y44*%
%MOMM*%
G71*
G01*
G75*
%ADD10R,0.6000X0.6000*%
G04:AMPARAMS|DCode=11|XSize=1.75mm|YSize=1.25mm|CornerRadius=0.3125mm|HoleSize=0mm|Usage=FLASHONLY|Rotation=0.000|XOffset=0mm|YOffset=0mm|HoleType=Round|Shape=RoundedRectangle|*
%AMROUNDEDRECTD11*
21,1,1.7500,0.6250,0,0,0.0*
21,1,1.1250,1.2500,0,0,0.0*
1,1,0.6250,0.5625,-0.3125*
1,1,0.6250,-0.5625,-0.3125*
1,1,0.6250,-0.5625,0.3125*
1,1,0.6250,0.5625,0.3125*
%
%ADD11ROUNDEDRECTD11*%
G04:AMPARAMS|DCode=12|XSize=1.75mm|YSize=1.25mm|CornerRadius=0.3125mm|HoleSize=0mm|Usage=FLASHONLY|Rotation=270.000|XOffset=0mm|YOffset=0mm|HoleType=Round|Shape=RoundedRectangle|*
%AMROUNDEDRECTD12*
21,1,1.7500,0.6250,0,0,270.0*
21,1,1.1250,1.2500,0,0,270.0*
1,1,0.6250,-0.3125,-0.5625*
1,1,0.6250,-0.3125,0.5625*
1,1,0.6250,0.3125,0.5625*
1,1,0.6250,0.3125,-0.5625*
%
%ADD12ROUNDEDRECTD12*%
G04:AMPARAMS|DCode=13|XSize=1.4mm|YSize=1.1mm|CornerRadius=0.275mm|HoleSize=0mm|Usage=FLASHONLY|Rotation=0.000|XOffset=0mm|YOffset=0mm|HoleType=Round|Shape=RoundedRectangle|*
%AMROUNDEDRECTD13*
21,1,1.4000,0.5500,0,0,0.0*
21,1,0.8500,1.1000,0,0,0.0*
1,1,0.5500,0.4250,-0.2750*
1,1,0.5500,-0.4250,-0.2750*
1,1,0.5500,-0.4250,0.2750*
1,1,0.5500,0.4250,0.2750*
%
%ADD13ROUNDEDRECTD13*%
%ADD14R,1.0000X1.1001*%
%ADD15R,1.5001X1.3000*%
%ADD16R,0.6000X0.6000*%
%ADD17R,1.8001X1.5999*%
%ADD18P,2.6941X4X72.5*%
G04:AMPARAMS|DCode=19|XSize=0.6mm|YSize=0.9mm|CornerRadius=0.15mm|HoleSize=0mm|Usage=FLASHONLY|Rotation=0.000|XOffset=0mm|YOffset=0mm|HoleType=Round|Shape=RoundedRectangle|*
%AMROUNDEDRECTD19*
21,1,0.6000,0.6000,0,0,0.0*
21,1,0.3000,0.9000,0,0,0.0*
1,1,0.3000,0.1500,-0.3000*
1,1,0.3000,-0.1500,-0.3000*
1,1,0.3000,-0.1500,0.3000*
1,1,0.3000,0.1500,0.3000*
%
%ADD19ROUNDEDRECTD19*%
%ADD20R,2.8000X2.8000*%
%ADD21R,0.8000X0.3500*%
%ADD22R,0.3500X0.8000*%
%ADD23R,2.5000X2.5000*%
%ADD24R,0.8130X0.3050*%
%ADD25R,0.3050X0.8130*%
%ADD26C,0.2540*%
%ADD27C,0.4000*%
%ADD28C,0.6000*%
%ADD29C,0.3000*%
%ADD30C,0.4064*%
%ADD31C,0.8000*%
%ADD32C,0.5000*%
%ADD33C,0.3500*%
%ADD34C,2.5400*%
%ADD35C,4.5720*%
%ADD36C,1.5240*%
%ADD37O,3.0000X1.5000*%
%ADD38C,1.5000*%
%ADD39R,1.5000X1.5000*%
%ADD40R,1.0000X1.0000*%
%ADD41C,1.0000*%
%ADD42C,1.2000*%
%ADD43C,0.5000*%
%ADD44C,0.8000*%
G36*
X417000Y299500D02*
Y286462D01*
X412500Y283000D01*
Y282524D01*
X412476D01*
Y272750D01*
X398500D01*
X398250Y273000D01*
X398000Y273250D01*
Y285500D01*
Y293500D01*
X406000Y301500D01*
X415000D01*
X417000Y299500D01*
D02*
G37*
G36*
X469000Y315500D02*
X469000Y282250D01*
X473500Y277750D01*
X473500Y259250D01*
X472000Y258500D01*
X428024Y258500D01*
Y272524D01*
X428000D01*
Y272750D01*
X419024D01*
Y282524D01*
X419000D01*
Y288000D01*
Y318750D01*
X465750D01*
X469000Y315500D01*
D02*
G37*
G36*
X399933Y251951D02*
X388500Y251951D01*
X388500Y271000D01*
X399933D01*
X399933Y251951D01*
D02*
G37*
G36*
X396500Y240000D02*
Y217000D01*
X375000Y217000D01*
X352500D01*
Y229724D01*
X354026Y231250D01*
X364750D01*
Y243500D01*
Y249000D01*
X396500D01*
Y240000D01*
D02*
G37*
G36*
X309250Y226250D02*
X309250Y171504D01*
X298396D01*
Y171500D01*
X298250D01*
Y165756D01*
X286243D01*
X280250Y171750D01*
X280250Y202250D01*
X258750Y202250D01*
X257000Y204000D01*
X257000Y227041D01*
X257959Y228000D01*
X307500Y228000D01*
X309250Y226250D01*
D02*
G37*
G36*
X298396Y150900D02*
X285500D01*
X285139Y150750D01*
X284750D01*
X284475Y150475D01*
X284334Y150416D01*
X284275Y150275D01*
X282500Y148500D01*
Y145250D01*
Y123000D01*
X278500Y119000D01*
X261000D01*
X258250Y121250D01*
Y162500D01*
X258750Y163000D01*
X260041Y164107D01*
X260041Y164107D01*
Y164107D01*
X298396D01*
Y150900D01*
D02*
G37*
G36*
Y143456D02*
X304250D01*
X304250Y129500D01*
X301500Y126750D01*
X301500Y121599D01*
X299750Y119492D01*
X287008D01*
X285500Y121000D01*
Y148500D01*
Y149250D01*
X298396D01*
Y143456D01*
D02*
G37*
G36*
X319500Y133000D02*
X323500Y129000D01*
Y121529D01*
X319971Y118000D01*
X312250D01*
X309250Y122500D01*
X309250Y125744D01*
X309354Y125848D01*
X309354Y125848D01*
X309972Y126772D01*
X310011Y126967D01*
X310500Y127750D01*
Y143456D01*
X319500D01*
X319500Y133000D01*
D02*
G37*
D10*
X985500Y540980D02*
D03*
Y607020D02*
D03*
X840750Y472480D02*
D03*
Y538520D02*
D03*
X403750Y584230D02*
D03*
Y650270D02*
D03*
X923250Y753020D02*
D03*
Y686980D02*
D03*
X778500Y685770D02*
D03*
Y619730D02*
D03*
D11*
X269500Y155250D02*
D03*
Y182750D02*
D03*
X428750Y310000D02*
D03*
Y337500D02*
D03*
X460750Y237500D02*
D03*
Y265000D02*
D03*
X362000Y223750D02*
D03*
Y196250D02*
D03*
X421250Y154750D02*
D03*
Y182250D02*
D03*
X391750Y153750D02*
D03*
Y181250D02*
D03*
D12*
X300250Y214500D02*
D03*
X327750D02*
D03*
X436500Y209750D02*
D03*
X464000D02*
D03*
X357250Y126000D02*
D03*
X384750D02*
D03*
X358250Y96500D02*
D03*
X385750D02*
D03*
D13*
X458250Y310500D02*
D03*
Y328000D02*
D03*
D14*
X654250Y633749D02*
D03*
Y616751D02*
D03*
D15*
X642750Y572250D02*
D03*
Y591250D02*
D03*
D16*
X434270Y434500D02*
D03*
X368230D02*
D03*
X343020Y525750D02*
D03*
X276980D02*
D03*
X525770Y526000D02*
D03*
X459730D02*
D03*
D17*
X651000Y707999D02*
D03*
Y736001D02*
D03*
X626000Y707999D02*
D03*
Y736001D02*
D03*
D18*
X573727Y339400D02*
D03*
X550070Y327085D02*
D03*
X726127Y339400D02*
D03*
X738442Y315743D02*
D03*
X562385Y303428D02*
D03*
X586042Y315743D02*
D03*
X573727Y339400D02*
D03*
X550070Y327085D02*
D03*
X519655Y311252D02*
D03*
X531970Y287595D02*
D03*
X508313Y275280D02*
D03*
X495998Y298937D02*
D03*
X648398D02*
D03*
X660713Y275280D02*
D03*
X684370Y287595D02*
D03*
X672055Y311252D02*
D03*
X702470Y327085D02*
D03*
X726127Y339400D02*
D03*
X738442Y315743D02*
D03*
X714785Y303428D02*
D03*
D19*
X298750Y100250D02*
D03*
X313750D02*
D03*
D20*
X412500Y257000D02*
D03*
D21*
X432500Y266750D02*
D03*
Y260250D02*
D03*
Y253750D02*
D03*
Y247250D02*
D03*
X392500D02*
D03*
Y253750D02*
D03*
Y260250D02*
D03*
Y266750D02*
D03*
D22*
X422250Y237000D02*
D03*
X415750D02*
D03*
X409250D02*
D03*
X402750D02*
D03*
Y277000D02*
D03*
X409250D02*
D03*
X415750D02*
D03*
X422250D02*
D03*
D23*
X312420Y157480D02*
D03*
D24*
X293620Y147570D02*
D03*
Y152400D02*
D03*
Y157480D02*
D03*
Y162560D02*
D03*
Y167390D02*
D03*
X331220Y167380D02*
D03*
Y162560D02*
D03*
Y157480D02*
D03*
Y152400D02*
D03*
Y147570D02*
D03*
D25*
X302510Y176280D02*
D03*
X307340D02*
D03*
X312420D02*
D03*
X317500D02*
D03*
X322330D02*
D03*
X322580Y138680D02*
D03*
X317500D02*
D03*
X312420D02*
D03*
X307340D02*
D03*
X302510D02*
D03*
D26*
X450000Y572500D02*
X520000D01*
X406500Y529000D02*
X450000Y572500D01*
X406500Y524000D02*
Y529000D01*
X389000Y527000D02*
Y548500D01*
X397500Y494250D02*
Y540250D01*
Y494250D02*
X410250Y481500D01*
X397500Y540250D02*
X403750Y546500D01*
X343250Y594250D02*
X389000Y548500D01*
X410250Y481500D02*
X652750D01*
X400000Y475250D02*
X664125D01*
X371250Y504000D02*
X400000Y475250D01*
X371250Y504000D02*
Y520500D01*
X338750Y450750D02*
X355000Y434500D01*
X368230D01*
X264250Y515250D02*
Y523750D01*
X365750Y526000D02*
X371250Y520500D01*
X520000Y572500D02*
X546000Y546500D01*
X270250Y594250D02*
X343250D01*
X546000Y546500D02*
X580500D01*
X442500Y526000D02*
X462270D01*
X418500Y502000D02*
X442500Y526000D01*
X418500Y499750D02*
Y502000D01*
X403750Y546500D02*
Y584230D01*
X343020Y526000D02*
X365750D01*
X733250Y352000D02*
Y358500D01*
X726127Y344877D02*
X733250Y352000D01*
X726127Y339400D02*
Y344877D01*
X613250Y367750D02*
X741000D01*
X749750Y334000D02*
Y359000D01*
X576500Y678750D02*
X596000D01*
X571250Y684000D02*
Y750250D01*
X562000Y759500D02*
X571250Y750250D01*
X545382Y759500D02*
X562000D01*
X571250Y684000D02*
X576500Y678750D01*
X329750Y194750D02*
X332250D01*
X411250Y211797D02*
X415750Y216297D01*
X411250Y206750D02*
Y211797D01*
X403750Y650270D02*
Y678250D01*
X395750Y686250D02*
X403750Y678250D01*
X395750Y686250D02*
Y688250D01*
X651000Y616751D02*
X654250Y613501D01*
X825250Y562000D02*
X840750Y546500D01*
X793500Y562000D02*
X825250D01*
X977250Y502250D02*
X985250Y510250D01*
X923250Y482000D02*
Y686980D01*
X797450Y406000D02*
X803750Y399700D01*
X653500Y406000D02*
X797450D01*
X646000Y398500D02*
X653500Y406000D01*
X900250Y591750D02*
X914500Y577500D01*
X791750Y591750D02*
X900250D01*
X878250Y437000D02*
X923250Y482000D01*
X603000Y442000D02*
X609750Y448750D01*
X603000Y398000D02*
Y442000D01*
X676900Y647900D02*
X691750D01*
X684050Y673300D02*
X691750D01*
X843800Y419250D02*
X849500Y424950D01*
X305250Y93750D02*
Y125772D01*
Y93750D02*
X311500Y87500D01*
X525770Y525750D02*
X538000D01*
X646750Y558750D02*
X648250Y557250D01*
X572250Y342250D02*
Y387250D01*
Y342250D02*
X575000Y339500D01*
X572250Y387250D02*
X592250Y407250D01*
Y459000D01*
X621000Y398500D02*
Y438000D01*
X607500Y385000D02*
X621000Y398500D01*
X607500Y373500D02*
Y385000D01*
X609750Y448750D02*
X639500D01*
X636500Y427000D02*
Y438250D01*
Y427000D02*
X644250Y419250D01*
X639500Y448750D02*
X645250Y443000D01*
Y434250D02*
Y443000D01*
Y434250D02*
X652250Y427250D01*
X807750D01*
X632000Y398000D02*
Y407750D01*
X644250Y419250D02*
X843800D01*
X573727Y339400D02*
Y343273D01*
X807750Y427250D02*
X840750Y460250D01*
Y475020D01*
X778250Y605250D02*
Y619730D01*
Y605250D02*
X791750Y591750D01*
X740192Y322192D02*
X751500Y333500D01*
X740192Y315243D02*
Y322192D01*
X322500Y139018D02*
Y140250D01*
Y139018D02*
X327250Y134268D01*
Y121250D02*
Y134268D01*
X322326Y167386D02*
X331216D01*
X366000Y157500D02*
X388000D01*
X360900Y152400D02*
X366000Y157500D01*
X305250Y125772D02*
X307340Y127862D01*
X357500Y99250D02*
Y129000D01*
X357250Y99000D02*
X357500Y99250D01*
X345750Y99000D02*
X357250D01*
X334250Y87500D02*
X345750Y99000D01*
X311500Y87500D02*
X334250D01*
X307340Y127862D02*
Y138684D01*
X313500Y103000D02*
Y107500D01*
X327250Y121250D01*
X264250Y523750D02*
X266500Y526000D01*
X276980D01*
X985520Y607020D02*
Y619770D01*
X988500Y622750D01*
X840750Y538520D02*
Y546500D01*
X988500Y622750D02*
X994750D01*
X607500Y373500D02*
X613250Y367750D01*
X741000D02*
X749750Y359000D01*
X274750Y323500D02*
X275648Y321200D01*
X322326Y167386D02*
Y176276D01*
X312420Y176280D02*
Y189670D01*
X351077Y238077D02*
Y252587D01*
X345500Y264500D02*
X355500Y254500D01*
X331216Y152400D02*
X360900D01*
X357706Y157206D02*
X367044Y166544D01*
X331216Y157206D02*
Y157480D01*
Y157206D02*
X357706D01*
X367044Y166544D02*
X401706D01*
X413500Y154750D01*
X417500D01*
X340500Y227500D02*
X351077Y238077D01*
X344956Y209294D02*
X345000Y209250D01*
X383250Y191750D02*
X411750D01*
X421250Y182250D01*
X344163Y259500D02*
X351077Y252587D01*
X277000Y267750D02*
X290000D01*
X298250Y259500D01*
X344163D01*
X275648Y287852D02*
Y321200D01*
Y287852D02*
X299000Y264500D01*
X345500D01*
X345000Y185000D02*
Y209250D01*
X340500Y183000D02*
Y227500D01*
X355500Y236753D02*
Y254500D01*
X344956Y209294D02*
Y226209D01*
X355500Y236753D01*
X322250Y222000D02*
X326000D01*
X272250Y240400D02*
X281150Y231500D01*
X312750D01*
X322250Y222000D01*
X340500Y183000D02*
X346000Y177500D01*
X391750D01*
X393750Y179500D01*
X373250Y181750D02*
X383250Y191750D01*
X345000Y185000D02*
X348250Y181750D01*
X373250D01*
X360500Y198934D02*
X362434Y197000D01*
X401500D01*
X411250Y206750D01*
X985250Y510250D02*
Y540980D01*
X923250Y753020D02*
Y755560D01*
X865250Y761250D02*
X917560D01*
X923250Y755560D01*
X664750Y669250D02*
X692975Y697475D01*
X648250Y557250D02*
X664750Y573750D01*
X669000Y658250D02*
X684050Y673300D01*
X662749Y557749D02*
X669000Y564000D01*
Y658250D01*
X673250Y562500D02*
X678250Y557500D01*
X673250Y562500D02*
Y644250D01*
X676900Y647900D01*
X664750Y573750D02*
Y669250D01*
X878250Y401747D02*
Y437000D01*
X863750Y381500D02*
X883750Y401500D01*
X764000Y361500D02*
X820500D01*
X620750Y376000D02*
X749500D01*
X764000Y361500D01*
X820500D02*
X840500Y381500D01*
X863750D01*
X863503Y387000D02*
X878250Y401747D01*
X639500Y387000D02*
X863503D01*
X632000Y407750D02*
X636750Y412500D01*
X863750D01*
X872250Y421000D01*
X883750Y401500D02*
Y432750D01*
X953250Y502250D01*
X977250D01*
X872250Y421000D02*
Y443500D01*
X914500Y485750D01*
Y577500D01*
X668000Y480000D02*
X670250Y477750D01*
X668000Y480000D02*
X669750D01*
X655000Y438000D02*
Y460250D01*
X538000Y525750D02*
X567000Y496750D01*
X688750D01*
X707000Y515000D01*
X646250Y469000D02*
X655000Y460250D01*
X664125Y475250D02*
X668875Y480000D01*
X652750Y481500D02*
X661500Y490250D01*
X682000D01*
X712500Y459750D01*
X477750Y469000D02*
X646250D01*
X434270Y434500D02*
X443250D01*
X477750Y469000D01*
X317500Y176280D02*
Y182500D01*
X329750Y194750D01*
X312420Y189670D02*
X316000Y193250D01*
D27*
X489750Y234000D02*
Y254250D01*
X479500Y264500D02*
X489750Y254250D01*
X479500Y264500D02*
Y280500D01*
X476000Y284000D02*
X479500Y280500D01*
X476000Y284000D02*
Y367500D01*
X467000Y376500D02*
X476000Y367500D01*
X489750Y234000D02*
X498000Y225750D01*
X531500D01*
X532000Y197000D02*
X538000Y203000D01*
X520750Y197000D02*
X532000D01*
X514750Y203000D02*
X520750Y197000D01*
X486750Y203000D02*
X514750D01*
X474750Y191000D02*
X486750Y203000D01*
X458750Y191000D02*
X474750D01*
X538000Y203000D02*
Y219250D01*
X450750Y199000D02*
X458750Y191000D01*
X447000Y253750D02*
X463250Y237500D01*
X432500Y253750D02*
X447000D01*
X588500Y254500D02*
X664250Y178750D01*
X536250Y254500D02*
X588500D01*
X521750Y240000D02*
X536250Y254500D01*
X536750Y239250D02*
X546500Y229500D01*
X590750D01*
X664250Y165250D02*
Y178750D01*
X345500Y395250D02*
X364250Y376500D01*
X467000D01*
X450750Y199000D02*
Y217750D01*
X531500Y225750D02*
X538000Y219250D01*
X415750Y216297D02*
Y237000D01*
X431500Y237000D02*
X450750Y217750D01*
X422750Y237000D02*
X431500D01*
X270510Y101600D02*
X271860Y100250D01*
X298750D01*
X367500Y143250D02*
X381750Y129000D01*
X339000Y127750D02*
Y131250D01*
X351000Y143250D01*
X367500D01*
X728000Y574000D02*
Y696250D01*
X733250Y701500D01*
X647000Y591000D02*
X654250Y598250D01*
Y603000D02*
Y613501D01*
Y598250D02*
Y603000D01*
X626000Y736001D02*
X639500Y749500D01*
X691750D01*
D28*
X465250Y265000D02*
X480750Y249500D01*
Y228750D02*
Y249500D01*
Y228750D02*
X497000Y212500D01*
X460750Y265000D02*
X465250D01*
X381750Y129000D02*
X385000D01*
X497000Y212500D02*
X526000D01*
X526750Y211750D01*
X412750Y117750D02*
X414000Y119000D01*
X403500Y117750D02*
X412750D01*
X385000Y99250D02*
X403500Y117750D01*
X463250Y209500D02*
Y237500D01*
Y209500D02*
X463500Y209250D01*
X457500Y330000D02*
X460000Y327500D01*
X457500Y330000D02*
Y348750D01*
X446250Y360000D02*
X457500Y348750D01*
X431000Y340250D02*
Y362000D01*
X427500Y336750D02*
X431000Y340250D01*
X400500Y209250D02*
X402750Y211500D01*
Y237000D01*
X723000Y737250D02*
X741500Y718750D01*
X650000Y707999D02*
X679250Y737250D01*
X723000D01*
X741500Y718750D02*
X797000D01*
D29*
X590750Y229500D02*
X592500Y231250D01*
X424250Y202250D02*
X431750Y209750D01*
X419250Y202250D02*
X424250D01*
X431750Y209750D02*
X436500D01*
X770500Y701500D02*
X778500Y693500D01*
X733250Y701500D02*
X770500D01*
X778500Y685770D02*
Y693500D01*
X422250Y247250D02*
X432500D01*
X385000Y129000D02*
X385750D01*
X409250Y237000D02*
Y253750D01*
X627500Y515750D02*
X632500Y520750D01*
Y562000D01*
X635500Y565000D01*
X642750Y572250D01*
X533705Y356045D02*
X542455D01*
X550070Y348430D01*
Y327085D02*
Y348430D01*
X930870Y689520D02*
Y742860D01*
X915630Y689520D02*
Y742860D01*
X786120Y622270D02*
Y675610D01*
X770880Y622270D02*
Y675610D01*
D30*
X370770Y434500D02*
Y449740D01*
Y419260D02*
Y434500D01*
X388510Y598200D02*
Y647730D01*
X396130Y586770D02*
Y640110D01*
X380890Y594390D02*
Y628680D01*
X403750Y594390D02*
Y647730D01*
X373270Y609630D02*
Y632490D01*
X388510Y647730D01*
X396130Y586770D02*
X411370D01*
X340480Y518130D02*
Y533370D01*
X523230Y518380D02*
Y533620D01*
X481320Y548860D02*
X515610D01*
X462270Y526000D02*
X515610D01*
X462270Y541240D02*
X511800D01*
X477510Y556480D02*
X500370D01*
X462270Y541240D02*
X477510Y556480D01*
X523230Y533620D02*
Y541240D01*
X515610Y548860D02*
X523230Y541240D01*
X469890Y518380D02*
X523230D01*
X955020Y558760D02*
X962640Y551140D01*
X1008360D02*
X1015980Y558760D01*
X955020Y566380D02*
Y589240D01*
X970260Y604480D01*
X1015980Y566380D02*
Y589240D01*
X1000740Y604480D02*
X1015980Y589240D01*
X962640Y551140D02*
Y585430D01*
X970260Y554950D02*
Y604480D01*
X977880Y543520D02*
Y596860D01*
X985500Y551140D02*
Y604480D01*
X993120Y543520D02*
Y596860D01*
X1000740Y554950D02*
Y604480D01*
X1008360Y551140D02*
Y585430D01*
X985500Y604480D02*
X1000740D01*
X970260D02*
X985500D01*
X962640Y551140D02*
X970260Y543520D01*
X977880D01*
X993120D01*
X1000740D01*
X1008360Y551140D01*
X810270Y490260D02*
X817890Y482640D01*
X863610D02*
X871230Y490260D01*
X810270Y497880D02*
Y520740D01*
X825510Y535980D01*
X871230Y497880D02*
Y520740D01*
X855990Y535980D02*
X871230Y520740D01*
X817890Y482640D02*
Y516930D01*
X825510Y486450D02*
Y535980D01*
X833130Y475020D02*
Y528360D01*
X840750Y482640D02*
Y535980D01*
X848370Y475020D02*
Y528360D01*
X855990Y486450D02*
Y535980D01*
X863610Y482640D02*
Y516930D01*
X840750Y535980D02*
X855990D01*
X825510D02*
X840750D01*
X817890Y482640D02*
X825510Y475020D01*
X833130D01*
X848370D01*
X855990D01*
X863610Y482640D01*
X416490Y404020D02*
X424110Y411640D01*
X416490Y464980D02*
X424110Y457360D01*
X386010Y404020D02*
X408870D01*
X370770Y419260D02*
X386010Y404020D01*
Y464980D02*
X408870D01*
X370770Y449740D02*
X386010Y464980D01*
X389820Y411640D02*
X424110D01*
X370770Y419260D02*
X420300D01*
X378390Y426880D02*
X431730D01*
X370770Y434500D02*
X424110D01*
X378390Y442120D02*
X431730D01*
X370770Y449740D02*
X420300D01*
X389820Y457360D02*
X424110D01*
Y411640D02*
X431730Y419260D01*
Y426880D01*
Y442120D02*
Y449740D01*
X424110Y457360D02*
X431730Y449740D01*
X325240Y495270D02*
X332860Y502890D01*
X325240Y556230D02*
X332860Y548610D01*
X294760Y495270D02*
X317620D01*
X279520Y510510D02*
X294760Y495270D01*
Y556230D02*
X317620D01*
X279520Y540990D02*
X294760Y556230D01*
X298570Y502890D02*
X332860D01*
X279520Y510510D02*
X329050D01*
X287140Y518130D02*
X340480D01*
X279520Y525750D02*
X332860D01*
X287140Y533370D02*
X340480D01*
X279520Y540990D02*
X329050D01*
X298570Y548610D02*
X332860D01*
X279520Y525750D02*
Y540990D01*
Y510510D02*
Y525750D01*
X332860Y502890D02*
X340480Y510510D01*
Y518130D01*
Y533370D02*
Y540990D01*
X332860Y548610D02*
X340480Y540990D01*
X507990Y495520D02*
X515610Y503140D01*
X507990Y556480D02*
X515610Y548860D01*
X477510Y495520D02*
X500370D01*
X462270Y510760D02*
X477510Y495520D01*
X481320Y503140D02*
X515610D01*
X462270Y510760D02*
X511800D01*
X469890Y533620D02*
X523230D01*
X462270Y526000D02*
Y541240D01*
Y510760D02*
Y526000D01*
X515610Y503140D02*
X523230Y510760D01*
Y518380D01*
X538844Y336274D02*
X542362Y329515D01*
X533705Y337895D02*
X538844Y336274D01*
X496530Y318543D02*
X533705Y337895D01*
X494910Y313404D02*
X496530Y318543D01*
X494910Y313404D02*
X498429Y306645D01*
X544399Y309099D02*
X554677Y305859D01*
X537640Y305581D02*
X544399Y309099D01*
X527363Y308821D02*
X537640Y305581D01*
X581435Y336969D02*
X588194Y340488D01*
X593333Y338868D01*
X607407Y311832D01*
X605787Y306693D02*
X607407Y311832D01*
X595648Y301415D02*
X605787Y306693D01*
X592408Y291138D02*
X595648Y301415D01*
X548474Y268267D02*
X592408Y291138D01*
X538196Y271508D02*
X548474Y268267D01*
X531437Y267989D02*
X538196Y271508D01*
X516021Y272850D02*
X531437Y267989D01*
X539678Y285165D02*
X543196Y278406D01*
X548335Y276785D01*
X585510Y296137D01*
X587130Y301276D01*
X583611Y308035D02*
X587130Y301276D01*
X564816Y311137D02*
X571297Y331692D01*
X503706Y296506D02*
X524262Y290025D01*
X656106Y296506D02*
X676662Y290025D01*
X717216Y311137D02*
X723697Y331692D01*
X669207Y329098D02*
X674485Y318960D01*
X669207Y329098D02*
X709762Y350210D01*
X714900Y348589D01*
X718419Y341830D01*
X696799Y309099D02*
X700040Y319377D01*
X690041Y305581D02*
X696799Y309099D01*
X686800Y295303D02*
X690041Y305581D01*
X736011Y308035D02*
X739530Y301276D01*
X737910Y296137D02*
X739530Y301276D01*
X700735Y276785D02*
X737910Y296137D01*
X695596Y278406D02*
X700735Y276785D01*
X692078Y285165D02*
X695596Y278406D01*
X648005Y270812D02*
X651385Y272572D01*
X642866Y272433D02*
X648005Y270812D01*
X627033Y302848D02*
X642866Y272433D01*
X627033Y302848D02*
X628653Y307987D01*
X669207Y329098D01*
X373270Y602010D02*
X380890Y594390D01*
X426610D02*
X434230Y602010D01*
Y609630D02*
Y632490D01*
X418990Y647730D02*
X434230Y632490D01*
X411370Y586770D02*
Y640110D01*
X418990Y598200D02*
Y647730D01*
X426610Y594390D02*
Y628680D01*
X403750Y647730D02*
X418990D01*
X388510D02*
X403750D01*
X380890Y594390D02*
X388510Y586770D01*
X396130D01*
X411370D02*
X418990D01*
X426610Y594390D01*
X923250Y697140D02*
Y750480D01*
X915630Y689520D02*
X930870D01*
X938490D01*
X892770Y704760D02*
X900390Y697140D01*
X946110D02*
X953730Y704760D01*
X892770Y712380D02*
Y735240D01*
X908010Y750480D01*
X953730Y712380D02*
Y735240D01*
X938490Y750480D02*
X953730Y735240D01*
X900390Y697140D02*
Y731430D01*
X908010Y700950D02*
Y750480D01*
X938490Y700950D02*
Y750480D01*
X946110Y697140D02*
Y731430D01*
X923250Y750480D02*
X938490D01*
X908010D02*
X923250D01*
X900390Y697140D02*
X908010Y689520D01*
X938490D02*
X946110Y697140D01*
X908010Y689520D02*
X915630D01*
X778500Y629890D02*
Y683230D01*
X770880Y622270D02*
X786120D01*
X793740D01*
X748020Y637510D02*
X755640Y629890D01*
X801360D02*
X808980Y637510D01*
X748020Y645130D02*
Y667990D01*
X763260Y683230D01*
X808980Y645130D02*
Y667990D01*
X793740Y683230D02*
X808980Y667990D01*
X755640Y629890D02*
Y664180D01*
X763260Y633700D02*
Y683230D01*
X793740Y633700D02*
Y683230D01*
X801360Y629890D02*
Y664180D01*
X778500Y683230D02*
X793740D01*
X763260D02*
X778500D01*
X755640Y629890D02*
X763260Y622270D01*
X793740D02*
X801360Y629890D01*
X763260Y622270D02*
X770880D01*
X431730Y426880D02*
Y442120D01*
D31*
X293250Y780750D02*
X321000D01*
Y657250D02*
Y780750D01*
X333000Y792750D01*
X269500Y182500D02*
Y195000D01*
X654250Y633749D02*
Y676500D01*
X650750Y680000D02*
X654250Y676500D01*
X650750Y680000D02*
Y707250D01*
X650000Y707999D02*
X650750Y707250D01*
X333000Y792750D02*
X831750D01*
X843500Y781000D01*
Y724000D02*
Y781000D01*
X838250Y718750D02*
X843500Y724000D01*
X797000Y718750D02*
X838250D01*
D32*
X696000Y549000D02*
Y588000D01*
X656000Y509000D02*
X696000Y549000D01*
X694250Y721350D02*
X713650D01*
X696000Y588000D02*
X718250Y610250D01*
Y716750D01*
X713650Y721350D02*
X718250Y716750D01*
X626000Y707999D02*
X651000Y732999D01*
Y736001D01*
X615751Y707999D02*
X626000D01*
X609500Y714250D02*
X615751Y707999D01*
X609500Y714250D02*
Y747750D01*
X604250Y753000D02*
X609500Y747750D01*
D33*
X340810Y162560D02*
X343750Y165500D01*
X348750D01*
X331216Y162560D02*
X340810D01*
D34*
X635000Y347980D02*
D03*
X279400Y685800D02*
D03*
X558800Y619760D02*
D03*
X553720Y396240D02*
D03*
X505460Y421640D02*
D03*
X294640Y629920D02*
D03*
X1038860Y678180D02*
D03*
Y449580D02*
D03*
X769620Y538480D02*
D03*
X1051560D02*
D03*
D35*
X384000Y316000D02*
D03*
X927100Y419100D02*
D03*
D36*
X270250Y594250D02*
D03*
X277000Y267750D02*
D03*
X274750Y323500D02*
D03*
D37*
X849500Y399550D02*
D03*
Y424950D02*
D03*
X803750Y374300D02*
D03*
Y399700D02*
D03*
X691750Y749500D02*
D03*
Y724100D02*
D03*
Y698700D02*
D03*
Y673300D02*
D03*
Y647900D02*
D03*
Y622500D02*
D03*
D38*
X272250Y242150D02*
D03*
X268250Y101600D02*
D03*
D39*
X272250Y216750D02*
D03*
X268250Y127000D02*
D03*
D40*
X635250Y188750D02*
D03*
D41*
Y118750D02*
D03*
X407250Y526250D02*
D03*
X389000Y527000D02*
D03*
X521750Y240000D02*
D03*
X664250Y165250D02*
D03*
X345500Y395250D02*
D03*
X338750Y450750D02*
D03*
X264250Y515250D02*
D03*
X536750Y239250D02*
D03*
X418500Y499750D02*
D03*
X592500Y231250D02*
D03*
X733250Y358500D02*
D03*
X596000Y678750D02*
D03*
X604250Y753000D02*
D03*
X332250Y194750D02*
D03*
X415750Y216297D02*
D03*
X419250Y202250D02*
D03*
X733250Y701500D02*
D03*
X728000Y574000D02*
D03*
X395750Y688250D02*
D03*
X793500Y562000D02*
D03*
X545382Y759500D02*
D03*
X414000Y119000D02*
D03*
X431000Y362000D02*
D03*
X446250Y360000D02*
D03*
X648250Y557250D02*
D03*
X678250Y557500D02*
D03*
X662749Y557749D02*
D03*
X592250Y459000D02*
D03*
X621000Y438000D02*
D03*
X636500Y438250D02*
D03*
X620750Y376000D02*
D03*
X603000Y398000D02*
D03*
X632000D02*
D03*
X580500Y546500D02*
D03*
X707000Y515000D02*
D03*
X712500Y459750D02*
D03*
X639500Y385750D02*
D03*
X655000Y438000D02*
D03*
X400500Y209250D02*
D03*
X646000Y398500D02*
D03*
X269000Y195500D02*
D03*
X865250Y761250D02*
D03*
X994750Y622750D02*
D03*
X533705Y356045D02*
D03*
X627500Y515750D02*
D03*
X350500Y165750D02*
D03*
X654250Y603000D02*
D03*
X669750Y480000D02*
D03*
X316000Y193250D02*
D03*
D42*
X460500Y291750D02*
D03*
X526750Y211750D02*
D03*
X292500Y130250D02*
D03*
X293250Y780750D02*
D03*
X321000Y657250D02*
D03*
X656000Y509000D02*
D03*
X316500Y124750D02*
D03*
X408000Y291250D02*
D03*
X437000Y287750D02*
D03*
X374500Y239500D02*
D03*
X339000Y127750D02*
D03*
X797000Y718750D02*
D03*
D43*
X304800Y165100D02*
D03*
X422660Y246840D02*
D03*
Y267160D02*
D03*
X412500Y246840D02*
D03*
Y267160D02*
D03*
X402340Y246840D02*
D03*
Y267160D02*
D03*
Y257000D02*
D03*
X412500D02*
D03*
X422660D02*
D03*
X320040Y149860D02*
D03*
Y157480D02*
D03*
Y165100D02*
D03*
X304800Y157480D02*
D03*
Y149860D02*
D03*
X312420Y165100D02*
D03*
Y149860D02*
D03*
Y157480D02*
D03*
D44*
X923250Y720000D02*
D03*
X778500Y652750D02*
D03*
M02*
