G04 Layer_Physical_Order=2*
G04 Layer_Color=12354094*
%FSLAX44Y44*%
%MOMM*%
G71*
G01*
G75*
G04:AMPARAMS|DCode=11|XSize=1.75mm|YSize=1.25mm|CornerRadius=0.3125mm|HoleSize=0mm|Usage=FLASHONLY|Rotation=0.000|XOffset=0mm|YOffset=0mm|HoleType=Round|Shape=RoundedRectangle|*
%AMROUNDEDRECTD11*
21,1,1.7500,0.6250,0,0,0.0*
21,1,1.1250,1.2500,0,0,0.0*
1,1,0.6250,0.5625,-0.3125*
1,1,0.6250,-0.5625,-0.3125*
1,1,0.6250,-0.5625,0.3125*
1,1,0.6250,0.5625,0.3125*
%
%ADD11ROUNDEDRECTD11*%
G04:AMPARAMS|DCode=12|XSize=1.75mm|YSize=1.25mm|CornerRadius=0.3125mm|HoleSize=0mm|Usage=FLASHONLY|Rotation=270.000|XOffset=0mm|YOffset=0mm|HoleType=Round|Shape=RoundedRectangle|*
%AMROUNDEDRECTD12*
21,1,1.7500,0.6250,0,0,270.0*
21,1,1.1250,1.2500,0,0,270.0*
1,1,0.6250,-0.3125,-0.5625*
1,1,0.6250,-0.3125,0.5625*
1,1,0.6250,0.3125,0.5625*
1,1,0.6250,0.3125,-0.5625*
%
%ADD12ROUNDEDRECTD12*%
G04:AMPARAMS|DCode=13|XSize=1.4mm|YSize=1.1mm|CornerRadius=0.275mm|HoleSize=0mm|Usage=FLASHONLY|Rotation=0.000|XOffset=0mm|YOffset=0mm|HoleType=Round|Shape=RoundedRectangle|*
%AMROUNDEDRECTD13*
21,1,1.4000,0.5500,0,0,0.0*
21,1,0.8500,1.1000,0,0,0.0*
1,1,0.5500,0.4250,-0.2750*
1,1,0.5500,-0.4250,-0.2750*
1,1,0.5500,-0.4250,0.2750*
1,1,0.5500,0.4250,0.2750*
%
%ADD13ROUNDEDRECTD13*%
%ADD14R,1.0000X1.1001*%
%ADD15R,1.5001X1.3000*%
%ADD17R,1.8001X1.5999*%
%ADD26C,0.2540*%
%ADD27C,0.4000*%
%ADD28C,0.6000*%
%ADD29C,0.3000*%
%ADD30C,0.4064*%
%ADD31C,0.8000*%
%ADD32C,0.5000*%
%ADD34C,2.5400*%
%ADD35C,4.5720*%
%ADD36C,1.5240*%
%ADD37O,3.0000X1.5000*%
%ADD38C,1.5000*%
%ADD39R,1.5000X1.5000*%
%ADD40R,1.0000X1.0000*%
%ADD41C,1.0000*%
%ADD42C,1.2000*%
%ADD43C,0.5000*%
%ADD44C,0.8000*%
%ADD45R,2.0000X2.0000*%
%ADD46R,1.5000X1.5000*%
%ADD47C,2.0000*%
%ADD48R,3.0000X2.5000*%
%ADD49R,4.0000X1.5000*%
G04:AMPARAMS|DCode=50|XSize=1.6mm|YSize=1.6mm|CornerRadius=0.4mm|HoleSize=0mm|Usage=FLASHONLY|Rotation=0.000|XOffset=0mm|YOffset=0mm|HoleType=Round|Shape=RoundedRectangle|*
%AMROUNDEDRECTD50*
21,1,1.6000,0.8000,0,0,0.0*
21,1,0.8000,1.6000,0,0,0.0*
1,1,0.8000,0.4000,-0.4000*
1,1,0.8000,-0.4000,-0.4000*
1,1,0.8000,-0.4000,0.4000*
1,1,0.8000,0.4000,0.4000*
%
%ADD50ROUNDEDRECTD50*%
%ADD51R,3.0000X4.0000*%
%ADD52R,4.0000X3.0000*%
%ADD53R,1.3000X1.5001*%
%ADD54R,1.1001X1.0000*%
%ADD55R,3.1999X1.1999*%
%ADD56R,1.5240X1.5240*%
%ADD57R,0.8000X0.9000*%
%ADD58R,1.5999X1.8001*%
%ADD59R,1.5000X0.4000*%
%ADD60R,0.5001X1.5001*%
%ADD61R,1.5001X0.5001*%
%ADD62R,1.1999X1.1999*%
%ADD63R,5.0000X2.5400*%
G04:AMPARAMS|DCode=64|XSize=1.4mm|YSize=1.1mm|CornerRadius=0.275mm|HoleSize=0mm|Usage=FLASHONLY|Rotation=270.000|XOffset=0mm|YOffset=0mm|HoleType=Round|Shape=RoundedRectangle|*
%AMROUNDEDRECTD64*
21,1,1.4000,0.5500,0,0,270.0*
21,1,0.8500,1.1000,0,0,270.0*
1,1,0.5500,-0.2750,-0.4250*
1,1,0.5500,-0.2750,0.4250*
1,1,0.5500,0.2750,0.4250*
1,1,0.5500,0.2750,-0.4250*
%
%ADD64ROUNDEDRECTD64*%
%ADD65R,1.5000X0.6000*%
%ADD66R,1.0000X1.4000*%
%ADD67R,1.5240X1.5240*%
%ADD68R,1.2000X1.2000*%
%ADD69R,1.4000X1.1500*%
%ADD70R,1.1000X1.2000*%
%ADD71R,2.8000X2.2000*%
%ADD72R,2.8000X2.8000*%
%ADD73R,2.5000X2.5000*%
%ADD74C,1.0000*%
%ADD75C,0.2000*%
G36*
X1067000Y539906D02*
X1065730Y539822D01*
X1065418Y542193D01*
X1063985Y545653D01*
X1061705Y548625D01*
X1058733Y550905D01*
X1055273Y552338D01*
X1051560Y552827D01*
X1047847Y552338D01*
X1044387Y550905D01*
X1041415Y548625D01*
X1039135Y545653D01*
X1037702Y542193D01*
X1037213Y538480D01*
X1037702Y534767D01*
X1039135Y531307D01*
X1041415Y528335D01*
X1044387Y526055D01*
X1047847Y524622D01*
X1051560Y524133D01*
X1055273Y524622D01*
X1058733Y526055D01*
X1061705Y528335D01*
X1063985Y531307D01*
X1065418Y534767D01*
X1065730Y537138D01*
X1067000Y537054D01*
Y382783D01*
X1066800Y382650D01*
X906780D01*
X906772Y382646D01*
X895568Y382157D01*
X884441Y380692D01*
X873484Y378263D01*
X862780Y374888D01*
X852412Y370593D01*
X842457Y365411D01*
X832991Y359381D01*
X824088Y352549D01*
X815813Y344967D01*
X808231Y336692D01*
X801399Y327789D01*
X795369Y318323D01*
X790187Y308368D01*
X785892Y298000D01*
X782517Y287296D01*
X780088Y276339D01*
X778623Y265212D01*
X778133Y254000D01*
X778130D01*
X778611Y252840D01*
X778614Y252834D01*
X779780Y252350D01*
X780000Y252203D01*
Y83750D01*
X723156D01*
X722630Y85020D01*
X737430Y99820D01*
X738099Y100820D01*
X738333Y102000D01*
X738333Y102000D01*
Y119606D01*
X756750D01*
Y158402D01*
X750333D01*
Y165635D01*
X751375D01*
X753189Y165996D01*
X754727Y167023D01*
X755754Y168561D01*
X756115Y170375D01*
Y176625D01*
X755754Y178439D01*
X754727Y179977D01*
X753189Y181004D01*
X751375Y181365D01*
X740125D01*
X738311Y181004D01*
X736773Y179977D01*
X735746Y178439D01*
X735385Y176625D01*
Y170375D01*
X735746Y168561D01*
X736773Y167023D01*
X738311Y165996D01*
X740125Y165635D01*
X744167D01*
Y158402D01*
X720333D01*
Y165885D01*
X721125D01*
X722939Y166246D01*
X724477Y167273D01*
X725504Y168811D01*
X725865Y170625D01*
Y176875D01*
X725504Y178689D01*
X724477Y180227D01*
X722939Y181254D01*
X721125Y181615D01*
X709875D01*
X708061Y181254D01*
X706523Y180227D01*
X705496Y178689D01*
X705135Y176875D01*
Y170625D01*
X705496Y168811D01*
X706523Y167273D01*
X708061Y166246D01*
X709875Y165885D01*
X714167D01*
Y158402D01*
X708106D01*
Y140106D01*
Y120856D01*
X708106Y119606D01*
X725284D01*
X725667Y119223D01*
Y105277D01*
X716223Y95833D01*
X614790D01*
Y106480D01*
X598250D01*
X581710D01*
Y95833D01*
X548025D01*
Y111274D01*
X529975D01*
Y98294D01*
X528802Y97808D01*
X524775Y101836D01*
Y111024D01*
X506725D01*
Y94977D01*
X522913D01*
X532870Y85020D01*
X532344Y83750D01*
X254000D01*
X253983Y131244D01*
X254199Y131403D01*
X255253Y131718D01*
X259226Y127745D01*
Y117976D01*
X269501D01*
X277988Y109488D01*
X279485Y108489D01*
X281250Y108137D01*
X304500D01*
X306265Y108489D01*
X307762Y109488D01*
X315558Y117285D01*
X316500Y117161D01*
X318464Y117420D01*
X320294Y118178D01*
X321866Y119384D01*
X323072Y120955D01*
X323830Y122786D01*
X323877Y123137D01*
X333056D01*
X333634Y122384D01*
X335206Y121178D01*
X337036Y120420D01*
X339000Y120161D01*
X340964Y120420D01*
X342794Y121178D01*
X344366Y122384D01*
X344944Y123137D01*
X363726D01*
Y115476D01*
X386774D01*
Y138524D01*
X363726D01*
Y132363D01*
X344944D01*
X344366Y133116D01*
X343613Y133694D01*
Y152339D01*
X350450Y159176D01*
X350500Y159170D01*
X352203Y159394D01*
X353790Y160051D01*
X355153Y161097D01*
X356199Y162460D01*
X356856Y164047D01*
X357080Y165750D01*
X356856Y167453D01*
X356199Y169040D01*
X355153Y170403D01*
X353790Y171449D01*
X352203Y172106D01*
X350500Y172330D01*
X348797Y172106D01*
X347210Y171449D01*
X345847Y170403D01*
X344801Y169040D01*
X344144Y167453D01*
X343920Y165750D01*
X343926Y165700D01*
X335738Y157512D01*
X334739Y156015D01*
X334387Y154250D01*
Y133694D01*
X333634Y133116D01*
X333056Y132363D01*
X319500D01*
X318233Y132111D01*
X316500Y132339D01*
X314536Y132080D01*
X312705Y131322D01*
X311134Y130116D01*
X309928Y128544D01*
X309170Y126714D01*
X308911Y124750D01*
X309035Y123808D01*
X302589Y117363D01*
X283161D01*
X277274Y123249D01*
Y136024D01*
X259849D01*
Y297570D01*
X263293Y301015D01*
X264671Y300597D01*
X264724Y300332D01*
X265669Y298919D01*
X267082Y297974D01*
X268750Y297642D01*
X277250D01*
X278918Y297974D01*
X280331Y298919D01*
X281276Y300332D01*
X281608Y302000D01*
Y307500D01*
X281276Y309168D01*
X280331Y310581D01*
X278918Y311526D01*
X277250Y311858D01*
X269921D01*
X261599Y320180D01*
Y351570D01*
X263671Y353643D01*
X264935Y353518D01*
X265169Y353169D01*
X266582Y352224D01*
X268250Y351892D01*
X276750D01*
X278418Y352224D01*
X279831Y353169D01*
X280776Y354582D01*
X281108Y356250D01*
Y361750D01*
X280776Y363418D01*
X279831Y364831D01*
X278418Y365776D01*
X276750Y366108D01*
X268250D01*
X266582Y365776D01*
X265169Y364831D01*
X264224Y363418D01*
X263892Y361750D01*
Y361620D01*
X262986Y361014D01*
X262986Y361014D01*
X256736Y354764D01*
X256118Y353840D01*
X255901Y352750D01*
X255901Y352750D01*
Y319000D01*
X255901Y319000D01*
X256118Y317910D01*
X256736Y316986D01*
X264696Y309025D01*
X264412Y307599D01*
X263000D01*
X263000Y307599D01*
X261910Y307382D01*
X260986Y306764D01*
X260986Y306764D01*
X255194Y300973D01*
X254380Y301162D01*
X253924Y301462D01*
X253750Y800083D01*
X254916Y801250D01*
X1067000D01*
Y539906D01*
D02*
G37*
%LPC*%
G36*
X485289Y796790D02*
X476020D01*
Y786520D01*
X485289D01*
Y796790D01*
D02*
G37*
G36*
X473479D02*
X464210D01*
Y786520D01*
X473479D01*
Y796790D01*
D02*
G37*
G36*
X485289Y783980D02*
X476020D01*
Y773709D01*
X485289D01*
Y783980D01*
D02*
G37*
G36*
X473479D02*
X464210D01*
Y773709D01*
X473479D01*
Y783980D01*
D02*
G37*
G36*
X349290Y776790D02*
X342020D01*
Y769520D01*
X349290D01*
Y776790D01*
D02*
G37*
G36*
X339480D02*
X332210D01*
Y769520D01*
X339480D01*
Y776790D01*
D02*
G37*
G36*
X512274Y795775D02*
X493227D01*
Y774725D01*
X500716D01*
X500820Y774569D01*
X509236Y766153D01*
X509155Y765602D01*
X508785Y764883D01*
X502273D01*
Y769524D01*
X488224D01*
Y756476D01*
X502273D01*
Y758717D01*
X508298D01*
X508683Y757447D01*
X508634Y757414D01*
X508634Y757414D01*
X500994Y749774D01*
X491474D01*
Y736726D01*
X505523D01*
Y746246D01*
X508553Y749275D01*
X509726Y748789D01*
Y739076D01*
Y732676D01*
Y726276D01*
Y716462D01*
X508553Y715976D01*
X505014Y719514D01*
X504090Y720132D01*
X503000Y720349D01*
X503000Y720349D01*
X486680D01*
X451264Y755764D01*
X450340Y756382D01*
X449250Y756599D01*
X449250Y756599D01*
X387000D01*
X385910Y756382D01*
X384986Y755764D01*
X384986Y755764D01*
X373320Y744099D01*
X351930D01*
X348274Y747755D01*
Y755774D01*
X333226D01*
Y740726D01*
Y720726D01*
X348274D01*
Y728995D01*
X351430Y732151D01*
X376750D01*
X376750Y732151D01*
X377840Y732368D01*
X378764Y732986D01*
X390430Y744651D01*
X445820D01*
X481236Y709236D01*
X481236Y709236D01*
X482160Y708618D01*
X483250Y708401D01*
X483250Y708401D01*
X499570D01*
X506053Y701919D01*
X505904Y701188D01*
X505576Y700649D01*
X477380D01*
X447514Y730514D01*
X446590Y731132D01*
X445500Y731349D01*
X445500Y731349D01*
X442023D01*
Y735024D01*
X427975D01*
Y721976D01*
X432150D01*
Y715524D01*
X430790D01*
Y716540D01*
X424020D01*
Y708000D01*
X422750D01*
Y706730D01*
X414710D01*
Y699460D01*
X414920D01*
X415726Y698524D01*
Y683476D01*
X421270D01*
X424686Y680060D01*
X424160Y678790D01*
X418771D01*
Y672520D01*
X425541D01*
Y676921D01*
X426783Y677477D01*
X427475Y676938D01*
Y664726D01*
X441523D01*
Y666651D01*
X452471D01*
X452471Y666651D01*
X453561Y666868D01*
X454486Y667486D01*
X475551Y688551D01*
X508710D01*
Y686270D01*
X518750D01*
Y685000D01*
X520020D01*
Y680460D01*
X524272D01*
X524758Y679287D01*
X522070Y676599D01*
X489500D01*
X489500Y676599D01*
X488410Y676382D01*
X487486Y675764D01*
X487486Y675764D01*
X470820Y659099D01*
X437000D01*
X435910Y658882D01*
X434986Y658264D01*
X434986Y658264D01*
X420486Y643764D01*
X419868Y642840D01*
X419651Y641750D01*
X419651Y641750D01*
Y626680D01*
X413320Y620349D01*
X404430D01*
X403274Y621505D01*
Y632524D01*
X388226D01*
Y617476D01*
Y597476D01*
X403274D01*
Y606245D01*
X405430Y608401D01*
X416750D01*
X416750Y608401D01*
X417840Y608618D01*
X418764Y609236D01*
X430764Y621236D01*
X431382Y622160D01*
X431599Y623250D01*
X431599Y623250D01*
Y638320D01*
X440430Y647151D01*
X474250D01*
X474250Y647151D01*
X475340Y647368D01*
X476264Y647986D01*
X492930Y664651D01*
X525500D01*
X525500Y664651D01*
X525908Y664732D01*
X526533Y663562D01*
X520738Y657767D01*
X520121Y656842D01*
X519904Y655752D01*
X519904Y655752D01*
Y633182D01*
X497070Y610349D01*
X478680D01*
X474524Y614505D01*
Y622274D01*
X459476D01*
Y607226D01*
Y587226D01*
X474524D01*
Y593745D01*
X479180Y598401D01*
X500500D01*
X500500Y598401D01*
X501590Y598618D01*
X502514Y599236D01*
X530639Y627361D01*
X531257Y628285D01*
X531474Y629375D01*
X531474Y629375D01*
Y651945D01*
X549188Y669660D01*
X554651D01*
Y668250D01*
X554651Y668250D01*
X554868Y667160D01*
X555486Y666236D01*
X563736Y657986D01*
X563736Y657986D01*
X564660Y657368D01*
X565750Y657151D01*
X565750Y657151D01*
X607070D01*
X612151Y652070D01*
Y647154D01*
X606486Y641488D01*
X605868Y640564D01*
X605702Y639728D01*
X601976D01*
Y625679D01*
Y608681D01*
X605651D01*
Y605000D01*
X605651Y605000D01*
X605868Y603910D01*
X606486Y602986D01*
X612151Y597320D01*
Y555385D01*
X604485Y547719D01*
X603868Y546795D01*
X603651Y545705D01*
X603651Y545705D01*
Y541776D01*
X602094D01*
Y554749D01*
X601821Y556124D01*
X601042Y557290D01*
X570291Y588041D01*
X569125Y588820D01*
X567750Y589093D01*
X550865D01*
Y591625D01*
X550504Y593439D01*
X549477Y594977D01*
X547939Y596004D01*
X546125Y596365D01*
X539875D01*
X538061Y596004D01*
X536523Y594977D01*
X535496Y593439D01*
X535135Y591625D01*
Y583216D01*
X522512Y570593D01*
X505000D01*
X503625Y570320D01*
X502459Y569541D01*
X494459Y561541D01*
X493680Y560375D01*
X493407Y559000D01*
Y558644D01*
X487856D01*
Y552056D01*
X476703D01*
X475133Y551744D01*
X473802Y550854D01*
X428599Y505651D01*
X427710Y504320D01*
X427397Y502750D01*
Y494615D01*
X427375D01*
X425561Y494254D01*
X424023Y493227D01*
X422996Y491689D01*
X422635Y489875D01*
Y478625D01*
X422996Y476811D01*
X424023Y475273D01*
X425561Y474246D01*
X427375Y473885D01*
X427397D01*
Y461020D01*
X426061Y460754D01*
X424523Y459727D01*
X423496Y458189D01*
X423135Y456375D01*
Y445125D01*
X423496Y443311D01*
X424523Y441773D01*
X425364Y441212D01*
X425591Y439643D01*
X411801Y425853D01*
X344865D01*
Y427375D01*
X344504Y429189D01*
X343477Y430727D01*
X342114Y431637D01*
X342139Y432351D01*
X342326Y432907D01*
X345500D01*
X346875Y433181D01*
X348041Y433959D01*
X356852Y442771D01*
X357500Y442642D01*
X363000D01*
X364668Y442974D01*
X366081Y443919D01*
X367026Y445332D01*
X367358Y447000D01*
Y455500D01*
X367026Y457168D01*
X366081Y458581D01*
X364668Y459526D01*
X363843Y459690D01*
Y463026D01*
X365274D01*
Y481074D01*
X347226D01*
Y463026D01*
X356657D01*
Y459690D01*
X355832Y459526D01*
X354419Y458581D01*
X353474Y457168D01*
X353142Y455500D01*
Y449224D01*
X344012Y440093D01*
X330250D01*
X328875Y439819D01*
X327709Y439041D01*
X322709Y434041D01*
X321931Y432875D01*
X321657Y431500D01*
Y410266D01*
X321931Y408891D01*
X322709Y407725D01*
X337725Y392709D01*
X338891Y391931D01*
X339992Y391711D01*
X340847Y390597D01*
X342210Y389551D01*
X343797Y388894D01*
X345500Y388670D01*
X347203Y388894D01*
X348790Y389551D01*
X350153Y390597D01*
X351199Y391960D01*
X351856Y393547D01*
X352080Y395250D01*
X351856Y396953D01*
X351199Y398540D01*
X350153Y399903D01*
X348790Y400949D01*
X347203Y401606D01*
X345500Y401830D01*
X343797Y401606D01*
X342210Y400949D01*
X340847Y399903D01*
X340703Y399894D01*
X328843Y411754D01*
Y413002D01*
X330113Y413387D01*
X330523Y412773D01*
X332061Y411746D01*
X333875Y411385D01*
X340125D01*
X341939Y411746D01*
X343477Y412773D01*
X344504Y414311D01*
X344865Y416125D01*
Y417647D01*
X413500D01*
X415070Y417960D01*
X416401Y418849D01*
X434401Y436849D01*
X435290Y438180D01*
X435603Y439750D01*
Y440679D01*
X435939Y440746D01*
X437477Y441773D01*
X438504Y443311D01*
X438865Y445125D01*
Y456375D01*
X438504Y458189D01*
X437477Y459727D01*
X435939Y460754D01*
X435603Y460821D01*
Y474355D01*
X436977Y475273D01*
X438004Y476811D01*
X438365Y478625D01*
Y489875D01*
X438004Y491689D01*
X436977Y493227D01*
X435603Y494145D01*
Y501051D01*
X478402Y543850D01*
X487856D01*
Y540356D01*
X526144D01*
Y545397D01*
X529000D01*
X530570Y545709D01*
X531901Y546599D01*
X538699Y553397D01*
X559801D01*
X564896Y548301D01*
Y518775D01*
X563475D01*
Y511790D01*
X562458D01*
Y508019D01*
X572499D01*
Y505479D01*
X562458D01*
Y501708D01*
X563475D01*
Y499511D01*
X562301Y499025D01*
X542514Y518811D01*
X541590Y519429D01*
X540500Y519646D01*
X540500Y519646D01*
X505297D01*
X504207Y519429D01*
X503283Y518811D01*
X503283Y518811D01*
X497736Y513264D01*
X497118Y512340D01*
X496901Y511250D01*
X496901Y511250D01*
Y505274D01*
X483726D01*
Y505250D01*
X483000D01*
Y479024D01*
X482976D01*
Y455976D01*
X506024D01*
Y456252D01*
X538500Y456642D01*
Y463900D01*
X563475D01*
Y461834D01*
X549001D01*
X549001Y461834D01*
X547821Y461599D01*
X546820Y460931D01*
X540223Y454333D01*
X532500D01*
X531320Y454099D01*
X530320Y453430D01*
X530320Y453430D01*
X522820Y445930D01*
X522151Y444930D01*
X521917Y443750D01*
X521917Y443750D01*
Y437500D01*
Y396524D01*
X506476D01*
Y373476D01*
X529524D01*
Y396524D01*
X528083D01*
Y437500D01*
Y442473D01*
X533777Y448167D01*
X541500D01*
X541500Y448167D01*
X542680Y448401D01*
X543680Y449070D01*
X550278Y455667D01*
X563475D01*
Y447792D01*
X562458D01*
Y444021D01*
X572499D01*
Y441481D01*
X562458D01*
Y438853D01*
X557274D01*
Y440774D01*
X546226D01*
Y428726D01*
X557274D01*
Y430647D01*
X568396D01*
Y405501D01*
X568709Y403931D01*
X569598Y402600D01*
X575897Y396301D01*
Y384750D01*
X576209Y383180D01*
X577099Y381849D01*
X584091Y374857D01*
X583863Y373288D01*
X583023Y372727D01*
X581996Y371189D01*
X581635Y369375D01*
Y363125D01*
X581996Y361311D01*
X583023Y359773D01*
X584561Y358746D01*
X586375Y358385D01*
X597625D01*
X599439Y358746D01*
X600977Y359773D01*
X602004Y361311D01*
X602365Y363125D01*
Y369375D01*
X602004Y371189D01*
X600977Y372727D01*
X599439Y373754D01*
X597625Y374115D01*
X596259D01*
X595901Y374651D01*
X584103Y386449D01*
Y398000D01*
X583791Y399570D01*
X582901Y400901D01*
X576602Y407200D01*
Y430647D01*
X584000D01*
X585570Y430960D01*
X586901Y431849D01*
X605449Y450397D01*
X654301D01*
X662647Y442051D01*
Y439626D01*
X661377Y439543D01*
X661356Y439703D01*
X660699Y441290D01*
X659653Y442653D01*
X658290Y443699D01*
X656703Y444356D01*
X655000Y444580D01*
X653297Y444356D01*
X651710Y443699D01*
X650347Y442653D01*
X649301Y441290D01*
X648644Y439703D01*
X648420Y438000D01*
X648644Y436297D01*
X649301Y434710D01*
X650347Y433347D01*
X651710Y432301D01*
X652151Y432118D01*
Y425774D01*
X641350D01*
Y433853D01*
X642199Y434960D01*
X642856Y436547D01*
X643080Y438250D01*
X642856Y439953D01*
X642199Y441540D01*
X641153Y442903D01*
X639790Y443949D01*
X638203Y444606D01*
X636500Y444830D01*
X634797Y444606D01*
X633210Y443949D01*
X631847Y442903D01*
X630801Y441540D01*
X630144Y439953D01*
X629920Y438250D01*
X630144Y436547D01*
X630801Y434960D01*
X631847Y433597D01*
X633210Y432551D01*
X634797Y431894D01*
X635652Y431781D01*
Y425774D01*
X633349D01*
Y428500D01*
X633132Y429590D01*
X632514Y430514D01*
X632514Y430514D01*
X627173Y435855D01*
X627356Y436297D01*
X627580Y438000D01*
X627356Y439703D01*
X626699Y441290D01*
X625653Y442653D01*
X624290Y443699D01*
X622703Y444356D01*
X621000Y444580D01*
X619297Y444356D01*
X617710Y443699D01*
X616347Y442653D01*
X615301Y441290D01*
X614644Y439703D01*
X614420Y438000D01*
X614644Y436297D01*
X615301Y434710D01*
X616347Y433347D01*
X617710Y432301D01*
X619297Y431644D01*
X621000Y431420D01*
X622703Y431644D01*
X623144Y431827D01*
X627651Y427320D01*
Y425774D01*
X586475D01*
Y407724D01*
X587651D01*
Y396750D01*
X587651Y396750D01*
X587868Y395660D01*
X588486Y394735D01*
X603901Y379320D01*
Y346930D01*
X602089Y345117D01*
X600977Y345227D01*
X599439Y346254D01*
X597625Y346615D01*
X586375D01*
X584561Y346254D01*
X583023Y345227D01*
X581996Y343689D01*
X581635Y341875D01*
Y339849D01*
X576394D01*
Y347070D01*
X576394Y347644D01*
X577376Y348340D01*
X577410D01*
Y357230D01*
X567250D01*
X557090D01*
Y348340D01*
X557124D01*
X558106Y347644D01*
X558106Y347070D01*
Y329356D01*
X576394D01*
Y334151D01*
X581928D01*
X581996Y333811D01*
X583023Y332273D01*
X584561Y331246D01*
X586375Y330885D01*
X597625D01*
X599439Y331246D01*
X600977Y332273D01*
X602004Y333811D01*
X602365Y335625D01*
Y337336D01*
X608764Y343736D01*
X608764Y343736D01*
X609382Y344660D01*
X609599Y345750D01*
Y380500D01*
X609382Y381590D01*
X608764Y382514D01*
X608764Y382514D01*
X600806Y390472D01*
X601163Y391325D01*
X601451Y391624D01*
X603000Y391420D01*
X604703Y391644D01*
X606290Y392301D01*
X607653Y393347D01*
X608699Y394710D01*
X609356Y396297D01*
X609580Y398000D01*
X610776Y398649D01*
X611151Y398395D01*
Y382750D01*
X611151Y382750D01*
X611368Y381660D01*
X611986Y380736D01*
X614577Y378144D01*
X614394Y377703D01*
X614170Y376000D01*
X614394Y374297D01*
X615051Y372710D01*
X616097Y371347D01*
X617460Y370301D01*
X619047Y369644D01*
X620750Y369420D01*
X622453Y369644D01*
X624040Y370301D01*
X625403Y371347D01*
X626449Y372710D01*
X627106Y374297D01*
X627330Y376000D01*
X627106Y377703D01*
X626449Y379290D01*
X625403Y380653D01*
X624219Y381562D01*
X624183Y381825D01*
X625204Y382697D01*
X625283Y382694D01*
X625500Y382651D01*
X625500Y382651D01*
X633722D01*
X633801Y382460D01*
X634847Y381097D01*
X636210Y380051D01*
X637797Y379394D01*
X639500Y379170D01*
X641203Y379394D01*
X642790Y380051D01*
X644153Y381097D01*
X645199Y382460D01*
X645856Y384047D01*
X646080Y385750D01*
X645856Y387453D01*
X645199Y389040D01*
X644153Y390403D01*
X643053Y391247D01*
X642947Y391329D01*
X643587Y392438D01*
X643669Y392404D01*
X644297Y392144D01*
X646000Y391920D01*
X647703Y392144D01*
X649290Y392801D01*
X650653Y393847D01*
X651699Y395210D01*
X652356Y396797D01*
X652580Y398500D01*
X652356Y400203D01*
X651699Y401790D01*
X650653Y403153D01*
X649348Y404154D01*
Y407724D01*
X658396D01*
Y392274D01*
X656226D01*
Y380226D01*
X667274D01*
Y392274D01*
X666602D01*
Y406708D01*
X669230D01*
Y416749D01*
Y426790D01*
X668138D01*
X667612Y428060D01*
X669651Y430099D01*
X670540Y431430D01*
X670853Y433000D01*
Y443750D01*
X670540Y445320D01*
X669651Y446651D01*
X660103Y456199D01*
Y502049D01*
X661373Y502575D01*
X668098Y495849D01*
X669429Y494960D01*
X671000Y494648D01*
X678460D01*
Y492020D01*
X688501D01*
X698541D01*
Y495790D01*
X697525D01*
Y503900D01*
X734499D01*
X734499Y503900D01*
X735589Y504117D01*
X736513Y504735D01*
X749180Y517401D01*
X767590D01*
X768710Y517040D01*
X768710Y516131D01*
Y511270D01*
X775250D01*
X781790D01*
X781790Y517040D01*
X782910Y517401D01*
X830226D01*
Y505227D01*
X865273D01*
Y509901D01*
X898227D01*
Y505227D01*
X933274D01*
Y520273D01*
X898227D01*
Y515599D01*
X865273D01*
Y520273D01*
X837505D01*
X835514Y522264D01*
X834590Y522882D01*
X833500Y523099D01*
X833499Y523099D01*
X771492D01*
X771408Y524369D01*
X773333Y524622D01*
X776793Y526055D01*
X779765Y528335D01*
X782045Y531307D01*
X783478Y534767D01*
X783967Y538480D01*
X783478Y542193D01*
X782045Y545653D01*
X779765Y548625D01*
X776793Y550905D01*
X773333Y552338D01*
X769620Y552827D01*
X765907Y552338D01*
X762447Y550905D01*
X759475Y548625D01*
X757195Y545653D01*
X755762Y542193D01*
X755273Y538480D01*
X755762Y534767D01*
X757195Y531307D01*
X759475Y528335D01*
X762447Y526055D01*
X765907Y524622D01*
X767831Y524369D01*
X767748Y523099D01*
X748000D01*
X746910Y522882D01*
X745986Y522264D01*
X745986Y522264D01*
X733319Y509598D01*
X712679D01*
X712052Y510868D01*
X712699Y511710D01*
X713356Y513297D01*
X713580Y515000D01*
X713356Y516703D01*
X712699Y518290D01*
X711653Y519653D01*
X710290Y520699D01*
X708703Y521356D01*
X707000Y521580D01*
X705297Y521356D01*
X703710Y520699D01*
X702347Y519653D01*
X701301Y518290D01*
X701015Y517599D01*
X697525D01*
Y518775D01*
X679476D01*
Y509349D01*
X677430D01*
X674599Y512180D01*
Y517570D01*
X689764Y532736D01*
X689764Y532736D01*
X690382Y533660D01*
X690599Y534750D01*
Y613398D01*
X699250D01*
X701606Y613708D01*
X703801Y614618D01*
X705686Y616064D01*
X707132Y617949D01*
X708042Y620144D01*
X708352Y622500D01*
X708042Y624856D01*
X707132Y627051D01*
X705686Y628936D01*
X703801Y630382D01*
X701606Y631292D01*
X699250Y631602D01*
X684250D01*
X681894Y631292D01*
X679699Y630382D01*
X677814Y628936D01*
X676368Y627051D01*
X675458Y624856D01*
X675148Y622500D01*
X675458Y620144D01*
X676368Y617949D01*
X677814Y616064D01*
X679699Y614618D01*
X681894Y613708D01*
X684250Y613398D01*
X684901D01*
Y561635D01*
X683631Y561204D01*
X682903Y562153D01*
X681540Y563199D01*
X679953Y563856D01*
X678250Y564080D01*
X676547Y563856D01*
X674960Y563199D01*
X673597Y562153D01*
X672551Y560790D01*
X671894Y559203D01*
X671670Y557500D01*
X671894Y555797D01*
X672077Y555355D01*
X668486Y551764D01*
X667868Y550840D01*
X667651Y549750D01*
X667651Y549750D01*
Y541776D01*
X665348D01*
Y551764D01*
X666039Y552050D01*
X667402Y553096D01*
X668448Y554459D01*
X669105Y556046D01*
X669329Y557749D01*
X669105Y559452D01*
X668448Y561039D01*
X667402Y562402D01*
X666039Y563448D01*
X664452Y564105D01*
X662749Y564329D01*
X661046Y564105D01*
X659459Y563448D01*
X658096Y562402D01*
X657050Y561039D01*
X656393Y559452D01*
X656169Y557749D01*
X656393Y556046D01*
X657050Y554459D01*
X658096Y553096D01*
X659459Y552050D01*
X659650Y551971D01*
Y541776D01*
X657349D01*
Y546999D01*
X657349Y547000D01*
X657132Y548090D01*
X656515Y549014D01*
X656515Y549014D01*
X652915Y552613D01*
X653949Y553960D01*
X654606Y555547D01*
X654830Y557250D01*
X654606Y558953D01*
X653949Y560540D01*
X652903Y561903D01*
X651540Y562949D01*
X649953Y563606D01*
X648250Y563830D01*
X646547Y563606D01*
X644960Y562949D01*
X643874Y562115D01*
X642604Y562529D01*
Y569726D01*
X644274D01*
Y581774D01*
X633226D01*
Y569726D01*
X634398D01*
Y541776D01*
X627540D01*
Y542791D01*
X623769D01*
Y532751D01*
X621229D01*
Y542791D01*
X617458D01*
X617349Y544016D01*
Y544071D01*
X623264Y549986D01*
X623264Y549986D01*
X623882Y550910D01*
X624099Y552000D01*
Y597070D01*
X630764Y603736D01*
X630764Y603736D01*
X631382Y604660D01*
X631599Y605750D01*
Y608681D01*
X635274D01*
Y622730D01*
Y625679D01*
Y639728D01*
X631454D01*
X631382Y640090D01*
X630764Y641014D01*
X630764Y641014D01*
X624099Y647680D01*
Y655750D01*
X624099Y655750D01*
X623882Y656840D01*
X623264Y657764D01*
X623264Y657764D01*
X612764Y668264D01*
X611840Y668882D01*
X610750Y669099D01*
X610750Y669099D01*
X601939D01*
X601912Y669162D01*
Y675975D01*
X620523D01*
Y695667D01*
X628461D01*
Y687770D01*
X649540D01*
Y695667D01*
X652723D01*
X665917Y682473D01*
Y663000D01*
X665917Y663000D01*
X666152Y661820D01*
X666820Y660820D01*
X670070Y657570D01*
X670070Y657570D01*
X671070Y656901D01*
X672250Y656667D01*
X672250Y656667D01*
X678765D01*
X679196Y655397D01*
X677814Y654336D01*
X676368Y652451D01*
X675458Y650256D01*
X675148Y647900D01*
X675458Y645544D01*
X676368Y643349D01*
X677814Y641464D01*
X679699Y640018D01*
X681894Y639108D01*
X684250Y638798D01*
X699250D01*
X701606Y639108D01*
X703801Y640018D01*
X705686Y641464D01*
X707132Y643349D01*
X708042Y645544D01*
X708352Y647900D01*
X708042Y650256D01*
X707132Y652451D01*
X705686Y654336D01*
X704304Y655397D01*
X704735Y656667D01*
X707500D01*
X707500Y656667D01*
X708680Y656901D01*
X709680Y657570D01*
X716277Y664167D01*
X784723D01*
X805570Y643320D01*
X805570Y643320D01*
X805976Y643049D01*
Y635225D01*
X825023D01*
X825023Y635225D01*
X826164Y634914D01*
X826460Y633430D01*
X827349Y632099D01*
X830000Y629448D01*
X829514Y628275D01*
X826976D01*
Y616336D01*
X825198Y614558D01*
X824024Y615044D01*
Y628275D01*
X807977D01*
Y623353D01*
X798524D01*
Y629775D01*
X779477D01*
Y608726D01*
X798524D01*
Y615147D01*
X807977D01*
Y610225D01*
X819205D01*
X819691Y609052D01*
X812695Y602055D01*
X811805Y600724D01*
X811493Y599154D01*
Y562904D01*
X811805Y561334D01*
X812695Y560003D01*
X821349Y551349D01*
X822680Y550460D01*
X824250Y550147D01*
X846000D01*
X847570Y550460D01*
X848901Y551349D01*
X853651Y556099D01*
X854540Y557430D01*
X854853Y559000D01*
Y562475D01*
X859773D01*
Y567417D01*
X879476D01*
Y561475D01*
X895524D01*
Y579525D01*
X890584D01*
Y585475D01*
X896024D01*
Y603525D01*
X879977D01*
Y585475D01*
X884417D01*
Y579525D01*
X879476D01*
Y573583D01*
X859773D01*
Y580525D01*
X855852D01*
Y585975D01*
X859773D01*
Y604025D01*
X848355D01*
X847869Y605198D01*
X849285Y606614D01*
X850285Y608110D01*
X850636Y609875D01*
Y635225D01*
X853024D01*
Y652765D01*
X854197Y653251D01*
X902397Y605051D01*
Y603525D01*
X898976D01*
Y585475D01*
X902907D01*
Y579525D01*
X898476D01*
Y561475D01*
X914523D01*
Y579525D01*
X910093D01*
Y585475D01*
X915023D01*
Y603525D01*
X910602D01*
Y606751D01*
X910290Y608321D01*
X909401Y609652D01*
X852274Y666778D01*
Y681024D01*
X833227D01*
X832197Y681605D01*
X826901Y686901D01*
X825570Y687791D01*
X824000Y688103D01*
X817894D01*
Y691897D01*
X823977D01*
Y689476D01*
X838026D01*
Y702524D01*
X823977D01*
Y700103D01*
X817894D01*
Y705394D01*
X812853D01*
Y707000D01*
X812541Y708570D01*
X811651Y709901D01*
X804381Y717171D01*
X804589Y718750D01*
X804330Y720714D01*
X803572Y722544D01*
X802366Y724116D01*
X800795Y725322D01*
X798964Y726080D01*
X797000Y726339D01*
X795036Y726080D01*
X793206Y725322D01*
X791634Y724116D01*
X790428Y722544D01*
X789670Y720714D01*
X789411Y718750D01*
X789670Y716786D01*
X790428Y714956D01*
X791634Y713384D01*
X793206Y712178D01*
X795036Y711420D01*
X797000Y711161D01*
X798579Y711369D01*
X803380Y706567D01*
X802894Y705394D01*
X791408D01*
X755925Y740877D01*
X754594Y741767D01*
X753024Y742079D01*
X707812D01*
X707185Y743349D01*
X708020Y744437D01*
X709032Y746879D01*
X709209Y748230D01*
X691750D01*
X674291D01*
X674469Y746879D01*
X675480Y744437D01*
X676315Y743349D01*
X675688Y742079D01*
X671973D01*
X669901Y744152D01*
X668570Y745041D01*
X667000Y745353D01*
X662524D01*
Y753024D01*
X641476D01*
Y747603D01*
X632024D01*
Y752524D01*
X612049D01*
X610884Y752979D01*
X610739Y753696D01*
X610606Y754703D01*
X609949Y756290D01*
X608903Y757653D01*
X607540Y758699D01*
X605953Y759356D01*
X604608Y759533D01*
X604155Y760440D01*
X604111Y760832D01*
X609180Y765901D01*
X772070D01*
X785736Y752236D01*
X785736Y752236D01*
X786660Y751618D01*
X787750Y751401D01*
X809070D01*
X809476Y750995D01*
Y739976D01*
X824524D01*
Y759976D01*
Y775024D01*
X809476D01*
Y764005D01*
X809070Y763599D01*
X790930D01*
X777514Y777014D01*
X776590Y777632D01*
X775500Y777849D01*
X775500Y777849D01*
X605750D01*
X605750Y777849D01*
X604660Y777632D01*
X603736Y777014D01*
X603736Y777014D01*
X597770Y771049D01*
X593274D01*
Y771724D01*
X575226D01*
Y760355D01*
X574937Y760246D01*
X573956Y760143D01*
X573430Y760930D01*
X564180Y770180D01*
X563180Y770848D01*
X562000Y771083D01*
X562000Y771083D01*
X540000D01*
X540000Y771083D01*
X538820Y770848D01*
X537820Y770180D01*
X537820Y770180D01*
X532723Y765083D01*
X527774D01*
Y771724D01*
X512386D01*
X510558Y773552D01*
X511044Y774725D01*
X512274D01*
Y795775D01*
D02*
G37*
G36*
X486292Y770540D02*
X479521D01*
Y764270D01*
X486292D01*
Y770540D01*
D02*
G37*
G36*
X476981D02*
X470211D01*
Y764270D01*
X476981D01*
Y770540D01*
D02*
G37*
G36*
X939274Y785774D02*
X916226D01*
Y763343D01*
X909274D01*
Y785774D01*
X886226D01*
Y762726D01*
X902599D01*
X903125Y761456D01*
X897443Y755774D01*
X886226D01*
Y732726D01*
X909274D01*
Y755774D01*
X910385Y756157D01*
X915115D01*
X916226Y755774D01*
Y732726D01*
X924667D01*
Y730750D01*
X924667Y730750D01*
X924902Y729570D01*
X925570Y728570D01*
X932917Y721223D01*
Y679524D01*
X925475D01*
Y673084D01*
X915024D01*
Y677524D01*
X903103D01*
Y689226D01*
X910274D01*
Y712274D01*
X887226D01*
Y689226D01*
X894897D01*
Y678540D01*
X890770D01*
Y669000D01*
Y659460D01*
X894897D01*
Y655524D01*
X892476D01*
Y638476D01*
X905524D01*
Y638916D01*
X925475D01*
Y632476D01*
X946525D01*
Y651523D01*
X925475D01*
Y645083D01*
X905524D01*
Y655524D01*
X903103D01*
Y660476D01*
X915024D01*
Y666917D01*
X925475D01*
Y660477D01*
X946525D01*
Y679524D01*
X939083D01*
Y697039D01*
X940353Y697565D01*
X963907Y674012D01*
Y486738D01*
X938012Y460843D01*
X887000D01*
X885625Y460569D01*
X884459Y459791D01*
X876762Y452093D01*
X811000D01*
X809625Y451819D01*
X808459Y451041D01*
X790887Y433468D01*
X766625D01*
X765250Y433195D01*
X764084Y432416D01*
X656512Y324843D01*
X482250D01*
X480875Y324570D01*
X479709Y323791D01*
X473209Y317291D01*
X472430Y316125D01*
X472157Y314750D01*
Y287320D01*
X457930Y273093D01*
X443000D01*
X441625Y272819D01*
X440459Y272041D01*
X429209Y260791D01*
X428430Y259625D01*
X428157Y258250D01*
Y226988D01*
X421829Y220660D01*
X420561Y220743D01*
X420403Y220950D01*
X419040Y221996D01*
X417453Y222653D01*
X415750Y222877D01*
X414047Y222653D01*
X412460Y221996D01*
X411097Y220950D01*
X410051Y219587D01*
X409394Y218000D01*
X409170Y216297D01*
X409394Y214594D01*
X410051Y213007D01*
X411097Y211644D01*
X412460Y210598D01*
X414047Y209941D01*
X415750Y209717D01*
X417453Y209941D01*
X419040Y210598D01*
X420403Y211644D01*
X421216Y212704D01*
X422547D01*
X423922Y212977D01*
X425088Y213756D01*
X434291Y222959D01*
X435070Y224125D01*
X435343Y225500D01*
Y256762D01*
X444488Y265907D01*
X459419D01*
X460794Y266180D01*
X461959Y266959D01*
X478291Y283291D01*
X479070Y284456D01*
X479343Y285831D01*
Y313262D01*
X483738Y317657D01*
X658000D01*
X659375Y317931D01*
X660541Y318709D01*
X768113Y426282D01*
X792375D01*
X793750Y426555D01*
X794916Y427334D01*
X812488Y444907D01*
X878250D01*
X879625Y445181D01*
X880791Y445959D01*
X888488Y453657D01*
X939500D01*
X940875Y453931D01*
X942041Y454709D01*
X970041Y482709D01*
X970819Y483875D01*
X971093Y485250D01*
Y675500D01*
X970819Y676875D01*
X970041Y678041D01*
X946093Y701988D01*
Y731511D01*
X946226Y732726D01*
X947363Y732726D01*
X969274D01*
Y755774D01*
X947333D01*
X946299Y755774D01*
X945819Y756875D01*
X945819Y756876D01*
X945041Y758041D01*
X940791Y762291D01*
X939625Y763070D01*
X939274Y763139D01*
Y785774D01*
D02*
G37*
G36*
X969274D02*
X946226D01*
Y762726D01*
X969274D01*
Y785774D01*
D02*
G37*
G36*
X349290Y766980D02*
X342020D01*
Y759710D01*
X349290D01*
Y766980D01*
D02*
G37*
G36*
X339480D02*
X332210D01*
Y759710D01*
X339480D01*
Y766980D01*
D02*
G37*
G36*
X486292Y761730D02*
X479521D01*
Y755460D01*
X486292D01*
Y761730D01*
D02*
G37*
G36*
X476981D02*
X470211D01*
Y755460D01*
X476981D01*
Y761730D01*
D02*
G37*
G36*
X699250Y759627D02*
X693020D01*
Y750770D01*
X709209D01*
X709032Y752121D01*
X708020Y754563D01*
X706411Y756661D01*
X704313Y758270D01*
X701871Y759282D01*
X699250Y759627D01*
D02*
G37*
G36*
X690480D02*
X684250D01*
X681629Y759282D01*
X679187Y758270D01*
X677089Y756661D01*
X675480Y754563D01*
X674469Y752121D01*
X674291Y750770D01*
X690480D01*
Y759627D01*
D02*
G37*
G36*
X293250Y788339D02*
X291286Y788080D01*
X289456Y787322D01*
X287884Y786116D01*
X286678Y784545D01*
X285920Y782714D01*
X285661Y780750D01*
X285920Y778786D01*
X286678Y776955D01*
X287618Y775731D01*
Y764024D01*
X281476D01*
Y744977D01*
X302525D01*
Y764024D01*
X298882D01*
Y775731D01*
X299822Y776955D01*
X300580Y778786D01*
X300839Y780750D01*
X300580Y782714D01*
X299822Y784545D01*
X298616Y786116D01*
X297045Y787322D01*
X295214Y788080D01*
X293250Y788339D01*
D02*
G37*
G36*
X489542Y750790D02*
X482771D01*
Y744520D01*
X489542D01*
Y750790D01*
D02*
G37*
G36*
X480231D02*
X473461D01*
Y744520D01*
X480231D01*
Y750790D01*
D02*
G37*
G36*
X489542Y741980D02*
X482771D01*
Y735710D01*
X489542D01*
Y741980D01*
D02*
G37*
G36*
X480231D02*
X473461D01*
Y735710D01*
X480231D01*
Y741980D01*
D02*
G37*
G36*
X426041Y736040D02*
X419271D01*
Y729770D01*
X426041D01*
Y736040D01*
D02*
G37*
G36*
X416731D02*
X409961D01*
Y729770D01*
X416731D01*
Y736040D01*
D02*
G37*
G36*
X825540D02*
X818270D01*
Y728770D01*
X825540D01*
Y736040D01*
D02*
G37*
G36*
X815730D02*
X808460D01*
Y728770D01*
X815730D01*
Y736040D01*
D02*
G37*
G36*
X426041Y727230D02*
X419271D01*
Y720960D01*
X426041D01*
Y727230D01*
D02*
G37*
G36*
X416731D02*
X409961D01*
Y720960D01*
X416731D01*
Y727230D01*
D02*
G37*
G36*
X825540Y726230D02*
X818270D01*
Y718960D01*
X825540D01*
Y726230D01*
D02*
G37*
G36*
X815730D02*
X808460D01*
Y718960D01*
X815730D01*
Y726230D01*
D02*
G37*
G36*
X421480Y716540D02*
X414710D01*
Y709270D01*
X421480D01*
Y716540D01*
D02*
G37*
G36*
X302525Y736023D02*
X281476D01*
Y716976D01*
X302525D01*
Y720867D01*
X303918D01*
X319767Y705017D01*
X319767Y705017D01*
X321595Y703796D01*
X323750Y703368D01*
X333226D01*
Y700726D01*
X348274D01*
Y707199D01*
X348632Y709000D01*
X348274Y710801D01*
Y715774D01*
X333226D01*
Y714632D01*
X326083D01*
X310233Y730482D01*
X308406Y731703D01*
X306250Y732132D01*
X306250Y732132D01*
X302525D01*
Y736023D01*
D02*
G37*
G36*
X824524Y795024D02*
X809476D01*
Y779976D01*
X824524D01*
Y783397D01*
X833051D01*
X843896Y772552D01*
Y702524D01*
X840975D01*
Y689476D01*
X855023D01*
Y702524D01*
X852102D01*
Y774251D01*
X851789Y775821D01*
X850900Y777152D01*
X837651Y790401D01*
X836320Y791291D01*
X834750Y791603D01*
X824524D01*
Y795024D01*
D02*
G37*
G36*
X517480Y683730D02*
X508710D01*
Y680460D01*
X517480D01*
Y683730D01*
D02*
G37*
G36*
X649540Y685230D02*
X640270D01*
Y674959D01*
X649540D01*
Y685230D01*
D02*
G37*
G36*
X637730D02*
X628461D01*
Y674959D01*
X637730D01*
Y685230D01*
D02*
G37*
G36*
X416231Y678790D02*
X409461D01*
Y672520D01*
X416231D01*
Y678790D01*
D02*
G37*
G36*
X279400Y700147D02*
X275687Y699658D01*
X272227Y698225D01*
X269255Y695945D01*
X266975Y692973D01*
X265542Y689513D01*
X265053Y685800D01*
X265542Y682087D01*
X266975Y678627D01*
X269255Y675655D01*
X272227Y673375D01*
X275687Y671942D01*
X279400Y671453D01*
X283113Y671942D01*
X286573Y673375D01*
X289545Y675655D01*
X291825Y678627D01*
X293258Y682087D01*
X293747Y685800D01*
X293258Y689513D01*
X291825Y692973D01*
X289545Y695945D01*
X286573Y698225D01*
X283113Y699658D01*
X279400Y700147D01*
D02*
G37*
G36*
X888230Y678540D02*
X881960D01*
Y670270D01*
X888230D01*
Y678540D01*
D02*
G37*
G36*
X1038860Y692527D02*
X1035147Y692038D01*
X1031687Y690605D01*
X1028715Y688325D01*
X1026435Y685353D01*
X1025002Y681893D01*
X1024513Y678180D01*
X1025002Y674467D01*
X1026435Y671007D01*
X1028715Y668035D01*
X1031687Y665755D01*
X1035147Y664322D01*
X1038860Y663833D01*
X1042573Y664322D01*
X1046033Y665755D01*
X1049005Y668035D01*
X1051285Y671007D01*
X1052718Y674467D01*
X1053207Y678180D01*
X1052718Y681893D01*
X1051285Y685353D01*
X1049005Y688325D01*
X1046033Y690605D01*
X1042573Y692038D01*
X1038860Y692527D01*
D02*
G37*
G36*
X425541Y669980D02*
X418771D01*
Y663710D01*
X425541D01*
Y669980D01*
D02*
G37*
G36*
X416231D02*
X409461D01*
Y663710D01*
X416231D01*
Y669980D01*
D02*
G37*
G36*
X888230Y667730D02*
X881960D01*
Y659460D01*
X888230D01*
Y667730D01*
D02*
G37*
G36*
X321000Y664839D02*
X319036Y664580D01*
X317206Y663822D01*
X315634Y662616D01*
X314428Y661044D01*
X313670Y659214D01*
X313411Y657250D01*
X313670Y655286D01*
X314428Y653456D01*
X315634Y651884D01*
X316897Y650914D01*
Y628750D01*
X317209Y627180D01*
X318099Y625849D01*
X377349Y566599D01*
X378680Y565709D01*
X380250Y565397D01*
X415750D01*
X417320Y565709D01*
X418651Y566599D01*
X444151Y592099D01*
X445041Y593430D01*
X445353Y595000D01*
Y617051D01*
X456950Y628647D01*
X459476D01*
Y627226D01*
X474524D01*
Y642274D01*
X459476D01*
Y636853D01*
X455250D01*
X453680Y636540D01*
X452349Y635651D01*
X438349Y621651D01*
X437459Y620320D01*
X437147Y618750D01*
Y596699D01*
X414051Y573603D01*
X381950D01*
X325103Y630449D01*
Y650914D01*
X326366Y651884D01*
X327336Y653147D01*
X381801D01*
X388226Y646722D01*
Y637476D01*
X403274D01*
Y652524D01*
X394028D01*
X386401Y660151D01*
X385070Y661040D01*
X383500Y661353D01*
X327336D01*
X326366Y662616D01*
X324794Y663822D01*
X322964Y664580D01*
X321000Y664839D01*
D02*
G37*
G36*
X771539Y630790D02*
X762270D01*
Y620520D01*
X771539D01*
Y630790D01*
D02*
G37*
G36*
X759730D02*
X750460D01*
Y620520D01*
X759730D01*
Y630790D01*
D02*
G37*
G36*
X294640Y644267D02*
X290927Y643778D01*
X287467Y642345D01*
X284495Y640065D01*
X282215Y637093D01*
X280782Y633633D01*
X280293Y629920D01*
X280782Y626207D01*
X282215Y622747D01*
X284495Y619775D01*
X287467Y617495D01*
X290927Y616062D01*
X294640Y615573D01*
X298353Y616062D01*
X301813Y617495D01*
X304785Y619775D01*
X307065Y622747D01*
X308498Y626207D01*
X308987Y629920D01*
X308498Y633633D01*
X307065Y637093D01*
X304785Y640065D01*
X301813Y642345D01*
X298353Y643778D01*
X294640Y644267D01*
D02*
G37*
G36*
X771539Y617980D02*
X762270D01*
Y607710D01*
X771539D01*
Y617980D01*
D02*
G37*
G36*
X759730D02*
X750460D01*
Y607710D01*
X759730D01*
Y617980D01*
D02*
G37*
G36*
X558800Y634107D02*
X555087Y633618D01*
X551627Y632185D01*
X548655Y629905D01*
X546375Y626933D01*
X544942Y623473D01*
X544453Y619760D01*
X544942Y616047D01*
X546375Y612587D01*
X548655Y609615D01*
X551627Y607335D01*
X555087Y605902D01*
X558800Y605413D01*
X562513Y605902D01*
X565973Y607335D01*
X568945Y609615D01*
X571225Y612587D01*
X572658Y616047D01*
X573147Y619760D01*
X572658Y623473D01*
X571225Y626933D01*
X568945Y629905D01*
X565973Y632185D01*
X562513Y633618D01*
X558800Y634107D01*
D02*
G37*
G36*
X518625Y597401D02*
X516770D01*
Y587270D01*
X524401D01*
Y591625D01*
X523961Y593835D01*
X522709Y595709D01*
X520835Y596961D01*
X518625Y597401D01*
D02*
G37*
G36*
X514230D02*
X512375D01*
X510165Y596961D01*
X508291Y595709D01*
X507039Y593835D01*
X506599Y591625D01*
Y587270D01*
X514230D01*
Y597401D01*
D02*
G37*
G36*
X404290Y593540D02*
X397020D01*
Y586270D01*
X404290D01*
Y593540D01*
D02*
G37*
G36*
X394480D02*
X387210D01*
Y586270D01*
X394480D01*
Y593540D01*
D02*
G37*
G36*
X659290Y582790D02*
X654020D01*
Y577020D01*
X659290D01*
Y582790D01*
D02*
G37*
G36*
X651480D02*
X646210D01*
Y577020D01*
X651480D01*
Y582790D01*
D02*
G37*
G36*
X404290Y583730D02*
X397020D01*
Y576460D01*
X404290D01*
Y583730D01*
D02*
G37*
G36*
X394480D02*
X387210D01*
Y576460D01*
X394480D01*
Y583730D01*
D02*
G37*
G36*
X475540Y583290D02*
X468270D01*
Y576020D01*
X475540D01*
Y583290D01*
D02*
G37*
G36*
X465730D02*
X458460D01*
Y576020D01*
X465730D01*
Y583290D01*
D02*
G37*
G36*
X524401Y584730D02*
X516770D01*
Y574599D01*
X518625D01*
X520835Y575039D01*
X522709Y576291D01*
X523961Y578165D01*
X524401Y580375D01*
Y584730D01*
D02*
G37*
G36*
X514230D02*
X506599D01*
Y580375D01*
X507039Y578165D01*
X508291Y576291D01*
X510165Y575039D01*
X512375Y574599D01*
X514230D01*
Y584730D01*
D02*
G37*
G36*
X659290Y574480D02*
X654020D01*
Y568710D01*
X659290D01*
Y574480D01*
D02*
G37*
G36*
X651480D02*
X646210D01*
Y568710D01*
X651480D01*
Y574480D01*
D02*
G37*
G36*
X307875Y574401D02*
X303520D01*
Y566770D01*
X313651D01*
Y568625D01*
X313211Y570835D01*
X311959Y572709D01*
X310085Y573961D01*
X307875Y574401D01*
D02*
G37*
G36*
X300980D02*
X296625D01*
X294415Y573961D01*
X292541Y572709D01*
X291289Y570835D01*
X290849Y568625D01*
Y566770D01*
X300980D01*
Y574401D01*
D02*
G37*
G36*
X475540Y573480D02*
X468270D01*
Y566210D01*
X475540D01*
Y573480D01*
D02*
G37*
G36*
X465730D02*
X458460D01*
Y566210D01*
X465730D01*
Y573480D01*
D02*
G37*
G36*
X313651Y564230D02*
X303520D01*
Y556599D01*
X307875D01*
X310085Y557039D01*
X311959Y558291D01*
X313211Y560165D01*
X313651Y562375D01*
Y564230D01*
D02*
G37*
G36*
X300980D02*
X290849D01*
Y562375D01*
X291289Y560165D01*
X292541Y558291D01*
X294415Y557039D01*
X296625Y556599D01*
X300980D01*
Y564230D01*
D02*
G37*
G36*
X270250Y603473D02*
X267863Y603159D01*
X265639Y602237D01*
X263728Y600772D01*
X262263Y598861D01*
X261341Y596637D01*
X261027Y594250D01*
X261341Y591863D01*
X262263Y589638D01*
X263728Y587728D01*
X265639Y586263D01*
X267401Y585533D01*
Y568774D01*
X262726D01*
Y553727D01*
X277773D01*
Y568774D01*
X273099D01*
Y585533D01*
X274862Y586263D01*
X276772Y587728D01*
X278237Y589638D01*
X279159Y591863D01*
X279473Y594250D01*
X279159Y596637D01*
X278237Y598861D01*
X276772Y600772D01*
X274862Y602237D01*
X272637Y603159D01*
X270250Y603473D01*
D02*
G37*
G36*
X277773Y547773D02*
X262726D01*
Y532726D01*
X277773D01*
Y537401D01*
X291885D01*
Y534875D01*
X292246Y533061D01*
X293273Y531523D01*
X294811Y530496D01*
X296625Y530135D01*
X307875D01*
X309689Y530496D01*
X311227Y531523D01*
X312254Y533061D01*
X312615Y534875D01*
Y541125D01*
X312254Y542939D01*
X311227Y544477D01*
X309689Y545504D01*
X307875Y545865D01*
X296625D01*
X294811Y545504D01*
X293273Y544477D01*
X292352Y543098D01*
X277773D01*
Y547773D01*
D02*
G37*
G36*
X389000Y533580D02*
X387297Y533356D01*
X385710Y532699D01*
X384347Y531653D01*
X383301Y530290D01*
X382644Y528703D01*
X382420Y527000D01*
X382644Y525297D01*
X383301Y523710D01*
X384347Y522347D01*
X385710Y521301D01*
X387297Y520644D01*
X389000Y520420D01*
X390703Y520644D01*
X392290Y521301D01*
X393653Y522347D01*
X394462Y523401D01*
X401368D01*
X401551Y522960D01*
X402597Y521597D01*
X403960Y520551D01*
X405547Y519894D01*
X407250Y519670D01*
X408953Y519894D01*
X410540Y520551D01*
X411903Y521597D01*
X412949Y522960D01*
X413606Y524547D01*
X413830Y526250D01*
X413606Y527953D01*
X412949Y529540D01*
X411903Y530903D01*
X410540Y531949D01*
X408953Y532606D01*
X407250Y532830D01*
X405547Y532606D01*
X403960Y531949D01*
X402597Y530903D01*
X401551Y529540D01*
X401368Y529099D01*
X395192D01*
X394699Y530290D01*
X393653Y531653D01*
X392290Y532699D01*
X390703Y533356D01*
X389000Y533580D01*
D02*
G37*
G36*
X781790Y508730D02*
X776520D01*
Y502960D01*
X781790D01*
Y508730D01*
D02*
G37*
G36*
X773980D02*
X768710D01*
Y502960D01*
X773980D01*
Y508730D01*
D02*
G37*
G36*
X282789Y500290D02*
X275520D01*
Y493020D01*
X282789D01*
Y500290D01*
D02*
G37*
G36*
X272980D02*
X265711D01*
Y493020D01*
X272980D01*
Y500290D01*
D02*
G37*
G36*
X788040Y499540D02*
X779770D01*
Y492520D01*
X788040D01*
Y499540D01*
D02*
G37*
G36*
X777230D02*
X768960D01*
Y492520D01*
X777230D01*
Y499540D01*
D02*
G37*
G36*
X766774Y516024D02*
X755726D01*
Y512005D01*
X729321Y485600D01*
X699766D01*
X698541Y485709D01*
Y489479D01*
X688501D01*
X678460D01*
Y485709D01*
X679476D01*
Y478726D01*
Y471848D01*
X678206Y471322D01*
X674389Y475139D01*
X674403Y475347D01*
X675449Y476710D01*
X676106Y478297D01*
X676330Y480000D01*
X676106Y481703D01*
X675449Y483290D01*
X674403Y484653D01*
X673040Y485699D01*
X671453Y486356D01*
X669750Y486580D01*
X668047Y486356D01*
X666460Y485699D01*
X665097Y484653D01*
X664051Y483290D01*
X663394Y481703D01*
X663170Y480000D01*
X663394Y478297D01*
X664051Y476710D01*
X665097Y475347D01*
X666460Y474301D01*
X667701Y473787D01*
X667736Y473736D01*
X676737Y464735D01*
X676737Y464735D01*
X677661Y464117D01*
X678751Y463900D01*
X679476D01*
Y454726D01*
Y446725D01*
Y438727D01*
Y430726D01*
X697525D01*
Y439902D01*
X704319D01*
X723736Y420486D01*
X723736Y420486D01*
X724476Y419991D01*
Y413476D01*
X742524D01*
Y431524D01*
X724476D01*
Y429462D01*
X723303Y428976D01*
X707513Y444766D01*
X706589Y445383D01*
X705499Y445600D01*
X705499Y445600D01*
X697525D01*
Y447901D01*
X713820D01*
X719485Y442236D01*
X719485Y442236D01*
X720409Y441618D01*
X721499Y441401D01*
X721500Y441401D01*
X724476D01*
Y434476D01*
X742524D01*
Y452524D01*
X724476D01*
Y447099D01*
X722680D01*
X717014Y452764D01*
X716578Y453055D01*
X716408Y454428D01*
X716446Y454555D01*
X717153Y455097D01*
X718199Y456460D01*
X718856Y458047D01*
X719080Y459750D01*
X718856Y461453D01*
X718199Y463040D01*
X717153Y464403D01*
X715790Y465449D01*
X714203Y466106D01*
X712500Y466330D01*
X710797Y466106D01*
X709210Y465449D01*
X707847Y464403D01*
X706801Y463040D01*
X706205Y461599D01*
X697525D01*
Y471901D01*
X730820D01*
X745986Y456736D01*
X745986Y456736D01*
X746910Y456118D01*
X748000Y455901D01*
X748000Y455901D01*
X755226D01*
Y451476D01*
X766274D01*
Y458861D01*
X767018Y459461D01*
X768210Y458940D01*
Y458770D01*
X773480D01*
Y464540D01*
X773478D01*
X772992Y465713D01*
X775255Y467976D01*
X787024D01*
Y482524D01*
X788040Y482960D01*
Y489980D01*
X778500D01*
X768960D01*
Y488599D01*
X766197Y485837D01*
X765024Y486323D01*
Y498524D01*
X764099D01*
Y503976D01*
X766774D01*
Y516024D01*
D02*
G37*
G36*
X282789Y490480D02*
X275520D01*
Y483211D01*
X282789D01*
Y490480D01*
D02*
G37*
G36*
X272980D02*
X265711D01*
Y483211D01*
X272980D01*
Y490480D01*
D02*
G37*
G36*
X934290Y481289D02*
X917020D01*
Y474020D01*
X934290D01*
Y481289D01*
D02*
G37*
G36*
X914480D02*
X897211D01*
Y474020D01*
X914480D01*
Y481289D01*
D02*
G37*
G36*
X866289D02*
X849020D01*
Y474020D01*
X866289D01*
Y481289D01*
D02*
G37*
G36*
X846480D02*
X829210D01*
Y474020D01*
X846480D01*
Y481289D01*
D02*
G37*
G36*
X934290Y471480D02*
X917020D01*
Y464211D01*
X934290D01*
Y471480D01*
D02*
G37*
G36*
X914480D02*
X897211D01*
Y464211D01*
X914480D01*
Y471480D01*
D02*
G37*
G36*
X866289D02*
X849020D01*
Y464211D01*
X866289D01*
Y471480D01*
D02*
G37*
G36*
X846480D02*
X829210D01*
Y464211D01*
X846480D01*
Y471480D01*
D02*
G37*
G36*
X781290Y464540D02*
X776020D01*
Y458770D01*
X781290D01*
Y464540D01*
D02*
G37*
G36*
Y456230D02*
X776020D01*
Y450460D01*
X781290D01*
Y456230D01*
D02*
G37*
G36*
X773480D02*
X768210D01*
Y450460D01*
X773480D01*
Y456230D01*
D02*
G37*
G36*
X390274Y481274D02*
X372226D01*
Y463226D01*
X374157D01*
Y459690D01*
X373332Y459526D01*
X371919Y458581D01*
X370974Y457168D01*
X370642Y455500D01*
Y447000D01*
X370974Y445332D01*
X371919Y443919D01*
X373332Y442974D01*
X375000Y442642D01*
X380500D01*
X382168Y442974D01*
X383581Y443919D01*
X384526Y445332D01*
X384858Y447000D01*
Y447657D01*
X395635D01*
Y445125D01*
X395996Y443311D01*
X397023Y441773D01*
X398561Y440746D01*
X400375Y440385D01*
X406625D01*
X408439Y440746D01*
X409977Y441773D01*
X411004Y443311D01*
X411365Y445125D01*
Y456375D01*
X411004Y458189D01*
X409977Y459727D01*
X408439Y460754D01*
X406625Y461115D01*
X400375D01*
X398561Y460754D01*
X397023Y459727D01*
X395996Y458189D01*
X395635Y456375D01*
Y454843D01*
X384858D01*
Y455500D01*
X384526Y457168D01*
X383581Y458581D01*
X382168Y459526D01*
X381343Y459690D01*
Y463226D01*
X390274D01*
Y481274D01*
D02*
G37*
G36*
X544290Y441790D02*
X539020D01*
Y436020D01*
X544290D01*
Y441790D01*
D02*
G37*
G36*
X536480D02*
X531210D01*
Y436020D01*
X536480D01*
Y441790D01*
D02*
G37*
G36*
X1038860Y463927D02*
X1035147Y463438D01*
X1031687Y462005D01*
X1028715Y459725D01*
X1026435Y456753D01*
X1025002Y453293D01*
X1024513Y449580D01*
X1025002Y445867D01*
X1026435Y442407D01*
X1028715Y439435D01*
X1031687Y437155D01*
X1035147Y435722D01*
X1038860Y435233D01*
X1042573Y435722D01*
X1046033Y437155D01*
X1049005Y439435D01*
X1051285Y442407D01*
X1052718Y445867D01*
X1053207Y449580D01*
X1052718Y453293D01*
X1051285Y456753D01*
X1049005Y459725D01*
X1046033Y462005D01*
X1042573Y463438D01*
X1038860Y463927D01*
D02*
G37*
G36*
X277000Y438894D02*
X274020D01*
Y432020D01*
X282394D01*
Y433500D01*
X281983Y435564D01*
X280814Y437314D01*
X279064Y438483D01*
X277000Y438894D01*
D02*
G37*
G36*
X271480D02*
X268500D01*
X266436Y438483D01*
X264686Y437314D01*
X263517Y435564D01*
X263106Y433500D01*
Y432020D01*
X271480D01*
Y438894D01*
D02*
G37*
G36*
X544290Y433480D02*
X539020D01*
Y427710D01*
X544290D01*
Y433480D01*
D02*
G37*
G36*
X536480D02*
X531210D01*
Y427710D01*
X536480D01*
Y433480D01*
D02*
G37*
G36*
X282394Y429480D02*
X274020D01*
Y422606D01*
X277000D01*
X279064Y423017D01*
X280814Y424186D01*
X281983Y425936D01*
X282394Y428000D01*
Y429480D01*
D02*
G37*
G36*
X271480D02*
X263106D01*
Y428000D01*
X263517Y425936D01*
X264686Y424186D01*
X266436Y423017D01*
X268500Y422606D01*
X271480D01*
Y429480D01*
D02*
G37*
G36*
X675541Y426790D02*
X671770D01*
Y418019D01*
X675541D01*
Y426790D01*
D02*
G37*
G36*
X857000Y434052D02*
X842000D01*
X839644Y433742D01*
X837449Y432832D01*
X835564Y431386D01*
X834118Y429501D01*
X833208Y427306D01*
X832898Y424950D01*
X833208Y422594D01*
X834118Y420399D01*
X835564Y418514D01*
X837449Y417068D01*
X839644Y416158D01*
X842000Y415848D01*
X857000D01*
X859356Y416158D01*
X861551Y417068D01*
X863436Y418514D01*
X864882Y420399D01*
X865792Y422594D01*
X866102Y424950D01*
X865792Y427306D01*
X864882Y429501D01*
X863436Y431386D01*
X861551Y432832D01*
X859356Y433742D01*
X857000Y434052D01*
D02*
G37*
G36*
X281773Y478273D02*
X266726D01*
Y463226D01*
X281773D01*
Y469651D01*
X295070D01*
X306651Y458070D01*
Y432115D01*
X306375D01*
X304561Y431754D01*
X303023Y430727D01*
X301996Y429189D01*
X301635Y427375D01*
Y416125D01*
X301996Y414311D01*
X303023Y412773D01*
X304561Y411746D01*
X306375Y411385D01*
X312625D01*
X314439Y411746D01*
X315977Y412773D01*
X317004Y414311D01*
X317365Y416125D01*
Y427375D01*
X317004Y429189D01*
X315977Y430727D01*
X314439Y431754D01*
X312625Y432115D01*
X312349D01*
Y459250D01*
X312349Y459250D01*
X312132Y460340D01*
X311514Y461264D01*
X298265Y474514D01*
X297341Y475131D01*
X296250Y475348D01*
X296250Y475348D01*
X281773D01*
Y478273D01*
D02*
G37*
G36*
X505460Y435987D02*
X501747Y435498D01*
X498287Y434065D01*
X495315Y431785D01*
X493035Y428813D01*
X491602Y425353D01*
X491113Y421640D01*
X491602Y417927D01*
X493035Y414467D01*
X495315Y411495D01*
X498287Y409215D01*
X501747Y407782D01*
X505460Y407293D01*
X509173Y407782D01*
X512633Y409215D01*
X515605Y411495D01*
X517885Y414467D01*
X519318Y417927D01*
X519807Y421640D01*
X519318Y425353D01*
X517885Y428813D01*
X515605Y431785D01*
X512633Y434065D01*
X509173Y435498D01*
X505460Y435987D01*
D02*
G37*
G36*
X675541Y415479D02*
X671770D01*
Y406708D01*
X675541D01*
Y415479D01*
D02*
G37*
G36*
X857000Y409677D02*
X850770D01*
Y400820D01*
X866959D01*
X866782Y402171D01*
X865770Y404613D01*
X864161Y406711D01*
X862063Y408320D01*
X859621Y409332D01*
X857000Y409677D01*
D02*
G37*
G36*
X848230D02*
X842000D01*
X839379Y409332D01*
X836937Y408320D01*
X834839Y406711D01*
X833230Y404613D01*
X832218Y402171D01*
X832041Y400820D01*
X848230D01*
Y409677D01*
D02*
G37*
G36*
X927100Y443602D02*
X922320Y443131D01*
X917723Y441737D01*
X913487Y439473D01*
X909774Y436426D01*
X906727Y432713D01*
X904463Y428476D01*
X903069Y423880D01*
X902598Y419100D01*
X903069Y414320D01*
X904463Y409724D01*
X906727Y405487D01*
X909774Y401774D01*
X913487Y398727D01*
X917723Y396463D01*
X922320Y395069D01*
X927100Y394598D01*
X931880Y395069D01*
X936477Y396463D01*
X940713Y398727D01*
X944426Y401774D01*
X947473Y405487D01*
X949737Y409724D01*
X951131Y414320D01*
X951602Y419100D01*
X951131Y423880D01*
X949737Y428476D01*
X947473Y432713D01*
X944426Y436426D01*
X940713Y439473D01*
X936477Y441737D01*
X931880Y443131D01*
X927100Y443602D01*
D02*
G37*
G36*
X811250Y408802D02*
X796250D01*
X793894Y408492D01*
X791699Y407582D01*
X789814Y406136D01*
X788368Y404251D01*
X787458Y402056D01*
X787148Y399700D01*
X787458Y397344D01*
X788368Y395149D01*
X789814Y393264D01*
X791699Y391818D01*
X793894Y390908D01*
X796250Y390598D01*
X811250D01*
X813606Y390908D01*
X815801Y391818D01*
X817686Y393264D01*
X819132Y395149D01*
X820042Y397344D01*
X820352Y399700D01*
X820042Y402056D01*
X819132Y404251D01*
X817686Y406136D01*
X815801Y407582D01*
X813606Y408492D01*
X811250Y408802D01*
D02*
G37*
G36*
X866959Y398280D02*
X850770D01*
Y389423D01*
X857000D01*
X859621Y389768D01*
X862063Y390780D01*
X864161Y392389D01*
X865770Y394487D01*
X866782Y396929D01*
X866959Y398280D01*
D02*
G37*
G36*
X848230D02*
X832041D01*
X832218Y396929D01*
X833230Y394487D01*
X834839Y392389D01*
X836937Y390780D01*
X839379Y389768D01*
X842000Y389423D01*
X848230D01*
Y398280D01*
D02*
G37*
G36*
X682290Y393290D02*
X677020D01*
Y387520D01*
X682290D01*
Y393290D01*
D02*
G37*
G36*
X674480D02*
X669210D01*
Y387520D01*
X674480D01*
Y393290D01*
D02*
G37*
G36*
X553720Y410587D02*
X550007Y410098D01*
X546547Y408665D01*
X543575Y406385D01*
X541295Y403413D01*
X539862Y399953D01*
X539373Y396240D01*
X539862Y392527D01*
X541295Y389067D01*
X543575Y386095D01*
X546547Y383815D01*
X550007Y382382D01*
X553720Y381893D01*
X557433Y382382D01*
X560893Y383815D01*
X563865Y386095D01*
X566145Y389067D01*
X567578Y392527D01*
X568067Y396240D01*
X567578Y399953D01*
X566145Y403413D01*
X563865Y406385D01*
X560893Y408665D01*
X557433Y410098D01*
X553720Y410587D01*
D02*
G37*
G36*
X682290Y384980D02*
X677020D01*
Y379210D01*
X682290D01*
Y384980D01*
D02*
G37*
G36*
X674480D02*
X669210D01*
Y379210D01*
X674480D01*
Y384980D01*
D02*
G37*
G36*
X811250Y384427D02*
X805020D01*
Y375570D01*
X821209D01*
X821032Y376921D01*
X820020Y379363D01*
X818411Y381461D01*
X816313Y383070D01*
X813871Y384082D01*
X811250Y384427D01*
D02*
G37*
G36*
X802480D02*
X796250D01*
X793629Y384082D01*
X791187Y383070D01*
X789089Y381461D01*
X787480Y379363D01*
X786469Y376921D01*
X786291Y375570D01*
X802480D01*
Y384427D01*
D02*
G37*
G36*
X424290Y380790D02*
X403020D01*
Y372020D01*
X424290D01*
Y380790D01*
D02*
G37*
G36*
X400480D02*
X379210D01*
Y372020D01*
X400480D01*
Y380790D01*
D02*
G37*
G36*
X821209Y373030D02*
X805020D01*
Y364173D01*
X811250D01*
X813871Y364518D01*
X816313Y365530D01*
X818411Y367139D01*
X820020Y369237D01*
X821032Y371679D01*
X821209Y373030D01*
D02*
G37*
G36*
X802480D02*
X786291D01*
X786469Y371679D01*
X787480Y369237D01*
X789089Y367139D01*
X791187Y365530D01*
X793629Y364518D01*
X796250Y364173D01*
X802480D01*
Y373030D01*
D02*
G37*
G36*
X424290Y369480D02*
X403020D01*
Y360710D01*
X424290D01*
Y369480D01*
D02*
G37*
G36*
X400480D02*
X379210D01*
Y360710D01*
X400480D01*
Y369480D01*
D02*
G37*
G36*
X577410Y368660D02*
X568520D01*
Y359770D01*
X577410D01*
Y368660D01*
D02*
G37*
G36*
X565980D02*
X557090D01*
Y359770D01*
X565980D01*
Y368660D01*
D02*
G37*
G36*
X491375Y360651D02*
X489520D01*
Y350520D01*
X497151D01*
Y354875D01*
X496711Y357085D01*
X495459Y358959D01*
X493585Y360211D01*
X491375Y360651D01*
D02*
G37*
G36*
X486980D02*
X485125D01*
X482915Y360211D01*
X481041Y358959D01*
X479789Y357085D01*
X479349Y354875D01*
Y350520D01*
X486980D01*
Y360651D01*
D02*
G37*
G36*
X497151Y347980D02*
X489520D01*
Y337849D01*
X491375D01*
X493585Y338289D01*
X495459Y339541D01*
X496711Y341415D01*
X497151Y343625D01*
Y347980D01*
D02*
G37*
G36*
X486980D02*
X479349D01*
Y343625D01*
X479789Y341415D01*
X481041Y339541D01*
X482915Y338289D01*
X485125Y337849D01*
X486980D01*
Y347980D01*
D02*
G37*
G36*
X635000Y362327D02*
X631287Y361838D01*
X627827Y360405D01*
X624855Y358125D01*
X622575Y355153D01*
X621142Y351693D01*
X620653Y347980D01*
X621142Y344267D01*
X622575Y340807D01*
X624855Y337835D01*
X627827Y335555D01*
X631287Y334122D01*
X635000Y333633D01*
X638713Y334122D01*
X642173Y335555D01*
X645145Y337835D01*
X647425Y340807D01*
X648858Y344267D01*
X649347Y347980D01*
X648858Y351693D01*
X647425Y355153D01*
X645145Y358125D01*
X642173Y360405D01*
X638713Y361838D01*
X635000Y362327D01*
D02*
G37*
G36*
X277000Y420358D02*
X268500D01*
X266832Y420026D01*
X265419Y419081D01*
X264474Y417668D01*
X264142Y416000D01*
Y410500D01*
X264474Y408832D01*
X265419Y407419D01*
X266832Y406474D01*
X267387Y406364D01*
Y402760D01*
X265845Y402453D01*
X264017Y401233D01*
X262796Y399405D01*
X262368Y397250D01*
Y389250D01*
X262796Y387095D01*
X264017Y385267D01*
X265845Y384047D01*
X268000Y383618D01*
X276000D01*
X278155Y384047D01*
X279983Y385267D01*
X280656Y386275D01*
X282272Y386454D01*
X298637Y370089D01*
Y350018D01*
X297311Y349754D01*
X295773Y348727D01*
X294746Y347189D01*
X294385Y345375D01*
Y334125D01*
X294746Y332311D01*
X295773Y330773D01*
X297311Y329746D01*
X299125Y329385D01*
X305375D01*
X307189Y329746D01*
X308727Y330773D01*
X309754Y332311D01*
X310115Y334125D01*
Y345375D01*
X309754Y347189D01*
X308727Y348727D01*
X307863Y349304D01*
Y372000D01*
X307512Y373765D01*
X306512Y375262D01*
X285262Y396512D01*
X283765Y397511D01*
X282000Y397863D01*
X281510D01*
X281203Y399405D01*
X279983Y401233D01*
X278155Y402453D01*
X276613Y402760D01*
Y406142D01*
X277000D01*
X278668Y406474D01*
X280081Y407419D01*
X281026Y408832D01*
X281358Y410500D01*
Y416000D01*
X281026Y417668D01*
X280081Y419081D01*
X278668Y420026D01*
X277000Y420358D01*
D02*
G37*
G36*
X276750Y348608D02*
X268250D01*
X266582Y348276D01*
X265169Y347331D01*
X264224Y345918D01*
X263892Y344250D01*
Y338750D01*
X264224Y337082D01*
X265169Y335669D01*
X266582Y334724D01*
X268250Y334392D01*
X270647D01*
Y331698D01*
X270139Y331487D01*
X268228Y330022D01*
X266763Y328111D01*
X265841Y325887D01*
X265527Y323500D01*
X265841Y321113D01*
X266763Y318888D01*
X268228Y316978D01*
X270139Y315513D01*
X272363Y314591D01*
X274750Y314277D01*
X277137Y314591D01*
X279361Y315513D01*
X281272Y316978D01*
X282737Y318888D01*
X283659Y321113D01*
X283973Y323500D01*
X283659Y325887D01*
X282737Y328111D01*
X281272Y330022D01*
X279361Y331487D01*
X278853Y331698D01*
Y335015D01*
X279831Y335669D01*
X280776Y337082D01*
X281108Y338750D01*
Y344250D01*
X280776Y345918D01*
X279831Y347331D01*
X278418Y348276D01*
X276750Y348608D01*
D02*
G37*
G36*
X693540Y307790D02*
X679770D01*
Y294020D01*
X693540D01*
Y307790D01*
D02*
G37*
G36*
X677230D02*
X663460D01*
Y294020D01*
X677230D01*
Y307790D01*
D02*
G37*
G36*
X718000Y341373D02*
X714992Y340977D01*
X712188Y339816D01*
X709781Y337969D01*
X707934Y335562D01*
X706773Y332758D01*
X706377Y329750D01*
X706773Y326742D01*
X707934Y323938D01*
X709781Y321531D01*
X712188Y319684D01*
X714992Y318523D01*
X715191Y318496D01*
Y309499D01*
X709250D01*
Y293451D01*
X727299D01*
Y309499D01*
X721358D01*
Y318667D01*
X723812Y319684D01*
X726219Y321531D01*
X728066Y323938D01*
X729227Y326742D01*
X729623Y329750D01*
X729227Y332758D01*
X728066Y335562D01*
X726219Y337969D01*
X723812Y339816D01*
X721008Y340977D01*
X718000Y341373D01*
D02*
G37*
G36*
X743250Y340623D02*
X740242Y340227D01*
X737438Y339066D01*
X735031Y337219D01*
X733184Y334812D01*
X732023Y332008D01*
X731627Y329000D01*
X732023Y325992D01*
X733184Y323188D01*
X735031Y320781D01*
X737438Y318934D01*
X739667Y318011D01*
Y308023D01*
X733725D01*
Y291976D01*
X751775D01*
Y308023D01*
X745833D01*
Y317717D01*
X746258Y317773D01*
X749062Y318934D01*
X751469Y320781D01*
X753316Y323188D01*
X754477Y325992D01*
X754873Y329000D01*
X754477Y332008D01*
X753316Y334812D01*
X751469Y337219D01*
X749062Y339066D01*
X746258Y340227D01*
X743250Y340623D01*
D02*
G37*
G36*
X384000Y340502D02*
X379220Y340031D01*
X374623Y338637D01*
X370387Y336373D01*
X366674Y333326D01*
X363627Y329613D01*
X361363Y325377D01*
X359969Y320780D01*
X359498Y316000D01*
X359969Y311220D01*
X361363Y306623D01*
X363627Y302387D01*
X366674Y298675D01*
X370387Y295627D01*
X374623Y293363D01*
X379220Y291969D01*
X384000Y291498D01*
X388780Y291969D01*
X393377Y293363D01*
X397613Y295627D01*
X401325Y298675D01*
X404373Y302387D01*
X406637Y306623D01*
X408031Y311220D01*
X408502Y316000D01*
X408031Y320780D01*
X406637Y325377D01*
X404373Y329613D01*
X401325Y333326D01*
X397613Y336373D01*
X393377Y338637D01*
X388780Y340031D01*
X384000Y340502D01*
D02*
G37*
G36*
X408000Y298839D02*
X406036Y298580D01*
X404206Y297822D01*
X402634Y296616D01*
X401428Y295044D01*
X400670Y293214D01*
X400411Y291250D01*
X400495Y290611D01*
X399582Y289613D01*
X349274D01*
Y297184D01*
X296226D01*
Y268736D01*
X349274D01*
Y280387D01*
X401750D01*
X403515Y280739D01*
X405012Y281738D01*
X407058Y283785D01*
X408000Y283661D01*
X409964Y283920D01*
X411795Y284678D01*
X413366Y285884D01*
X414572Y287456D01*
X415330Y289286D01*
X415589Y291250D01*
X415330Y293214D01*
X414572Y295044D01*
X413366Y296616D01*
X411795Y297822D01*
X409964Y298580D01*
X408000Y298839D01*
D02*
G37*
G36*
X461125Y494615D02*
X454875D01*
X453061Y494254D01*
X451523Y493227D01*
X450496Y491689D01*
X450135Y489875D01*
Y478625D01*
X450496Y476811D01*
X451523Y475273D01*
X453061Y474246D01*
X453618Y474135D01*
Y419394D01*
X450356D01*
Y401106D01*
Y381106D01*
X453920D01*
Y357698D01*
X453246Y356689D01*
X452885Y354875D01*
Y343625D01*
X453246Y341811D01*
X453920Y340802D01*
Y295525D01*
X453170Y293715D01*
X452911Y291750D01*
X453170Y289786D01*
X453928Y287956D01*
X455134Y286384D01*
X456706Y285178D01*
X458536Y284420D01*
X460500Y284161D01*
X462465Y284420D01*
X464295Y285178D01*
X465867Y286384D01*
X467073Y287956D01*
X467831Y289786D01*
X468089Y291750D01*
X467831Y293715D01*
X467081Y295525D01*
Y340176D01*
X467227Y340273D01*
X468254Y341811D01*
X468615Y343625D01*
Y354875D01*
X468254Y356689D01*
X467227Y358227D01*
X467080Y358325D01*
Y381106D01*
X468644D01*
Y401106D01*
Y419394D01*
X464882D01*
Y475880D01*
X465504Y476811D01*
X465865Y478625D01*
Y489875D01*
X465504Y491689D01*
X464477Y493227D01*
X462939Y494254D01*
X461125Y494615D01*
D02*
G37*
G36*
X617561Y290080D02*
X608790D01*
Y282310D01*
X617561D01*
Y290080D01*
D02*
G37*
G36*
X606250D02*
X597479D01*
Y282310D01*
X606250D01*
Y290080D01*
D02*
G37*
G36*
X594561D02*
X585790D01*
Y282310D01*
X594561D01*
Y290080D01*
D02*
G37*
G36*
X583250D02*
X574479D01*
Y282310D01*
X583250D01*
Y290080D01*
D02*
G37*
G36*
X376524Y379524D02*
X333476D01*
Y361476D01*
X350670D01*
Y357580D01*
X341000D01*
X339297Y357356D01*
X337710Y356699D01*
X336347Y355653D01*
X330809Y350115D01*
X326625D01*
X324811Y349754D01*
X323273Y348727D01*
X322246Y347189D01*
X321885Y345375D01*
Y334125D01*
X322246Y332311D01*
X323273Y330773D01*
X324811Y329746D01*
X326625Y329385D01*
X332875D01*
X334689Y329746D01*
X336227Y330773D01*
X337254Y332311D01*
X337615Y334125D01*
Y338309D01*
X343726Y344420D01*
X409774D01*
X430420Y323774D01*
Y291525D01*
X429670Y289714D01*
X429411Y287750D01*
X429670Y285786D01*
X430428Y283955D01*
X431634Y282384D01*
X433205Y281178D01*
X435036Y280420D01*
X437000Y280161D01*
X438964Y280420D01*
X440794Y281178D01*
X442366Y282384D01*
X443572Y283955D01*
X444330Y285786D01*
X444589Y287750D01*
X444330Y289714D01*
X443580Y291525D01*
Y326500D01*
X443356Y328203D01*
X442699Y329790D01*
X441653Y331153D01*
X417153Y355653D01*
X415790Y356699D01*
X414203Y357356D01*
X412500Y357580D01*
X363830D01*
Y361476D01*
X376524D01*
Y379524D01*
D02*
G37*
G36*
X693540Y291480D02*
X679770D01*
Y277710D01*
X693540D01*
Y291480D01*
D02*
G37*
G36*
X677230D02*
X663460D01*
Y277710D01*
X677230D01*
Y291480D01*
D02*
G37*
G36*
X617561Y279770D02*
X608790D01*
Y272000D01*
X617561D01*
Y279770D01*
D02*
G37*
G36*
X606250D02*
X597479D01*
Y272000D01*
X606250D01*
Y279770D01*
D02*
G37*
G36*
X594561Y279770D02*
X585790D01*
Y272000D01*
X594561D01*
Y279770D01*
D02*
G37*
G36*
X583250D02*
X574479D01*
Y272000D01*
X583250D01*
Y279770D01*
D02*
G37*
G36*
X382540Y276790D02*
X377270D01*
Y271020D01*
X382540D01*
Y276790D01*
D02*
G37*
G36*
X374730D02*
X369460D01*
Y271020D01*
X374730D01*
Y276790D01*
D02*
G37*
G36*
X564024Y308524D02*
X530976D01*
Y280476D01*
X551657D01*
Y277524D01*
X546226D01*
Y268476D01*
X564274D01*
Y277524D01*
X558843D01*
Y280476D01*
X564024D01*
Y308524D01*
D02*
G37*
G36*
X527274D02*
X494226D01*
Y280476D01*
X497657D01*
Y277524D01*
X492226D01*
Y268476D01*
X510274D01*
Y277524D01*
X504843D01*
Y280476D01*
X527274D01*
Y308524D01*
D02*
G37*
G36*
X616545Y270065D02*
X598495D01*
Y261584D01*
X593545D01*
Y270065D01*
X575495D01*
Y254017D01*
X579417D01*
Y245027D01*
X572373Y237983D01*
X564274D01*
Y239424D01*
X546226D01*
Y230376D01*
X551147D01*
Y226724D01*
X546226D01*
Y217676D01*
X551147D01*
Y214024D01*
X546226D01*
Y213603D01*
X534095D01*
X534080Y213714D01*
X533322Y215544D01*
X532116Y217116D01*
X530545Y218322D01*
X528714Y219080D01*
X526750Y219339D01*
X525171Y219131D01*
X519201Y225101D01*
X517870Y225991D01*
X516300Y226303D01*
X510274D01*
Y226724D01*
X505353D01*
Y230376D01*
X510274D01*
Y239424D01*
X492226D01*
Y237983D01*
X488775D01*
Y240445D01*
X470725D01*
Y235254D01*
X464505D01*
Y239564D01*
X446455D01*
Y223516D01*
X464505D01*
Y229087D01*
X470725D01*
Y224397D01*
X475667D01*
Y217773D01*
X469725D01*
Y201726D01*
X487775D01*
Y217773D01*
X481833D01*
Y224397D01*
X488775D01*
Y231817D01*
X492226D01*
Y230376D01*
X497147D01*
Y226724D01*
X492226D01*
Y217676D01*
X510274D01*
Y218097D01*
X514600D01*
X519369Y213329D01*
X519161Y211750D01*
X519420Y209786D01*
X520178Y207955D01*
X521384Y206384D01*
X522956Y205178D01*
X524786Y204420D01*
X526750Y204161D01*
X528714Y204420D01*
X530545Y205178D01*
X530830Y205397D01*
X546226D01*
Y204976D01*
X564274D01*
Y214024D01*
X559353D01*
Y217676D01*
X564274D01*
Y226724D01*
X559353D01*
Y230376D01*
X564274D01*
Y231817D01*
X573650D01*
X573650Y231817D01*
X574830Y232052D01*
X575830Y232720D01*
X584680Y241570D01*
X584680Y241570D01*
X585349Y242570D01*
X585583Y243750D01*
Y254017D01*
X593545D01*
Y255417D01*
X598495D01*
Y254017D01*
X616545D01*
Y270065D01*
D02*
G37*
G36*
X565290Y265840D02*
X556520D01*
Y261570D01*
X565290D01*
Y265840D01*
D02*
G37*
G36*
X511290D02*
X502520D01*
Y261570D01*
X511290D01*
Y265840D01*
D02*
G37*
G36*
X553980D02*
X545210D01*
Y261570D01*
X553980D01*
Y265840D01*
D02*
G37*
G36*
X499980D02*
X491210D01*
Y261570D01*
X499980D01*
Y265840D01*
D02*
G37*
G36*
X277250Y294358D02*
X268750D01*
X267082Y294026D01*
X265669Y293081D01*
X264724Y291668D01*
X264392Y290000D01*
Y284500D01*
X264724Y282832D01*
X265669Y281419D01*
X267082Y280474D01*
X268750Y280142D01*
X268897D01*
Y272082D01*
X268091Y270137D01*
X267777Y267750D01*
X268091Y265363D01*
X269013Y263139D01*
X270478Y261228D01*
X272389Y259763D01*
X274613Y258841D01*
X277000Y258527D01*
X279387Y258841D01*
X281611Y259763D01*
X283522Y261228D01*
X284987Y263139D01*
X285909Y265363D01*
X286223Y267750D01*
X285909Y270137D01*
X284987Y272362D01*
X283522Y274272D01*
X281611Y275737D01*
X279387Y276659D01*
X277103Y276959D01*
Y280142D01*
X277250D01*
X278918Y280474D01*
X280331Y281419D01*
X281276Y282832D01*
X281608Y284500D01*
Y290000D01*
X281276Y291668D01*
X280331Y293081D01*
X278918Y294026D01*
X277250Y294358D01*
D02*
G37*
G36*
X709790Y266541D02*
X702020D01*
Y257770D01*
X709790D01*
Y266541D01*
D02*
G37*
G36*
X699480D02*
X691710D01*
Y257770D01*
X699480D01*
Y266541D01*
D02*
G37*
G36*
X770789Y266541D02*
X763020D01*
Y257770D01*
X770789D01*
Y266541D01*
D02*
G37*
G36*
X760480D02*
X752710D01*
Y257770D01*
X760480D01*
Y266541D01*
D02*
G37*
G36*
X382540Y268480D02*
X376000D01*
X369460D01*
Y262710D01*
Y257270D01*
X376000D01*
Y256000D01*
D01*
Y257270D01*
X382540D01*
Y262710D01*
Y268480D01*
D02*
G37*
G36*
X565290Y259030D02*
X556520D01*
Y254760D01*
X565290D01*
Y259030D01*
D02*
G37*
G36*
X553980D02*
X545210D01*
Y254760D01*
X553980D01*
Y259030D01*
D02*
G37*
G36*
X511290D02*
X502520D01*
Y254760D01*
X511290D01*
Y259030D01*
D02*
G37*
G36*
X499980D02*
X491210D01*
Y254760D01*
X499980D01*
Y259030D01*
D02*
G37*
G36*
X489791Y260460D02*
X481020D01*
Y252690D01*
X489791D01*
Y260460D01*
D02*
G37*
G36*
X478480D02*
X469709D01*
Y252690D01*
X478480D01*
Y260460D01*
D02*
G37*
G36*
X367524Y275774D02*
X356476D01*
X356250Y275548D01*
Y259113D01*
X349000D01*
X347235Y258762D01*
X345738Y257762D01*
X343241Y255264D01*
X296226D01*
Y242113D01*
X296000D01*
X294235Y241761D01*
X292738Y240762D01*
X281738Y229762D01*
X280739Y228265D01*
X280387Y226500D01*
Y225774D01*
X263226D01*
Y207726D01*
X280387D01*
Y141000D01*
X280739Y139235D01*
X281738Y137738D01*
X285783Y133694D01*
X285170Y132214D01*
X284911Y130250D01*
X285170Y128286D01*
X285928Y126456D01*
X287134Y124884D01*
X288706Y123678D01*
X290536Y122920D01*
X292500Y122661D01*
X294464Y122920D01*
X296294Y123678D01*
X297866Y124884D01*
X299072Y126456D01*
X299830Y128286D01*
X300089Y130250D01*
X299830Y132214D01*
X299072Y134045D01*
X297866Y135616D01*
X296294Y136822D01*
X295282Y137242D01*
X289613Y142911D01*
Y224589D01*
X295053Y230030D01*
X296226Y229543D01*
Y226816D01*
X349274D01*
Y234887D01*
X368556D01*
X369134Y234134D01*
X369637Y233747D01*
Y202268D01*
X368311Y202004D01*
X366773Y200977D01*
X365746Y199439D01*
X365385Y197625D01*
Y186375D01*
X365746Y184561D01*
X366773Y183023D01*
X368311Y181996D01*
X370125Y181635D01*
X376375D01*
X378189Y181996D01*
X379727Y183023D01*
X380754Y184561D01*
X381115Y186375D01*
Y197625D01*
X380754Y199439D01*
X379727Y200977D01*
X378863Y201554D01*
Y233364D01*
X379866Y234134D01*
X381072Y235706D01*
X381830Y237536D01*
X382089Y239500D01*
X381830Y241464D01*
X381072Y243295D01*
X379866Y244866D01*
X378294Y246072D01*
X376464Y246830D01*
X374500Y247089D01*
X372536Y246830D01*
X370705Y246072D01*
X369134Y244866D01*
X368556Y244113D01*
X349274D01*
Y248251D01*
X350911Y249887D01*
X356250D01*
Y249750D01*
X367524Y249976D01*
Y263726D01*
Y275774D01*
D02*
G37*
G36*
X382540Y254730D02*
X377270D01*
Y248960D01*
X382540D01*
Y254730D01*
D02*
G37*
G36*
X374730D02*
X369460D01*
Y248960D01*
X374730D01*
Y254730D01*
D02*
G37*
G36*
X709790Y255230D02*
X702020D01*
Y246459D01*
X709790D01*
Y255230D01*
D02*
G37*
G36*
X699480D02*
X691710D01*
Y246459D01*
X699480D01*
Y255230D01*
D02*
G37*
G36*
X770789Y255230D02*
X763020D01*
Y246459D01*
X770789D01*
Y255230D01*
D02*
G37*
G36*
X760480D02*
X752710D01*
Y246459D01*
X760480D01*
Y255230D01*
D02*
G37*
G36*
X564274Y252124D02*
X546226D01*
Y251038D01*
X545100Y250683D01*
X543920Y250448D01*
X542920Y249780D01*
X538660Y245520D01*
X538453Y245606D01*
X536750Y245830D01*
X535047Y245606D01*
X533460Y244949D01*
X532097Y243903D01*
X531051Y242540D01*
X530394Y240953D01*
X530170Y239250D01*
X530394Y237547D01*
X531051Y235960D01*
X532097Y234597D01*
X533460Y233551D01*
X535047Y232894D01*
X536750Y232670D01*
X538453Y232894D01*
X540040Y233551D01*
X541403Y234597D01*
X542449Y235960D01*
X543106Y237547D01*
X543330Y239250D01*
X543106Y240953D01*
X543020Y241160D01*
X545314Y243454D01*
X546226Y243076D01*
Y243076D01*
X564274D01*
Y252124D01*
D02*
G37*
G36*
X273520Y252109D02*
Y243420D01*
X282209D01*
X282032Y244771D01*
X281020Y247213D01*
X279411Y249311D01*
X277313Y250920D01*
X274871Y251932D01*
X273520Y252109D01*
D02*
G37*
G36*
X270980D02*
X269629Y251932D01*
X267187Y250920D01*
X265089Y249311D01*
X263480Y247213D01*
X262468Y244771D01*
X262291Y243420D01*
X270980D01*
Y252109D01*
D02*
G37*
G36*
X489791Y250150D02*
X481020D01*
Y242380D01*
X489791D01*
Y250150D01*
D02*
G37*
G36*
X478480D02*
X469709D01*
Y242380D01*
X478480D01*
Y250150D01*
D02*
G37*
G36*
X709790Y244541D02*
X702020D01*
Y235770D01*
X709790D01*
Y244541D01*
D02*
G37*
G36*
X699480D02*
X691711D01*
Y235770D01*
X699480D01*
Y244541D01*
D02*
G37*
G36*
X770789Y243791D02*
X763020D01*
Y235020D01*
X770789D01*
Y243791D01*
D02*
G37*
G36*
X760480D02*
X752710D01*
Y235020D01*
X760480D01*
Y243791D01*
D02*
G37*
G36*
X510274Y252124D02*
X492226D01*
Y243076D01*
X510274D01*
Y244517D01*
X512123D01*
X515341Y241299D01*
X515170Y240000D01*
X515394Y238297D01*
X516051Y236710D01*
X517097Y235347D01*
X518460Y234301D01*
X520047Y233644D01*
X521750Y233420D01*
X523453Y233644D01*
X525040Y234301D01*
X526403Y235347D01*
X527449Y236710D01*
X528106Y238297D01*
X528330Y240000D01*
X528106Y241703D01*
X527449Y243290D01*
X526403Y244653D01*
X525040Y245699D01*
X523453Y246356D01*
X521750Y246580D01*
X520047Y246356D01*
X519310Y246051D01*
X515580Y249780D01*
X514580Y250448D01*
X513400Y250683D01*
X513400Y250683D01*
X510274D01*
Y252124D01*
D02*
G37*
G36*
X282209Y240880D02*
X273520D01*
Y232191D01*
X274871Y232368D01*
X277313Y233380D01*
X279411Y234989D01*
X281020Y237087D01*
X282032Y239529D01*
X282209Y240880D01*
D02*
G37*
G36*
X270980D02*
X262291D01*
X262468Y239529D01*
X263480Y237087D01*
X265089Y234989D01*
X267187Y233380D01*
X269629Y232368D01*
X270980Y232191D01*
Y240880D01*
D02*
G37*
G36*
X653774Y256274D02*
X622726D01*
Y225226D01*
X653774D01*
Y256274D01*
D02*
G37*
G36*
X709790Y233230D02*
X702020D01*
Y224459D01*
X709790D01*
Y233230D01*
D02*
G37*
G36*
X699480D02*
X691711D01*
Y224459D01*
X699480D01*
Y233230D01*
D02*
G37*
G36*
X770789Y232480D02*
X763020D01*
Y223709D01*
X770789D01*
Y232480D01*
D02*
G37*
G36*
X760480D02*
X752710D01*
Y223709D01*
X760480D01*
Y232480D01*
D02*
G37*
G36*
X465521Y221581D02*
X456750D01*
Y213811D01*
X465521D01*
Y221581D01*
D02*
G37*
G36*
X454210D02*
X445439D01*
Y213811D01*
X454210D01*
Y221581D01*
D02*
G37*
G36*
X511290Y215040D02*
X502520D01*
Y210770D01*
X511290D01*
Y215040D01*
D02*
G37*
G36*
X499980D02*
X491210D01*
Y210770D01*
X499980D01*
Y215040D01*
D02*
G37*
G36*
X308625Y218151D02*
X304270D01*
Y210520D01*
X314401D01*
Y212375D01*
X313961Y214585D01*
X312709Y216459D01*
X310835Y217711D01*
X308625Y218151D01*
D02*
G37*
G36*
X301730D02*
X297375D01*
X295165Y217711D01*
X293291Y216459D01*
X292039Y214585D01*
X291599Y212375D01*
Y210520D01*
X301730D01*
Y218151D01*
D02*
G37*
G36*
X351375Y217901D02*
X347020D01*
Y210270D01*
X357151D01*
Y212125D01*
X356711Y214335D01*
X355459Y216209D01*
X353585Y217461D01*
X351375Y217901D01*
D02*
G37*
G36*
X344480D02*
X340125D01*
X337915Y217461D01*
X336041Y216209D01*
X334789Y214335D01*
X334349Y212125D01*
Y210270D01*
X344480D01*
Y217901D01*
D02*
G37*
G36*
X511290Y208230D02*
X502520D01*
Y203960D01*
X511290D01*
Y208230D01*
D02*
G37*
G36*
X499980D02*
X491210D01*
Y203960D01*
X499980D01*
Y208230D01*
D02*
G37*
G36*
X465521Y211271D02*
X456750D01*
Y203501D01*
X465521D01*
Y211271D01*
D02*
G37*
G36*
X454210D02*
X445439D01*
Y203501D01*
X454210D01*
Y211271D01*
D02*
G37*
G36*
X314401Y207980D02*
X304270D01*
Y200349D01*
X308625D01*
X310835Y200789D01*
X312709Y202041D01*
X313961Y203915D01*
X314401Y206125D01*
Y207980D01*
D02*
G37*
G36*
X301730D02*
X291599D01*
Y206125D01*
X292039Y203915D01*
X293291Y202041D01*
X295165Y200789D01*
X297375Y200349D01*
X301730D01*
Y207980D01*
D02*
G37*
G36*
X357151Y207730D02*
X347020D01*
Y200099D01*
X351375D01*
X353585Y200539D01*
X355459Y201791D01*
X356711Y203665D01*
X357151Y205875D01*
Y207730D01*
D02*
G37*
G36*
X344480D02*
X334349D01*
Y205875D01*
X334789Y203665D01*
X336041Y201791D01*
X337915Y200539D01*
X340125Y200099D01*
X344480D01*
Y207730D01*
D02*
G37*
G36*
X564274Y201324D02*
X546226D01*
Y199649D01*
X542550D01*
X542550Y199649D01*
X541460Y199432D01*
X540536Y198814D01*
X540536Y198814D01*
X536986Y195264D01*
X536368Y194340D01*
X536151Y193250D01*
X536151Y193250D01*
Y171024D01*
X529975D01*
Y154976D01*
X548025D01*
Y171024D01*
X541849D01*
Y192070D01*
X543730Y193951D01*
X546226D01*
Y192276D01*
X564274D01*
Y201324D01*
D02*
G37*
G36*
X727299Y290500D02*
X709250D01*
Y274452D01*
X715191D01*
Y265525D01*
X711725D01*
Y247475D01*
X716666D01*
Y243525D01*
X711726D01*
Y225475D01*
X716666D01*
Y209115D01*
X709875D01*
X708061Y208754D01*
X706523Y207727D01*
X705496Y206189D01*
X705135Y204375D01*
Y198125D01*
X705496Y196311D01*
X706523Y194773D01*
X708061Y193746D01*
X709875Y193385D01*
X721125D01*
X722939Y193746D01*
X724477Y194773D01*
X725504Y196311D01*
X725865Y198125D01*
Y204375D01*
X725504Y206189D01*
X724477Y207727D01*
X722939Y208754D01*
X722833Y208775D01*
Y225475D01*
X727773D01*
Y243525D01*
X722832D01*
Y247475D01*
X727773D01*
Y265525D01*
X721358D01*
Y274452D01*
X727299D01*
Y290500D01*
D02*
G37*
G36*
X751775Y289024D02*
X733725D01*
Y272976D01*
X739667D01*
Y265525D01*
X734726D01*
Y247475D01*
X739667D01*
Y242775D01*
X734726D01*
Y224725D01*
X737917D01*
Y208241D01*
X736773Y207477D01*
X735746Y205939D01*
X735385Y204125D01*
Y197875D01*
X735746Y196061D01*
X736773Y194523D01*
X738311Y193496D01*
X740125Y193135D01*
X751375D01*
X753189Y193496D01*
X754727Y194523D01*
X755754Y196061D01*
X756115Y197875D01*
Y204125D01*
X755754Y205939D01*
X754727Y207477D01*
X753189Y208504D01*
X751375Y208865D01*
X744084D01*
Y224725D01*
X750774D01*
Y242775D01*
X745834D01*
Y247475D01*
X750774D01*
Y265525D01*
X745834D01*
Y272976D01*
X751775D01*
Y289024D01*
D02*
G37*
G36*
X488791Y199790D02*
X480020D01*
Y192020D01*
X488791D01*
Y199790D01*
D02*
G37*
G36*
X477480D02*
X468709D01*
Y192020D01*
X477480D01*
Y199790D01*
D02*
G37*
G36*
X592500Y237830D02*
X590797Y237606D01*
X589210Y236949D01*
X587847Y235903D01*
X586801Y234540D01*
X586144Y232953D01*
X585920Y231250D01*
X586144Y229547D01*
X586801Y227960D01*
X587847Y226597D01*
X588907Y225784D01*
Y218274D01*
X582726D01*
Y187226D01*
X613774D01*
Y218274D01*
X596093D01*
Y225784D01*
X597153Y226597D01*
X598199Y227960D01*
X598856Y229547D01*
X599080Y231250D01*
X598856Y232953D01*
X598199Y234540D01*
X597153Y235903D01*
X595790Y236949D01*
X594203Y237606D01*
X592500Y237830D01*
D02*
G37*
G36*
X316000Y199830D02*
X314297Y199606D01*
X312710Y198949D01*
X311347Y197903D01*
X310301Y196540D01*
X309644Y194953D01*
X309420Y193250D01*
X309594Y191925D01*
X307284Y189615D01*
X297375D01*
X295561Y189254D01*
X294023Y188227D01*
X292996Y186689D01*
X292635Y184875D01*
Y178625D01*
X292996Y176811D01*
X294023Y175273D01*
X295561Y174246D01*
X297375Y173885D01*
X308625D01*
X310439Y174246D01*
X311977Y175273D01*
X313004Y176811D01*
X313365Y178625D01*
Y184875D01*
X313256Y185424D01*
X314675Y186844D01*
X316000Y186670D01*
X317703Y186894D01*
X319290Y187551D01*
X320653Y188597D01*
X321699Y189960D01*
X322356Y191547D01*
X322580Y193250D01*
X322356Y194953D01*
X321699Y196540D01*
X320653Y197903D01*
X319290Y198949D01*
X317703Y199606D01*
X316000Y199830D01*
D02*
G37*
G36*
X511290Y189640D02*
X502520D01*
Y185370D01*
X511290D01*
Y189640D01*
D02*
G37*
G36*
X499980D02*
X491210D01*
Y185370D01*
X499980D01*
Y189640D01*
D02*
G37*
G36*
X488791Y189480D02*
X480020D01*
Y181710D01*
X488791D01*
Y189480D01*
D02*
G37*
G36*
X477480D02*
X468709D01*
Y181710D01*
X477480D01*
Y189480D01*
D02*
G37*
G36*
X635250Y198860D02*
X632633Y198516D01*
X630195Y197506D01*
X628101Y195899D01*
X626494Y193805D01*
X625484Y191367D01*
X625140Y188750D01*
X625484Y186133D01*
X626494Y183695D01*
X628101Y181601D01*
X630195Y179994D01*
X632633Y178984D01*
X635250Y178640D01*
X637867Y178984D01*
X640305Y179994D01*
X642399Y181601D01*
X644006Y183695D01*
X645016Y186133D01*
X645360Y188750D01*
X645016Y191367D01*
X644006Y193805D01*
X642399Y195899D01*
X640305Y197506D01*
X637867Y198516D01*
X635250Y198860D01*
D02*
G37*
G36*
X511290Y182830D02*
X502520D01*
Y178560D01*
X511290D01*
Y182830D01*
D02*
G37*
G36*
X499980D02*
X491210D01*
Y178560D01*
X499980D01*
Y182830D01*
D02*
G37*
G36*
X332250Y201330D02*
X330547Y201106D01*
X328960Y200449D01*
X327597Y199403D01*
X326551Y198040D01*
X325894Y196453D01*
X325670Y194750D01*
X325894Y193047D01*
X326551Y191460D01*
X327597Y190097D01*
X328960Y189051D01*
X330547Y188394D01*
X332250Y188170D01*
X333575Y188344D01*
X335702Y186217D01*
X335385Y184625D01*
Y178375D01*
X335746Y176561D01*
X336773Y175023D01*
X338311Y173996D01*
X340125Y173635D01*
X351375D01*
X353189Y173996D01*
X354727Y175023D01*
X355754Y176561D01*
X356115Y178375D01*
Y184625D01*
X355754Y186439D01*
X354727Y187977D01*
X353189Y189004D01*
X351375Y189365D01*
X342716D01*
X338656Y193425D01*
X338830Y194750D01*
X338606Y196453D01*
X337949Y198040D01*
X336903Y199403D01*
X335540Y200449D01*
X333953Y201106D01*
X332250Y201330D01*
D02*
G37*
G36*
X377125Y173651D02*
X375270D01*
Y163520D01*
X382901D01*
Y167875D01*
X382461Y170085D01*
X381209Y171959D01*
X379335Y173211D01*
X377125Y173651D01*
D02*
G37*
G36*
X372730D02*
X370875D01*
X368665Y173211D01*
X366791Y171959D01*
X365539Y170085D01*
X365099Y167875D01*
Y163520D01*
X372730D01*
Y173651D01*
D02*
G37*
G36*
X589289Y166541D02*
X581520D01*
Y157770D01*
X589289D01*
Y166541D01*
D02*
G37*
G36*
X578980D02*
X571210D01*
Y157770D01*
X578980D01*
Y166541D01*
D02*
G37*
G36*
X510274Y201324D02*
X492226D01*
Y192276D01*
X510274D01*
Y192901D01*
X511544Y193427D01*
X513401Y191570D01*
Y171024D01*
X507225D01*
Y154976D01*
X525275D01*
Y171024D01*
X519099D01*
Y192750D01*
X519099Y192750D01*
X518882Y193840D01*
X518264Y194764D01*
X514214Y198814D01*
X513290Y199432D01*
X512200Y199649D01*
X512200Y199649D01*
X510274D01*
Y201324D01*
D02*
G37*
G36*
X400500Y215830D02*
X398797Y215606D01*
X397210Y214949D01*
X395847Y213903D01*
X394801Y212540D01*
X394144Y210953D01*
X393920Y209250D01*
X394144Y207547D01*
X394801Y205960D01*
X395847Y204597D01*
X395887Y204566D01*
Y202020D01*
X395811Y202004D01*
X394273Y200977D01*
X393246Y199439D01*
X392885Y197625D01*
Y186375D01*
X393246Y184561D01*
X394273Y183023D01*
X395811Y181996D01*
X396887Y181782D01*
Y172319D01*
X396561Y172254D01*
X395023Y171227D01*
X393996Y169689D01*
X393635Y167875D01*
Y156625D01*
X393996Y154811D01*
X395023Y153273D01*
X396561Y152246D01*
X398375Y151885D01*
X404625D01*
X406439Y152246D01*
X407977Y153273D01*
X409004Y154811D01*
X409365Y156625D01*
Y167875D01*
X409004Y169689D01*
X407977Y171227D01*
X406439Y172254D01*
X406113Y172319D01*
Y182279D01*
X407227Y183023D01*
X408254Y184561D01*
X408615Y186375D01*
Y197625D01*
X408254Y199439D01*
X407227Y200977D01*
X405689Y202004D01*
X405113Y202119D01*
Y204566D01*
X405153Y204597D01*
X406199Y205960D01*
X406856Y207547D01*
X407080Y209250D01*
X406856Y210953D01*
X406199Y212540D01*
X405153Y213903D01*
X403790Y214949D01*
X402203Y215606D01*
X400500Y215830D01*
D02*
G37*
G36*
X382901Y160980D02*
X375270D01*
Y150849D01*
X377125D01*
X379335Y151289D01*
X381209Y152541D01*
X382461Y154415D01*
X382901Y156625D01*
Y160980D01*
D02*
G37*
G36*
X372730D02*
X365099D01*
Y156625D01*
X365539Y154415D01*
X366791Y152541D01*
X368665Y151289D01*
X370875Y150849D01*
X372730D01*
Y160980D01*
D02*
G37*
G36*
X564274Y188624D02*
X546226D01*
Y179576D01*
X552167D01*
Y177500D01*
X552167Y177500D01*
X552402Y176320D01*
X553070Y175320D01*
X558167Y170222D01*
Y165525D01*
X553227D01*
Y147475D01*
X569274D01*
Y165525D01*
X564334D01*
Y171500D01*
X564099Y172680D01*
X563431Y173680D01*
X563430Y173680D01*
X558804Y178306D01*
X559330Y179576D01*
X564274D01*
Y188624D01*
D02*
G37*
G36*
X589289Y155230D02*
X581520D01*
Y146459D01*
X589289D01*
Y155230D01*
D02*
G37*
G36*
X578980D02*
X571210D01*
Y146459D01*
X578980D01*
Y155230D01*
D02*
G37*
G36*
X664250Y171830D02*
X662547Y171606D01*
X660960Y170949D01*
X659597Y169903D01*
X658551Y168540D01*
X657894Y166953D01*
X657670Y165250D01*
X657894Y163547D01*
X658551Y161960D01*
X659597Y160597D01*
X660960Y159551D01*
X662082Y159086D01*
X664157Y157012D01*
Y140274D01*
X656726D01*
Y115226D01*
X687774D01*
Y140274D01*
X671343D01*
Y158500D01*
X671069Y159875D01*
X670291Y161041D01*
X669698Y161633D01*
X669949Y161960D01*
X670606Y163547D01*
X670830Y165250D01*
X670606Y166953D01*
X669949Y168540D01*
X668903Y169903D01*
X667540Y170949D01*
X665953Y171606D01*
X664250Y171830D01*
D02*
G37*
G36*
X548025Y152024D02*
X529975D01*
Y135976D01*
X535407D01*
Y130274D01*
X529975D01*
Y114226D01*
X548025D01*
Y130274D01*
X542593D01*
Y135976D01*
X548025D01*
Y152024D01*
D02*
G37*
G36*
X525275D02*
X507225D01*
Y135976D01*
X512657D01*
Y130023D01*
X506725D01*
Y113976D01*
X524775D01*
Y130023D01*
X519843D01*
Y135976D01*
X525275D01*
Y152024D01*
D02*
G37*
G36*
X614790Y121290D02*
X599520D01*
Y109020D01*
X614790D01*
Y121290D01*
D02*
G37*
G36*
X596980D02*
X581710D01*
Y109020D01*
X596980D01*
Y121290D01*
D02*
G37*
G36*
X635250Y128861D02*
X632633Y128516D01*
X630195Y127506D01*
X628101Y125899D01*
X626494Y123805D01*
X625484Y121367D01*
X625140Y118750D01*
X625484Y116133D01*
X626494Y113695D01*
X628101Y111601D01*
X630195Y109994D01*
X632633Y108984D01*
X635250Y108639D01*
X637867Y108984D01*
X640305Y109994D01*
X642399Y111601D01*
X644006Y113695D01*
X645016Y116133D01*
X645360Y118750D01*
X645016Y121367D01*
X644006Y123805D01*
X642399Y125899D01*
X640305Y127506D01*
X637867Y128516D01*
X635250Y128861D01*
D02*
G37*
G36*
X269520Y111559D02*
Y102870D01*
X278209D01*
X278032Y104221D01*
X277020Y106663D01*
X275411Y108761D01*
X273313Y110370D01*
X270871Y111382D01*
X269520Y111559D01*
D02*
G37*
G36*
X266980D02*
X265629Y111382D01*
X263187Y110370D01*
X261089Y108761D01*
X259480Y106663D01*
X258468Y104221D01*
X258291Y102870D01*
X266980D01*
Y111559D01*
D02*
G37*
G36*
X278209Y100330D02*
X269520D01*
Y91641D01*
X270871Y91818D01*
X273313Y92830D01*
X275411Y94439D01*
X277020Y96537D01*
X278032Y98979D01*
X278209Y100330D01*
D02*
G37*
G36*
X266980D02*
X258291D01*
X258468Y98979D01*
X259480Y96537D01*
X261089Y94439D01*
X263187Y92830D01*
X265629Y91818D01*
X266980Y91641D01*
Y100330D01*
D02*
G37*
%LPD*%
G36*
X677143Y710535D02*
X678309Y709756D01*
X679684Y709483D01*
X703816D01*
X705191Y709756D01*
X706357Y710535D01*
X709728Y713907D01*
X738512D01*
X769640Y682778D01*
X769709Y682430D01*
X770095Y681853D01*
X769416Y680583D01*
X718277D01*
X712680Y686180D01*
X711680Y686849D01*
X710500Y687083D01*
X710500Y687083D01*
X676777D01*
X660074Y703786D01*
X660560Y704960D01*
X663540D01*
Y714230D01*
X652000D01*
Y716769D01*
X663540D01*
Y722479D01*
X664714Y722965D01*
X677143Y710535D01*
D02*
G37*
G36*
X474186Y695786D02*
X474186Y695786D01*
X474585Y695519D01*
X474427Y694581D01*
X474239Y694222D01*
X473281Y694032D01*
X472357Y693414D01*
X451291Y672349D01*
X441523D01*
Y677774D01*
X435029D01*
X431516Y681287D01*
X432002Y682460D01*
X435480D01*
Y691000D01*
X436750D01*
Y692270D01*
X444790D01*
Y699540D01*
X444580D01*
X443774Y700476D01*
Y715524D01*
X437848D01*
Y721976D01*
X442023D01*
Y725651D01*
X444320D01*
X474186Y695786D01*
D02*
G37*
%LPC*%
G36*
X699250Y707802D02*
X684250D01*
X681894Y707492D01*
X679699Y706582D01*
X677814Y705136D01*
X676368Y703251D01*
X675458Y701056D01*
X675148Y698700D01*
X675458Y696344D01*
X676368Y694149D01*
X677814Y692264D01*
X679699Y690818D01*
X681894Y689908D01*
X684250Y689598D01*
X699250D01*
X701606Y689908D01*
X703801Y690818D01*
X705686Y692264D01*
X707132Y694149D01*
X708042Y696344D01*
X708352Y698700D01*
X708042Y701056D01*
X707132Y703251D01*
X705686Y705136D01*
X703801Y706582D01*
X701606Y707492D01*
X699250Y707802D01*
D02*
G37*
G36*
X444790Y689730D02*
X438020D01*
Y682460D01*
X444790D01*
Y689730D01*
D02*
G37*
%LPD*%
G36*
X747976Y494538D02*
Y483976D01*
X746960Y483540D01*
Y476520D01*
X756500D01*
Y475250D01*
X757770D01*
Y466960D01*
X764385D01*
X764911Y465690D01*
X762745Y463524D01*
X755226D01*
Y461599D01*
X749180D01*
X734014Y476764D01*
X733090Y477382D01*
X732000Y477599D01*
X732000Y477599D01*
X697525D01*
Y479902D01*
X730501D01*
X730501Y479902D01*
X731591Y480119D01*
X732515Y480737D01*
X746803Y495024D01*
X747976Y494538D01*
D02*
G37*
%LPC*%
G36*
X755230Y473980D02*
X746960D01*
Y466960D01*
X755230D01*
Y473980D01*
D02*
G37*
%LPD*%
D11*
X592000Y338750D02*
D03*
Y366250D02*
D03*
X302250Y538000D02*
D03*
Y565500D02*
D03*
X303000Y209250D02*
D03*
Y181750D02*
D03*
X345750Y209000D02*
D03*
Y181500D02*
D03*
X715500Y201250D02*
D03*
Y173750D02*
D03*
X745750Y201000D02*
D03*
Y173500D02*
D03*
D12*
X431000Y450750D02*
D03*
X403500D02*
D03*
X543000Y586000D02*
D03*
X515500D02*
D03*
X458000Y484250D02*
D03*
X430500D02*
D03*
X309500Y421750D02*
D03*
X337000D02*
D03*
X400750Y192000D02*
D03*
X373250D02*
D03*
X374000Y162250D02*
D03*
X401500D02*
D03*
X329750Y339750D02*
D03*
X302250D02*
D03*
X460750Y349250D02*
D03*
X488250D02*
D03*
D13*
X272500Y359000D02*
D03*
Y341500D02*
D03*
X273000Y304750D02*
D03*
Y287250D02*
D03*
X272750Y413250D02*
D03*
Y430750D02*
D03*
D14*
X608500Y615706D02*
D03*
Y632703D02*
D03*
X628750Y615706D02*
D03*
Y632703D02*
D03*
D15*
X479750Y251420D02*
D03*
Y232421D02*
D03*
X455480Y231540D02*
D03*
Y212541D02*
D03*
X607520Y281040D02*
D03*
Y262041D02*
D03*
X584520D02*
D03*
Y281040D02*
D03*
X478750Y209750D02*
D03*
Y190750D02*
D03*
X539000Y122250D02*
D03*
Y103250D02*
D03*
X515750Y122000D02*
D03*
Y103000D02*
D03*
X539000Y163000D02*
D03*
Y144000D02*
D03*
X516250Y163000D02*
D03*
Y144000D02*
D03*
X718275Y282476D02*
D03*
Y301475D02*
D03*
X742750Y281000D02*
D03*
Y300000D02*
D03*
D17*
X621500Y743000D02*
D03*
Y714999D02*
D03*
X652000Y743501D02*
D03*
Y715499D02*
D03*
X292000Y754501D02*
D03*
Y726499D02*
D03*
X936000Y642000D02*
D03*
Y670001D02*
D03*
D26*
X389000Y526250D02*
X407250D01*
X389000Y525750D02*
Y527000D01*
X300000Y540250D02*
X302250Y538000D01*
X270250Y540250D02*
X300000D01*
X270000Y472500D02*
X296250D01*
X309500Y459250D01*
Y421750D02*
Y459250D01*
X477500Y607500D02*
X498250D01*
X470250Y614750D02*
X477500Y607500D01*
X478000Y601250D02*
X500500D01*
X471500Y594750D02*
X478000Y601250D01*
X500500D02*
X528625Y629375D01*
X257000Y298750D02*
X263000Y304750D01*
X257000Y134000D02*
Y298750D01*
Y134000D02*
X261750Y129250D01*
X518750Y736200D02*
X539800D01*
X467000Y594750D02*
X471500D01*
X467000Y614750D02*
X470250D01*
X522752Y632002D02*
Y655752D01*
X528625Y629375D02*
Y653125D01*
X606499Y532751D02*
Y545705D01*
X608500Y605000D02*
Y615706D01*
X628000Y614956D02*
X628750Y615706D01*
Y605750D02*
Y615706D01*
X614501Y532751D02*
Y545251D01*
X608500Y632703D02*
Y639474D01*
X542550Y196800D02*
X555250D01*
X539000Y193250D02*
X542550Y196800D01*
X539000Y165250D02*
Y193250D01*
X501250Y196800D02*
X512200D01*
X516250Y192750D01*
Y165500D02*
Y192750D01*
X584250Y685000D02*
X589750D01*
X596000Y678750D01*
X404250Y611250D02*
X416750D01*
X399000Y606000D02*
X404250Y611250D01*
X422500Y625500D02*
Y641750D01*
X491750Y667500D02*
X525500D01*
X343750Y748250D02*
X350750Y741250D01*
X340750Y748250D02*
X343750D01*
X449250Y753750D02*
X485500Y717500D01*
X498499Y743250D02*
X510649Y755400D01*
X518750D01*
X422774Y686000D02*
Y690274D01*
X435249Y673500D02*
X439249Y669500D01*
X435249Y670750D02*
Y673500D01*
X422774Y686000D02*
X434499Y674276D01*
Y671250D02*
Y674276D01*
X421000Y692049D02*
X422774Y690274D01*
X421000Y692049D02*
Y693500D01*
X445500Y728500D02*
X476200Y697800D01*
X434999Y728500D02*
X445500D01*
X434999Y712749D02*
Y728500D01*
X432750Y710500D02*
X434999Y712749D01*
X344250Y729000D02*
X350250Y735000D01*
X343000Y729000D02*
X344250D01*
X474371Y691400D02*
X523250D01*
X476200Y697800D02*
X523250D01*
X540500Y516797D02*
X566548Y490750D01*
X495250Y493750D02*
X499750Y500000D01*
Y511250D01*
X505297Y516797D01*
X540500D01*
X566548Y490750D02*
X572499D01*
X516500Y508250D02*
X539750D01*
X494500Y467500D02*
X496000Y466000D01*
X509250D01*
X512000Y468750D01*
Y503750D01*
X516500Y508250D01*
X539750D02*
X565249Y482751D01*
X572499D01*
X727503Y421186D02*
Y422500D01*
X705499Y442751D02*
X725750Y422500D01*
X732186Y421186D02*
X733500Y422500D01*
X727503Y421186D02*
X732186D01*
X725750Y422500D02*
X727503D01*
X688501Y442751D02*
X705499D01*
X452471Y669500D02*
X474371Y691400D01*
X439249Y669500D02*
X452471D01*
X539750Y759500D02*
X545382D01*
X535650Y755400D02*
X539750Y759500D01*
X760750Y457500D02*
X777750Y474500D01*
X748000Y458750D02*
X760000D01*
X732000Y474750D02*
X748000Y458750D01*
X434999Y673500D02*
X435249D01*
X759500Y510000D02*
X761000Y511500D01*
X761250Y489500D02*
X761500Y489250D01*
X761250Y489500D02*
Y510000D01*
X777750Y474500D02*
Y475750D01*
X636500Y438250D02*
X638501Y436249D01*
Y416749D02*
Y436249D01*
X683200Y695950D02*
X694250D01*
X670500Y549750D02*
X678250Y557500D01*
X670500Y532751D02*
Y549750D01*
X654501Y532751D02*
Y547000D01*
X648250Y553250D02*
Y557250D01*
Y553250D02*
X654501Y547000D01*
X662499Y557499D02*
X662500Y557500D01*
X662499Y532751D02*
Y557499D01*
X684250Y619500D02*
X687750Y616000D01*
Y534750D02*
Y616000D01*
X671750Y518750D02*
X687750Y534750D01*
X841000Y512750D02*
X916250D01*
X833500Y520250D02*
X841000Y512750D01*
X748000Y520250D02*
X833500D01*
X734499Y506749D02*
X748000Y520250D01*
X688501Y506749D02*
X734499D01*
X676250Y506500D02*
X687750D01*
X671750Y511000D02*
X676250Y506500D01*
X671750Y511000D02*
Y518750D01*
X590500Y532751D02*
Y544500D01*
X588500Y546500D02*
X590500Y544500D01*
X580500Y546500D02*
X588500D01*
X621000Y438000D02*
X630500Y428500D01*
Y416749D02*
Y428500D01*
X583999Y450750D02*
X592250Y459000D01*
X572499Y450750D02*
X583999D01*
X606499Y407750D02*
X614000Y400250D01*
Y382750D02*
Y400250D01*
Y382750D02*
X620750Y376000D01*
X614501Y407499D02*
X619250Y402750D01*
Y391750D02*
Y402750D01*
Y391750D02*
X625500Y385500D01*
X688501Y514750D02*
X706750D01*
X711500Y458750D02*
X712500Y459750D01*
X688501Y458750D02*
X711500D01*
X625500Y385500D02*
X639250D01*
X614501Y407499D02*
Y416749D01*
X606499Y407750D02*
Y416749D01*
X622499Y407501D02*
X632000Y398000D01*
X622499Y407501D02*
Y416749D01*
X654501D02*
X655000Y417249D01*
Y438000D01*
X646000Y398500D02*
X646499Y398999D01*
Y416749D01*
X639250Y385500D02*
X639500Y385750D01*
X598501Y402499D02*
X603000Y398000D01*
X598501Y402499D02*
Y416749D01*
X270250Y561250D02*
Y594250D01*
X590500Y396750D02*
X606750Y380500D01*
X590500Y396750D02*
Y416749D01*
X572499Y450750D02*
X572499Y450750D01*
X527999Y466749D02*
X572499D01*
X527500Y494250D02*
X538500Y496500D01*
X560250Y474750D01*
X572499D01*
X526928Y469750D02*
X527999Y466749D01*
X273000Y271750D02*
X277000Y267750D01*
X265000Y359000D02*
X272500D01*
X258750Y352750D02*
X265000Y359000D01*
X258750Y319000D02*
Y352750D01*
Y319000D02*
X273000Y304750D01*
X263000D02*
X273000D01*
X261750Y129250D02*
X270250D01*
X777000Y475750D02*
X777750D01*
X688501Y474750D02*
X732000D01*
X759500Y510000D02*
X761250D01*
X758500Y509000D02*
X759500Y510000D01*
X757750D02*
X759500D01*
X688501Y482751D02*
X730501D01*
X757750Y510000D01*
X522800Y703750D02*
X523250Y704200D01*
X272500Y341500D02*
X274750Y339250D01*
X518750Y755400D02*
X535650D01*
X376000Y254500D02*
Y268250D01*
X588250Y761800D02*
X601050D01*
X810250Y754250D02*
X817000Y747500D01*
X608500Y605000D02*
X615000Y598500D01*
X606499Y545705D02*
X615000Y554205D01*
Y598500D01*
X621250Y598250D02*
X628750Y605750D01*
X614501Y545251D02*
X621250Y552000D01*
Y598250D01*
X528625Y653125D02*
X550000Y674500D01*
Y726000D01*
X522752Y655752D02*
X543750Y676750D01*
X539800Y736200D02*
X550000Y726000D01*
X543750Y676750D02*
Y723500D01*
X518750Y729800D02*
X537450D01*
X543750Y723500D01*
X498250Y607500D02*
X522752Y632002D01*
X518750Y717000D02*
X528500D01*
X523250Y723400D02*
X530350D01*
X525500Y667500D02*
X537500Y679500D01*
Y716250D01*
X530350Y723400D02*
X537500Y716250D01*
X531250Y681750D02*
Y714250D01*
X528500Y717000D02*
X531250Y714250D01*
X489500Y673750D02*
X523250D01*
X531250Y681750D01*
X422500Y641750D02*
X437000Y656250D01*
X472000D01*
X489500Y673750D01*
X439250Y650000D02*
X474250D01*
X491750Y667500D01*
X416750Y611250D02*
X428750Y623250D01*
Y639500D01*
X439250Y650000D01*
X398250Y622500D02*
X403250Y617500D01*
X414500D01*
X422500Y625500D01*
X500750Y711250D02*
X508250Y703750D01*
X485500Y717500D02*
X503000D01*
X509900Y710600D01*
X518750D01*
X523250D01*
X447000Y747500D02*
X483250Y711250D01*
X500750D01*
X350250Y735000D02*
X376750D01*
X389250Y747500D01*
X447000D01*
X350750Y741250D02*
X374500D01*
X387000Y753750D01*
X449250D01*
X588250Y768200D02*
X598950D01*
X787750Y754250D02*
X810250D01*
X789750Y760750D02*
X810250D01*
X817000Y767500D01*
X628750Y632703D02*
Y639000D01*
X598950Y768200D02*
X605750Y775000D01*
X775500D01*
X789750Y760750D01*
X601050Y761800D02*
X608000Y768750D01*
X773250D01*
X787750Y754250D01*
X606750Y345750D02*
Y380500D01*
X715000Y450750D02*
X721499Y444250D01*
X734250D01*
X688501Y450750D02*
X715000D01*
X734250Y444250D02*
X737500Y441000D01*
X557500Y668250D02*
X565750Y660000D01*
X608250D01*
X615000Y645974D02*
Y653250D01*
X608500Y639474D02*
X615000Y645974D01*
X563750Y670500D02*
X568000Y666250D01*
X621250Y646500D02*
X628750Y639000D01*
X608250Y660000D02*
X615000Y653250D01*
X568000Y666250D02*
X610750D01*
X621250Y655750D01*
Y646500D02*
Y655750D01*
X518750Y742600D02*
X545400D01*
X557500Y730500D01*
Y668250D02*
Y730500D01*
X518750Y749000D02*
X547750D01*
X563750Y733000D01*
Y670500D02*
Y733000D01*
X508250Y703750D02*
X522800D01*
X669750Y475750D02*
Y480000D01*
Y475750D02*
X678751Y466749D01*
X688501D01*
X573750Y337000D02*
X598000D01*
X606750Y345750D01*
D27*
X459419Y269500D02*
X475750Y285831D01*
Y314750D01*
X443000Y269500D02*
X459419D01*
X431750Y258250D02*
X443000Y269500D01*
X431750Y225500D02*
Y258250D01*
X658000Y321250D02*
X766625Y429875D01*
X482250Y321250D02*
X658000D01*
X475750Y314750D02*
X482250Y321250D01*
X667750Y132250D02*
Y158500D01*
X664250Y162000D02*
X667750Y158500D01*
X377750Y468750D02*
X381250Y472250D01*
X377750Y451250D02*
Y468750D01*
X356250Y472050D02*
X360250Y469250D01*
Y451250D02*
Y469250D01*
X403000Y451250D02*
X403500Y450750D01*
X377750Y451250D02*
X403000D01*
X340266Y395250D02*
X345500D01*
X325250Y410266D02*
X340266Y395250D01*
X325250Y410266D02*
Y431500D01*
X330250Y436500D02*
X345500D01*
X325250Y431500D02*
X330250Y436500D01*
X345500D02*
X360250Y451250D01*
X422547Y216297D02*
X431750Y225500D01*
X497000Y559000D02*
X505000Y567000D01*
X524000D01*
X497000Y549500D02*
Y559000D01*
X524000Y567000D02*
X543000Y586000D01*
X501250Y273000D02*
Y287500D01*
X555250Y273000D02*
Y291500D01*
X592500Y208500D02*
Y231250D01*
X415750Y216297D02*
X422547D01*
X516250Y121500D02*
X516500Y121250D01*
X516250Y121500D02*
Y143500D01*
X588250Y723400D02*
X602150D01*
X939500Y457250D02*
X967500Y485250D01*
X887000Y457250D02*
X939500D01*
X878250Y448500D02*
X887000Y457250D01*
X967500Y485250D02*
Y675500D01*
X942500Y700500D02*
X967500Y675500D01*
X792375Y429875D02*
X811000Y448500D01*
X766625Y429875D02*
X792375D01*
X811000Y448500D02*
X878250D01*
X679684Y713076D02*
X703816D01*
X708240Y717500D01*
X740000D01*
X773500Y684000D01*
X588250Y736200D02*
X597700D01*
X603000Y741500D01*
X614750D01*
X906500Y570500D02*
Y594000D01*
X896250Y749500D02*
X906500Y759750D01*
X938250D01*
X942500Y755500D01*
Y700500D02*
Y755500D01*
X598501Y532751D02*
Y554749D01*
X788750Y696250D02*
Y702250D01*
X303790Y181750D02*
X304500D01*
X301250D02*
X302520Y183020D01*
X345500Y181500D02*
X345750D01*
X332250Y194750D02*
X345500Y181500D01*
X602150Y723400D02*
X608250Y729500D01*
X567750Y585500D02*
X598501Y554749D01*
X543000Y585500D02*
X567750D01*
X608250Y729500D02*
X663260D01*
X679684Y713076D01*
X304500Y181750D02*
X316000Y193250D01*
X539000Y122750D02*
X540750Y121000D01*
X539000Y122750D02*
Y143250D01*
D28*
X339000Y154250D02*
X350500Y165750D01*
X339000Y127750D02*
Y154250D01*
Y127750D02*
X374500D01*
X375250Y127000D01*
X292500Y130250D02*
Y133500D01*
X285000Y141000D02*
X292500Y133500D01*
X285000Y141000D02*
Y226500D01*
X296000Y237500D01*
X832750Y573000D02*
Y595000D01*
Y596727D01*
X843501Y645750D02*
X846023Y643227D01*
Y609875D02*
Y643227D01*
X843373Y607225D02*
X846023Y609875D01*
X843249Y607225D02*
X843373D01*
X832750Y596727D02*
X843249Y607225D01*
X322750Y282960D02*
Y284024D01*
X272000Y412500D02*
X272750Y413250D01*
X272000Y393250D02*
Y412500D01*
Y393250D02*
X282000D01*
X303250Y372000D01*
Y342750D02*
Y372000D01*
X400500Y194500D02*
Y209250D01*
X270510Y123490D02*
Y127000D01*
Y123490D02*
X281250Y112750D01*
X304500D01*
X316500Y124750D01*
X374250Y194250D02*
Y239250D01*
X322750Y241040D02*
X324290Y239500D01*
X296000Y237500D02*
X310250D01*
X372000Y192000D02*
X374250Y194250D01*
X400500Y194500D02*
X401500Y193500D01*
Y162250D02*
Y193500D01*
X322750Y241040D02*
X335540D01*
X349000Y254500D01*
X362000D01*
Y268250D01*
X401750Y285000D02*
X408000Y291250D01*
X339500Y285000D02*
X401750D01*
X374250Y239250D02*
X374500Y239500D01*
X324290D02*
X374500D01*
X319500Y127750D02*
X339000D01*
X316500Y124750D02*
X319500Y127750D01*
X831001Y696000D02*
X832750Y697749D01*
X618500Y713250D02*
X649000D01*
D29*
X735250Y121500D02*
X742500Y128750D01*
X735250Y102000D02*
Y121500D01*
X719750Y86500D02*
X735250Y102000D01*
X720000Y129250D02*
X728750Y120500D01*
Y104000D02*
Y120500D01*
X717500Y92750D02*
X728750Y104000D01*
X535750Y86500D02*
X719750D01*
X519250Y103000D02*
X535750Y86500D01*
X539000Y95250D02*
X541500Y92750D01*
X539000Y95250D02*
Y103250D01*
X541500Y92750D02*
X717500D01*
X516000Y103000D02*
X519250D01*
X717250Y129250D02*
X720000D01*
X742500Y128750D02*
X747500D01*
X478750Y231421D02*
X479500Y232171D01*
X478750Y209750D02*
Y231421D01*
X582500Y243750D02*
Y258500D01*
X573650Y234900D02*
X582500Y243750D01*
X555250Y234900D02*
X573650D01*
X664250Y162000D02*
Y165250D01*
X525000Y437500D02*
Y443750D01*
X532500Y451250D01*
X541500D01*
X549001Y458750D01*
X525000Y394701D02*
Y437500D01*
X549001Y458750D02*
X572499D01*
X518000Y385000D02*
X525000Y394701D01*
X545100Y247600D02*
X555250D01*
X536750Y239250D02*
X545100Y247600D01*
X513400D02*
X518250Y242750D01*
X501250Y287500D02*
X510750Y294500D01*
X553250Y293500D02*
X555250Y291500D01*
X504500Y294000D02*
Y299500D01*
X592500Y208500D02*
X598250Y202750D01*
X667750Y132250D02*
X672250Y127750D01*
X501250Y247600D02*
X513400D01*
X896750Y642000D02*
X936000D01*
X896000Y642750D02*
Y647000D01*
X582500Y258500D02*
X605500D01*
X479750Y232421D02*
X482229Y234900D01*
X479500Y232171D02*
X479750Y232421D01*
X482229Y234900D02*
X501250D01*
X456000Y232171D02*
X479500D01*
X584250Y710600D02*
X594400D01*
X596500Y708500D01*
Y705500D02*
Y708500D01*
Y705500D02*
X603250Y698750D01*
X596500Y717000D02*
X603000Y710500D01*
Y706000D02*
Y710500D01*
Y706000D02*
X605500Y703500D01*
X603250Y698750D02*
X654000D01*
X605500Y703500D02*
X656000D01*
X654000Y698750D02*
X669000Y683750D01*
X656000Y703500D02*
X675500Y684000D01*
X571250Y755750D02*
Y758750D01*
Y741750D02*
Y755750D01*
X571600Y755400D01*
X584250D01*
X571250Y729250D02*
Y741750D01*
X572100Y742600D01*
X584250D01*
X571250Y700500D02*
Y729250D01*
X571800Y729800D01*
X584250D01*
X562000Y768000D02*
X571250Y758750D01*
X540000Y768000D02*
X562000D01*
X571250Y700500D02*
X573950Y697800D01*
X584250D01*
X595200D02*
X610499Y682500D01*
X584250Y697800D02*
X595200D01*
X584250Y717000D02*
X596500D01*
X503000Y776749D02*
Y784750D01*
Y776749D02*
X511550Y768200D01*
X523250D01*
X496449Y761800D02*
X523250D01*
X495249Y763000D02*
X496449Y761800D01*
X807749Y677500D02*
X814750Y670500D01*
X717000Y677500D02*
X807749D01*
X710500Y684000D02*
X717000Y677500D01*
X669000Y663000D02*
Y683750D01*
Y663000D02*
X672250Y659750D01*
X675500Y684000D02*
X710500D01*
X672250Y659750D02*
X707500D01*
X715000Y667250D01*
X786000D01*
X534000Y762000D02*
X540000Y768000D01*
X786000Y667250D02*
X807750Y645500D01*
X851776Y571560D02*
X854250Y570500D01*
X523250Y761800D02*
X523450Y762000D01*
X534000D01*
X807750Y645500D02*
X815750D01*
X887500Y594000D02*
X888000Y594500D01*
X887500Y570500D02*
Y594000D01*
X854250Y570500D02*
X887500D01*
X896000Y642750D02*
X896750Y642000D01*
X927750Y772500D02*
Y774250D01*
X936000Y670001D02*
Y722500D01*
X927750Y730750D02*
X936000Y722500D01*
X927750Y730750D02*
Y744250D01*
X908500Y670001D02*
X936000D01*
X630500Y518750D02*
Y532751D01*
X627500Y515750D02*
X630500Y518750D01*
X504500Y294000D02*
X504750Y293750D01*
X495914Y273000D02*
X501250D01*
X561250Y156500D02*
Y171500D01*
X555250Y177500D02*
X561250Y171500D01*
X555250Y177500D02*
Y184100D01*
X588250Y749000D02*
X599500D01*
X604750Y754250D01*
X500250Y303750D02*
X504500Y299500D01*
X742750Y233750D02*
Y256500D01*
X741000Y206750D02*
Y234250D01*
X746750Y201500D02*
X747250Y201000D01*
X718275Y301475D02*
Y331476D01*
X709750Y330000D02*
X710000Y329750D01*
X742750Y300000D02*
Y328500D01*
X743250Y329000D01*
X742750Y256500D02*
Y281000D01*
X742750Y281000D02*
X742750Y281000D01*
X717250Y150000D02*
Y173500D01*
X717500Y173750D01*
X747250Y149000D02*
Y173500D01*
Y149000D02*
X747500Y148750D01*
X719749Y234500D02*
Y256500D01*
Y234500D02*
X719750Y234500D01*
Y203500D02*
Y234500D01*
X717500Y201250D02*
X719750Y203500D01*
X718275Y257975D02*
Y282476D01*
Y257975D02*
X719749Y256500D01*
D30*
X706750Y514750D02*
X707000Y515000D01*
D31*
X323750Y709000D02*
X343000D01*
X306250Y726499D02*
X323750Y709000D01*
X293500Y726499D02*
X306250D01*
X293250Y754751D02*
X293500Y754501D01*
X293250Y754751D02*
Y780750D01*
X459250Y413750D02*
Y482500D01*
Y413750D02*
X463000Y410000D01*
D32*
X383500Y657250D02*
X395750Y645000D01*
X321000Y657250D02*
X383500D01*
X321000Y628750D02*
Y657250D01*
X501250Y222200D02*
Y234900D01*
X555250Y222200D02*
Y234900D01*
Y209500D02*
Y222200D01*
X516300D02*
X526750Y211750D01*
X501250Y222200D02*
X516300D01*
X526750Y211750D02*
X529000Y209500D01*
X555250D01*
X380250Y569500D02*
X415750D01*
X321000Y628750D02*
X380250Y569500D01*
X415750D02*
X441250Y595000D01*
Y618750D01*
X455250Y632750D01*
X465000D01*
X467000Y634750D01*
X431500Y502750D02*
X476703Y547953D01*
X431500Y439750D02*
Y502750D01*
X529000Y549500D02*
X537000Y557500D01*
X517000Y549500D02*
X529000D01*
X898750Y700750D02*
X899000Y700500D01*
Y647000D02*
Y700500D01*
X625250Y743501D02*
X652000D01*
X607500Y505500D02*
X632750D01*
X598501Y514499D02*
X607500Y505500D01*
X598501Y514499D02*
Y532751D01*
X773500Y684000D02*
X824000D01*
X649000Y741251D02*
X649500D01*
X660750Y509000D02*
X671000Y498750D01*
X656000Y509000D02*
X660750D01*
X656000Y454500D02*
Y509000D01*
X603750Y454500D02*
X656000D01*
X789000Y619250D02*
X816000D01*
X851750Y571535D02*
X851776Y571560D01*
X850750Y570535D02*
X851750Y571535D01*
Y595000D01*
X815596Y599154D02*
X835000Y618558D01*
X850750Y559000D02*
Y570535D01*
X846000Y554250D02*
X850750Y559000D01*
X824250Y554250D02*
X846000D01*
X815596Y562904D02*
X824250Y554250D01*
X815596Y562904D02*
Y599154D01*
X835500Y618750D02*
Y629750D01*
X835000Y618558D02*
Y619250D01*
X906500Y594000D02*
Y606751D01*
X842750Y670500D02*
X906500Y606751D01*
X830250Y635000D02*
Y677750D01*
Y635000D02*
X835500Y629750D01*
X824000Y684000D02*
X830250Y677750D01*
X551750Y434750D02*
X551750Y434750D01*
X572499D01*
X584000D02*
X603750Y454500D01*
Y493250D01*
X593000Y366250D02*
Y371750D01*
X582250Y514750D02*
X603750Y493250D01*
X568999Y514750D02*
X582250D01*
X661750Y386250D02*
X662499Y386999D01*
Y416749D01*
X337000Y421750D02*
X413500D01*
X568999Y514750D02*
Y550001D01*
X671000Y498750D02*
X688501D01*
X656000Y454500D02*
X666750Y443750D01*
Y433000D02*
Y443750D01*
X662499Y428749D02*
X666750Y433000D01*
X662499Y416749D02*
Y428749D01*
X572499Y434750D02*
X584000D01*
X273000Y271750D02*
Y287250D01*
X572499Y405501D02*
Y434750D01*
X580000Y384750D02*
X593000Y371750D01*
X580000Y384750D02*
Y398000D01*
X572499Y405501D02*
X580000Y398000D01*
X809000Y696000D02*
X831001D01*
X808750Y696250D02*
X809000Y696000D01*
X638501Y532751D02*
Y572000D01*
Y511251D02*
Y532751D01*
X632750Y505500D02*
X638501Y511251D01*
X413500Y421750D02*
X431500Y439750D01*
X274750Y323500D02*
X274750Y339250D01*
X817000Y787500D02*
X834750D01*
X847999Y696000D02*
Y774251D01*
X834750Y787500D02*
X847999Y774251D01*
X808750Y696250D02*
Y707000D01*
X797000Y718750D02*
X808750Y707000D01*
X476703Y547953D02*
X495453D01*
X497000Y549500D01*
X561500Y557500D02*
X568999Y550001D01*
X537000Y557500D02*
X561500D01*
X753024Y737976D02*
X788750Y702250D01*
X679477Y737976D02*
X753024D01*
X648250Y742500D02*
X649500Y741251D01*
X667000D01*
X670274Y737976D01*
X679477D01*
D34*
X635000Y347980D02*
D03*
X279400Y685800D02*
D03*
X558800Y619760D02*
D03*
X553720Y396240D02*
D03*
X505460Y421640D02*
D03*
X294640Y629920D02*
D03*
X1038860Y678180D02*
D03*
Y449580D02*
D03*
X769620Y538480D02*
D03*
X1051560D02*
D03*
D35*
X384000Y316000D02*
D03*
X927100Y419100D02*
D03*
D36*
X270250Y594250D02*
D03*
X277000Y267750D02*
D03*
X274750Y323500D02*
D03*
D37*
X849500Y399550D02*
D03*
Y424950D02*
D03*
X803750Y374300D02*
D03*
Y399700D02*
D03*
X691750Y749500D02*
D03*
Y724100D02*
D03*
Y698700D02*
D03*
Y673300D02*
D03*
Y647900D02*
D03*
Y622500D02*
D03*
D38*
X272250Y242150D02*
D03*
X268250Y101600D02*
D03*
D39*
X272250Y216750D02*
D03*
X268250Y127000D02*
D03*
D40*
X635250Y188750D02*
D03*
D41*
Y118750D02*
D03*
X407250Y526250D02*
D03*
X389000Y527000D02*
D03*
X521750Y240000D02*
D03*
X664250Y165250D02*
D03*
X345500Y395250D02*
D03*
X338750Y450750D02*
D03*
X264250Y515250D02*
D03*
X536750Y239250D02*
D03*
X418500Y499750D02*
D03*
X592500Y231250D02*
D03*
X733250Y358500D02*
D03*
X596000Y678750D02*
D03*
X604250Y753000D02*
D03*
X332250Y194750D02*
D03*
X415750Y216297D02*
D03*
X419250Y202250D02*
D03*
X733250Y701500D02*
D03*
X728000Y574000D02*
D03*
X395750Y688250D02*
D03*
X793500Y562000D02*
D03*
X545382Y759500D02*
D03*
X414000Y119000D02*
D03*
X431000Y362000D02*
D03*
X446250Y360000D02*
D03*
X648250Y557250D02*
D03*
X678250Y557500D02*
D03*
X662749Y557749D02*
D03*
X592250Y459000D02*
D03*
X621000Y438000D02*
D03*
X636500Y438250D02*
D03*
X620750Y376000D02*
D03*
X603000Y398000D02*
D03*
X632000D02*
D03*
X580500Y546500D02*
D03*
X707000Y515000D02*
D03*
X712500Y459750D02*
D03*
X639500Y385750D02*
D03*
X655000Y438000D02*
D03*
X400500Y209250D02*
D03*
X646000Y398500D02*
D03*
X269000Y195500D02*
D03*
X865250Y761250D02*
D03*
X994750Y622750D02*
D03*
X533705Y356045D02*
D03*
X627500Y515750D02*
D03*
X350500Y165750D02*
D03*
X654250Y603000D02*
D03*
X669750Y480000D02*
D03*
X316000Y193250D02*
D03*
D42*
X460500Y291750D02*
D03*
X526750Y211750D02*
D03*
X292500Y130250D02*
D03*
X293250Y780750D02*
D03*
X321000Y657250D02*
D03*
X656000Y509000D02*
D03*
X316500Y124750D02*
D03*
X408000Y291250D02*
D03*
X437000Y287750D02*
D03*
X374500Y239500D02*
D03*
X339000Y127750D02*
D03*
X797000Y718750D02*
D03*
D43*
X304800Y165100D02*
D03*
X422660Y246840D02*
D03*
Y267160D02*
D03*
X412500Y246840D02*
D03*
Y267160D02*
D03*
X402340Y246840D02*
D03*
Y267160D02*
D03*
Y257000D02*
D03*
X412500D02*
D03*
X422660D02*
D03*
X320040Y149860D02*
D03*
Y157480D02*
D03*
Y165100D02*
D03*
X304800Y157480D02*
D03*
Y149860D02*
D03*
X312420Y165100D02*
D03*
Y149860D02*
D03*
Y157480D02*
D03*
D44*
X923250Y720000D02*
D03*
X778500Y652750D02*
D03*
D45*
X375250Y127000D02*
D03*
X518000Y385000D02*
D03*
X898750Y700750D02*
D03*
X495250Y493750D02*
D03*
X494500Y467500D02*
D03*
X526928Y469750D02*
D03*
X527500Y494250D02*
D03*
X897750Y744250D02*
D03*
X927750D02*
D03*
X957750D02*
D03*
X897750Y774250D02*
D03*
X927750D02*
D03*
X957750D02*
D03*
D46*
X356250Y472050D02*
D03*
X381250Y472250D02*
D03*
X733500Y443500D02*
D03*
Y422500D02*
D03*
D47*
X743250Y329000D02*
D03*
X718000Y329750D02*
D03*
D48*
X547500Y294500D02*
D03*
X510750D02*
D03*
D49*
X401750Y370750D02*
D03*
X355000Y370500D02*
D03*
D50*
X272000Y393250D02*
D03*
D51*
X412500Y257000D02*
D03*
D52*
X312420Y157480D02*
D03*
D53*
X907000Y594500D02*
D03*
X888000D02*
D03*
X832750Y595000D02*
D03*
X851750D02*
D03*
X887500Y570500D02*
D03*
X906500D02*
D03*
X851750Y571500D02*
D03*
X832750D02*
D03*
X816000Y619250D02*
D03*
X835000D02*
D03*
X580250Y156500D02*
D03*
X561250D02*
D03*
X742750Y256500D02*
D03*
X761750D02*
D03*
X700750Y234500D02*
D03*
X719750D02*
D03*
X742750Y233750D02*
D03*
X761750D02*
D03*
X700750Y256500D02*
D03*
X719749D02*
D03*
D54*
X831001Y696000D02*
D03*
X847999D02*
D03*
X417501Y671250D02*
D03*
X434499D02*
D03*
X481501Y743250D02*
D03*
X498499D02*
D03*
X434999Y728500D02*
D03*
X418001D02*
D03*
X495249Y763000D02*
D03*
X478251D02*
D03*
D55*
X847750Y512750D02*
D03*
X915750D02*
D03*
Y472750D02*
D03*
X847750D02*
D03*
D56*
X459500Y410250D02*
D03*
Y390250D02*
D03*
X567250Y358500D02*
D03*
Y338500D02*
D03*
X717250Y129250D02*
D03*
Y149250D02*
D03*
X747500Y128750D02*
D03*
Y148750D02*
D03*
D57*
X760750Y457500D02*
D03*
X774750D02*
D03*
X761250Y510000D02*
D03*
X775250D02*
D03*
X652750Y575750D02*
D03*
X638750D02*
D03*
X675750Y386250D02*
D03*
X661750D02*
D03*
X537750Y434750D02*
D03*
X551750D02*
D03*
X376000Y269750D02*
D03*
X362000D02*
D03*
X376000Y256000D02*
D03*
X362000D02*
D03*
D58*
X639001Y686500D02*
D03*
X610999D02*
D03*
X502751Y785250D02*
D03*
X474749D02*
D03*
X843501Y645750D02*
D03*
X815499D02*
D03*
X842750Y670500D02*
D03*
X814750D02*
D03*
X789000Y619250D02*
D03*
X761000D02*
D03*
D59*
X584250Y704200D02*
D03*
Y697800D02*
D03*
Y710600D02*
D03*
Y717000D02*
D03*
Y742600D02*
D03*
Y736200D02*
D03*
Y723400D02*
D03*
Y729800D02*
D03*
Y768200D02*
D03*
Y761800D02*
D03*
Y749000D02*
D03*
Y755400D02*
D03*
X518750Y742600D02*
D03*
Y736200D02*
D03*
Y749000D02*
D03*
Y755400D02*
D03*
X584250Y691400D02*
D03*
Y685000D02*
D03*
X518750Y761800D02*
D03*
Y768200D02*
D03*
Y717000D02*
D03*
Y710600D02*
D03*
Y723400D02*
D03*
Y729800D02*
D03*
Y704200D02*
D03*
Y697800D02*
D03*
Y685000D02*
D03*
Y691400D02*
D03*
D60*
X590500Y532751D02*
D03*
X598501D02*
D03*
X606499D02*
D03*
X614501D02*
D03*
X622499D02*
D03*
X630500D02*
D03*
X638501D02*
D03*
X646499D02*
D03*
X654501D02*
D03*
X662499D02*
D03*
X670500D02*
D03*
Y416749D02*
D03*
X662499D02*
D03*
X654501D02*
D03*
X646499D02*
D03*
X638501D02*
D03*
X630500D02*
D03*
X622499D02*
D03*
X614501D02*
D03*
X606499D02*
D03*
X598501D02*
D03*
X590500D02*
D03*
D61*
X688501Y514750D02*
D03*
Y506749D02*
D03*
Y498750D02*
D03*
Y490750D02*
D03*
Y482751D02*
D03*
Y474750D02*
D03*
Y466749D02*
D03*
Y458750D02*
D03*
Y450750D02*
D03*
Y442751D02*
D03*
Y434750D02*
D03*
X572499D02*
D03*
Y442751D02*
D03*
Y450750D02*
D03*
Y458750D02*
D03*
Y466749D02*
D03*
Y474750D02*
D03*
Y482751D02*
D03*
Y490750D02*
D03*
Y498750D02*
D03*
Y506749D02*
D03*
Y514750D02*
D03*
D62*
X270250Y561250D02*
D03*
Y540250D02*
D03*
X274250Y470750D02*
D03*
Y491750D02*
D03*
D63*
X322750Y282960D02*
D03*
Y241040D02*
D03*
D64*
X377750Y451250D02*
D03*
X360250D02*
D03*
D65*
X501250Y273000D02*
D03*
Y260300D02*
D03*
Y247600D02*
D03*
Y234900D02*
D03*
Y222200D02*
D03*
Y209500D02*
D03*
Y196800D02*
D03*
Y184100D02*
D03*
X555250D02*
D03*
Y196800D02*
D03*
Y209500D02*
D03*
Y222200D02*
D03*
Y234900D02*
D03*
Y247600D02*
D03*
Y260300D02*
D03*
Y273000D02*
D03*
D66*
X908500Y669000D02*
D03*
X899000Y647000D02*
D03*
X889500Y669000D02*
D03*
D67*
X497000Y549500D02*
D03*
X517000D02*
D03*
X808750Y696250D02*
D03*
X788750D02*
D03*
D68*
X467000Y574750D02*
D03*
Y594750D02*
D03*
Y614750D02*
D03*
Y634750D02*
D03*
X395750Y585000D02*
D03*
Y605000D02*
D03*
Y625000D02*
D03*
Y645000D02*
D03*
X340750Y768250D02*
D03*
Y748250D02*
D03*
Y728250D02*
D03*
Y708250D02*
D03*
X817000Y727500D02*
D03*
Y747500D02*
D03*
Y767500D02*
D03*
Y787500D02*
D03*
D69*
X778500Y475250D02*
D03*
X756500D02*
D03*
Y491250D02*
D03*
X778500D02*
D03*
D70*
X436750Y708000D02*
D03*
Y691000D02*
D03*
X422750D02*
D03*
Y708000D02*
D03*
D71*
X598250Y107750D02*
D03*
X672250Y127750D02*
D03*
D72*
X598250Y202750D02*
D03*
X638250Y240750D02*
D03*
D73*
X678500Y292750D02*
D03*
D74*
X460500Y346000D02*
Y387500D01*
X459500Y390250D02*
X460250Y389500D01*
X460500Y291750D02*
Y346000D01*
X355000Y370500D02*
X357250Y367000D01*
Y351000D02*
Y367000D01*
Y351000D02*
X412500D01*
X437000Y326500D01*
X341000Y351000D02*
X357250D01*
X329750Y339750D02*
X341000Y351000D01*
X437000Y287750D02*
Y326500D01*
D75*
X771660Y487660D02*
X775840D01*
X761500Y475250D02*
Y477500D01*
X771660Y487660D01*
X422750Y706930D02*
Y708000D01*
Y706930D02*
X436750Y692931D01*
Y691000D02*
Y692931D01*
M02*
