G04 Layer_Color=8421504*
%FSLAX44Y44*%
%MOMM*%
G71*
G01*
G75*
%ADD10R,0.6000X0.6000*%
G04:AMPARAMS|DCode=11|XSize=1.75mm|YSize=1.25mm|CornerRadius=0.3125mm|HoleSize=0mm|Usage=FLASHONLY|Rotation=0.000|XOffset=0mm|YOffset=0mm|HoleType=Round|Shape=RoundedRectangle|*
%AMROUNDEDRECTD11*
21,1,1.7500,0.6250,0,0,0.0*
21,1,1.1250,1.2500,0,0,0.0*
1,1,0.6250,0.5625,-0.3125*
1,1,0.6250,-0.5625,-0.3125*
1,1,0.6250,-0.5625,0.3125*
1,1,0.6250,0.5625,0.3125*
%
%ADD11ROUNDEDRECTD11*%
G04:AMPARAMS|DCode=12|XSize=1.75mm|YSize=1.25mm|CornerRadius=0.3125mm|HoleSize=0mm|Usage=FLASHONLY|Rotation=270.000|XOffset=0mm|YOffset=0mm|HoleType=Round|Shape=RoundedRectangle|*
%AMROUNDEDRECTD12*
21,1,1.7500,0.6250,0,0,270.0*
21,1,1.1250,1.2500,0,0,270.0*
1,1,0.6250,-0.3125,-0.5625*
1,1,0.6250,-0.3125,0.5625*
1,1,0.6250,0.3125,0.5625*
1,1,0.6250,0.3125,-0.5625*
%
%ADD12ROUNDEDRECTD12*%
G04:AMPARAMS|DCode=13|XSize=1.4mm|YSize=1.1mm|CornerRadius=0.275mm|HoleSize=0mm|Usage=FLASHONLY|Rotation=0.000|XOffset=0mm|YOffset=0mm|HoleType=Round|Shape=RoundedRectangle|*
%AMROUNDEDRECTD13*
21,1,1.4000,0.5500,0,0,0.0*
21,1,0.8500,1.1000,0,0,0.0*
1,1,0.5500,0.4250,-0.2750*
1,1,0.5500,-0.4250,-0.2750*
1,1,0.5500,-0.4250,0.2750*
1,1,0.5500,0.4250,0.2750*
%
%ADD13ROUNDEDRECTD13*%
%ADD14R,1.0000X1.1001*%
%ADD15R,1.5001X1.3000*%
%ADD16R,0.6000X0.6000*%
%ADD17R,1.8001X1.5999*%
%ADD18P,2.6941X4X72.5*%
G04:AMPARAMS|DCode=19|XSize=0.6mm|YSize=0.9mm|CornerRadius=0.15mm|HoleSize=0mm|Usage=FLASHONLY|Rotation=0.000|XOffset=0mm|YOffset=0mm|HoleType=Round|Shape=RoundedRectangle|*
%AMROUNDEDRECTD19*
21,1,0.6000,0.6000,0,0,0.0*
21,1,0.3000,0.9000,0,0,0.0*
1,1,0.3000,0.1500,-0.3000*
1,1,0.3000,-0.1500,-0.3000*
1,1,0.3000,-0.1500,0.3000*
1,1,0.3000,0.1500,0.3000*
%
%ADD19ROUNDEDRECTD19*%
%ADD20R,2.8000X2.8000*%
%ADD21R,0.8000X0.3500*%
%ADD22R,0.3500X0.8000*%
%ADD23R,2.5000X2.5000*%
%ADD24R,0.8130X0.3050*%
%ADD25R,0.3050X0.8130*%
%ADD29C,0.3000*%
%ADD30C,0.4064*%
D10*
X985500Y540980D02*
D03*
Y607020D02*
D03*
X840750Y472480D02*
D03*
Y538520D02*
D03*
X403750Y584230D02*
D03*
Y650270D02*
D03*
X923250Y753020D02*
D03*
Y686980D02*
D03*
X778500Y685770D02*
D03*
Y619730D02*
D03*
D11*
X269500Y155250D02*
D03*
Y182750D02*
D03*
X428750Y310000D02*
D03*
Y337500D02*
D03*
X460750Y237500D02*
D03*
Y265000D02*
D03*
X362000Y223750D02*
D03*
Y196250D02*
D03*
X421250Y154750D02*
D03*
Y182250D02*
D03*
X391750Y153750D02*
D03*
Y181250D02*
D03*
D12*
X300250Y214500D02*
D03*
X327750D02*
D03*
X436500Y209750D02*
D03*
X464000D02*
D03*
X357250Y126000D02*
D03*
X384750D02*
D03*
X358250Y96500D02*
D03*
X385750D02*
D03*
D13*
X458250Y310500D02*
D03*
Y328000D02*
D03*
D14*
X654250Y633749D02*
D03*
Y616751D02*
D03*
D15*
X642750Y572250D02*
D03*
Y591250D02*
D03*
D16*
X434270Y434500D02*
D03*
X368230D02*
D03*
X343020Y525750D02*
D03*
X276980D02*
D03*
X525770Y526000D02*
D03*
X459730D02*
D03*
D17*
X651000Y707999D02*
D03*
Y736001D02*
D03*
X626000Y707999D02*
D03*
Y736001D02*
D03*
D18*
X573727Y339400D02*
D03*
X550070Y327085D02*
D03*
X726127Y339400D02*
D03*
X738442Y315743D02*
D03*
X562385Y303428D02*
D03*
X586042Y315743D02*
D03*
X519655Y311252D02*
D03*
X531970Y287595D02*
D03*
X508313Y275280D02*
D03*
X495998Y298937D02*
D03*
X648398D02*
D03*
X660713Y275280D02*
D03*
X684370Y287595D02*
D03*
X672055Y311252D02*
D03*
X702470Y327085D02*
D03*
X714785Y303428D02*
D03*
D19*
X298750Y100250D02*
D03*
X313750D02*
D03*
D20*
X412500Y257000D02*
D03*
D21*
X432500Y266750D02*
D03*
Y260250D02*
D03*
Y253750D02*
D03*
Y247250D02*
D03*
X392500D02*
D03*
Y253750D02*
D03*
Y260250D02*
D03*
Y266750D02*
D03*
D22*
X422250Y237000D02*
D03*
X415750D02*
D03*
X409250D02*
D03*
X402750D02*
D03*
Y277000D02*
D03*
X409250D02*
D03*
X415750D02*
D03*
X422250D02*
D03*
D23*
X312420Y157480D02*
D03*
D24*
X293620Y147570D02*
D03*
Y152400D02*
D03*
Y157480D02*
D03*
Y162560D02*
D03*
Y167390D02*
D03*
X331220Y167380D02*
D03*
Y162560D02*
D03*
Y157480D02*
D03*
Y152400D02*
D03*
Y147570D02*
D03*
D25*
X302510Y176280D02*
D03*
X307340D02*
D03*
X312420D02*
D03*
X317500D02*
D03*
X322330D02*
D03*
X322580Y138680D02*
D03*
X317500D02*
D03*
X312420D02*
D03*
X307340D02*
D03*
X302510D02*
D03*
D29*
X930870Y689520D02*
Y742860D01*
X915630Y689520D02*
Y742860D01*
X786120Y622270D02*
Y675610D01*
X770880Y622270D02*
Y675610D01*
D30*
X370770Y434500D02*
Y449740D01*
Y419260D02*
Y434500D01*
X388510Y598200D02*
Y647730D01*
X396130Y586770D02*
Y640110D01*
X380890Y594390D02*
Y628680D01*
X403750Y594390D02*
Y647730D01*
X373270Y609630D02*
Y632490D01*
X388510Y647730D01*
X396130Y586770D02*
X411370D01*
X340480Y518130D02*
Y533370D01*
X523230Y518380D02*
Y533620D01*
X481320Y548860D02*
X515610D01*
X462270Y526000D02*
X515610D01*
X462270Y541240D02*
X511800D01*
X477510Y556480D02*
X500370D01*
X462270Y541240D02*
X477510Y556480D01*
X523230Y533620D02*
Y541240D01*
X515610Y548860D02*
X523230Y541240D01*
X469890Y518380D02*
X523230D01*
X955020Y558760D02*
X962640Y551140D01*
X1008360D02*
X1015980Y558760D01*
X955020Y566380D02*
Y589240D01*
X970260Y604480D01*
X1015980Y566380D02*
Y589240D01*
X1000740Y604480D02*
X1015980Y589240D01*
X962640Y551140D02*
Y585430D01*
X970260Y554950D02*
Y604480D01*
X977880Y543520D02*
Y596860D01*
X985500Y551140D02*
Y604480D01*
X993120Y543520D02*
Y596860D01*
X1000740Y554950D02*
Y604480D01*
X1008360Y551140D02*
Y585430D01*
X985500Y604480D02*
X1000740D01*
X970260D02*
X985500D01*
X962640Y551140D02*
X970260Y543520D01*
X977880D01*
X993120D01*
X1000740D01*
X1008360Y551140D01*
X810270Y490260D02*
X817890Y482640D01*
X863610D02*
X871230Y490260D01*
X810270Y497880D02*
Y520740D01*
X825510Y535980D01*
X871230Y497880D02*
Y520740D01*
X855990Y535980D02*
X871230Y520740D01*
X817890Y482640D02*
Y516930D01*
X825510Y486450D02*
Y535980D01*
X833130Y475020D02*
Y528360D01*
X840750Y482640D02*
Y535980D01*
X848370Y475020D02*
Y528360D01*
X855990Y486450D02*
Y535980D01*
X863610Y482640D02*
Y516930D01*
X840750Y535980D02*
X855990D01*
X825510D02*
X840750D01*
X817890Y482640D02*
X825510Y475020D01*
X833130D01*
X848370D01*
X855990D01*
X863610Y482640D01*
X416490Y404020D02*
X424110Y411640D01*
X416490Y464980D02*
X424110Y457360D01*
X386010Y404020D02*
X408870D01*
X370770Y419260D02*
X386010Y404020D01*
Y464980D02*
X408870D01*
X370770Y449740D02*
X386010Y464980D01*
X389820Y411640D02*
X424110D01*
X370770Y419260D02*
X420300D01*
X378390Y426880D02*
X431730D01*
X370770Y434500D02*
X424110D01*
X378390Y442120D02*
X431730D01*
X370770Y449740D02*
X420300D01*
X389820Y457360D02*
X424110D01*
Y411640D02*
X431730Y419260D01*
Y426880D01*
Y442120D02*
Y449740D01*
X424110Y457360D02*
X431730Y449740D01*
X325240Y495270D02*
X332860Y502890D01*
X325240Y556230D02*
X332860Y548610D01*
X294760Y495270D02*
X317620D01*
X279520Y510510D02*
X294760Y495270D01*
Y556230D02*
X317620D01*
X279520Y540990D02*
X294760Y556230D01*
X298570Y502890D02*
X332860D01*
X279520Y510510D02*
X329050D01*
X287140Y518130D02*
X340480D01*
X279520Y525750D02*
X332860D01*
X287140Y533370D02*
X340480D01*
X279520Y540990D02*
X329050D01*
X298570Y548610D02*
X332860D01*
X279520Y525750D02*
Y540990D01*
Y510510D02*
Y525750D01*
X332860Y502890D02*
X340480Y510510D01*
Y518130D01*
Y533370D02*
Y540990D01*
X332860Y548610D02*
X340480Y540990D01*
X507990Y495520D02*
X515610Y503140D01*
X507990Y556480D02*
X515610Y548860D01*
X477510Y495520D02*
X500370D01*
X462270Y510760D02*
X477510Y495520D01*
X481320Y503140D02*
X515610D01*
X462270Y510760D02*
X511800D01*
X469890Y533620D02*
X523230D01*
X462270Y526000D02*
Y541240D01*
Y510760D02*
Y526000D01*
X515610Y503140D02*
X523230Y510760D01*
Y518380D01*
X373270Y602010D02*
X380890Y594390D01*
X426610D02*
X434230Y602010D01*
Y609630D02*
Y632490D01*
X418990Y647730D02*
X434230Y632490D01*
X411370Y586770D02*
Y640110D01*
X418990Y598200D02*
Y647730D01*
X426610Y594390D02*
Y628680D01*
X403750Y647730D02*
X418990D01*
X388510D02*
X403750D01*
X380890Y594390D02*
X388510Y586770D01*
X396130D01*
X411370D02*
X418990D01*
X426610Y594390D01*
X923250Y697140D02*
Y750480D01*
X915630Y689520D02*
X930870D01*
X938490D01*
X892770Y704760D02*
X900390Y697140D01*
X946110D02*
X953730Y704760D01*
X892770Y712380D02*
Y735240D01*
X908010Y750480D01*
X953730Y712380D02*
Y735240D01*
X938490Y750480D02*
X953730Y735240D01*
X900390Y697140D02*
Y731430D01*
X908010Y700950D02*
Y750480D01*
X938490Y700950D02*
Y750480D01*
X946110Y697140D02*
Y731430D01*
X923250Y750480D02*
X938490D01*
X908010D02*
X923250D01*
X900390Y697140D02*
X908010Y689520D01*
X938490D02*
X946110Y697140D01*
X908010Y689520D02*
X915630D01*
X778500Y629890D02*
Y683230D01*
X770880Y622270D02*
X786120D01*
X793740D01*
X748020Y637510D02*
X755640Y629890D01*
X801360D02*
X808980Y637510D01*
X748020Y645130D02*
Y667990D01*
X763260Y683230D01*
X808980Y645130D02*
Y667990D01*
X793740Y683230D02*
X808980Y667990D01*
X755640Y629890D02*
Y664180D01*
X763260Y633700D02*
Y683230D01*
X793740Y633700D02*
Y683230D01*
X801360Y629890D02*
Y664180D01*
X778500Y683230D02*
X793740D01*
X763260D02*
X778500D01*
X755640Y629890D02*
X763260Y622270D01*
X793740D02*
X801360Y629890D01*
X763260Y622270D02*
X770880D01*
X431730Y426880D02*
Y442120D01*
M02*
