G04 Layer_Color=8388736*
%FSLAX44Y44*%
%MOMM*%
G71*
G01*
G75*
%ADD80P,6.8250X4X72.5*%
%ADD81R,0.8032X0.8032*%
%ADD82R,0.5082X1.0162*%
%ADD83R,1.0162X0.5082*%
%ADD84R,2.7032X2.7032*%
%ADD85R,0.5532X1.0032*%
%ADD86R,1.0032X0.5532*%
%ADD87R,3.0032X3.0032*%
G04:AMPARAMS|DCode=88|XSize=0.8032mm|YSize=1.1032mm|CornerRadius=0.2516mm|HoleSize=0mm|Usage=FLASHONLY|Rotation=0.000|XOffset=0mm|YOffset=0mm|HoleType=Round|Shape=RoundedRectangle|*
%AMROUNDEDRECTD88*
21,1,0.8032,0.6000,0,0,0.0*
21,1,0.3000,1.1032,0,0,0.0*
1,1,0.5032,0.1500,-0.3000*
1,1,0.5032,-0.1500,-0.3000*
1,1,0.5032,-0.1500,0.3000*
1,1,0.5032,0.1500,0.3000*
%
%ADD88ROUNDEDRECTD88*%
%ADD89P,2.9814X4X72.5*%
%ADD90R,0.8032X0.8032*%
G04:AMPARAMS|DCode=91|XSize=1.9532mm|YSize=1.4532mm|CornerRadius=0.4141mm|HoleSize=0mm|Usage=FLASHONLY|Rotation=270.000|XOffset=0mm|YOffset=0mm|HoleType=Round|Shape=RoundedRectangle|*
%AMROUNDEDRECTD91*
21,1,1.9532,0.6250,0,0,270.0*
21,1,1.1250,1.4532,0,0,270.0*
1,1,0.8282,-0.3125,-0.5625*
1,1,0.8282,-0.3125,0.5625*
1,1,0.8282,0.3125,0.5625*
1,1,0.8282,0.3125,-0.5625*
%
%ADD91ROUNDEDRECTD91*%
G04:AMPARAMS|DCode=92|XSize=1.9532mm|YSize=1.4532mm|CornerRadius=0.4141mm|HoleSize=0mm|Usage=FLASHONLY|Rotation=0.000|XOffset=0mm|YOffset=0mm|HoleType=Round|Shape=RoundedRectangle|*
%AMROUNDEDRECTD92*
21,1,1.9532,0.6250,0,0,0.0*
21,1,1.1250,1.4532,0,0,0.0*
1,1,0.8282,0.5625,-0.3125*
1,1,0.8282,-0.5625,-0.3125*
1,1,0.8282,-0.5625,0.3125*
1,1,0.8282,0.5625,0.3125*
%
%ADD92ROUNDEDRECTD92*%
%ADD93R,2.0033X1.8032*%
%ADD94R,1.7033X1.5032*%
%ADD95R,1.2032X1.3033*%
G04:AMPARAMS|DCode=96|XSize=1.6032mm|YSize=1.3032mm|CornerRadius=0.3766mm|HoleSize=0mm|Usage=FLASHONLY|Rotation=0.000|XOffset=0mm|YOffset=0mm|HoleType=Round|Shape=RoundedRectangle|*
%AMROUNDEDRECTD96*
21,1,1.6032,0.5500,0,0,0.0*
21,1,0.8500,1.3032,0,0,0.0*
1,1,0.7532,0.4250,-0.2750*
1,1,0.7532,-0.4250,-0.2750*
1,1,0.7532,-0.4250,0.2750*
1,1,0.7532,0.4250,0.2750*
%
%ADD96ROUNDEDRECTD96*%
%ADD97C,0.5032*%
%ADD98C,0.6096*%
%ADD99R,1.7032X1.7032*%
%ADD100C,1.7032*%
%ADD101O,3.2032X1.7032*%
%ADD102C,1.7272*%
%ADD103C,2.7432*%
%ADD104C,4.7752*%
%ADD105C,1.2032*%
%ADD106C,1.0032*%
%ADD107C,0.7032*%
%ADD108C,1.4032*%
D80*
X720456Y321414D02*
D03*
X666384Y293266D02*
D03*
X513984D02*
D03*
X568056Y321414D02*
D03*
D81*
X778500Y619730D02*
D03*
Y685770D02*
D03*
X923250Y686980D02*
D03*
Y753020D02*
D03*
X403750Y650270D02*
D03*
Y584230D02*
D03*
X840750Y538520D02*
D03*
Y472480D02*
D03*
X985500Y607020D02*
D03*
Y540980D02*
D03*
D82*
X302510Y138680D02*
D03*
X307340D02*
D03*
X312420D02*
D03*
X317500D02*
D03*
X322580D02*
D03*
X322330Y176280D02*
D03*
X317500D02*
D03*
X312420D02*
D03*
X307340D02*
D03*
X302510D02*
D03*
D83*
X331220Y147570D02*
D03*
Y152400D02*
D03*
Y157480D02*
D03*
Y162560D02*
D03*
Y167380D02*
D03*
X293620Y167390D02*
D03*
Y162560D02*
D03*
Y157480D02*
D03*
Y152400D02*
D03*
Y147570D02*
D03*
D84*
X312420Y157480D02*
D03*
D85*
X422250Y277000D02*
D03*
X415750D02*
D03*
X409250D02*
D03*
X402750D02*
D03*
Y237000D02*
D03*
X409250D02*
D03*
X415750D02*
D03*
X422250D02*
D03*
D86*
X392500Y266750D02*
D03*
Y260250D02*
D03*
Y253750D02*
D03*
Y247250D02*
D03*
X432500D02*
D03*
Y253750D02*
D03*
Y260250D02*
D03*
Y266750D02*
D03*
D87*
X412500Y257000D02*
D03*
D88*
X313750Y100250D02*
D03*
X298750D02*
D03*
D89*
X738442Y315743D02*
D03*
X726127Y339400D02*
D03*
X550070Y327085D02*
D03*
X573727Y339400D02*
D03*
X714785Y303428D02*
D03*
X702470Y327085D02*
D03*
X672055Y311252D02*
D03*
X684370Y287595D02*
D03*
X660713Y275280D02*
D03*
X648398Y298937D02*
D03*
X495998D02*
D03*
X508313Y275280D02*
D03*
X531970Y287595D02*
D03*
X519655Y311252D02*
D03*
X586042Y315743D02*
D03*
X562385Y303428D02*
D03*
D90*
X459730Y526000D02*
D03*
X525770D02*
D03*
X276980Y525750D02*
D03*
X343020D02*
D03*
X368230Y434500D02*
D03*
X434270D02*
D03*
D91*
X385750Y96500D02*
D03*
X358250D02*
D03*
X384750Y126000D02*
D03*
X357250D02*
D03*
X464000Y209750D02*
D03*
X436500D02*
D03*
X324500Y214500D02*
D03*
X297000D02*
D03*
D92*
X391750Y181250D02*
D03*
Y153750D02*
D03*
X421250Y182250D02*
D03*
Y154750D02*
D03*
X362000Y196250D02*
D03*
Y223750D02*
D03*
X460750Y265000D02*
D03*
Y237500D02*
D03*
X428750Y337500D02*
D03*
Y310000D02*
D03*
X269500Y182750D02*
D03*
Y155250D02*
D03*
D93*
X626000Y736001D02*
D03*
Y707999D02*
D03*
X651000Y736001D02*
D03*
Y707999D02*
D03*
D94*
X642750Y591250D02*
D03*
Y572250D02*
D03*
D95*
X654250Y616751D02*
D03*
Y633749D02*
D03*
D96*
X458250Y328000D02*
D03*
Y310500D02*
D03*
D97*
X770880Y622270D02*
Y675610D01*
X786120Y622270D02*
Y675610D01*
X915630Y689520D02*
Y742860D01*
X930870Y689520D02*
Y742860D01*
D98*
X763260Y622270D02*
X770880D01*
X793740D02*
X801360Y629890D01*
X755640D02*
X763260Y622270D01*
Y683230D02*
X778500D01*
X793740D01*
X801360Y629890D02*
Y664180D01*
X793740Y633700D02*
Y683230D01*
X763260Y633700D02*
Y683230D01*
X755640Y629890D02*
Y664180D01*
X793740Y683230D02*
X808980Y667990D01*
Y645130D02*
Y667990D01*
X748020D02*
X763260Y683230D01*
X748020Y645130D02*
Y667990D01*
X801360Y629890D02*
X808980Y637510D01*
X748020D02*
X755640Y629890D01*
X786120Y622270D02*
X793740D01*
X770880D02*
X786120D01*
X778500Y629890D02*
Y683230D01*
X908010Y689520D02*
X915630D01*
X938490D02*
X946110Y697140D01*
X900390D02*
X908010Y689520D01*
Y750480D02*
X923250D01*
X938490D01*
X946110Y697140D02*
Y731430D01*
X938490Y700950D02*
Y750480D01*
X908010Y700950D02*
Y750480D01*
X900390Y697140D02*
Y731430D01*
X938490Y750480D02*
X953730Y735240D01*
Y712380D02*
Y735240D01*
X892770D02*
X908010Y750480D01*
X892770Y712380D02*
Y735240D01*
X946110Y697140D02*
X953730Y704760D01*
X892770D02*
X900390Y697140D01*
X930870Y689520D02*
X938490D01*
X915630D02*
X930870D01*
X923250Y697140D02*
Y750480D01*
X418990Y586770D02*
X426610Y594390D01*
X411370Y586770D02*
X418990D01*
X396130D02*
X411370D01*
X388510D02*
X396130D01*
X380890Y594390D02*
X388510Y586770D01*
Y647730D02*
X403750D01*
X418990D01*
X426610Y594390D02*
Y628680D01*
X418990Y598200D02*
Y647730D01*
X411370Y586770D02*
Y640110D01*
X403750Y594390D02*
Y647730D01*
X396130Y586770D02*
Y640110D01*
X388510Y598200D02*
Y647730D01*
X380890Y594390D02*
Y628680D01*
X418990Y647730D02*
X434230Y632490D01*
Y609630D02*
Y632490D01*
X373270D02*
X388510Y647730D01*
X373270Y609630D02*
Y632490D01*
X426610Y594390D02*
X434230Y602010D01*
X373270D02*
X380890Y594390D01*
X515610Y548860D02*
X523230Y541240D01*
Y533620D02*
Y541240D01*
Y518380D02*
Y533620D01*
Y510760D02*
Y518380D01*
X515610Y503140D02*
X523230Y510760D01*
X462270D02*
Y526000D01*
Y541240D01*
X481320Y548860D02*
X515610D01*
X462270Y541240D02*
X511800D01*
X469890Y533620D02*
X523230D01*
X462270Y526000D02*
X515610D01*
X469890Y518380D02*
X523230D01*
X462270Y510760D02*
X511800D01*
X481320Y503140D02*
X515610D01*
X462270Y541240D02*
X477510Y556480D01*
X500370D01*
X462270Y510760D02*
X477510Y495520D01*
X500370D01*
X507990Y556480D02*
X515610Y548860D01*
X507990Y495520D02*
X515610Y503140D01*
X332860Y548610D02*
X340480Y540990D01*
Y533370D02*
Y540990D01*
Y518130D02*
Y533370D01*
Y510510D02*
Y518130D01*
X332860Y502890D02*
X340480Y510510D01*
X279520D02*
Y525750D01*
Y540990D01*
X298570Y548610D02*
X332860D01*
X279520Y540990D02*
X329050D01*
X287140Y533370D02*
X340480D01*
X279520Y525750D02*
X332860D01*
X287140Y518130D02*
X340480D01*
X279520Y510510D02*
X329050D01*
X298570Y502890D02*
X332860D01*
X279520Y540990D02*
X294760Y556230D01*
X317620D01*
X279520Y510510D02*
X294760Y495270D01*
X317620D01*
X325240Y556230D02*
X332860Y548610D01*
X325240Y495270D02*
X332860Y502890D01*
X424110Y457360D02*
X431730Y449740D01*
Y442120D02*
Y449740D01*
Y426880D02*
Y442120D01*
Y419260D02*
Y426880D01*
X424110Y411640D02*
X431730Y419260D01*
X370770D02*
Y434500D01*
Y449740D01*
X389820Y457360D02*
X424110D01*
X370770Y449740D02*
X420300D01*
X378390Y442120D02*
X431730D01*
X370770Y434500D02*
X424110D01*
X378390Y426880D02*
X431730D01*
X370770Y419260D02*
X420300D01*
X389820Y411640D02*
X424110D01*
X370770Y449740D02*
X386010Y464980D01*
X408870D01*
X370770Y419260D02*
X386010Y404020D01*
X408870D01*
X416490Y464980D02*
X424110Y457360D01*
X416490Y404020D02*
X424110Y411640D01*
X855990Y475020D02*
X863610Y482640D01*
X848370Y475020D02*
X855990D01*
X833130D02*
X848370D01*
X825510D02*
X833130D01*
X817890Y482640D02*
X825510Y475020D01*
Y535980D02*
X840750D01*
X855990D01*
X863610Y482640D02*
Y516930D01*
X855990Y486450D02*
Y535980D01*
X848370Y475020D02*
Y528360D01*
X840750Y482640D02*
Y535980D01*
X833130Y475020D02*
Y528360D01*
X825510Y486450D02*
Y535980D01*
X817890Y482640D02*
Y516930D01*
X855990Y535980D02*
X871230Y520740D01*
Y497880D02*
Y520740D01*
X810270D02*
X825510Y535980D01*
X810270Y497880D02*
Y520740D01*
X863610Y482640D02*
X871230Y490260D01*
X810270D02*
X817890Y482640D01*
X1000740Y543520D02*
X1008360Y551140D01*
X993120Y543520D02*
X1000740D01*
X977880D02*
X993120D01*
X970260D02*
X977880D01*
X962640Y551140D02*
X970260Y543520D01*
Y604480D02*
X985500D01*
X1000740D01*
X1008360Y551140D02*
Y585430D01*
X1000740Y554950D02*
Y604480D01*
X993120Y543520D02*
Y596860D01*
X985500Y551140D02*
Y604480D01*
X977880Y543520D02*
Y596860D01*
X970260Y554950D02*
Y604480D01*
X962640Y551140D02*
Y585430D01*
X1000740Y604480D02*
X1015980Y589240D01*
Y566380D02*
Y589240D01*
X955020D02*
X970260Y604480D01*
X955020Y566380D02*
Y589240D01*
X1008360Y551140D02*
X1015980Y558760D01*
X955020D02*
X962640Y551140D01*
D99*
X268250Y127000D02*
D03*
X269000Y216750D02*
D03*
D100*
X268250Y101600D02*
D03*
X269000Y242150D02*
D03*
D101*
X691750Y622500D02*
D03*
Y647900D02*
D03*
Y673300D02*
D03*
Y698700D02*
D03*
Y724100D02*
D03*
Y749500D02*
D03*
X803750Y399700D02*
D03*
Y374300D02*
D03*
X849500Y424950D02*
D03*
Y399550D02*
D03*
D102*
X274750Y324750D02*
D03*
X277000Y267750D02*
D03*
X462250Y101750D02*
D03*
X270250Y594250D02*
D03*
D103*
X1051560Y538480D02*
D03*
X769620D02*
D03*
X1038860Y449580D02*
D03*
Y678180D02*
D03*
X294640Y629920D02*
D03*
X505460Y421640D02*
D03*
X553720Y396240D02*
D03*
X558800Y619760D02*
D03*
X279400Y685800D02*
D03*
X635000Y347980D02*
D03*
D104*
X927100Y419100D02*
D03*
X384000Y316000D02*
D03*
D105*
X669750Y480000D02*
D03*
X546500Y537000D02*
D03*
X654250Y603000D02*
D03*
X350500Y165750D02*
D03*
X316000Y193250D02*
D03*
X627500Y515750D02*
D03*
X533705Y356045D02*
D03*
X994750Y622750D02*
D03*
X865250Y761250D02*
D03*
X269000Y195500D02*
D03*
X646000Y398500D02*
D03*
X400500Y209250D02*
D03*
X655000Y438000D02*
D03*
X639500Y385750D02*
D03*
X712500Y459750D02*
D03*
X707000Y515000D02*
D03*
X580500Y546500D02*
D03*
X632000Y398000D02*
D03*
X603000D02*
D03*
X620750Y376000D02*
D03*
X636500Y438250D02*
D03*
X621000Y438000D02*
D03*
X592250Y459000D02*
D03*
X662749Y557749D02*
D03*
X678250Y557500D02*
D03*
X648250Y557250D02*
D03*
X446250Y360000D02*
D03*
X431000Y362000D02*
D03*
X414000Y119000D02*
D03*
X312500Y393750D02*
D03*
X420000Y517500D02*
D03*
X545382Y759500D02*
D03*
X793500Y562000D02*
D03*
X395750Y688250D02*
D03*
X728000Y574000D02*
D03*
X733250Y701500D02*
D03*
X419250Y202250D02*
D03*
X415750Y216297D02*
D03*
X332250Y194750D02*
D03*
X604250Y753000D02*
D03*
X596000Y678750D02*
D03*
X444750Y189750D02*
D03*
X733250Y358500D02*
D03*
D106*
X778500Y652750D02*
D03*
X923250Y720000D02*
D03*
D107*
X312420Y157480D02*
D03*
Y149860D02*
D03*
Y165100D02*
D03*
X304800Y149860D02*
D03*
Y157480D02*
D03*
Y165100D02*
D03*
X320040D02*
D03*
Y157480D02*
D03*
Y149860D02*
D03*
X422660Y257000D02*
D03*
X412500D02*
D03*
X402340D02*
D03*
Y267160D02*
D03*
Y246840D02*
D03*
X412500Y267160D02*
D03*
Y246840D02*
D03*
X422660Y267160D02*
D03*
Y246840D02*
D03*
D108*
X797000Y718750D02*
D03*
X339000Y127750D02*
D03*
X374500Y239500D02*
D03*
X457750Y289000D02*
D03*
X437000Y287750D02*
D03*
X408000Y291250D02*
D03*
X293250Y126500D02*
D03*
X316500Y124750D02*
D03*
X656000Y509000D02*
D03*
X321000Y657250D02*
D03*
X293250Y780750D02*
D03*
X527500Y222200D02*
D03*
M02*
