M48
;Layer_Color=9474304
;FILE_FORMAT=4:4
METRIC,LZ
;TYPE=PLATED
T1F00S00C0.3000
T2F00S00C0.5000
T3F00S00C0.6000
T4F00S00C0.7000
T5F00S00C0.7620
T6F00S00C0.9000
T7F00S00C1.0000
T8F00S00C2.5400
T9F00S00C4.5720
%
T01
X003048Y0014986
X0031242
Y0015748
Y001651
X003048
Y0015748
X0032004
Y001651
Y0014986
X0040234Y0024684
Y00257
X004125
X0042266
Y0026716
X004125
X0040234
X004125Y0024684
X0042266
T02
X0092325Y0072
X007785Y0065275
T03
X00316Y0019325
X0033225Y0019475
X003505Y0016575
X003745Y002395
X004005Y0020925
X0041575Y00216297
X0041925Y0020225
X0044475Y0018975
X00437Y0028775
X0045775Y00289
X00408Y0029125
X005275Y002222
X00797Y0071875
X0060425Y00753
X00545382Y007595
X00596Y0067875
X00656Y00509
X00321Y0065725
X0029325Y0078075
T04
X0029325Y001265
X003165Y0012475
X00339Y0012775
X00269Y001955
X003125Y0039375
X00431Y00362
X0044625Y0036
X00533705Y00356045
X0062075Y00376
X006395Y0038575
X0073325Y003585
X00414Y00119
X0099475Y0062275
X0086525Y0076125
X0073325Y007015
X00728Y00574
X0067825Y005575
X00662749Y00557749
X0064825Y0055725
X0065425Y00603
X006275Y0051575
X005805Y005465
X005465Y00537
X0059225Y00459
X00621Y00438
X006365Y0043825
X00655Y00438
X00646Y003985
X00632Y00398
X00603
X0066975Y0048
X007125Y0045975
X00707Y00515
X007935Y00562
X0042Y005175
X0039575Y0068825
T05
X00277Y0026775
X0027475Y0032475
X0046225Y0010175
X0027025Y0059425
T06
X0026825Y001016
Y00127
X00269Y0021675
Y0024215
T07
X0080375Y003743
Y003997
X008495Y0039955
Y0042495
X0069175Y006225
Y006479
Y006733
Y006987
Y007241
Y007495
T08
X0055372Y0039624
X00635Y0034798
X0103886Y0044958
X0105156Y0053848
X0103886Y0067818
X0076962Y0053848
X005588Y0061976
X0050546Y0042164
X0029464Y0062992
X002794Y006858
T09
X00384Y00316
X009271Y004191
M30
