G04 Layer_Color=16711935*
%FSLAX44Y44*%
%MOMM*%
G71*
G01*
G75*
G04:AMPARAMS|DCode=91|XSize=1.9532mm|YSize=1.4532mm|CornerRadius=0.4141mm|HoleSize=0mm|Usage=FLASHONLY|Rotation=270.000|XOffset=0mm|YOffset=0mm|HoleType=Round|Shape=RoundedRectangle|*
%AMROUNDEDRECTD91*
21,1,1.9532,0.6250,0,0,270.0*
21,1,1.1250,1.4532,0,0,270.0*
1,1,0.8282,-0.3125,-0.5625*
1,1,0.8282,-0.3125,0.5625*
1,1,0.8282,0.3125,0.5625*
1,1,0.8282,0.3125,-0.5625*
%
%ADD91ROUNDEDRECTD91*%
G04:AMPARAMS|DCode=92|XSize=1.9532mm|YSize=1.4532mm|CornerRadius=0.4141mm|HoleSize=0mm|Usage=FLASHONLY|Rotation=0.000|XOffset=0mm|YOffset=0mm|HoleType=Round|Shape=RoundedRectangle|*
%AMROUNDEDRECTD92*
21,1,1.9532,0.6250,0,0,0.0*
21,1,1.1250,1.4532,0,0,0.0*
1,1,0.8282,0.5625,-0.3125*
1,1,0.8282,-0.5625,-0.3125*
1,1,0.8282,-0.5625,0.3125*
1,1,0.8282,0.5625,0.3125*
%
%ADD92ROUNDEDRECTD92*%
%ADD93R,2.0033X1.8032*%
%ADD94R,1.7033X1.5032*%
%ADD95R,1.2032X1.3033*%
G04:AMPARAMS|DCode=96|XSize=1.6032mm|YSize=1.3032mm|CornerRadius=0.3766mm|HoleSize=0mm|Usage=FLASHONLY|Rotation=0.000|XOffset=0mm|YOffset=0mm|HoleType=Round|Shape=RoundedRectangle|*
%AMROUNDEDRECTD96*
21,1,1.6032,0.5500,0,0,0.0*
21,1,0.8500,1.3032,0,0,0.0*
1,1,0.7532,0.4250,-0.2750*
1,1,0.7532,-0.4250,-0.2750*
1,1,0.7532,-0.4250,0.2750*
1,1,0.7532,0.4250,0.2750*
%
%ADD96ROUNDEDRECTD96*%
%ADD99R,1.7032X1.7032*%
%ADD100C,1.7032*%
%ADD101O,3.2032X1.7032*%
%ADD102C,1.7272*%
%ADD103C,2.7432*%
%ADD104C,4.7752*%
%ADD105C,1.2032*%
%ADD106C,1.0032*%
%ADD107C,0.7032*%
%ADD108C,1.4032*%
%ADD109R,1.3032X1.4032*%
%ADD110R,1.6032X1.3532*%
%ADD111R,1.4032X1.4032*%
%ADD112R,1.1032X1.0032*%
%ADD113R,1.7272X1.7272*%
%ADD114R,1.7272X1.7272*%
%ADD115R,1.2032X1.6032*%
%ADD116R,1.4032X1.1132*%
%ADD117R,2.2032X2.2032*%
%ADD118R,1.8032X2.0033*%
%ADD119R,1.4031X1.4031*%
%ADD120R,1.7032X0.8032*%
G04:AMPARAMS|DCode=121|XSize=1.6032mm|YSize=1.3032mm|CornerRadius=0.3766mm|HoleSize=0mm|Usage=FLASHONLY|Rotation=270.000|XOffset=0mm|YOffset=0mm|HoleType=Round|Shape=RoundedRectangle|*
%AMROUNDEDRECTD121*
21,1,1.6032,0.5500,0,0,270.0*
21,1,0.8500,1.3032,0,0,270.0*
1,1,0.7532,-0.2750,-0.4250*
1,1,0.7532,-0.2750,0.4250*
1,1,0.7532,0.2750,0.4250*
1,1,0.7532,0.2750,-0.4250*
%
%ADD121ROUNDEDRECTD121*%
%ADD122R,5.2032X2.7432*%
%ADD123R,3.0032X3.0032*%
%ADD124R,3.0032X2.4032*%
%ADD125R,1.7033X0.7033*%
%ADD126R,0.7033X1.7033*%
%ADD127R,1.7032X0.6032*%
%ADD128R,1.5032X1.7033*%
%ADD129R,1.3033X1.2032*%
%ADD130R,1.0032X1.1032*%
%ADD131R,3.4031X1.4031*%
%ADD132R,3.2032X3.2032*%
G04:AMPARAMS|DCode=133|XSize=1.8032mm|YSize=1.8032mm|CornerRadius=0.5016mm|HoleSize=0mm|Usage=FLASHONLY|Rotation=0.000|XOffset=0mm|YOffset=0mm|HoleType=Round|Shape=RoundedRectangle|*
%AMROUNDEDRECTD133*
21,1,1.8032,0.8000,0,0,0.0*
21,1,0.8000,1.8032,0,0,0.0*
1,1,1.0032,0.4000,-0.4000*
1,1,1.0032,-0.4000,-0.4000*
1,1,1.0032,-0.4000,0.4000*
1,1,1.0032,0.4000,0.4000*
%
%ADD133ROUNDEDRECTD133*%
%ADD134R,1.4032X2.2032*%
%ADD135R,4.2032X1.7032*%
%ADD136R,1.7032X1.7032*%
%ADD137R,2.0032X2.0032*%
%ADD138C,2.2032*%
D91*
X302250Y339750D02*
D03*
X329750D02*
D03*
X437250Y129500D02*
D03*
X464750D02*
D03*
X401500Y162250D02*
D03*
X374000D02*
D03*
X373250Y192000D02*
D03*
X400750D02*
D03*
X334250Y518250D02*
D03*
X306750D02*
D03*
X337000Y421750D02*
D03*
X309500D02*
D03*
X430500Y484250D02*
D03*
X458000D02*
D03*
X515500Y586000D02*
D03*
X543000D02*
D03*
D92*
X345750Y181500D02*
D03*
Y209000D02*
D03*
X303000Y181750D02*
D03*
Y209250D02*
D03*
X592000Y366250D02*
D03*
Y338750D02*
D03*
D93*
X983500Y643250D02*
D03*
Y671251D02*
D03*
X936000Y670001D02*
D03*
Y642000D02*
D03*
X292000Y726499D02*
D03*
Y754501D02*
D03*
X652000Y715499D02*
D03*
Y743501D02*
D03*
X621500Y714999D02*
D03*
Y743000D02*
D03*
D94*
X516250Y143500D02*
D03*
Y162500D02*
D03*
X539000Y143250D02*
D03*
Y162250D02*
D03*
X478750Y190750D02*
D03*
Y209750D02*
D03*
X584520Y281040D02*
D03*
Y262041D02*
D03*
X607520D02*
D03*
Y281040D02*
D03*
X456000Y251170D02*
D03*
Y232171D02*
D03*
X479750Y232421D02*
D03*
Y251420D02*
D03*
D95*
X628750Y632703D02*
D03*
Y615706D02*
D03*
X608500Y632703D02*
D03*
Y615706D02*
D03*
D96*
X272750Y430750D02*
D03*
Y413250D02*
D03*
X273000Y287250D02*
D03*
Y304750D02*
D03*
X272500Y341500D02*
D03*
Y359000D02*
D03*
D99*
X268250Y127000D02*
D03*
X269000Y216750D02*
D03*
D100*
X268250Y101600D02*
D03*
X269000Y242150D02*
D03*
D101*
X691750Y622500D02*
D03*
Y647900D02*
D03*
Y673300D02*
D03*
Y698700D02*
D03*
Y724100D02*
D03*
Y749500D02*
D03*
X803750Y399700D02*
D03*
Y374300D02*
D03*
X849500Y424950D02*
D03*
Y399550D02*
D03*
D102*
X274750Y324750D02*
D03*
X277000Y267750D02*
D03*
X462250Y101750D02*
D03*
X270250Y594250D02*
D03*
D103*
X1051560Y538480D02*
D03*
X769620D02*
D03*
X1038860Y449580D02*
D03*
Y678180D02*
D03*
X294640Y629920D02*
D03*
X505460Y421640D02*
D03*
X553720Y396240D02*
D03*
X558800Y619760D02*
D03*
X279400Y685800D02*
D03*
X635000Y347980D02*
D03*
D104*
X927100Y419100D02*
D03*
X384000Y316000D02*
D03*
D105*
X669750Y480000D02*
D03*
X546500Y537000D02*
D03*
X654250Y603000D02*
D03*
X350500Y165750D02*
D03*
X316000Y193250D02*
D03*
X627500Y515750D02*
D03*
X533705Y356045D02*
D03*
X994750Y622750D02*
D03*
X865250Y761250D02*
D03*
X269000Y195500D02*
D03*
X646000Y398500D02*
D03*
X400500Y209250D02*
D03*
X655000Y438000D02*
D03*
X639500Y385750D02*
D03*
X712500Y459750D02*
D03*
X707000Y515000D02*
D03*
X580500Y546500D02*
D03*
X632000Y398000D02*
D03*
X603000D02*
D03*
X620750Y376000D02*
D03*
X636500Y438250D02*
D03*
X621000Y438000D02*
D03*
X592250Y459000D02*
D03*
X662749Y557749D02*
D03*
X678250Y557500D02*
D03*
X648250Y557250D02*
D03*
X446250Y360000D02*
D03*
X431000Y362000D02*
D03*
X414000Y119000D02*
D03*
X312500Y393750D02*
D03*
X420000Y517500D02*
D03*
X545382Y759500D02*
D03*
X793500Y562000D02*
D03*
X395750Y688250D02*
D03*
X728000Y574000D02*
D03*
X733250Y701500D02*
D03*
X419250Y202250D02*
D03*
X415750Y216297D02*
D03*
X332250Y194750D02*
D03*
X604250Y753000D02*
D03*
X596000Y678750D02*
D03*
X444750Y189750D02*
D03*
X733250Y358500D02*
D03*
D106*
X778500Y652750D02*
D03*
X923250Y720000D02*
D03*
D107*
X312420Y157480D02*
D03*
Y149860D02*
D03*
Y165100D02*
D03*
X304800Y149860D02*
D03*
Y157480D02*
D03*
Y165100D02*
D03*
X320040D02*
D03*
Y157480D02*
D03*
Y149860D02*
D03*
X422660Y257000D02*
D03*
X412500D02*
D03*
X402340D02*
D03*
Y267160D02*
D03*
Y246840D02*
D03*
X412500Y267160D02*
D03*
Y246840D02*
D03*
X422660Y267160D02*
D03*
Y246840D02*
D03*
D108*
X797000Y718750D02*
D03*
X339000Y127750D02*
D03*
X374500Y239500D02*
D03*
X457750Y289000D02*
D03*
X437000Y287750D02*
D03*
X408000Y291250D02*
D03*
X293250Y126500D02*
D03*
X316500Y124750D02*
D03*
X656000Y509000D02*
D03*
X321000Y657250D02*
D03*
X293250Y780750D02*
D03*
X527500Y222200D02*
D03*
D109*
X422750Y708000D02*
D03*
Y691000D02*
D03*
X436750D02*
D03*
Y708000D02*
D03*
D110*
X778500Y491250D02*
D03*
X756500D02*
D03*
Y475250D02*
D03*
X778500D02*
D03*
D111*
X817000Y787500D02*
D03*
Y767500D02*
D03*
Y747500D02*
D03*
Y727500D02*
D03*
X340750Y708250D02*
D03*
Y728250D02*
D03*
Y748250D02*
D03*
Y768250D02*
D03*
X395750Y645000D02*
D03*
Y625000D02*
D03*
Y605000D02*
D03*
Y585000D02*
D03*
X467000Y634750D02*
D03*
Y614750D02*
D03*
Y594750D02*
D03*
Y574750D02*
D03*
D112*
X444750Y151500D02*
D03*
X454250Y171500D02*
D03*
X435250D02*
D03*
D113*
X788750Y696250D02*
D03*
X808750D02*
D03*
X517000Y549500D02*
D03*
X497000D02*
D03*
X1020000Y735500D02*
D03*
D114*
X567250Y338500D02*
D03*
Y358500D02*
D03*
X459500Y390250D02*
D03*
Y410250D02*
D03*
D115*
X889500Y669000D02*
D03*
X899000Y647000D02*
D03*
X908500Y669000D02*
D03*
D116*
X985500Y699250D02*
D03*
Y731950D02*
D03*
D117*
X957750Y774250D02*
D03*
X927750D02*
D03*
X897750D02*
D03*
X957750Y744250D02*
D03*
X927750D02*
D03*
X897750D02*
D03*
X527500Y494250D02*
D03*
X528250Y464500D02*
D03*
X495750Y463750D02*
D03*
X495250Y493750D02*
D03*
X503660Y383618D02*
D03*
D118*
X761000Y619250D02*
D03*
X789000D02*
D03*
X814750Y670500D02*
D03*
X842750D02*
D03*
X815499Y645750D02*
D03*
X843501D02*
D03*
X474749Y785250D02*
D03*
X502751D02*
D03*
X378750Y668750D02*
D03*
X350750D02*
D03*
X610999Y686500D02*
D03*
X639001D02*
D03*
X403750Y539750D02*
D03*
X375750D02*
D03*
D119*
X270000Y493500D02*
D03*
Y472500D02*
D03*
X270250Y540250D02*
D03*
Y561250D02*
D03*
D120*
X555250Y273000D02*
D03*
Y260300D02*
D03*
Y247600D02*
D03*
Y234900D02*
D03*
Y222200D02*
D03*
Y209500D02*
D03*
Y196800D02*
D03*
Y184100D02*
D03*
X501250D02*
D03*
Y196800D02*
D03*
Y209500D02*
D03*
Y222200D02*
D03*
Y234900D02*
D03*
Y247600D02*
D03*
Y260300D02*
D03*
Y273000D02*
D03*
D121*
X424000Y99250D02*
D03*
X441500D02*
D03*
D122*
X322750Y241040D02*
D03*
Y282960D02*
D03*
D123*
X635000Y241500D02*
D03*
X598000Y203500D02*
D03*
D124*
X672000Y128500D02*
D03*
X598000Y108500D02*
D03*
D125*
X572499Y514750D02*
D03*
Y506749D02*
D03*
Y498750D02*
D03*
Y490750D02*
D03*
Y482751D02*
D03*
Y474750D02*
D03*
Y466749D02*
D03*
Y458750D02*
D03*
Y450750D02*
D03*
Y442751D02*
D03*
Y434750D02*
D03*
X688501D02*
D03*
Y442751D02*
D03*
Y450750D02*
D03*
Y458750D02*
D03*
Y466749D02*
D03*
Y474750D02*
D03*
Y482751D02*
D03*
Y490750D02*
D03*
Y498750D02*
D03*
Y506749D02*
D03*
Y514750D02*
D03*
D126*
X590500Y416749D02*
D03*
X598501D02*
D03*
X606499D02*
D03*
X614501D02*
D03*
X622499D02*
D03*
X630500D02*
D03*
X638501D02*
D03*
X646499D02*
D03*
X654501D02*
D03*
X662499D02*
D03*
X670500D02*
D03*
Y532751D02*
D03*
X662499D02*
D03*
X654501D02*
D03*
X646499D02*
D03*
X638501D02*
D03*
X630500D02*
D03*
X622499D02*
D03*
X614501D02*
D03*
X606499D02*
D03*
X598501D02*
D03*
X590500D02*
D03*
D127*
X518750Y691400D02*
D03*
Y685000D02*
D03*
Y697800D02*
D03*
Y704200D02*
D03*
Y729800D02*
D03*
Y723400D02*
D03*
Y710600D02*
D03*
Y717000D02*
D03*
Y768200D02*
D03*
Y761800D02*
D03*
X584250Y685000D02*
D03*
Y691400D02*
D03*
X518750Y755400D02*
D03*
Y749000D02*
D03*
Y736200D02*
D03*
Y742600D02*
D03*
X584250Y755400D02*
D03*
Y749000D02*
D03*
Y761800D02*
D03*
Y768200D02*
D03*
Y729800D02*
D03*
Y723400D02*
D03*
Y736200D02*
D03*
Y742600D02*
D03*
Y717000D02*
D03*
Y710600D02*
D03*
Y697800D02*
D03*
Y704200D02*
D03*
D128*
X497500Y121250D02*
D03*
X516500D02*
D03*
X559750Y121000D02*
D03*
X540750D02*
D03*
X561250Y156500D02*
D03*
X580250D02*
D03*
X460500Y346000D02*
D03*
X479500D02*
D03*
X835000Y619250D02*
D03*
X816000D02*
D03*
X832750Y571500D02*
D03*
X851750D02*
D03*
X906500Y570500D02*
D03*
X887500D02*
D03*
X851750Y595000D02*
D03*
X832750D02*
D03*
X888000Y594500D02*
D03*
X907000D02*
D03*
D129*
X478251Y763000D02*
D03*
X495249D02*
D03*
X418001Y728500D02*
D03*
X434999D02*
D03*
X481501Y743250D02*
D03*
X498499D02*
D03*
X434499Y671250D02*
D03*
X417501D02*
D03*
X847999Y696000D02*
D03*
X831001D02*
D03*
D130*
X362000Y256000D02*
D03*
X376000D02*
D03*
X362000Y269750D02*
D03*
X376000D02*
D03*
X551750Y434750D02*
D03*
X537750D02*
D03*
X661750Y386250D02*
D03*
X675750D02*
D03*
X638750Y575750D02*
D03*
X652750D02*
D03*
X775250Y510000D02*
D03*
X761250D02*
D03*
X774750Y457500D02*
D03*
X760750D02*
D03*
D131*
X847750Y472750D02*
D03*
X915750D02*
D03*
Y512750D02*
D03*
X847750D02*
D03*
D132*
X312420Y157480D02*
D03*
X412500Y257000D02*
D03*
D133*
X272000Y393250D02*
D03*
X307750Y461000D02*
D03*
D134*
X521500Y293500D02*
D03*
X536000D02*
D03*
X504750Y293750D02*
D03*
X553250Y293500D02*
D03*
D135*
X357000Y366500D02*
D03*
X357250Y389500D02*
D03*
D136*
X733500Y422500D02*
D03*
Y443500D02*
D03*
D137*
X527750Y98500D02*
D03*
D138*
X497500Y97750D02*
D03*
X559250Y97250D02*
D03*
M02*
