G04 Layer_Color=65535*
%FSLAX44Y44*%
%MOMM*%
G71*
G01*
G75*
%ADD26C,0.2540*%
%ADD74C,0.2000*%
%ADD76C,0.2500*%
%ADD77C,0.1270*%
%ADD78C,0.1524*%
%ADD79C,0.2032*%
G36*
X879564Y543421D02*
X879623D01*
X879682Y543416D01*
X879751Y543405D01*
X879891Y543389D01*
X880046Y543362D01*
X880191Y543325D01*
X880330Y543271D01*
X880335D01*
X880346Y543266D01*
X880362Y543255D01*
X880389Y543245D01*
X880448Y543207D01*
X880528Y543159D01*
X880614Y543094D01*
X880700Y543014D01*
X880786Y542918D01*
X880866Y542810D01*
Y542805D01*
X880877Y542794D01*
X880882Y542778D01*
X880898Y542757D01*
X880914Y542730D01*
X880930Y542692D01*
X880968Y542612D01*
X881000Y542516D01*
X881032Y542403D01*
X881054Y542285D01*
X881064Y542156D01*
Y542151D01*
Y542141D01*
Y542124D01*
Y542103D01*
X881054Y542044D01*
X881043Y541964D01*
X881021Y541872D01*
X880989Y541771D01*
X880946Y541669D01*
X880888Y541562D01*
Y541556D01*
X880882Y541551D01*
X880871Y541535D01*
X880855Y541513D01*
X880818Y541465D01*
X880759Y541401D01*
X880689Y541331D01*
X880598Y541256D01*
X880496Y541181D01*
X880373Y541111D01*
X880378D01*
X880394Y541106D01*
X880416Y541095D01*
X880448Y541085D01*
X880486Y541069D01*
X880528Y541053D01*
X880625Y541004D01*
X880737Y540945D01*
X880850Y540865D01*
X880963Y540774D01*
X881059Y540661D01*
X881064Y540656D01*
X881070Y540645D01*
X881080Y540629D01*
X881096Y540608D01*
X881118Y540575D01*
X881139Y540538D01*
X881161Y540495D01*
X881182Y540447D01*
X881225Y540340D01*
X881268Y540211D01*
X881295Y540066D01*
X881305Y539991D01*
Y539911D01*
Y539906D01*
Y539895D01*
Y539879D01*
Y539852D01*
X881300Y539820D01*
Y539788D01*
X881289Y539702D01*
X881268Y539600D01*
X881241Y539493D01*
X881204Y539375D01*
X881155Y539263D01*
Y539257D01*
X881150Y539252D01*
X881139Y539236D01*
X881129Y539214D01*
X881096Y539161D01*
X881054Y539096D01*
X881005Y539021D01*
X880941Y538946D01*
X880871Y538871D01*
X880791Y538802D01*
X880780Y538796D01*
X880753Y538775D01*
X880705Y538748D01*
X880641Y538711D01*
X880566Y538673D01*
X880475Y538630D01*
X880368Y538592D01*
X880250Y538560D01*
X880244D01*
X880234Y538555D01*
X880218D01*
X880191Y538550D01*
X880159Y538544D01*
X880121Y538534D01*
X880078Y538528D01*
X880030Y538523D01*
X879976Y538512D01*
X879912Y538507D01*
X879778Y538491D01*
X879623Y538485D01*
X879451Y538480D01*
X877570D01*
Y543427D01*
X879516D01*
X879564Y543421D01*
D02*
G37*
G36*
X675020Y343942D02*
X675079D01*
X675148Y343937D01*
X675229Y343932D01*
X675389Y343916D01*
X675556Y343889D01*
X675716Y343857D01*
X675786Y343835D01*
X675856Y343814D01*
X675861D01*
X675872Y343809D01*
X675888Y343798D01*
X675915Y343787D01*
X675979Y343755D01*
X676054Y343707D01*
X676145Y343642D01*
X676236Y343557D01*
X676327Y343460D01*
X676408Y343342D01*
Y343337D01*
X676419Y343326D01*
X676429Y343310D01*
X676440Y343283D01*
X676456Y343251D01*
X676472Y343214D01*
X676494Y343171D01*
X676515Y343122D01*
X676553Y343010D01*
X676585Y342887D01*
X676606Y342747D01*
X676617Y342597D01*
Y342592D01*
Y342576D01*
Y342544D01*
X676611Y342511D01*
X676606Y342463D01*
X676601Y342410D01*
X676590Y342351D01*
X676574Y342286D01*
X676531Y342147D01*
X676504Y342072D01*
X676472Y341997D01*
X676435Y341922D01*
X676386Y341847D01*
X676333Y341777D01*
X676274Y341708D01*
X676268Y341702D01*
X676258Y341692D01*
X676236Y341675D01*
X676209Y341649D01*
X676172Y341622D01*
X676129Y341590D01*
X676076Y341552D01*
X676011Y341515D01*
X675941Y341477D01*
X675866Y341440D01*
X675781Y341402D01*
X675684Y341365D01*
X675582Y341332D01*
X675470Y341300D01*
X675347Y341273D01*
X675218Y341252D01*
X675223D01*
X675229Y341247D01*
X675261Y341231D01*
X675309Y341204D01*
X675368Y341172D01*
X675432Y341134D01*
X675497Y341097D01*
X675561Y341048D01*
X675615Y341006D01*
X675620Y341000D01*
X675625Y340995D01*
X675641Y340979D01*
X675663Y340957D01*
X675690Y340930D01*
X675722Y340898D01*
X675791Y340823D01*
X675872Y340727D01*
X675963Y340614D01*
X676059Y340486D01*
X676156Y340346D01*
X677013Y339001D01*
X676193D01*
X675540Y340030D01*
X675534Y340036D01*
X675529Y340051D01*
X675513Y340073D01*
X675491Y340105D01*
X675470Y340143D01*
X675438Y340186D01*
X675373Y340282D01*
X675298Y340395D01*
X675223Y340507D01*
X675143Y340614D01*
X675068Y340711D01*
Y340716D01*
X675057Y340722D01*
X675036Y340748D01*
X675004Y340791D01*
X674955Y340839D01*
X674907Y340893D01*
X674848Y340947D01*
X674789Y341000D01*
X674736Y341038D01*
X674730Y341043D01*
X674709Y341054D01*
X674682Y341070D01*
X674644Y341091D01*
X674596Y341113D01*
X674548Y341134D01*
X674494Y341156D01*
X674436Y341172D01*
X674430D01*
X674414Y341177D01*
X674387Y341182D01*
X674350Y341188D01*
X674296D01*
X674232Y341193D01*
X674157Y341199D01*
X673315D01*
Y339001D01*
X672662D01*
Y343948D01*
X674961D01*
X675020Y343942D01*
D02*
G37*
G36*
X672131Y339001D02*
X671386D01*
X670813Y340496D01*
X668733D01*
X668197Y339001D01*
X667506D01*
X669398Y343948D01*
X670105D01*
X672131Y339001D01*
D02*
G37*
G36*
X956675Y756593D02*
X958530Y753999D01*
X957731D01*
X956477Y755762D01*
X956472Y755768D01*
X956461Y755789D01*
X956440Y755816D01*
X956413Y755859D01*
X956381Y755902D01*
X956349Y755950D01*
X956273Y756062D01*
Y756057D01*
X956268Y756052D01*
X956247Y756020D01*
X956220Y755977D01*
X956182Y755923D01*
X956102Y755810D01*
X956070Y755757D01*
X956038Y755714D01*
X954784Y753999D01*
X953996D01*
X955909Y756561D01*
X954221Y758946D01*
X954998D01*
X955904Y757675D01*
X955909Y757670D01*
X955914Y757660D01*
X955930Y757638D01*
X955952Y757611D01*
X955973Y757579D01*
X956000Y757542D01*
X956059Y757456D01*
X956124Y757354D01*
X956188Y757258D01*
X956252Y757156D01*
X956300Y757070D01*
Y757075D01*
X956306Y757081D01*
X956316Y757097D01*
X956332Y757118D01*
X956365Y757166D01*
X956413Y757236D01*
X956472Y757322D01*
X956536Y757418D01*
X956617Y757520D01*
X956697Y757627D01*
X957683Y758946D01*
X958396D01*
X956675Y756593D01*
D02*
G37*
G36*
X681183Y343364D02*
X679554D01*
Y339001D01*
X678900D01*
Y343364D01*
X677271D01*
Y343948D01*
X681183D01*
Y343364D01*
D02*
G37*
G36*
X661064Y344028D02*
X661123Y344023D01*
X661182Y344017D01*
X661251Y344012D01*
X661402Y343991D01*
X661568Y343959D01*
X661734Y343910D01*
X661895Y343851D01*
X661900D01*
X661911Y343841D01*
X661937Y343835D01*
X661964Y343819D01*
X661996Y343798D01*
X662039Y343776D01*
X662130Y343723D01*
X662237Y343648D01*
X662345Y343557D01*
X662447Y343455D01*
X662538Y343331D01*
X662543Y343326D01*
X662548Y343315D01*
X662559Y343299D01*
X662575Y343273D01*
X662591Y343240D01*
X662613Y343203D01*
X662629Y343155D01*
X662656Y343106D01*
X662698Y342994D01*
X662736Y342860D01*
X662768Y342715D01*
X662784Y342554D01*
X662157Y342506D01*
Y342511D01*
X662152Y342528D01*
Y342549D01*
X662146Y342581D01*
X662136Y342624D01*
X662125Y342667D01*
X662093Y342769D01*
X662050Y342881D01*
X661986Y342999D01*
X661911Y343112D01*
X661862Y343160D01*
X661809Y343208D01*
X661803Y343214D01*
X661798Y343219D01*
X661777Y343230D01*
X661755Y343246D01*
X661723Y343262D01*
X661685Y343283D01*
X661643Y343305D01*
X661594Y343331D01*
X661535Y343353D01*
X661471Y343374D01*
X661402Y343396D01*
X661326Y343412D01*
X661241Y343428D01*
X661150Y343439D01*
X661053Y343449D01*
X660898D01*
X660855Y343444D01*
X660807D01*
X660753Y343439D01*
X660689Y343433D01*
X660624Y343423D01*
X660480Y343396D01*
X660340Y343358D01*
X660206Y343305D01*
X660142Y343267D01*
X660088Y343230D01*
X660083D01*
X660078Y343219D01*
X660045Y343192D01*
X660003Y343144D01*
X659954Y343080D01*
X659906Y343005D01*
X659863Y342914D01*
X659831Y342817D01*
X659826Y342763D01*
X659820Y342704D01*
Y342699D01*
Y342694D01*
X659826Y342662D01*
X659831Y342613D01*
X659842Y342554D01*
X659869Y342485D01*
X659901Y342410D01*
X659944Y342340D01*
X660008Y342270D01*
X660019Y342265D01*
X660030Y342254D01*
X660051Y342238D01*
X660078Y342222D01*
X660110Y342206D01*
X660153Y342185D01*
X660201Y342158D01*
X660260Y342131D01*
X660330Y342104D01*
X660410Y342077D01*
X660501Y342045D01*
X660608Y342013D01*
X660721Y341981D01*
X660850Y341943D01*
X660994Y341911D01*
X661005D01*
X661032Y341906D01*
X661069Y341895D01*
X661123Y341879D01*
X661187Y341868D01*
X661262Y341847D01*
X661342Y341831D01*
X661428Y341804D01*
X661610Y341756D01*
X661793Y341708D01*
X661879Y341681D01*
X661954Y341654D01*
X662029Y341627D01*
X662087Y341600D01*
X662093D01*
X662109Y341590D01*
X662130Y341579D01*
X662157Y341563D01*
X662195Y341547D01*
X662237Y341520D01*
X662329Y341461D01*
X662436Y341391D01*
X662538Y341306D01*
X662639Y341204D01*
X662682Y341150D01*
X662725Y341097D01*
Y341091D01*
X662736Y341081D01*
X662747Y341064D01*
X662757Y341043D01*
X662774Y341016D01*
X662790Y340979D01*
X662832Y340893D01*
X662870Y340791D01*
X662902Y340673D01*
X662924Y340539D01*
X662934Y340395D01*
Y340389D01*
Y340378D01*
Y340357D01*
X662929Y340330D01*
Y340293D01*
X662924Y340255D01*
X662907Y340153D01*
X662881Y340041D01*
X662838Y339918D01*
X662779Y339789D01*
X662747Y339719D01*
X662704Y339655D01*
Y339650D01*
X662693Y339639D01*
X662682Y339623D01*
X662661Y339596D01*
X662613Y339537D01*
X662538Y339457D01*
X662447Y339371D01*
X662334Y339280D01*
X662205Y339194D01*
X662055Y339114D01*
X662050D01*
X662034Y339103D01*
X662012Y339098D01*
X661980Y339081D01*
X661943Y339071D01*
X661895Y339055D01*
X661841Y339033D01*
X661777Y339017D01*
X661712Y339001D01*
X661637Y338980D01*
X661477Y338953D01*
X661300Y338931D01*
X661107Y338921D01*
X661042D01*
X660994Y338926D01*
X660935D01*
X660871Y338931D01*
X660796Y338937D01*
X660710Y338947D01*
X660533Y338969D01*
X660346Y339001D01*
X660158Y339049D01*
X659976Y339114D01*
X659970D01*
X659954Y339124D01*
X659933Y339135D01*
X659901Y339151D01*
X659863Y339173D01*
X659820Y339194D01*
X659719Y339258D01*
X659606Y339339D01*
X659488Y339441D01*
X659370Y339558D01*
X659268Y339698D01*
X659263Y339703D01*
X659258Y339714D01*
X659247Y339735D01*
X659231Y339767D01*
X659210Y339805D01*
X659188Y339848D01*
X659161Y339902D01*
X659140Y339960D01*
X659113Y340019D01*
X659092Y340089D01*
X659049Y340244D01*
X659016Y340411D01*
X659006Y340502D01*
X659000Y340593D01*
X659617Y340646D01*
Y340641D01*
Y340630D01*
X659622Y340609D01*
X659628Y340582D01*
X659633Y340550D01*
X659638Y340518D01*
X659660Y340427D01*
X659687Y340330D01*
X659719Y340228D01*
X659762Y340127D01*
X659815Y340030D01*
X659820Y340019D01*
X659847Y339993D01*
X659885Y339950D01*
X659938Y339896D01*
X660008Y339832D01*
X660094Y339773D01*
X660196Y339709D01*
X660313Y339650D01*
X660319D01*
X660330Y339644D01*
X660346Y339639D01*
X660372Y339628D01*
X660405Y339617D01*
X660442Y339601D01*
X660485Y339591D01*
X660533Y339580D01*
X660646Y339553D01*
X660780Y339526D01*
X660919Y339510D01*
X661075Y339505D01*
X661139D01*
X661171Y339510D01*
X661208D01*
X661294Y339521D01*
X661396Y339532D01*
X661509Y339548D01*
X661621Y339575D01*
X661728Y339612D01*
X661734D01*
X661739Y339617D01*
X661755Y339623D01*
X661777Y339633D01*
X661825Y339660D01*
X661889Y339692D01*
X661959Y339735D01*
X662034Y339789D01*
X662098Y339848D01*
X662157Y339918D01*
X662162Y339928D01*
X662179Y339950D01*
X662205Y339993D01*
X662232Y340046D01*
X662254Y340111D01*
X662280Y340180D01*
X662297Y340261D01*
X662302Y340341D01*
Y340346D01*
Y340352D01*
Y340378D01*
X662297Y340427D01*
X662286Y340480D01*
X662270Y340545D01*
X662243Y340614D01*
X662211Y340684D01*
X662162Y340748D01*
X662157Y340754D01*
X662136Y340775D01*
X662104Y340807D01*
X662055Y340850D01*
X661996Y340893D01*
X661916Y340941D01*
X661825Y340989D01*
X661718Y341038D01*
X661707Y341043D01*
X661696Y341048D01*
X661675Y341054D01*
X661653Y341059D01*
X661621Y341070D01*
X661578Y341086D01*
X661535Y341097D01*
X661477Y341113D01*
X661417Y341134D01*
X661342Y341150D01*
X661262Y341172D01*
X661171Y341199D01*
X661075Y341220D01*
X660962Y341252D01*
X660839Y341279D01*
X660833D01*
X660812Y341284D01*
X660774Y341295D01*
X660732Y341306D01*
X660673Y341322D01*
X660608Y341338D01*
X660544Y341359D01*
X660469Y341381D01*
X660308Y341429D01*
X660153Y341483D01*
X660078Y341509D01*
X660008Y341536D01*
X659944Y341563D01*
X659890Y341590D01*
X659885D01*
X659874Y341600D01*
X659858Y341611D01*
X659831Y341622D01*
X659767Y341659D01*
X659692Y341713D01*
X659601Y341783D01*
X659515Y341858D01*
X659429Y341949D01*
X659360Y342045D01*
Y342051D01*
X659354Y342056D01*
X659343Y342072D01*
X659333Y342094D01*
X659306Y342152D01*
X659274Y342228D01*
X659242Y342319D01*
X659215Y342426D01*
X659193Y342544D01*
X659188Y342667D01*
Y342672D01*
Y342683D01*
Y342704D01*
X659193Y342731D01*
Y342763D01*
X659199Y342801D01*
X659215Y342897D01*
X659242Y343005D01*
X659274Y343117D01*
X659327Y343240D01*
X659397Y343364D01*
Y343369D01*
X659408Y343380D01*
X659418Y343396D01*
X659435Y343417D01*
X659488Y343476D01*
X659558Y343551D01*
X659644Y343632D01*
X659751Y343712D01*
X659874Y343792D01*
X660019Y343862D01*
X660024D01*
X660035Y343867D01*
X660062Y343878D01*
X660088Y343889D01*
X660126Y343900D01*
X660174Y343916D01*
X660228Y343932D01*
X660287Y343948D01*
X660351Y343964D01*
X660421Y343980D01*
X660571Y344007D01*
X660742Y344028D01*
X660925Y344034D01*
X661016D01*
X661064Y344028D01*
D02*
G37*
G36*
X796561Y696089D02*
Y693999D01*
X795907D01*
Y696089D01*
X793999Y698946D01*
X794792D01*
X795768Y697451D01*
X795773Y697445D01*
X795778Y697434D01*
X795794Y697408D01*
X795816Y697381D01*
X795837Y697343D01*
X795864Y697295D01*
X795896Y697247D01*
X795934Y697188D01*
X796009Y697065D01*
X796094Y696925D01*
X796186Y696775D01*
X796271Y696620D01*
X796277Y696625D01*
X796282Y696636D01*
X796293Y696657D01*
X796314Y696690D01*
X796336Y696722D01*
X796357Y696765D01*
X796389Y696818D01*
X796421Y696872D01*
X796459Y696931D01*
X796502Y697000D01*
X796593Y697145D01*
X796700Y697311D01*
X796813Y697488D01*
X797772Y698946D01*
X798533D01*
X796561Y696089D01*
D02*
G37*
G36*
X1008626Y613999D02*
X1007881D01*
X1007308Y615495D01*
X1005228D01*
X1004692Y613999D01*
X1004001D01*
X1005893Y618946D01*
X1006600D01*
X1008626Y613999D01*
D02*
G37*
G36*
X530416Y343364D02*
X528787D01*
Y339001D01*
X528133D01*
Y343364D01*
X526504D01*
Y343948D01*
X530416D01*
Y343364D01*
D02*
G37*
G36*
X524151Y344028D02*
X524215Y344023D01*
X524290Y344012D01*
X524371Y344001D01*
X524462Y343985D01*
X524558Y343964D01*
X524660Y343942D01*
X524762Y343910D01*
X524869Y343873D01*
X524976Y343830D01*
X525078Y343776D01*
X525180Y343723D01*
X525276Y343653D01*
X525282Y343648D01*
X525298Y343637D01*
X525325Y343615D01*
X525357Y343583D01*
X525400Y343546D01*
X525448Y343498D01*
X525496Y343444D01*
X525555Y343380D01*
X525614Y343310D01*
X525673Y343230D01*
X525732Y343144D01*
X525785Y343047D01*
X525844Y342946D01*
X525893Y342833D01*
X525941Y342715D01*
X525984Y342592D01*
X525341Y342442D01*
Y342447D01*
X525330Y342463D01*
X525325Y342495D01*
X525308Y342533D01*
X525292Y342576D01*
X525266Y342624D01*
X525212Y342742D01*
X525142Y342871D01*
X525051Y343005D01*
X524955Y343128D01*
X524896Y343181D01*
X524837Y343230D01*
X524832Y343235D01*
X524821Y343240D01*
X524805Y343251D01*
X524778Y343267D01*
X524746Y343289D01*
X524708Y343310D01*
X524665Y343331D01*
X524612Y343353D01*
X524553Y343374D01*
X524494Y343396D01*
X524355Y343439D01*
X524194Y343465D01*
X524108Y343476D01*
X523963D01*
X523920Y343471D01*
X523872Y343465D01*
X523813Y343460D01*
X523749Y343455D01*
X523685Y343444D01*
X523529Y343406D01*
X523368Y343358D01*
X523288Y343326D01*
X523208Y343289D01*
X523133Y343246D01*
X523058Y343198D01*
X523052Y343192D01*
X523041Y343187D01*
X523020Y343171D01*
X522993Y343149D01*
X522966Y343122D01*
X522929Y343085D01*
X522891Y343047D01*
X522849Y343005D01*
X522806Y342951D01*
X522757Y342897D01*
X522672Y342774D01*
X522591Y342629D01*
X522522Y342463D01*
Y342458D01*
X522516Y342442D01*
X522505Y342415D01*
X522500Y342383D01*
X522489Y342340D01*
X522473Y342292D01*
X522463Y342233D01*
X522447Y342174D01*
X522430Y342104D01*
X522420Y342029D01*
X522393Y341868D01*
X522377Y341697D01*
X522371Y341515D01*
Y341509D01*
Y341488D01*
Y341456D01*
X522377Y341408D01*
Y341354D01*
X522382Y341290D01*
X522388Y341220D01*
X522393Y341139D01*
X522404Y341054D01*
X522414Y340968D01*
X522447Y340780D01*
X522495Y340593D01*
X522554Y340411D01*
Y340405D01*
X522565Y340389D01*
X522575Y340368D01*
X522586Y340336D01*
X522607Y340293D01*
X522634Y340250D01*
X522693Y340148D01*
X522774Y340030D01*
X522870Y339918D01*
X522988Y339805D01*
X523052Y339757D01*
X523122Y339709D01*
X523127D01*
X523138Y339698D01*
X523159Y339687D01*
X523191Y339671D01*
X523229Y339655D01*
X523272Y339633D01*
X523320Y339617D01*
X523374Y339596D01*
X523497Y339553D01*
X523642Y339516D01*
X523797Y339489D01*
X523877Y339483D01*
X523963Y339478D01*
X524017D01*
X524054Y339483D01*
X524103Y339489D01*
X524156Y339494D01*
X524221Y339505D01*
X524285Y339516D01*
X524435Y339553D01*
X524510Y339580D01*
X524590Y339612D01*
X524671Y339650D01*
X524746Y339692D01*
X524821Y339741D01*
X524896Y339794D01*
X524901Y339800D01*
X524912Y339810D01*
X524933Y339826D01*
X524960Y339853D01*
X524987Y339885D01*
X525024Y339928D01*
X525062Y339977D01*
X525105Y340030D01*
X525148Y340094D01*
X525191Y340164D01*
X525233Y340239D01*
X525276Y340325D01*
X525314Y340416D01*
X525351Y340518D01*
X525389Y340625D01*
X525416Y340737D01*
X526069Y340571D01*
Y340561D01*
X526059Y340534D01*
X526048Y340496D01*
X526027Y340437D01*
X526005Y340373D01*
X525973Y340293D01*
X525941Y340207D01*
X525898Y340116D01*
X525850Y340014D01*
X525796Y339918D01*
X525737Y339810D01*
X525668Y339709D01*
X525592Y339612D01*
X525512Y339516D01*
X525421Y339425D01*
X525325Y339339D01*
X525319Y339333D01*
X525298Y339323D01*
X525271Y339301D01*
X525228Y339274D01*
X525180Y339242D01*
X525116Y339205D01*
X525046Y339167D01*
X524960Y339130D01*
X524869Y339092D01*
X524772Y339055D01*
X524665Y339017D01*
X524547Y338985D01*
X524424Y338958D01*
X524296Y338937D01*
X524162Y338926D01*
X524017Y338921D01*
X523942D01*
X523883Y338926D01*
X523819Y338931D01*
X523738Y338937D01*
X523652Y338947D01*
X523556Y338964D01*
X523454Y338980D01*
X523347Y339001D01*
X523240Y339028D01*
X523133Y339055D01*
X523020Y339092D01*
X522913Y339135D01*
X522811Y339183D01*
X522715Y339242D01*
X522709Y339248D01*
X522693Y339258D01*
X522666Y339274D01*
X522634Y339301D01*
X522591Y339339D01*
X522543Y339376D01*
X522489Y339425D01*
X522430Y339483D01*
X522371Y339548D01*
X522307Y339617D01*
X522248Y339692D01*
X522184Y339778D01*
X522120Y339869D01*
X522061Y339966D01*
X522007Y340073D01*
X521954Y340186D01*
X521948Y340191D01*
X521943Y340212D01*
X521932Y340250D01*
X521916Y340293D01*
X521894Y340352D01*
X521873Y340416D01*
X521852Y340496D01*
X521825Y340582D01*
X521803Y340679D01*
X521777Y340780D01*
X521755Y340888D01*
X521739Y341006D01*
X521707Y341252D01*
X521702Y341381D01*
X521696Y341509D01*
Y341520D01*
Y341541D01*
Y341584D01*
X521702Y341638D01*
X521707Y341708D01*
X521712Y341788D01*
X521723Y341874D01*
X521734Y341970D01*
X521750Y342072D01*
X521766Y342179D01*
X521819Y342410D01*
X521857Y342522D01*
X521894Y342635D01*
X521937Y342753D01*
X521991Y342860D01*
X521996Y342865D01*
X522007Y342887D01*
X522023Y342914D01*
X522045Y342956D01*
X522077Y343005D01*
X522114Y343058D01*
X522157Y343117D01*
X522205Y343187D01*
X522264Y343251D01*
X522323Y343326D01*
X522393Y343396D01*
X522468Y343471D01*
X522548Y343540D01*
X522634Y343610D01*
X522731Y343675D01*
X522827Y343733D01*
X522832Y343739D01*
X522854Y343744D01*
X522881Y343760D01*
X522924Y343782D01*
X522972Y343803D01*
X523036Y343830D01*
X523106Y343857D01*
X523181Y343884D01*
X523266Y343910D01*
X523363Y343937D01*
X523460Y343964D01*
X523567Y343985D01*
X523786Y344023D01*
X523904Y344028D01*
X524028Y344034D01*
X524097D01*
X524151Y344028D01*
D02*
G37*
G36*
X506063D02*
X506122Y344023D01*
X506181Y344017D01*
X506250Y344012D01*
X506400Y343991D01*
X506567Y343959D01*
X506733Y343910D01*
X506894Y343851D01*
X506899D01*
X506910Y343841D01*
X506936Y343835D01*
X506963Y343819D01*
X506995Y343798D01*
X507038Y343776D01*
X507129Y343723D01*
X507237Y343648D01*
X507344Y343557D01*
X507446Y343455D01*
X507537Y343331D01*
X507542Y343326D01*
X507547Y343315D01*
X507558Y343299D01*
X507574Y343273D01*
X507590Y343240D01*
X507612Y343203D01*
X507628Y343155D01*
X507655Y343106D01*
X507697Y342994D01*
X507735Y342860D01*
X507767Y342715D01*
X507783Y342554D01*
X507156Y342506D01*
Y342511D01*
X507151Y342528D01*
Y342549D01*
X507146Y342581D01*
X507135Y342624D01*
X507124Y342667D01*
X507092Y342769D01*
X507049Y342881D01*
X506985Y342999D01*
X506910Y343112D01*
X506861Y343160D01*
X506808Y343208D01*
X506802Y343214D01*
X506797Y343219D01*
X506776Y343230D01*
X506754Y343246D01*
X506722Y343262D01*
X506685Y343283D01*
X506642Y343305D01*
X506593Y343331D01*
X506535Y343353D01*
X506470Y343374D01*
X506400Y343396D01*
X506325Y343412D01*
X506240Y343428D01*
X506149Y343439D01*
X506052Y343449D01*
X505897D01*
X505854Y343444D01*
X505806D01*
X505752Y343439D01*
X505688Y343433D01*
X505623Y343423D01*
X505479Y343396D01*
X505339Y343358D01*
X505205Y343305D01*
X505141Y343267D01*
X505088Y343230D01*
X505082D01*
X505077Y343219D01*
X505045Y343192D01*
X505002Y343144D01*
X504953Y343080D01*
X504905Y343005D01*
X504862Y342914D01*
X504830Y342817D01*
X504825Y342763D01*
X504819Y342704D01*
Y342699D01*
Y342694D01*
X504825Y342662D01*
X504830Y342613D01*
X504841Y342554D01*
X504868Y342485D01*
X504900Y342410D01*
X504943Y342340D01*
X505007Y342270D01*
X505018Y342265D01*
X505028Y342254D01*
X505050Y342238D01*
X505077Y342222D01*
X505109Y342206D01*
X505152Y342185D01*
X505200Y342158D01*
X505259Y342131D01*
X505329Y342104D01*
X505409Y342077D01*
X505500Y342045D01*
X505607Y342013D01*
X505720Y341981D01*
X505849Y341943D01*
X505993Y341911D01*
X506004D01*
X506031Y341906D01*
X506068Y341895D01*
X506122Y341879D01*
X506186Y341868D01*
X506261Y341847D01*
X506342Y341831D01*
X506427Y341804D01*
X506609Y341756D01*
X506792Y341708D01*
X506878Y341681D01*
X506953Y341654D01*
X507028Y341627D01*
X507086Y341600D01*
X507092D01*
X507108Y341590D01*
X507129Y341579D01*
X507156Y341563D01*
X507194Y341547D01*
X507237Y341520D01*
X507328Y341461D01*
X507435Y341391D01*
X507537Y341306D01*
X507639Y341204D01*
X507681Y341150D01*
X507724Y341097D01*
Y341091D01*
X507735Y341081D01*
X507746Y341064D01*
X507756Y341043D01*
X507772Y341016D01*
X507789Y340979D01*
X507831Y340893D01*
X507869Y340791D01*
X507901Y340673D01*
X507923Y340539D01*
X507933Y340395D01*
Y340389D01*
Y340378D01*
Y340357D01*
X507928Y340330D01*
Y340293D01*
X507923Y340255D01*
X507906Y340153D01*
X507880Y340041D01*
X507837Y339918D01*
X507778Y339789D01*
X507746Y339719D01*
X507703Y339655D01*
Y339650D01*
X507692Y339639D01*
X507681Y339623D01*
X507660Y339596D01*
X507612Y339537D01*
X507537Y339457D01*
X507446Y339371D01*
X507333Y339280D01*
X507204Y339194D01*
X507054Y339114D01*
X507049D01*
X507033Y339103D01*
X507011Y339098D01*
X506979Y339081D01*
X506942Y339071D01*
X506894Y339055D01*
X506840Y339033D01*
X506776Y339017D01*
X506711Y339001D01*
X506636Y338980D01*
X506475Y338953D01*
X506299Y338931D01*
X506106Y338921D01*
X506041D01*
X505993Y338926D01*
X505934D01*
X505870Y338931D01*
X505795Y338937D01*
X505709Y338947D01*
X505532Y338969D01*
X505345Y339001D01*
X505157Y339049D01*
X504975Y339114D01*
X504970D01*
X504953Y339124D01*
X504932Y339135D01*
X504900Y339151D01*
X504862Y339173D01*
X504819Y339194D01*
X504718Y339258D01*
X504605Y339339D01*
X504487Y339441D01*
X504369Y339558D01*
X504268Y339698D01*
X504262Y339703D01*
X504257Y339714D01*
X504246Y339735D01*
X504230Y339767D01*
X504208Y339805D01*
X504187Y339848D01*
X504160Y339902D01*
X504139Y339960D01*
X504112Y340019D01*
X504091Y340089D01*
X504048Y340244D01*
X504016Y340411D01*
X504005Y340502D01*
X503999Y340593D01*
X504616Y340646D01*
Y340641D01*
Y340630D01*
X504621Y340609D01*
X504627Y340582D01*
X504632Y340550D01*
X504637Y340518D01*
X504659Y340427D01*
X504686Y340330D01*
X504718Y340228D01*
X504761Y340127D01*
X504814Y340030D01*
X504819Y340019D01*
X504846Y339993D01*
X504884Y339950D01*
X504937Y339896D01*
X505007Y339832D01*
X505093Y339773D01*
X505195Y339709D01*
X505313Y339650D01*
X505318D01*
X505329Y339644D01*
X505345Y339639D01*
X505372Y339628D01*
X505404Y339617D01*
X505441Y339601D01*
X505484Y339591D01*
X505532Y339580D01*
X505645Y339553D01*
X505779Y339526D01*
X505918Y339510D01*
X506074Y339505D01*
X506138D01*
X506170Y339510D01*
X506208D01*
X506293Y339521D01*
X506395Y339532D01*
X506508Y339548D01*
X506620Y339575D01*
X506727Y339612D01*
X506733D01*
X506738Y339617D01*
X506754Y339623D01*
X506776Y339633D01*
X506824Y339660D01*
X506888Y339692D01*
X506958Y339735D01*
X507033Y339789D01*
X507097Y339848D01*
X507156Y339918D01*
X507161Y339928D01*
X507178Y339950D01*
X507204Y339993D01*
X507231Y340046D01*
X507253Y340111D01*
X507280Y340180D01*
X507295Y340261D01*
X507301Y340341D01*
Y340346D01*
Y340352D01*
Y340378D01*
X507295Y340427D01*
X507285Y340480D01*
X507269Y340545D01*
X507242Y340614D01*
X507210Y340684D01*
X507161Y340748D01*
X507156Y340754D01*
X507135Y340775D01*
X507103Y340807D01*
X507054Y340850D01*
X506995Y340893D01*
X506915Y340941D01*
X506824Y340989D01*
X506717Y341038D01*
X506706Y341043D01*
X506695Y341048D01*
X506674Y341054D01*
X506652Y341059D01*
X506620Y341070D01*
X506577Y341086D01*
X506535Y341097D01*
X506475Y341113D01*
X506417Y341134D01*
X506342Y341150D01*
X506261Y341172D01*
X506170Y341199D01*
X506074Y341220D01*
X505961Y341252D01*
X505838Y341279D01*
X505832D01*
X505811Y341284D01*
X505774Y341295D01*
X505731Y341306D01*
X505672Y341322D01*
X505607Y341338D01*
X505543Y341359D01*
X505468Y341381D01*
X505307Y341429D01*
X505152Y341483D01*
X505077Y341509D01*
X505007Y341536D01*
X504943Y341563D01*
X504889Y341590D01*
X504884D01*
X504873Y341600D01*
X504857Y341611D01*
X504830Y341622D01*
X504766Y341659D01*
X504691Y341713D01*
X504600Y341783D01*
X504514Y341858D01*
X504428Y341949D01*
X504359Y342045D01*
Y342051D01*
X504353Y342056D01*
X504342Y342072D01*
X504332Y342094D01*
X504305Y342152D01*
X504273Y342228D01*
X504241Y342319D01*
X504214Y342426D01*
X504192Y342544D01*
X504187Y342667D01*
Y342672D01*
Y342683D01*
Y342704D01*
X504192Y342731D01*
Y342763D01*
X504198Y342801D01*
X504214Y342897D01*
X504241Y343005D01*
X504273Y343117D01*
X504326Y343240D01*
X504396Y343364D01*
Y343369D01*
X504407Y343380D01*
X504417Y343396D01*
X504434Y343417D01*
X504487Y343476D01*
X504557Y343551D01*
X504643Y343632D01*
X504750Y343712D01*
X504873Y343792D01*
X505018Y343862D01*
X505023D01*
X505034Y343867D01*
X505061Y343878D01*
X505088Y343889D01*
X505125Y343900D01*
X505173Y343916D01*
X505227Y343932D01*
X505286Y343948D01*
X505350Y343964D01*
X505420Y343980D01*
X505570Y344007D01*
X505741Y344028D01*
X505924Y344034D01*
X506015D01*
X506063Y344028D01*
D02*
G37*
G36*
X520871Y343364D02*
X517945D01*
Y341852D01*
X520683D01*
Y341268D01*
X517945D01*
Y339585D01*
X520983D01*
Y339001D01*
X517291D01*
Y343948D01*
X520871D01*
Y343364D01*
D02*
G37*
G36*
X667366D02*
X665737D01*
Y339001D01*
X665083D01*
Y343364D01*
X663454D01*
Y343948D01*
X667366D01*
Y343364D01*
D02*
G37*
G36*
X512419D02*
X509493D01*
Y341852D01*
X512231D01*
Y341268D01*
X509493D01*
Y339585D01*
X512532D01*
Y339001D01*
X508839D01*
Y343948D01*
X512419D01*
Y343364D01*
D02*
G37*
G36*
X514059Y339585D02*
X516498D01*
Y339001D01*
X513405D01*
Y343948D01*
X514059D01*
Y339585D01*
D02*
G37*
%LPC*%
G36*
X879306Y542843D02*
X878224D01*
Y541347D01*
X879398D01*
X879440Y541353D01*
X879531D01*
X879633Y541358D01*
X879741Y541369D01*
X879837Y541385D01*
X879880Y541390D01*
X879917Y541401D01*
X879923D01*
X879928Y541406D01*
X879960Y541417D01*
X880003Y541433D01*
X880057Y541460D01*
X880116Y541492D01*
X880180Y541535D01*
X880239Y541589D01*
X880293Y541647D01*
X880298Y541658D01*
X880314Y541680D01*
X880335Y541717D01*
X880357Y541765D01*
X880378Y541830D01*
X880400Y541905D01*
X880416Y541985D01*
X880421Y542081D01*
Y542087D01*
Y542092D01*
Y542124D01*
X880416Y542167D01*
X880405Y542226D01*
X880389Y542296D01*
X880368Y542371D01*
X880341Y542446D01*
X880298Y542516D01*
X880293Y542526D01*
X880276Y542548D01*
X880250Y542580D01*
X880212Y542617D01*
X880164Y542660D01*
X880105Y542703D01*
X880041Y542741D01*
X879960Y542773D01*
X879950Y542778D01*
X879939D01*
X879917Y542784D01*
X879896Y542789D01*
X879864Y542794D01*
X879826Y542800D01*
X879789Y542810D01*
X879741Y542816D01*
X879682Y542821D01*
X879623Y542826D01*
X879553Y542832D01*
X879478Y542837D01*
X879398D01*
X879306Y542843D01*
D02*
G37*
G36*
X879365Y540763D02*
X878224D01*
Y539064D01*
X879564D01*
X879633Y539070D01*
X879703D01*
X879778Y539075D01*
X879848Y539080D01*
X879901Y539086D01*
X879912D01*
X879939Y539091D01*
X879982Y539102D01*
X880035Y539118D01*
X880094Y539134D01*
X880153Y539161D01*
X880218Y539187D01*
X880276Y539220D01*
X880282Y539225D01*
X880303Y539236D01*
X880330Y539257D01*
X880368Y539289D01*
X880405Y539327D01*
X880448Y539375D01*
X880491Y539429D01*
X880528Y539493D01*
X880534Y539504D01*
X880545Y539525D01*
X880561Y539563D01*
X880582Y539616D01*
X880598Y539675D01*
X880614Y539745D01*
X880625Y539825D01*
X880630Y539911D01*
Y539916D01*
Y539922D01*
Y539938D01*
Y539959D01*
X880625Y540007D01*
X880614Y540077D01*
X880593Y540152D01*
X880571Y540233D01*
X880534Y540313D01*
X880486Y540393D01*
X880480Y540404D01*
X880459Y540425D01*
X880427Y540463D01*
X880384Y540506D01*
X880325Y540554D01*
X880255Y540597D01*
X880180Y540640D01*
X880089Y540677D01*
X880084D01*
X880078Y540683D01*
X880062Y540688D01*
X880041Y540693D01*
X880014Y540699D01*
X879987Y540704D01*
X879950Y540715D01*
X879907Y540720D01*
X879853Y540731D01*
X879799Y540736D01*
X879741Y540742D01*
X879676Y540752D01*
X879531Y540758D01*
X879365Y540763D01*
D02*
G37*
G36*
X674982Y343401D02*
X673315D01*
Y341767D01*
X674795D01*
X674832Y341772D01*
X674875D01*
X674977Y341777D01*
X675089Y341788D01*
X675207Y341804D01*
X675320Y341825D01*
X675422Y341858D01*
X675427D01*
X675432Y341863D01*
X675464Y341874D01*
X675507Y341895D01*
X675566Y341927D01*
X675625Y341970D01*
X675690Y342018D01*
X675754Y342083D01*
X675807Y342152D01*
X675813Y342163D01*
X675829Y342190D01*
X675850Y342228D01*
X675877Y342286D01*
X675899Y342351D01*
X675920Y342426D01*
X675936Y342511D01*
X675941Y342597D01*
Y342603D01*
Y342613D01*
Y342629D01*
X675936Y342656D01*
Y342683D01*
X675931Y342720D01*
X675909Y342801D01*
X675877Y342892D01*
X675834Y342989D01*
X675770Y343080D01*
X675727Y343128D01*
X675684Y343171D01*
X675679Y343176D01*
X675674Y343181D01*
X675658Y343192D01*
X675636Y343208D01*
X675609Y343224D01*
X675572Y343246D01*
X675534Y343267D01*
X675486Y343289D01*
X675432Y343310D01*
X675373Y343326D01*
X675309Y343348D01*
X675239Y343364D01*
X675159Y343380D01*
X675073Y343390D01*
X674982Y343401D01*
D02*
G37*
G36*
X669735Y343433D02*
Y343428D01*
X669730Y343412D01*
X669725Y343385D01*
X669719Y343353D01*
X669708Y343305D01*
X669698Y343256D01*
X669682Y343198D01*
X669666Y343133D01*
X669650Y343064D01*
X669628Y342989D01*
X669580Y342828D01*
X669526Y342656D01*
X669467Y342479D01*
X668921Y341027D01*
X670609D01*
X670089Y342399D01*
Y342404D01*
X670078Y342426D01*
X670068Y342458D01*
X670051Y342506D01*
X670030Y342554D01*
X670009Y342619D01*
X669982Y342688D01*
X669955Y342763D01*
X669902Y342929D01*
X669843Y343101D01*
X669784Y343273D01*
X669735Y343433D01*
D02*
G37*
G36*
X1006231Y618432D02*
Y618426D01*
X1006225Y618410D01*
X1006220Y618383D01*
X1006215Y618351D01*
X1006204Y618303D01*
X1006193Y618255D01*
X1006177Y618196D01*
X1006161Y618131D01*
X1006145Y618062D01*
X1006123Y617987D01*
X1006075Y617826D01*
X1006021Y617654D01*
X1005963Y617477D01*
X1005416Y616025D01*
X1007104D01*
X1006584Y617397D01*
Y617402D01*
X1006574Y617424D01*
X1006563Y617456D01*
X1006547Y617504D01*
X1006525Y617553D01*
X1006504Y617617D01*
X1006477Y617687D01*
X1006450Y617762D01*
X1006397Y617928D01*
X1006338Y618099D01*
X1006279Y618271D01*
X1006231Y618432D01*
D02*
G37*
%LPD*%
D26*
X778510Y690880D02*
G03*
X740410Y652780I0J-38100D01*
G01*
X923290Y758190D02*
G03*
X885190Y720090I0J-38100D01*
G01*
X840740Y543560D02*
G03*
X802640Y505460I0J-38100D01*
G01*
X985520Y612140D02*
G03*
X947420Y572770I635J-38735D01*
G01*
X403860Y655320D02*
G03*
X365760Y617220I0J-38100D01*
G01*
X309880Y563880D02*
G03*
X271780Y525780I0J-38100D01*
G01*
X401320Y472440D02*
G03*
X363220Y434340I0J-38100D01*
G01*
X492760Y563880D02*
G03*
X454660Y527050I-635J-37465D01*
G01*
X297180Y132080D02*
X299720D01*
Y129540D02*
Y132080D01*
X297180Y129540D02*
X299720D01*
X297180D02*
Y132080D01*
X291000Y105750D02*
X293500Y108250D01*
X291000Y95000D02*
Y105750D01*
Y95000D02*
X294500Y91500D01*
X317750D01*
X320750Y94500D01*
Y105500D01*
X318000Y108250D02*
X320750Y105500D01*
X293500Y108250D02*
X318000D01*
X348000Y86750D02*
X350250Y84500D01*
X388000D01*
X348000Y105750D02*
X351000Y108750D01*
X348000Y86750D02*
Y105750D01*
X351000Y108750D02*
X390000D01*
X396000Y87000D02*
Y106750D01*
X386750Y84500D02*
X393500D01*
X396000Y87000D01*
X390000Y108750D02*
X394000D01*
X396000Y106750D01*
X347000Y116250D02*
X349250Y114000D01*
X387000D01*
X347000Y135250D02*
X350000Y138250D01*
X347000Y116250D02*
Y135250D01*
X350000Y138250D02*
X389000D01*
X395000Y116500D02*
Y136250D01*
X385750Y114000D02*
X392500D01*
X395000Y116500D01*
X389000Y138250D02*
X393000D01*
X395000Y136250D01*
X401500Y143500D02*
X403750Y145750D01*
Y183500D01*
X379500Y146500D02*
X382500Y143500D01*
X401500D01*
X379500Y146500D02*
Y185500D01*
X381500Y191500D02*
X401250D01*
X403750Y182250D02*
Y189000D01*
X401250Y191500D02*
X403750Y189000D01*
X379500Y185500D02*
Y189500D01*
X381500Y191500D01*
X431000Y144500D02*
X433250Y146750D01*
Y184500D01*
X409000Y147500D02*
X412000Y144500D01*
X431000D01*
X409000Y147500D02*
Y186500D01*
X411000Y192500D02*
X430750D01*
X433250Y183250D02*
Y190000D01*
X430750Y192500D02*
X433250Y190000D01*
X409000Y186500D02*
Y190500D01*
X411000Y192500D01*
X350000Y231750D02*
X352250Y234000D01*
X350000Y194000D02*
Y231750D01*
X371250Y234000D02*
X374250Y231000D01*
X352250Y234000D02*
X371250D01*
X374250Y192000D02*
Y231000D01*
X352500Y186000D02*
X372250D01*
X350000Y188500D02*
Y195250D01*
Y188500D02*
X352500Y186000D01*
X374250Y188000D02*
Y192000D01*
X372250Y186000D02*
X374250Y188000D01*
X426250Y200000D02*
X428500Y197750D01*
X466250D01*
X426250Y219000D02*
X429250Y222000D01*
X426250Y200000D02*
Y219000D01*
X429250Y222000D02*
X468250D01*
X474250Y200250D02*
Y220000D01*
X465000Y197750D02*
X471750D01*
X474250Y200250D01*
X468250Y222000D02*
X472250D01*
X474250Y220000D01*
X470500Y227250D02*
X472750Y229500D01*
Y267250D01*
X448500Y230250D02*
X451500Y227250D01*
X470500D01*
X448500Y230250D02*
Y269250D01*
X450500Y275250D02*
X470250D01*
X472750Y266000D02*
Y272750D01*
X470250Y275250D02*
X472750Y272750D01*
X448500Y269250D02*
Y273250D01*
X450500Y275250D01*
X438500Y299750D02*
X440750Y302000D01*
Y339750D01*
X416500Y302750D02*
X419500Y299750D01*
X438500D01*
X416500Y302750D02*
Y341750D01*
X418500Y347750D02*
X438250D01*
X440750Y338500D02*
Y345250D01*
X438250Y347750D02*
X440750Y345250D01*
X416500Y341750D02*
Y345750D01*
X418500Y347750D01*
X468000Y300250D02*
X470250Y302500D01*
X446000Y303250D02*
X449000Y300250D01*
X468000D01*
X470250Y302500D02*
Y333750D01*
X465750Y338250D02*
X470250Y333750D01*
X446000Y303250D02*
Y333250D01*
X446000Y333250D01*
X451000Y338250D02*
X465750D01*
X446000Y333250D02*
X451000Y338250D01*
X286750Y204750D02*
X289000Y202500D01*
X326750D01*
X286750Y223750D02*
X289750Y226750D01*
X286750Y204750D02*
Y223750D01*
X289750Y226750D02*
X328750D01*
X334750Y205000D02*
Y224750D01*
X325500Y202500D02*
X332250D01*
X334750Y205000D01*
X328750Y226750D02*
X332750D01*
X334750Y224750D01*
X279250Y145000D02*
X281500Y147250D01*
Y185000D01*
X257250Y148000D02*
X260250Y145000D01*
X279250D01*
X257250Y148000D02*
Y187000D01*
X259250Y193000D02*
X279000D01*
X281500Y183750D02*
Y190500D01*
X279000Y193000D02*
X281500Y190500D01*
X257250Y187000D02*
Y191000D01*
X259250Y193000D01*
X817235Y588620D02*
Y591159D01*
X812157Y596237D01*
X807078Y591159D01*
Y588620D01*
X812157Y596237D02*
Y603855D01*
X802000D02*
X796922D01*
X799461D01*
Y588620D01*
X802000Y591159D01*
X961985Y655870D02*
X951828Y671105D01*
Y655870D02*
X961985Y671105D01*
X936593D02*
X946750D01*
X936593Y660948D01*
Y658409D01*
X939132Y655870D01*
X944211D01*
X946750Y658409D01*
X440453Y554644D02*
Y567340D01*
X437914Y569879D01*
X432836D01*
X430296Y567340D01*
Y554644D01*
X425218Y569879D02*
Y554644D01*
X417600D01*
X415061Y557183D01*
Y562262D01*
X417600Y564801D01*
X425218D01*
X409983Y569879D02*
X404905D01*
X407444D01*
Y554644D01*
X409983Y557183D01*
X540121Y562703D02*
X555356D01*
Y555085D01*
X552817Y552546D01*
X547738D01*
X545199Y555085D01*
Y562703D01*
Y557625D02*
X540121Y552546D01*
X555356Y547468D02*
Y542390D01*
Y544929D01*
X540121D01*
Y547468D01*
Y542390D01*
X552817Y524615D02*
X555356Y527155D01*
Y532233D01*
X552817Y534772D01*
X542660D01*
X540121Y532233D01*
Y527155D01*
X542660Y524615D01*
X547738D01*
Y529694D01*
X555356Y519537D02*
X540121D01*
X547738D01*
Y509380D01*
X555356D01*
X540121D01*
X555356Y504302D02*
Y494145D01*
Y499224D01*
X540121D01*
Y489067D02*
Y483988D01*
Y486528D01*
X555356D01*
X552817Y489067D01*
X290500Y585235D02*
Y570000D01*
X300657D01*
X315892Y585235D02*
X305735D01*
Y570000D01*
X315892D01*
X305735Y577617D02*
X310813D01*
X331127Y585235D02*
X320970D01*
Y577617D01*
X326049D01*
X320970D01*
Y570000D01*
X336205Y585235D02*
X346362D01*
X341284D01*
Y570000D01*
X351440D02*
X356519D01*
X353979D01*
Y585235D01*
X351440Y582696D01*
X463856Y471203D02*
X448621D01*
Y463586D01*
X451160Y461046D01*
X461317D01*
X463856Y463586D01*
Y471203D01*
Y448350D02*
Y453429D01*
X461317Y455968D01*
X451160D01*
X448621Y453429D01*
Y448350D01*
X451160Y445811D01*
X461317D01*
X463856Y448350D01*
Y440733D02*
X448621D01*
X453699Y435654D01*
X448621Y430576D01*
X463856D01*
X448621Y425498D02*
X463856D01*
X448621Y415341D01*
X463856D01*
X448621Y410263D02*
Y405184D01*
Y407724D01*
X463856D01*
X461317Y410263D01*
X877453Y442894D02*
Y458129D01*
X869836D01*
X867296Y455590D01*
Y453051D01*
X869836Y450512D01*
X877453D01*
X869836D01*
X867296Y447972D01*
Y445433D01*
X869836Y442894D01*
X877453D01*
X852061Y458129D02*
X862218D01*
X852061Y447972D01*
Y445433D01*
X854600Y442894D01*
X859679D01*
X862218Y445433D01*
X643578Y546876D02*
X645245Y545210D01*
X648577D01*
X650243Y546876D01*
Y553541D01*
X648577Y555207D01*
X645245D01*
X643578Y553541D01*
X633582Y555207D02*
X640246D01*
X633582Y548543D01*
Y546876D01*
X635248Y545210D01*
X638580D01*
X640246Y546876D01*
X623585Y545210D02*
X626917Y546876D01*
X630249Y550209D01*
Y553541D01*
X628583Y555207D01*
X625251D01*
X623585Y553541D01*
Y551875D01*
X625251Y550209D01*
X630249D01*
X1022203Y526629D02*
Y516472D01*
X1017125Y511394D01*
X1012046Y516472D01*
Y526629D01*
Y519011D01*
X1022203D01*
X1006968Y526629D02*
X1001890D01*
X1004429D01*
Y511394D01*
X1006968Y513933D01*
X321250Y191747D02*
Y183416D01*
X322916Y181750D01*
X326248D01*
X327915Y183416D01*
Y191747D01*
X337911Y181750D02*
X331247D01*
X337911Y188414D01*
Y190081D01*
X336245Y191747D01*
X332913D01*
X331247Y190081D01*
X370753Y258500D02*
Y265165D01*
Y261832D01*
X380750D01*
X372419Y275161D02*
X370753Y273495D01*
Y270163D01*
X372419Y268497D01*
X374086D01*
X375752Y270163D01*
Y273495D01*
X377418Y275161D01*
X379084D01*
X380750Y273495D01*
Y270163D01*
X379084Y268497D01*
X380750Y278494D02*
X370753D01*
Y283492D01*
X372419Y285158D01*
X375752D01*
X377418Y283492D01*
Y278494D01*
X326253Y91750D02*
Y97082D01*
Y94416D01*
X334250D01*
X326253Y99747D02*
X334250D01*
X330251D01*
Y105079D01*
X326253D01*
X334250D01*
Y107745D02*
X326253D01*
Y111744D01*
X327585Y113076D01*
X330251D01*
X331584Y111744D01*
Y107745D01*
Y110411D02*
X334250Y113076D01*
X399750Y91750D02*
Y101747D01*
X404748D01*
X406414Y100081D01*
Y96748D01*
X404748Y95082D01*
X399750D01*
X403082D02*
X406414Y91750D01*
X416411D02*
X409747D01*
X416411Y98414D01*
Y100081D01*
X414745Y101747D01*
X411413D01*
X409747Y100081D01*
X419744D02*
X421410Y101747D01*
X424742D01*
X426408Y100081D01*
Y93416D01*
X424742Y91750D01*
X421410D01*
X419744Y93416D01*
Y100081D01*
X400750Y123500D02*
Y133497D01*
X405748D01*
X407415Y131831D01*
Y128498D01*
X405748Y126832D01*
X400750D01*
X404082D02*
X407415Y123500D01*
X410747D02*
X414079D01*
X412413D01*
Y133497D01*
X410747Y131831D01*
X419077Y125166D02*
X420744Y123500D01*
X424076D01*
X425742Y125166D01*
Y131831D01*
X424076Y133497D01*
X420744D01*
X419077Y131831D01*
Y130164D01*
X420744Y128498D01*
X425742D01*
X375500Y153000D02*
X367503D01*
Y156999D01*
X368835Y158332D01*
X371501D01*
X372834Y156999D01*
Y153000D01*
Y155666D02*
X375500Y158332D01*
Y160997D02*
Y163663D01*
Y162330D01*
X367503D01*
X368835Y160997D01*
Y167662D02*
X367503Y168995D01*
Y171661D01*
X368835Y172994D01*
X370168D01*
X371501Y171661D01*
X372834Y172994D01*
X374167D01*
X375500Y171661D01*
Y168995D01*
X374167Y167662D01*
X372834D01*
X371501Y168995D01*
X370168Y167662D01*
X368835D01*
X371501Y168995D02*
Y171661D01*
X447250Y159750D02*
X437253D01*
Y164748D01*
X438919Y166415D01*
X442252D01*
X443918Y164748D01*
Y159750D01*
Y163082D02*
X447250Y166415D01*
Y169747D02*
Y173079D01*
Y171413D01*
X437253D01*
X438919Y169747D01*
X437253Y178077D02*
Y184742D01*
X438919D01*
X445584Y178077D01*
X447250D01*
X386000Y207750D02*
X378003D01*
Y211749D01*
X379336Y213082D01*
X382001D01*
X383334Y211749D01*
Y207750D01*
Y210416D02*
X386000Y213082D01*
Y215747D02*
Y218413D01*
Y217080D01*
X378003D01*
X379336Y215747D01*
X386000Y227743D02*
Y222412D01*
X380668Y227743D01*
X379336D01*
X378003Y226411D01*
Y223745D01*
X379336Y222412D01*
X469250Y177750D02*
X459253D01*
Y182748D01*
X460919Y184415D01*
X464252D01*
X465918Y182748D01*
Y177750D01*
Y181082D02*
X469250Y184415D01*
X467584Y187747D02*
X469250Y189413D01*
Y192745D01*
X467584Y194411D01*
X460919D01*
X459253Y192745D01*
Y189413D01*
X460919Y187747D01*
X462585D01*
X464252Y189413D01*
Y194411D01*
X456500Y279000D02*
Y288997D01*
X461498D01*
X463164Y287331D01*
Y283998D01*
X461498Y282332D01*
X456500D01*
X459832D02*
X463164Y279000D01*
X466497Y287331D02*
X468163Y288997D01*
X471495D01*
X473161Y287331D01*
Y285665D01*
X471495Y283998D01*
X473161Y282332D01*
Y280666D01*
X471495Y279000D01*
X468163D01*
X466497Y280666D01*
Y282332D01*
X468163Y283998D01*
X466497Y285665D01*
Y287331D01*
X468163Y283998D02*
X471495D01*
X308414Y240831D02*
X306748Y242497D01*
X303416D01*
X301750Y240831D01*
Y234166D01*
X303416Y232500D01*
X306748D01*
X308414Y234166D01*
X311747Y232500D02*
X315079D01*
X313413D01*
Y242497D01*
X311747Y240831D01*
X320077Y232500D02*
X323410D01*
X321744D01*
Y242497D01*
X320077Y240831D01*
X291665Y192331D02*
X289998Y193997D01*
X286666D01*
X285000Y192331D01*
Y185666D01*
X286666Y184000D01*
X289998D01*
X291665Y185666D01*
X294997Y184000D02*
X298329D01*
X296663D01*
Y193997D01*
X294997Y192331D01*
X303327D02*
X304993Y193997D01*
X308326D01*
X309992Y192331D01*
Y185666D01*
X308326Y184000D01*
X304993D01*
X303327Y185666D01*
Y192331D01*
X689356Y258047D02*
X687080Y258657D01*
X684194Y256991D01*
X683585Y254715D01*
X684418Y253272D01*
X686694Y252662D01*
X689579Y254328D01*
X691855Y253718D01*
X692689Y252275D01*
X692079Y249999D01*
X689193Y248333D01*
X686917Y248943D01*
X691409Y261156D02*
X697181Y264488D01*
X694295Y262822D01*
X699293Y254165D01*
X705065Y257497D02*
X701733Y263268D01*
X702952Y267820D01*
X707504Y266601D01*
X710837Y260829D01*
X708337Y265158D01*
X702566Y261826D01*
X713722Y262495D02*
X708724Y271153D01*
X713053Y273652D01*
X715329Y273042D01*
X716995Y270156D01*
X716385Y267880D01*
X712056Y265381D01*
X714942Y267047D02*
X719494Y265827D01*
X717382Y276151D02*
X723153Y279483D01*
X720267Y277817D01*
X725266Y269160D01*
X731037Y272492D02*
X733923Y274158D01*
X732480Y273325D01*
X727482Y281982D01*
X726872Y279706D01*
X483106Y350297D02*
X480830Y350907D01*
X477944Y349240D01*
X477335Y346964D01*
X478168Y345522D01*
X480444Y344912D01*
X483330Y346578D01*
X485606Y345968D01*
X486438Y344525D01*
X485829Y342249D01*
X482943Y340583D01*
X480667Y341193D01*
X490931Y356738D02*
X485159Y353406D01*
X490158Y344748D01*
X495929Y348081D01*
X487658Y349077D02*
X490544Y350743D01*
X493816Y358404D02*
X498815Y349747D01*
X504587Y353079D01*
X508246Y366735D02*
X502474Y363403D01*
X507472Y354745D01*
X513244Y358077D01*
X504973Y359074D02*
X507859Y360740D01*
X517736Y370290D02*
X515460Y370900D01*
X512574Y369234D01*
X511964Y366958D01*
X515297Y361186D01*
X517573Y360577D01*
X520459Y362243D01*
X521068Y364519D01*
X519789Y373399D02*
X525561Y376732D01*
X522675Y375065D01*
X527673Y366408D01*
X533445Y369740D02*
X536331Y371407D01*
X534888Y370573D01*
X529889Y379231D01*
X529280Y376955D01*
X460169Y351165D02*
X458503Y349498D01*
Y346166D01*
X460169Y344500D01*
X466834D01*
X468500Y346166D01*
Y349498D01*
X466834Y351165D01*
X468500Y354497D02*
Y357829D01*
Y356163D01*
X458503D01*
X460169Y354497D01*
X468500Y369492D02*
Y362827D01*
X461836Y369492D01*
X460169D01*
X458503Y367826D01*
Y364494D01*
X460169Y362827D01*
X410669Y359414D02*
X409003Y357748D01*
Y354416D01*
X410669Y352750D01*
X417334D01*
X419000Y354416D01*
Y357748D01*
X417334Y359414D01*
X419000Y362747D02*
Y366079D01*
Y364413D01*
X409003D01*
X410669Y362747D01*
Y371077D02*
X409003Y372744D01*
Y376076D01*
X410669Y377742D01*
X412336D01*
X414002Y376076D01*
Y374410D01*
Y376076D01*
X415668Y377742D01*
X417334D01*
X419000Y376076D01*
Y372744D01*
X417334Y371077D01*
X634169Y613414D02*
X632503Y611748D01*
Y608416D01*
X634169Y606750D01*
X640834D01*
X642500Y608416D01*
Y611748D01*
X640834Y613414D01*
X642500Y616747D02*
Y620079D01*
Y618413D01*
X632503D01*
X634169Y616747D01*
X632503Y625077D02*
Y631742D01*
X634169D01*
X640834Y625077D01*
X642500D01*
X659509Y689361D02*
Y679364D01*
X654511D01*
X652844Y681030D01*
Y684363D01*
X654511Y686029D01*
X659509D01*
X656177D02*
X652844Y689361D01*
X649512D02*
X646180D01*
X647846D01*
Y679364D01*
X649512Y681030D01*
X641182D02*
X639515Y679364D01*
X636183D01*
X634517Y681030D01*
Y682697D01*
X636183Y684363D01*
X637849D01*
X636183D01*
X634517Y686029D01*
Y687695D01*
X636183Y689361D01*
X639515D01*
X641182Y687695D01*
X637000Y762750D02*
Y752753D01*
X632002D01*
X630336Y754419D01*
Y757752D01*
X632002Y759418D01*
X637000D01*
X633668D02*
X630336Y762750D01*
X627003D02*
X623671D01*
X625337D01*
Y752753D01*
X627003Y754419D01*
X613674Y762750D02*
Y752753D01*
X618672Y757752D01*
X612008D01*
D74*
X255550Y88900D02*
X280950D01*
X255550D02*
Y139700D01*
X280950D01*
Y88900D02*
Y139700D01*
X392500Y271000D02*
Y277000D01*
X398500D01*
X392500Y237000D02*
Y243000D01*
Y237000D02*
X398500D01*
X426500D02*
X432500D01*
Y243000D01*
Y271000D02*
Y272500D01*
X428000Y277000D02*
X432500Y272500D01*
X426500Y277000D02*
X428000D01*
X256300Y254850D02*
X281700D01*
Y204050D02*
Y254850D01*
X256300Y204050D02*
X281700D01*
X256300D02*
Y254850D01*
D76*
X816600Y652750D02*
G03*
X816600Y652750I-38100J0D01*
G01*
X961350Y720000D02*
G03*
X961350Y720000I-38100J0D01*
G01*
X441850Y617250D02*
G03*
X441850Y617250I-38100J0D01*
G01*
X530850Y526000D02*
G03*
X530850Y526000I-38100J0D01*
G01*
X348100Y525750D02*
G03*
X348100Y525750I-38100J0D01*
G01*
X439350Y434500D02*
G03*
X439350Y434500I-38100J0D01*
G01*
X878850Y505500D02*
G03*
X878850Y505500I-38100J0D01*
G01*
X1023600Y574000D02*
G03*
X1023600Y574000I-38100J0D01*
G01*
D77*
X423000Y284000D02*
G03*
X423000Y284000I-500J0D01*
G01*
X423207D02*
G03*
X423207Y284000I-707J0D01*
G01*
X423914D02*
G03*
X423914Y284000I-1414J0D01*
G01*
D78*
X327152Y137668D02*
X332232D01*
X292608D02*
X297688D01*
X292608Y172212D02*
Y177292D01*
X327152D02*
X332232D01*
Y137668D02*
Y142748D01*
X292608Y137668D02*
Y142748D01*
X332232Y172212D02*
Y177292D01*
X292608D02*
X297688D01*
D79*
X636000Y697999D02*
Y746001D01*
X616000Y697999D02*
X636000D01*
X616000D02*
Y746001D01*
X636000D01*
X661000Y697999D02*
Y746001D01*
X641000Y697999D02*
X661000D01*
X641000D02*
Y746001D01*
X661000D01*
X633751Y563749D02*
X651749D01*
X633751D02*
Y599751D01*
X651749D01*
Y563749D02*
Y599751D01*
X647250Y609250D02*
Y641249D01*
X661250D01*
Y609250D02*
Y641249D01*
X647250Y609250D02*
X661250D01*
M02*
