G04 Layer_Color=128*
%FSLAX44Y44*%
%MOMM*%
G71*
G01*
G75*
G04:AMPARAMS|DCode=11|XSize=1.75mm|YSize=1.25mm|CornerRadius=0.3125mm|HoleSize=0mm|Usage=FLASHONLY|Rotation=0.000|XOffset=0mm|YOffset=0mm|HoleType=Round|Shape=RoundedRectangle|*
%AMROUNDEDRECTD11*
21,1,1.7500,0.6250,0,0,0.0*
21,1,1.1250,1.2500,0,0,0.0*
1,1,0.6250,0.5625,-0.3125*
1,1,0.6250,-0.5625,-0.3125*
1,1,0.6250,-0.5625,0.3125*
1,1,0.6250,0.5625,0.3125*
%
%ADD11ROUNDEDRECTD11*%
G04:AMPARAMS|DCode=12|XSize=1.75mm|YSize=1.25mm|CornerRadius=0.3125mm|HoleSize=0mm|Usage=FLASHONLY|Rotation=270.000|XOffset=0mm|YOffset=0mm|HoleType=Round|Shape=RoundedRectangle|*
%AMROUNDEDRECTD12*
21,1,1.7500,0.6250,0,0,270.0*
21,1,1.1250,1.2500,0,0,270.0*
1,1,0.6250,-0.3125,-0.5625*
1,1,0.6250,-0.3125,0.5625*
1,1,0.6250,0.3125,0.5625*
1,1,0.6250,0.3125,-0.5625*
%
%ADD12ROUNDEDRECTD12*%
G04:AMPARAMS|DCode=13|XSize=1.4mm|YSize=1.1mm|CornerRadius=0.275mm|HoleSize=0mm|Usage=FLASHONLY|Rotation=0.000|XOffset=0mm|YOffset=0mm|HoleType=Round|Shape=RoundedRectangle|*
%AMROUNDEDRECTD13*
21,1,1.4000,0.5500,0,0,0.0*
21,1,0.8500,1.1000,0,0,0.0*
1,1,0.5500,0.4250,-0.2750*
1,1,0.5500,-0.4250,-0.2750*
1,1,0.5500,-0.4250,0.2750*
1,1,0.5500,0.4250,0.2750*
%
%ADD13ROUNDEDRECTD13*%
%ADD14R,1.0000X1.1001*%
%ADD15R,1.5001X1.3000*%
%ADD17R,1.8001X1.5999*%
%ADD45R,2.0000X2.0000*%
%ADD46R,1.5000X1.5000*%
%ADD47C,2.0000*%
%ADD48R,3.0000X2.5000*%
%ADD49R,4.0000X1.5000*%
G04:AMPARAMS|DCode=50|XSize=1.6mm|YSize=1.6mm|CornerRadius=0.4mm|HoleSize=0mm|Usage=FLASHONLY|Rotation=0.000|XOffset=0mm|YOffset=0mm|HoleType=Round|Shape=RoundedRectangle|*
%AMROUNDEDRECTD50*
21,1,1.6000,0.8000,0,0,0.0*
21,1,0.8000,1.6000,0,0,0.0*
1,1,0.8000,0.4000,-0.4000*
1,1,0.8000,-0.4000,-0.4000*
1,1,0.8000,-0.4000,0.4000*
1,1,0.8000,0.4000,0.4000*
%
%ADD50ROUNDEDRECTD50*%
%ADD51R,3.0000X4.0000*%
%ADD52R,4.0000X3.0000*%
%ADD53R,1.3000X1.5001*%
%ADD54R,1.1001X1.0000*%
%ADD55R,3.1999X1.1999*%
%ADD56R,1.5240X1.5240*%
%ADD57R,0.8000X0.9000*%
%ADD58R,1.5999X1.8001*%
%ADD59R,1.5000X0.4000*%
%ADD60R,0.5001X1.5001*%
%ADD61R,1.5001X0.5001*%
%ADD62R,1.1999X1.1999*%
%ADD63R,5.0000X2.5400*%
G04:AMPARAMS|DCode=64|XSize=1.4mm|YSize=1.1mm|CornerRadius=0.275mm|HoleSize=0mm|Usage=FLASHONLY|Rotation=270.000|XOffset=0mm|YOffset=0mm|HoleType=Round|Shape=RoundedRectangle|*
%AMROUNDEDRECTD64*
21,1,1.4000,0.5500,0,0,270.0*
21,1,0.8500,1.1000,0,0,270.0*
1,1,0.5500,-0.2750,-0.4250*
1,1,0.5500,-0.2750,0.4250*
1,1,0.5500,0.2750,0.4250*
1,1,0.5500,0.2750,-0.4250*
%
%ADD64ROUNDEDRECTD64*%
%ADD65R,1.5000X0.6000*%
%ADD66R,1.0000X1.4000*%
%ADD67R,1.5240X1.5240*%
%ADD68R,1.2000X1.2000*%
%ADD69R,1.4000X1.1500*%
%ADD70R,1.1000X1.2000*%
%ADD71R,2.8000X2.2000*%
%ADD72R,2.8000X2.8000*%
%ADD73R,2.5000X2.5000*%
D11*
X592000Y338750D02*
D03*
Y366250D02*
D03*
X302250Y538000D02*
D03*
Y565500D02*
D03*
X303000Y209250D02*
D03*
Y181750D02*
D03*
X345750Y209000D02*
D03*
Y181500D02*
D03*
X715500Y201250D02*
D03*
Y173750D02*
D03*
X745750Y201000D02*
D03*
Y173500D02*
D03*
D12*
X431000Y450750D02*
D03*
X403500D02*
D03*
X543000Y586000D02*
D03*
X515500D02*
D03*
X458000Y484250D02*
D03*
X430500D02*
D03*
X309500Y421750D02*
D03*
X337000D02*
D03*
X400750Y192000D02*
D03*
X373250D02*
D03*
X374000Y162250D02*
D03*
X401500D02*
D03*
X329750Y339750D02*
D03*
X302250D02*
D03*
X460750Y349250D02*
D03*
X488250D02*
D03*
D13*
X272500Y359000D02*
D03*
Y341500D02*
D03*
X273000Y304750D02*
D03*
Y287250D02*
D03*
X272750Y413250D02*
D03*
Y430750D02*
D03*
D14*
X608500Y615706D02*
D03*
Y632703D02*
D03*
X628750Y615706D02*
D03*
Y632703D02*
D03*
D15*
X479750Y251420D02*
D03*
Y232421D02*
D03*
X455480Y231540D02*
D03*
Y212541D02*
D03*
X607520Y281040D02*
D03*
Y262041D02*
D03*
X584520D02*
D03*
Y281040D02*
D03*
X478750Y209750D02*
D03*
Y190750D02*
D03*
X539000Y122250D02*
D03*
Y103250D02*
D03*
X515750Y122000D02*
D03*
Y103000D02*
D03*
X539000Y163000D02*
D03*
Y144000D02*
D03*
X516250Y163000D02*
D03*
Y144000D02*
D03*
X718275Y282476D02*
D03*
Y301475D02*
D03*
X742750Y281000D02*
D03*
Y300000D02*
D03*
D17*
X621500Y743000D02*
D03*
Y714999D02*
D03*
X652000Y743501D02*
D03*
Y715499D02*
D03*
X292000Y754501D02*
D03*
Y726499D02*
D03*
X936000Y642000D02*
D03*
Y670001D02*
D03*
D45*
X375250Y127000D02*
D03*
X518000Y385000D02*
D03*
X898750Y700750D02*
D03*
X495250Y493750D02*
D03*
X494500Y467500D02*
D03*
X526928Y469750D02*
D03*
X527500Y494250D02*
D03*
X897750Y744250D02*
D03*
X927750D02*
D03*
X957750D02*
D03*
X897750Y774250D02*
D03*
X927750D02*
D03*
X957750D02*
D03*
D46*
X356250Y472050D02*
D03*
X381250Y472250D02*
D03*
X733500Y443500D02*
D03*
Y422500D02*
D03*
D47*
X743250Y329000D02*
D03*
X718000Y329750D02*
D03*
D48*
X547500Y294500D02*
D03*
X510750D02*
D03*
D49*
X401750Y370750D02*
D03*
X355000Y370500D02*
D03*
D50*
X272000Y393250D02*
D03*
D51*
X412500Y257000D02*
D03*
D52*
X312420Y157480D02*
D03*
D53*
X907000Y594500D02*
D03*
X888000D02*
D03*
X832750Y595000D02*
D03*
X851750D02*
D03*
X887500Y570500D02*
D03*
X906500D02*
D03*
X851750Y571500D02*
D03*
X832750D02*
D03*
X816000Y619250D02*
D03*
X835000D02*
D03*
X580250Y156500D02*
D03*
X561250D02*
D03*
X742750Y256500D02*
D03*
X761750D02*
D03*
X700750Y234500D02*
D03*
X719750D02*
D03*
X742750Y233750D02*
D03*
X761750D02*
D03*
X700750Y256500D02*
D03*
X719749D02*
D03*
D54*
X831001Y696000D02*
D03*
X847999D02*
D03*
X417501Y671250D02*
D03*
X434499D02*
D03*
X481501Y743250D02*
D03*
X498499D02*
D03*
X434999Y728500D02*
D03*
X418001D02*
D03*
X495249Y763000D02*
D03*
X478251D02*
D03*
D55*
X847750Y512750D02*
D03*
X915750D02*
D03*
Y472750D02*
D03*
X847750D02*
D03*
D56*
X459500Y410250D02*
D03*
Y390250D02*
D03*
X567250Y358500D02*
D03*
Y338500D02*
D03*
X717250Y129250D02*
D03*
Y149250D02*
D03*
X747500Y128750D02*
D03*
Y148750D02*
D03*
D57*
X760750Y457500D02*
D03*
X774750D02*
D03*
X761250Y510000D02*
D03*
X775250D02*
D03*
X652750Y575750D02*
D03*
X638750D02*
D03*
X675750Y386250D02*
D03*
X661750D02*
D03*
X537750Y434750D02*
D03*
X551750D02*
D03*
X376000Y269750D02*
D03*
X362000D02*
D03*
X376000Y256000D02*
D03*
X362000D02*
D03*
D58*
X639001Y686500D02*
D03*
X610999D02*
D03*
X502751Y785250D02*
D03*
X474749D02*
D03*
X843501Y645750D02*
D03*
X815499D02*
D03*
X842750Y670500D02*
D03*
X814750D02*
D03*
X789000Y619250D02*
D03*
X761000D02*
D03*
D59*
X584250Y704200D02*
D03*
Y697800D02*
D03*
Y710600D02*
D03*
Y717000D02*
D03*
Y742600D02*
D03*
Y736200D02*
D03*
Y723400D02*
D03*
Y729800D02*
D03*
Y768200D02*
D03*
Y761800D02*
D03*
Y749000D02*
D03*
Y755400D02*
D03*
X518750Y742600D02*
D03*
Y736200D02*
D03*
Y749000D02*
D03*
Y755400D02*
D03*
X584250Y691400D02*
D03*
Y685000D02*
D03*
X518750Y761800D02*
D03*
Y768200D02*
D03*
Y717000D02*
D03*
Y710600D02*
D03*
Y723400D02*
D03*
Y729800D02*
D03*
Y704200D02*
D03*
Y697800D02*
D03*
Y685000D02*
D03*
Y691400D02*
D03*
D60*
X590500Y532751D02*
D03*
X598501D02*
D03*
X606499D02*
D03*
X614501D02*
D03*
X622499D02*
D03*
X630500D02*
D03*
X638501D02*
D03*
X646499D02*
D03*
X654501D02*
D03*
X662499D02*
D03*
X670500D02*
D03*
Y416749D02*
D03*
X662499D02*
D03*
X654501D02*
D03*
X646499D02*
D03*
X638501D02*
D03*
X630500D02*
D03*
X622499D02*
D03*
X614501D02*
D03*
X606499D02*
D03*
X598501D02*
D03*
X590500D02*
D03*
D61*
X688501Y514750D02*
D03*
Y506749D02*
D03*
Y498750D02*
D03*
Y490750D02*
D03*
Y482751D02*
D03*
Y474750D02*
D03*
Y466749D02*
D03*
Y458750D02*
D03*
Y450750D02*
D03*
Y442751D02*
D03*
Y434750D02*
D03*
X572499D02*
D03*
Y442751D02*
D03*
Y450750D02*
D03*
Y458750D02*
D03*
Y466749D02*
D03*
Y474750D02*
D03*
Y482751D02*
D03*
Y490750D02*
D03*
Y498750D02*
D03*
Y506749D02*
D03*
Y514750D02*
D03*
D62*
X270250Y561250D02*
D03*
Y540250D02*
D03*
X274250Y470750D02*
D03*
Y491750D02*
D03*
D63*
X322750Y282960D02*
D03*
Y241040D02*
D03*
D64*
X377750Y451250D02*
D03*
X360250D02*
D03*
D65*
X501250Y273000D02*
D03*
Y260300D02*
D03*
Y247600D02*
D03*
Y234900D02*
D03*
Y222200D02*
D03*
Y209500D02*
D03*
Y196800D02*
D03*
Y184100D02*
D03*
X555250D02*
D03*
Y196800D02*
D03*
Y209500D02*
D03*
Y222200D02*
D03*
Y234900D02*
D03*
Y247600D02*
D03*
Y260300D02*
D03*
Y273000D02*
D03*
D66*
X908500Y669000D02*
D03*
X899000Y647000D02*
D03*
X889500Y669000D02*
D03*
D67*
X497000Y549500D02*
D03*
X517000D02*
D03*
X808750Y696250D02*
D03*
X788750D02*
D03*
D68*
X467000Y574750D02*
D03*
Y594750D02*
D03*
Y614750D02*
D03*
Y634750D02*
D03*
X395750Y585000D02*
D03*
Y605000D02*
D03*
Y625000D02*
D03*
Y645000D02*
D03*
X340750Y768250D02*
D03*
Y748250D02*
D03*
Y728250D02*
D03*
Y708250D02*
D03*
X817000Y727500D02*
D03*
Y747500D02*
D03*
Y767500D02*
D03*
Y787500D02*
D03*
D69*
X778500Y475250D02*
D03*
X756500D02*
D03*
Y491250D02*
D03*
X778500D02*
D03*
D70*
X436750Y708000D02*
D03*
Y691000D02*
D03*
X422750D02*
D03*
Y708000D02*
D03*
D71*
X598250Y107750D02*
D03*
X672250Y127750D02*
D03*
D72*
X598250Y202750D02*
D03*
X638250Y240750D02*
D03*
D73*
X678500Y292750D02*
D03*
M02*
