G04 Layer_Color=128*
%FSLAX44Y44*%
%MOMM*%
G71*
G01*
G75*
%ADD10R,1.8001X1.5999*%
%ADD11C,1.5240*%
G04:AMPARAMS|DCode=15|XSize=1.75mm|YSize=1.25mm|CornerRadius=0.3125mm|HoleSize=0mm|Usage=FLASHONLY|Rotation=270.000|XOffset=0mm|YOffset=0mm|HoleType=Round|Shape=RoundedRectangle|*
%AMROUNDEDRECTD15*
21,1,1.7500,0.6250,0,0,270.0*
21,1,1.1250,1.2500,0,0,270.0*
1,1,0.6250,-0.3125,-0.5625*
1,1,0.6250,-0.3125,0.5625*
1,1,0.6250,0.3125,0.5625*
1,1,0.6250,0.3125,-0.5625*
%
%ADD15ROUNDEDRECTD15*%
G04:AMPARAMS|DCode=16|XSize=1.75mm|YSize=1.25mm|CornerRadius=0.3125mm|HoleSize=0mm|Usage=FLASHONLY|Rotation=0.000|XOffset=0mm|YOffset=0mm|HoleType=Round|Shape=RoundedRectangle|*
%AMROUNDEDRECTD16*
21,1,1.7500,0.6250,0,0,0.0*
21,1,1.1250,1.2500,0,0,0.0*
1,1,0.6250,0.5625,-0.3125*
1,1,0.6250,-0.5625,-0.3125*
1,1,0.6250,-0.5625,0.3125*
1,1,0.6250,0.5625,0.3125*
%
%ADD16ROUNDEDRECTD16*%
%ADD18R,1.3000X1.5001*%
%ADD19R,1.5001X1.3000*%
G04:AMPARAMS|DCode=20|XSize=1.4mm|YSize=1.1mm|CornerRadius=0.275mm|HoleSize=0mm|Usage=FLASHONLY|Rotation=0.000|XOffset=0mm|YOffset=0mm|HoleType=Round|Shape=RoundedRectangle|*
%AMROUNDEDRECTD20*
21,1,1.4000,0.5500,0,0,0.0*
21,1,0.8500,1.1000,0,0,0.0*
1,1,0.5500,0.4250,-0.2750*
1,1,0.5500,-0.4250,-0.2750*
1,1,0.5500,-0.4250,0.2750*
1,1,0.5500,0.4250,0.2750*
%
%ADD20ROUNDEDRECTD20*%
%ADD22R,1.5999X1.8001*%
%ADD23R,1.0000X1.1001*%
%ADD49R,1.2000X1.2000*%
%ADD50R,2.0000X2.0000*%
%ADD51R,1.5000X0.4000*%
%ADD52R,1.2000X1.1000*%
%ADD53R,1.1001X1.0000*%
%ADD54R,1.5240X1.5240*%
%ADD55R,1.2000X1.2000*%
%ADD56R,1.1999X1.1999*%
%ADD57R,0.9000X0.8000*%
%ADD58R,1.5240X1.5240*%
%ADD59R,0.8000X0.9000*%
%ADD60R,3.1999X1.1999*%
%ADD61R,5.0000X2.5400*%
G04:AMPARAMS|DCode=62|XSize=1.4mm|YSize=1.1mm|CornerRadius=0.275mm|HoleSize=0mm|Usage=FLASHONLY|Rotation=270.000|XOffset=0mm|YOffset=0mm|HoleType=Round|Shape=RoundedRectangle|*
%AMROUNDEDRECTD62*
21,1,1.4000,0.5500,0,0,270.0*
21,1,0.8500,1.1000,0,0,270.0*
1,1,0.5500,-0.2750,-0.4250*
1,1,0.5500,-0.2750,0.4250*
1,1,0.5500,0.2750,0.4250*
1,1,0.5500,0.2750,-0.4250*
%
%ADD62ROUNDEDRECTD62*%
%ADD63R,0.1999X0.7000*%
%ADD64R,2.3500X1.2700*%
%ADD65R,0.5001X1.5001*%
%ADD66R,1.5001X0.5001*%
%ADD67R,2.5000X2.5000*%
%ADD68R,1.0000X1.4000*%
%ADD69R,1.4001X1.4001*%
%ADD70R,2.8000X2.0000*%
%ADD71R,2.8000X2.8000*%
%ADD72R,2.8000X2.2000*%
%ADD137R,0.1750X0.5502*%
%ADD138R,0.1747X0.5502*%
%ADD139R,0.8001X0.4001*%
D10*
X649000Y741251D02*
D03*
Y713250D02*
D03*
X614750Y741500D02*
D03*
Y713500D02*
D03*
X936000Y642000D02*
D03*
Y670001D02*
D03*
X983500Y671251D02*
D03*
Y643250D02*
D03*
D11*
X502500Y223500D02*
D03*
X484000Y223250D02*
D03*
X580250D02*
D03*
X565750Y234500D02*
D03*
D15*
X337000Y421750D02*
D03*
X309500D02*
D03*
X334250Y518250D02*
D03*
X306750D02*
D03*
X373250Y192000D02*
D03*
X400750D02*
D03*
X401500Y162250D02*
D03*
X374000D02*
D03*
X466750Y129500D02*
D03*
X439250D02*
D03*
X329750Y339750D02*
D03*
X302250D02*
D03*
D16*
X301250Y181750D02*
D03*
Y209250D02*
D03*
X344000Y182000D02*
D03*
Y209500D02*
D03*
X593000Y359500D02*
D03*
Y332000D02*
D03*
X598500Y566000D02*
D03*
Y593500D02*
D03*
X518750Y538000D02*
D03*
Y565500D02*
D03*
D18*
X525750Y235750D02*
D03*
X544750D02*
D03*
X526000Y258750D02*
D03*
X545000D02*
D03*
X832750Y596500D02*
D03*
X851750D02*
D03*
X907000Y594500D02*
D03*
X888000D02*
D03*
X851750Y573000D02*
D03*
X832750D02*
D03*
X887500Y570500D02*
D03*
X906500D02*
D03*
X830000Y619250D02*
D03*
X849000D02*
D03*
X744000Y203250D02*
D03*
X763000D02*
D03*
D19*
X549500Y149000D02*
D03*
Y130000D02*
D03*
X524250Y148000D02*
D03*
Y129000D02*
D03*
X497750Y148750D02*
D03*
Y129750D02*
D03*
X574250Y149000D02*
D03*
Y130000D02*
D03*
D20*
X273000Y304750D02*
D03*
Y287250D02*
D03*
X272500Y359000D02*
D03*
Y341500D02*
D03*
X272750Y413250D02*
D03*
Y430750D02*
D03*
D22*
X636001Y682500D02*
D03*
X607999D02*
D03*
X481001Y781750D02*
D03*
X452999D02*
D03*
X789000Y619250D02*
D03*
X761000D02*
D03*
X843751Y645500D02*
D03*
X815750D02*
D03*
X842750Y670500D02*
D03*
X814750D02*
D03*
D23*
X480750Y723001D02*
D03*
Y739999D02*
D03*
D49*
X334500Y565750D02*
D03*
Y585750D02*
D03*
Y605750D02*
D03*
Y625750D02*
D03*
Y645750D02*
D03*
X459750Y566500D02*
D03*
Y586500D02*
D03*
Y606500D02*
D03*
Y626500D02*
D03*
Y646500D02*
D03*
X395750Y565000D02*
D03*
Y585000D02*
D03*
Y605000D02*
D03*
Y625000D02*
D03*
Y645000D02*
D03*
D50*
X897750Y744250D02*
D03*
X927750D02*
D03*
X957750D02*
D03*
X897750Y774250D02*
D03*
X927750D02*
D03*
X957750D02*
D03*
D51*
X540750Y733400D02*
D03*
Y727000D02*
D03*
Y739800D02*
D03*
Y746200D02*
D03*
Y771800D02*
D03*
Y765400D02*
D03*
Y752600D02*
D03*
Y759000D02*
D03*
Y810200D02*
D03*
Y803800D02*
D03*
X594750Y727000D02*
D03*
Y733400D02*
D03*
X540750Y797400D02*
D03*
Y791000D02*
D03*
Y778200D02*
D03*
Y784600D02*
D03*
X594750Y797400D02*
D03*
Y791000D02*
D03*
Y803800D02*
D03*
Y810200D02*
D03*
Y771800D02*
D03*
Y765400D02*
D03*
Y778200D02*
D03*
Y784600D02*
D03*
Y759000D02*
D03*
Y752600D02*
D03*
Y739800D02*
D03*
Y746200D02*
D03*
D52*
X778500Y488750D02*
D03*
X761500D02*
D03*
Y474750D02*
D03*
X778500D02*
D03*
D53*
X590501Y655000D02*
D03*
X607499D02*
D03*
X590751Y625250D02*
D03*
X607749D02*
D03*
X831001Y696000D02*
D03*
X847999D02*
D03*
X475249Y759500D02*
D03*
X458251D02*
D03*
X410749Y695000D02*
D03*
X393751D02*
D03*
X394501Y722250D02*
D03*
X411499D02*
D03*
D54*
X788750Y696250D02*
D03*
X808750D02*
D03*
X572750Y565250D02*
D03*
X552750D02*
D03*
X744250Y180750D02*
D03*
X764250D02*
D03*
X744010Y160193D02*
D03*
X764010D02*
D03*
X744000Y136000D02*
D03*
X764000D02*
D03*
X743750Y116000D02*
D03*
X763750D02*
D03*
X1020000Y735500D02*
D03*
D55*
X766250Y752500D02*
D03*
X786250D02*
D03*
X806250D02*
D03*
X826250D02*
D03*
X846250D02*
D03*
D56*
X270250Y540250D02*
D03*
Y561250D02*
D03*
X270000Y472500D02*
D03*
Y493500D02*
D03*
D57*
X638500Y586000D02*
D03*
Y572000D02*
D03*
X435250Y197000D02*
D03*
X444750Y217000D02*
D03*
X454250Y197000D02*
D03*
D58*
X568500Y351750D02*
D03*
Y331750D02*
D03*
X463000Y390000D02*
D03*
Y410000D02*
D03*
D59*
X761250Y510000D02*
D03*
X775250D02*
D03*
X551750Y434750D02*
D03*
X537750D02*
D03*
X675750Y386250D02*
D03*
X661750D02*
D03*
X362000Y254500D02*
D03*
X376000D02*
D03*
Y268250D02*
D03*
X362000D02*
D03*
X774750Y457750D02*
D03*
X760750D02*
D03*
D60*
X915750Y512750D02*
D03*
X847750D02*
D03*
X915750Y472750D02*
D03*
X847750D02*
D03*
D61*
X322750Y282960D02*
D03*
Y241040D02*
D03*
D62*
X441500Y99250D02*
D03*
X424000D02*
D03*
D63*
X558499Y212500D02*
D03*
X554501D02*
D03*
X550500D02*
D03*
X538499D02*
D03*
X546500D02*
D03*
X542500D02*
D03*
X534501D02*
D03*
X558499Y183000D02*
D03*
X554501D02*
D03*
X550500D02*
D03*
X546500D02*
D03*
X542500D02*
D03*
X538499D02*
D03*
X534501D02*
D03*
D64*
X546500Y197750D02*
D03*
D65*
X590500Y532751D02*
D03*
X598501D02*
D03*
X606499D02*
D03*
X614501D02*
D03*
X622499D02*
D03*
X630500D02*
D03*
X638501D02*
D03*
X646499D02*
D03*
X654501D02*
D03*
X662499D02*
D03*
X670500D02*
D03*
Y416749D02*
D03*
X662499D02*
D03*
X654501D02*
D03*
X646499D02*
D03*
X638501D02*
D03*
X630500D02*
D03*
X622499D02*
D03*
X614501D02*
D03*
X606499D02*
D03*
X598501D02*
D03*
X590500D02*
D03*
D66*
X688501Y514750D02*
D03*
Y506749D02*
D03*
Y498750D02*
D03*
Y490750D02*
D03*
Y482751D02*
D03*
Y474750D02*
D03*
Y466749D02*
D03*
Y458750D02*
D03*
Y450750D02*
D03*
Y442751D02*
D03*
Y434750D02*
D03*
X572499D02*
D03*
Y442751D02*
D03*
Y450750D02*
D03*
Y458750D02*
D03*
Y466749D02*
D03*
Y474750D02*
D03*
Y482751D02*
D03*
Y490750D02*
D03*
Y498750D02*
D03*
Y506749D02*
D03*
Y514750D02*
D03*
D67*
X527750Y496500D02*
D03*
X528250Y464500D02*
D03*
D68*
X908500Y669000D02*
D03*
X899000Y647000D02*
D03*
X889500Y669000D02*
D03*
D69*
X982500Y698001D02*
D03*
Y734999D02*
D03*
D70*
X680500Y142250D02*
D03*
Y114250D02*
D03*
D71*
X606500Y217250D02*
D03*
D72*
Y123250D02*
D03*
Y95250D02*
D03*
D137*
X558500Y212493D02*
D03*
X554500D02*
D03*
X542501D02*
D03*
X550499D02*
D03*
X538500D02*
D03*
X534500D02*
D03*
X558500Y182994D02*
D03*
X554500D02*
D03*
X542501D02*
D03*
X550499D02*
D03*
X538500D02*
D03*
X534500D02*
D03*
D138*
X546500Y212493D02*
D03*
Y182994D02*
D03*
D139*
X552499Y200745D02*
D03*
Y194743D02*
D03*
X540500Y200745D02*
D03*
Y194743D02*
D03*
M02*
