G04 Layer_Color=8421504*
%FSLAX44Y44*%
%MOMM*%
G71*
G01*
G75*
%ADD10R,1.8001X1.5999*%
%ADD11C,1.5240*%
%ADD12R,0.4000X0.4000*%
%ADD13R,0.4000X0.4064*%
%ADD14R,0.4064X0.4000*%
G04:AMPARAMS|DCode=15|XSize=1.75mm|YSize=1.25mm|CornerRadius=0.3125mm|HoleSize=0mm|Usage=FLASHONLY|Rotation=270.000|XOffset=0mm|YOffset=0mm|HoleType=Round|Shape=RoundedRectangle|*
%AMROUNDEDRECTD15*
21,1,1.7500,0.6250,0,0,270.0*
21,1,1.1250,1.2500,0,0,270.0*
1,1,0.6250,-0.3125,-0.5625*
1,1,0.6250,-0.3125,0.5625*
1,1,0.6250,0.3125,0.5625*
1,1,0.6250,0.3125,-0.5625*
%
%ADD15ROUNDEDRECTD15*%
G04:AMPARAMS|DCode=16|XSize=1.75mm|YSize=1.25mm|CornerRadius=0.3125mm|HoleSize=0mm|Usage=FLASHONLY|Rotation=0.000|XOffset=0mm|YOffset=0mm|HoleType=Round|Shape=RoundedRectangle|*
%AMROUNDEDRECTD16*
21,1,1.7500,0.6250,0,0,0.0*
21,1,1.1250,1.2500,0,0,0.0*
1,1,0.6250,0.5625,-0.3125*
1,1,0.6250,-0.5625,-0.3125*
1,1,0.6250,-0.5625,0.3125*
1,1,0.6250,0.5625,0.3125*
%
%ADD16ROUNDEDRECTD16*%
G04:AMPARAMS|DCode=17|XSize=0.6mm|YSize=0.9mm|CornerRadius=0.15mm|HoleSize=0mm|Usage=FLASHONLY|Rotation=0.000|XOffset=0mm|YOffset=0mm|HoleType=Round|Shape=RoundedRectangle|*
%AMROUNDEDRECTD17*
21,1,0.6000,0.6000,0,0,0.0*
21,1,0.3000,0.9000,0,0,0.0*
1,1,0.3000,0.1500,-0.3000*
1,1,0.3000,-0.1500,-0.3000*
1,1,0.3000,-0.1500,0.3000*
1,1,0.3000,0.1500,0.3000*
%
%ADD17ROUNDEDRECTD17*%
%ADD18R,1.3000X1.5001*%
%ADD19R,1.5001X1.3000*%
G04:AMPARAMS|DCode=20|XSize=1.4mm|YSize=1.1mm|CornerRadius=0.275mm|HoleSize=0mm|Usage=FLASHONLY|Rotation=0.000|XOffset=0mm|YOffset=0mm|HoleType=Round|Shape=RoundedRectangle|*
%AMROUNDEDRECTD20*
21,1,1.4000,0.5500,0,0,0.0*
21,1,0.8500,1.1000,0,0,0.0*
1,1,0.5500,0.4250,-0.2750*
1,1,0.5500,-0.4250,-0.2750*
1,1,0.5500,-0.4250,0.2750*
1,1,0.5500,0.4250,0.2750*
%
%ADD20ROUNDEDRECTD20*%
%ADD21P,2.6941X4X72.5*%
%ADD22R,1.5999X1.8001*%
%ADD23R,1.0000X1.1001*%
%ADD24R,0.3500X0.8000*%
%ADD25R,0.8000X0.3500*%
%ADD26R,2.8000X2.8000*%
%ADD27R,0.3050X0.8130*%
%ADD28R,0.8130X0.3050*%
%ADD29R,2.5000X2.5000*%
D10*
X627250Y707000D02*
D03*
Y735001D02*
D03*
X303000Y728250D02*
D03*
Y756251D02*
D03*
X582750Y779000D02*
D03*
Y751000D02*
D03*
X274250Y753251D02*
D03*
Y725249D02*
D03*
X652750Y735751D02*
D03*
Y707749D02*
D03*
D11*
X578500Y195750D02*
D03*
D12*
X778250Y617440D02*
D03*
Y688560D02*
D03*
X923250Y684440D02*
D03*
Y755560D02*
D03*
D13*
X403750Y580420D02*
D03*
Y654080D02*
D03*
X840750Y468670D02*
D03*
Y542330D02*
D03*
X985520Y537210D02*
D03*
Y610870D02*
D03*
D14*
X529580Y525750D02*
D03*
X455920D02*
D03*
X346580Y526000D02*
D03*
X272920D02*
D03*
X438080Y434250D02*
D03*
X364420D02*
D03*
D15*
X490500Y191500D02*
D03*
X518000D02*
D03*
X324500Y210500D02*
D03*
X297000D02*
D03*
X381500Y214250D02*
D03*
X354000D02*
D03*
X464000Y209750D02*
D03*
X436500D02*
D03*
X385000Y99250D02*
D03*
X357500D02*
D03*
X385000Y129000D02*
D03*
X357500D02*
D03*
D16*
X430500Y309750D02*
D03*
Y337250D02*
D03*
X377500Y185000D02*
D03*
Y157500D02*
D03*
X408250Y184500D02*
D03*
Y157000D02*
D03*
X460750Y265000D02*
D03*
Y237500D02*
D03*
X269500Y155000D02*
D03*
Y182500D02*
D03*
D17*
X298750Y100250D02*
D03*
X313750D02*
D03*
D18*
X570000Y246250D02*
D03*
X589000D02*
D03*
D19*
X546500Y188250D02*
D03*
Y207250D02*
D03*
D20*
X460000Y327500D02*
D03*
Y310000D02*
D03*
D21*
X738442Y315743D02*
D03*
X726127Y339400D02*
D03*
X550070Y327085D02*
D03*
X573727Y339400D02*
D03*
D22*
X554501Y772500D02*
D03*
X526499D02*
D03*
X536001Y649750D02*
D03*
X507999D02*
D03*
D23*
X650250Y671249D02*
D03*
Y654251D02*
D03*
D24*
X422250Y277000D02*
D03*
X415750D02*
D03*
X409250D02*
D03*
X402750D02*
D03*
Y237000D02*
D03*
X409250D02*
D03*
X415750D02*
D03*
X422250D02*
D03*
D25*
X392500Y266750D02*
D03*
Y260250D02*
D03*
Y253750D02*
D03*
Y247250D02*
D03*
X432500D02*
D03*
Y253750D02*
D03*
Y260250D02*
D03*
Y266750D02*
D03*
D26*
X412500Y257000D02*
D03*
D27*
X302510Y138680D02*
D03*
X307340D02*
D03*
X312420D02*
D03*
X317500D02*
D03*
X322580D02*
D03*
X322330Y176280D02*
D03*
X317500D02*
D03*
X312420D02*
D03*
X307340D02*
D03*
X302510D02*
D03*
D28*
X331220Y147570D02*
D03*
Y152400D02*
D03*
Y157480D02*
D03*
Y162560D02*
D03*
Y167380D02*
D03*
X293620Y167390D02*
D03*
Y162560D02*
D03*
Y157480D02*
D03*
Y152400D02*
D03*
Y147570D02*
D03*
D29*
X312420Y157480D02*
D03*
M02*
