M48
;Layer_Color=9474304
;FILE_FORMAT=4:4
METRIC,LZ
;TYPE=PLATED
T1F00S00C0.3000
T2F00S00C0.6000
T3F00S00C0.7000
T4F00S00C0.7620
T5F00S00C0.8000
T6F00S00C0.9000
T7F00S00C1.0000
T8F00S00C2.5400
T9F00S00C4.5720
%
T01
X003048Y0014986
X0031242
Y0015748
Y001651
X003048
Y0015748
X0032004
Y001651
Y0014986
X0040234Y0024684
Y00257
X004125
X0042266
Y0026716
X004125
X0040234
X004125Y0024684
X0042266
T02
X0037575Y002465
X0034245Y0036875
X0032975
X00408Y0029125
X00437Y0028775
X0045775Y00289
X0049575Y0023825
X00498Y0016825
X00473Y0016775
X0045Y0018175
X00418Y002245
X004005Y0020925
X005435Y00166
X0057175Y0017175
X0059725Y0014775
X00603Y002685
X0060625Y0029225
X00569Y0026075
X00809Y007155
X0092325Y0072
X0077825Y00653
X0063125Y0075475
X004795Y006465
X004035Y0066575
X00656Y00509
X0032025Y0065475
T03
X0029325Y001265
X003165Y0012475
X0033575Y001285
X0035025Y00165
X00269Y001955
X0031375Y00309
X0034175Y003085
X00431Y00362
X0044625Y0036
X00533705Y00356045
X0062075Y00376
X006395Y0038575
X0071925Y00358
X004235Y0021325
X00414Y00119
X008275Y0055125
X0099475Y0062275
X0086525Y0076125
X0074475Y006875
X007295Y0064925
X0065475Y00627
X0065425Y0068625
X005625Y006865
X0055875Y00743
X00545Y007555
X0053225Y0075475
X00466Y007445
X0043Y0065975
X00443Y00549
X0055575Y0054625
X005805Y005465
X0064825Y0055725
X00662749Y00557749
X0067825Y005575
X00707Y00515
X007125Y0045975
X006675Y004805
X00655Y00438
X006365Y0043825
X00621Y00438
X0059225Y00459
X00603Y00398
X00632
X00646Y003985
X0035Y0044825
X00264Y0051525
T04
X00277Y0026775
X002725Y0032425
X00272Y0039325
X0046225Y0010175
X0030775Y00461
X0026875Y0059425
T05
X0035Y0069725
Y0074605
T06
X0027051Y001016
Y00127
X00269Y002135
Y002389
X004945Y0010125
X005199
X005453
X005707
T07
X0080375Y003743
Y003997
X008495Y0039955
Y0042495
X0069175Y006225
Y006479
Y006733
Y006987
Y007241
Y007495
T08
X0055372Y0039624
X00635Y0034798
X0103886Y0044958
X0105156Y0053848
X0103886Y0067818
X0076962Y0053848
X005588Y0061976
X0050546Y0042164
X0029464Y0062992
X002794Y006858
T09
X00384Y00316
X009271Y004191
M30
