G04 Layer_Color=65535*
%FSLAX44Y44*%
%MOMM*%
G71*
G01*
G75*
%ADD31C,0.2540*%
%ADD34C,0.5000*%
%ADD73C,0.2000*%
%ADD76C,0.2500*%
%ADD77C,0.1270*%
%ADD78C,0.2032*%
%ADD79C,0.1524*%
G36*
X879564Y543421D02*
X879623D01*
X879682Y543416D01*
X879751Y543405D01*
X879891Y543389D01*
X880046Y543362D01*
X880191Y543325D01*
X880330Y543271D01*
X880335D01*
X880346Y543266D01*
X880362Y543255D01*
X880389Y543245D01*
X880448Y543207D01*
X880528Y543159D01*
X880614Y543094D01*
X880700Y543014D01*
X880786Y542918D01*
X880866Y542810D01*
Y542805D01*
X880877Y542794D01*
X880882Y542778D01*
X880898Y542757D01*
X880914Y542730D01*
X880930Y542692D01*
X880968Y542612D01*
X881000Y542516D01*
X881032Y542403D01*
X881054Y542285D01*
X881064Y542156D01*
Y542151D01*
Y542141D01*
Y542124D01*
Y542103D01*
X881054Y542044D01*
X881043Y541964D01*
X881021Y541872D01*
X880989Y541771D01*
X880946Y541669D01*
X880888Y541562D01*
Y541556D01*
X880882Y541551D01*
X880871Y541535D01*
X880855Y541513D01*
X880818Y541465D01*
X880759Y541401D01*
X880689Y541331D01*
X880598Y541256D01*
X880496Y541181D01*
X880373Y541111D01*
X880378D01*
X880394Y541106D01*
X880416Y541095D01*
X880448Y541085D01*
X880486Y541069D01*
X880528Y541053D01*
X880625Y541004D01*
X880737Y540945D01*
X880850Y540865D01*
X880963Y540774D01*
X881059Y540661D01*
X881064Y540656D01*
X881070Y540645D01*
X881080Y540629D01*
X881096Y540608D01*
X881118Y540575D01*
X881139Y540538D01*
X881161Y540495D01*
X881182Y540447D01*
X881225Y540340D01*
X881268Y540211D01*
X881295Y540066D01*
X881305Y539991D01*
Y539911D01*
Y539906D01*
Y539895D01*
Y539879D01*
Y539852D01*
X881300Y539820D01*
Y539788D01*
X881289Y539702D01*
X881268Y539600D01*
X881241Y539493D01*
X881204Y539375D01*
X881155Y539263D01*
Y539257D01*
X881150Y539252D01*
X881139Y539236D01*
X881129Y539214D01*
X881096Y539161D01*
X881054Y539096D01*
X881005Y539021D01*
X880941Y538946D01*
X880871Y538871D01*
X880791Y538802D01*
X880780Y538796D01*
X880753Y538775D01*
X880705Y538748D01*
X880641Y538711D01*
X880566Y538673D01*
X880475Y538630D01*
X880368Y538592D01*
X880250Y538560D01*
X880244D01*
X880234Y538555D01*
X880218D01*
X880191Y538550D01*
X880159Y538544D01*
X880121Y538534D01*
X880078Y538528D01*
X880030Y538523D01*
X879976Y538512D01*
X879912Y538507D01*
X879778Y538491D01*
X879623Y538485D01*
X879451Y538480D01*
X877570D01*
Y543427D01*
X879516D01*
X879564Y543421D01*
D02*
G37*
G36*
X675020Y343942D02*
X675079D01*
X675148Y343937D01*
X675229Y343932D01*
X675389Y343916D01*
X675556Y343889D01*
X675716Y343857D01*
X675786Y343835D01*
X675856Y343814D01*
X675861D01*
X675872Y343809D01*
X675888Y343798D01*
X675915Y343787D01*
X675979Y343755D01*
X676054Y343707D01*
X676145Y343642D01*
X676236Y343557D01*
X676327Y343460D01*
X676408Y343342D01*
Y343337D01*
X676419Y343326D01*
X676429Y343310D01*
X676440Y343283D01*
X676456Y343251D01*
X676472Y343214D01*
X676494Y343171D01*
X676515Y343122D01*
X676553Y343010D01*
X676585Y342887D01*
X676606Y342747D01*
X676617Y342597D01*
Y342592D01*
Y342576D01*
Y342544D01*
X676611Y342511D01*
X676606Y342463D01*
X676601Y342410D01*
X676590Y342351D01*
X676574Y342286D01*
X676531Y342147D01*
X676504Y342072D01*
X676472Y341997D01*
X676435Y341922D01*
X676386Y341847D01*
X676333Y341777D01*
X676274Y341708D01*
X676268Y341702D01*
X676258Y341692D01*
X676236Y341675D01*
X676209Y341649D01*
X676172Y341622D01*
X676129Y341590D01*
X676076Y341552D01*
X676011Y341515D01*
X675941Y341477D01*
X675866Y341440D01*
X675781Y341402D01*
X675684Y341365D01*
X675582Y341332D01*
X675470Y341300D01*
X675347Y341273D01*
X675218Y341252D01*
X675223D01*
X675229Y341247D01*
X675261Y341231D01*
X675309Y341204D01*
X675368Y341172D01*
X675432Y341134D01*
X675497Y341097D01*
X675561Y341048D01*
X675615Y341006D01*
X675620Y341000D01*
X675625Y340995D01*
X675641Y340979D01*
X675663Y340957D01*
X675690Y340930D01*
X675722Y340898D01*
X675791Y340823D01*
X675872Y340727D01*
X675963Y340614D01*
X676059Y340486D01*
X676156Y340346D01*
X677013Y339001D01*
X676193D01*
X675540Y340030D01*
X675534Y340036D01*
X675529Y340051D01*
X675513Y340073D01*
X675491Y340105D01*
X675470Y340143D01*
X675438Y340186D01*
X675373Y340282D01*
X675298Y340395D01*
X675223Y340507D01*
X675143Y340614D01*
X675068Y340711D01*
Y340716D01*
X675057Y340722D01*
X675036Y340748D01*
X675004Y340791D01*
X674955Y340839D01*
X674907Y340893D01*
X674848Y340947D01*
X674789Y341000D01*
X674736Y341038D01*
X674730Y341043D01*
X674709Y341054D01*
X674682Y341070D01*
X674644Y341091D01*
X674596Y341113D01*
X674548Y341134D01*
X674494Y341156D01*
X674436Y341172D01*
X674430D01*
X674414Y341177D01*
X674387Y341182D01*
X674350Y341188D01*
X674296D01*
X674232Y341193D01*
X674157Y341199D01*
X673315D01*
Y339001D01*
X672662D01*
Y343948D01*
X674961D01*
X675020Y343942D01*
D02*
G37*
G36*
X672131Y339001D02*
X671386D01*
X670813Y340496D01*
X668733D01*
X668197Y339001D01*
X667506D01*
X669398Y343948D01*
X670105D01*
X672131Y339001D01*
D02*
G37*
G36*
X956675Y756593D02*
X958530Y753999D01*
X957731D01*
X956477Y755762D01*
X956472Y755768D01*
X956461Y755789D01*
X956440Y755816D01*
X956413Y755859D01*
X956381Y755902D01*
X956349Y755950D01*
X956273Y756062D01*
Y756057D01*
X956268Y756052D01*
X956247Y756020D01*
X956220Y755977D01*
X956182Y755923D01*
X956102Y755810D01*
X956070Y755757D01*
X956038Y755714D01*
X954784Y753999D01*
X953996D01*
X955909Y756561D01*
X954221Y758946D01*
X954998D01*
X955904Y757675D01*
X955909Y757670D01*
X955914Y757660D01*
X955930Y757638D01*
X955952Y757611D01*
X955973Y757579D01*
X956000Y757542D01*
X956059Y757456D01*
X956124Y757354D01*
X956188Y757258D01*
X956252Y757156D01*
X956300Y757070D01*
Y757075D01*
X956306Y757081D01*
X956316Y757097D01*
X956332Y757118D01*
X956365Y757166D01*
X956413Y757236D01*
X956472Y757322D01*
X956536Y757418D01*
X956617Y757520D01*
X956697Y757627D01*
X957683Y758946D01*
X958396D01*
X956675Y756593D01*
D02*
G37*
G36*
X681183Y343364D02*
X679554D01*
Y339001D01*
X678900D01*
Y343364D01*
X677271D01*
Y343948D01*
X681183D01*
Y343364D01*
D02*
G37*
G36*
X661064Y344028D02*
X661123Y344023D01*
X661182Y344017D01*
X661251Y344012D01*
X661402Y343991D01*
X661568Y343959D01*
X661734Y343910D01*
X661895Y343851D01*
X661900D01*
X661911Y343841D01*
X661937Y343835D01*
X661964Y343819D01*
X661996Y343798D01*
X662039Y343776D01*
X662130Y343723D01*
X662237Y343648D01*
X662345Y343557D01*
X662447Y343455D01*
X662538Y343331D01*
X662543Y343326D01*
X662548Y343315D01*
X662559Y343299D01*
X662575Y343273D01*
X662591Y343240D01*
X662613Y343203D01*
X662629Y343155D01*
X662656Y343106D01*
X662698Y342994D01*
X662736Y342860D01*
X662768Y342715D01*
X662784Y342554D01*
X662157Y342506D01*
Y342511D01*
X662152Y342528D01*
Y342549D01*
X662146Y342581D01*
X662136Y342624D01*
X662125Y342667D01*
X662093Y342769D01*
X662050Y342881D01*
X661986Y342999D01*
X661911Y343112D01*
X661862Y343160D01*
X661809Y343208D01*
X661803Y343214D01*
X661798Y343219D01*
X661777Y343230D01*
X661755Y343246D01*
X661723Y343262D01*
X661685Y343283D01*
X661643Y343305D01*
X661594Y343331D01*
X661535Y343353D01*
X661471Y343374D01*
X661402Y343396D01*
X661326Y343412D01*
X661241Y343428D01*
X661150Y343439D01*
X661053Y343449D01*
X660898D01*
X660855Y343444D01*
X660807D01*
X660753Y343439D01*
X660689Y343433D01*
X660624Y343423D01*
X660480Y343396D01*
X660340Y343358D01*
X660206Y343305D01*
X660142Y343267D01*
X660088Y343230D01*
X660083D01*
X660078Y343219D01*
X660045Y343192D01*
X660003Y343144D01*
X659954Y343080D01*
X659906Y343005D01*
X659863Y342914D01*
X659831Y342817D01*
X659826Y342763D01*
X659820Y342704D01*
Y342699D01*
Y342694D01*
X659826Y342662D01*
X659831Y342613D01*
X659842Y342554D01*
X659869Y342485D01*
X659901Y342410D01*
X659944Y342340D01*
X660008Y342270D01*
X660019Y342265D01*
X660030Y342254D01*
X660051Y342238D01*
X660078Y342222D01*
X660110Y342206D01*
X660153Y342185D01*
X660201Y342158D01*
X660260Y342131D01*
X660330Y342104D01*
X660410Y342077D01*
X660501Y342045D01*
X660608Y342013D01*
X660721Y341981D01*
X660850Y341943D01*
X660994Y341911D01*
X661005D01*
X661032Y341906D01*
X661069Y341895D01*
X661123Y341879D01*
X661187Y341868D01*
X661262Y341847D01*
X661342Y341831D01*
X661428Y341804D01*
X661610Y341756D01*
X661793Y341708D01*
X661879Y341681D01*
X661954Y341654D01*
X662029Y341627D01*
X662087Y341600D01*
X662093D01*
X662109Y341590D01*
X662130Y341579D01*
X662157Y341563D01*
X662195Y341547D01*
X662237Y341520D01*
X662329Y341461D01*
X662436Y341391D01*
X662538Y341306D01*
X662639Y341204D01*
X662682Y341150D01*
X662725Y341097D01*
Y341091D01*
X662736Y341081D01*
X662747Y341064D01*
X662757Y341043D01*
X662774Y341016D01*
X662790Y340979D01*
X662832Y340893D01*
X662870Y340791D01*
X662902Y340673D01*
X662924Y340539D01*
X662934Y340395D01*
Y340389D01*
Y340378D01*
Y340357D01*
X662929Y340330D01*
Y340293D01*
X662924Y340255D01*
X662907Y340153D01*
X662881Y340041D01*
X662838Y339918D01*
X662779Y339789D01*
X662747Y339719D01*
X662704Y339655D01*
Y339650D01*
X662693Y339639D01*
X662682Y339623D01*
X662661Y339596D01*
X662613Y339537D01*
X662538Y339457D01*
X662447Y339371D01*
X662334Y339280D01*
X662205Y339194D01*
X662055Y339114D01*
X662050D01*
X662034Y339103D01*
X662012Y339098D01*
X661980Y339081D01*
X661943Y339071D01*
X661895Y339055D01*
X661841Y339033D01*
X661777Y339017D01*
X661712Y339001D01*
X661637Y338980D01*
X661477Y338953D01*
X661300Y338931D01*
X661107Y338921D01*
X661042D01*
X660994Y338926D01*
X660935D01*
X660871Y338931D01*
X660796Y338937D01*
X660710Y338947D01*
X660533Y338969D01*
X660346Y339001D01*
X660158Y339049D01*
X659976Y339114D01*
X659970D01*
X659954Y339124D01*
X659933Y339135D01*
X659901Y339151D01*
X659863Y339173D01*
X659820Y339194D01*
X659719Y339258D01*
X659606Y339339D01*
X659488Y339441D01*
X659370Y339558D01*
X659268Y339698D01*
X659263Y339703D01*
X659258Y339714D01*
X659247Y339735D01*
X659231Y339767D01*
X659210Y339805D01*
X659188Y339848D01*
X659161Y339902D01*
X659140Y339960D01*
X659113Y340019D01*
X659092Y340089D01*
X659049Y340244D01*
X659016Y340411D01*
X659006Y340502D01*
X659000Y340593D01*
X659617Y340646D01*
Y340641D01*
Y340630D01*
X659622Y340609D01*
X659628Y340582D01*
X659633Y340550D01*
X659638Y340518D01*
X659660Y340427D01*
X659687Y340330D01*
X659719Y340228D01*
X659762Y340127D01*
X659815Y340030D01*
X659820Y340019D01*
X659847Y339993D01*
X659885Y339950D01*
X659938Y339896D01*
X660008Y339832D01*
X660094Y339773D01*
X660196Y339709D01*
X660313Y339650D01*
X660319D01*
X660330Y339644D01*
X660346Y339639D01*
X660372Y339628D01*
X660405Y339617D01*
X660442Y339601D01*
X660485Y339591D01*
X660533Y339580D01*
X660646Y339553D01*
X660780Y339526D01*
X660919Y339510D01*
X661075Y339505D01*
X661139D01*
X661171Y339510D01*
X661208D01*
X661294Y339521D01*
X661396Y339532D01*
X661509Y339548D01*
X661621Y339575D01*
X661728Y339612D01*
X661734D01*
X661739Y339617D01*
X661755Y339623D01*
X661777Y339633D01*
X661825Y339660D01*
X661889Y339692D01*
X661959Y339735D01*
X662034Y339789D01*
X662098Y339848D01*
X662157Y339918D01*
X662162Y339928D01*
X662179Y339950D01*
X662205Y339993D01*
X662232Y340046D01*
X662254Y340111D01*
X662280Y340180D01*
X662297Y340261D01*
X662302Y340341D01*
Y340346D01*
Y340352D01*
Y340378D01*
X662297Y340427D01*
X662286Y340480D01*
X662270Y340545D01*
X662243Y340614D01*
X662211Y340684D01*
X662162Y340748D01*
X662157Y340754D01*
X662136Y340775D01*
X662104Y340807D01*
X662055Y340850D01*
X661996Y340893D01*
X661916Y340941D01*
X661825Y340989D01*
X661718Y341038D01*
X661707Y341043D01*
X661696Y341048D01*
X661675Y341054D01*
X661653Y341059D01*
X661621Y341070D01*
X661578Y341086D01*
X661535Y341097D01*
X661477Y341113D01*
X661417Y341134D01*
X661342Y341150D01*
X661262Y341172D01*
X661171Y341199D01*
X661075Y341220D01*
X660962Y341252D01*
X660839Y341279D01*
X660833D01*
X660812Y341284D01*
X660774Y341295D01*
X660732Y341306D01*
X660673Y341322D01*
X660608Y341338D01*
X660544Y341359D01*
X660469Y341381D01*
X660308Y341429D01*
X660153Y341483D01*
X660078Y341509D01*
X660008Y341536D01*
X659944Y341563D01*
X659890Y341590D01*
X659885D01*
X659874Y341600D01*
X659858Y341611D01*
X659831Y341622D01*
X659767Y341659D01*
X659692Y341713D01*
X659601Y341783D01*
X659515Y341858D01*
X659429Y341949D01*
X659360Y342045D01*
Y342051D01*
X659354Y342056D01*
X659343Y342072D01*
X659333Y342094D01*
X659306Y342152D01*
X659274Y342228D01*
X659242Y342319D01*
X659215Y342426D01*
X659193Y342544D01*
X659188Y342667D01*
Y342672D01*
Y342683D01*
Y342704D01*
X659193Y342731D01*
Y342763D01*
X659199Y342801D01*
X659215Y342897D01*
X659242Y343005D01*
X659274Y343117D01*
X659327Y343240D01*
X659397Y343364D01*
Y343369D01*
X659408Y343380D01*
X659418Y343396D01*
X659435Y343417D01*
X659488Y343476D01*
X659558Y343551D01*
X659644Y343632D01*
X659751Y343712D01*
X659874Y343792D01*
X660019Y343862D01*
X660024D01*
X660035Y343867D01*
X660062Y343878D01*
X660088Y343889D01*
X660126Y343900D01*
X660174Y343916D01*
X660228Y343932D01*
X660287Y343948D01*
X660351Y343964D01*
X660421Y343980D01*
X660571Y344007D01*
X660742Y344028D01*
X660925Y344034D01*
X661016D01*
X661064Y344028D01*
D02*
G37*
G36*
X796561Y696089D02*
Y693999D01*
X795907D01*
Y696089D01*
X793999Y698946D01*
X794792D01*
X795768Y697451D01*
X795773Y697445D01*
X795778Y697434D01*
X795794Y697408D01*
X795816Y697381D01*
X795837Y697343D01*
X795864Y697295D01*
X795896Y697247D01*
X795934Y697188D01*
X796009Y697065D01*
X796094Y696925D01*
X796186Y696775D01*
X796271Y696620D01*
X796277Y696625D01*
X796282Y696636D01*
X796293Y696657D01*
X796314Y696690D01*
X796336Y696722D01*
X796357Y696765D01*
X796389Y696818D01*
X796421Y696872D01*
X796459Y696931D01*
X796502Y697000D01*
X796593Y697145D01*
X796700Y697311D01*
X796813Y697488D01*
X797772Y698946D01*
X798533D01*
X796561Y696089D01*
D02*
G37*
G36*
X1008626Y613999D02*
X1007881D01*
X1007308Y615495D01*
X1005228D01*
X1004692Y613999D01*
X1004001D01*
X1005893Y618946D01*
X1006600D01*
X1008626Y613999D01*
D02*
G37*
G36*
X530416Y343364D02*
X528787D01*
Y339001D01*
X528133D01*
Y343364D01*
X526504D01*
Y343948D01*
X530416D01*
Y343364D01*
D02*
G37*
G36*
X524151Y344028D02*
X524215Y344023D01*
X524290Y344012D01*
X524371Y344001D01*
X524462Y343985D01*
X524558Y343964D01*
X524660Y343942D01*
X524762Y343910D01*
X524869Y343873D01*
X524976Y343830D01*
X525078Y343776D01*
X525180Y343723D01*
X525276Y343653D01*
X525282Y343648D01*
X525298Y343637D01*
X525325Y343615D01*
X525357Y343583D01*
X525400Y343546D01*
X525448Y343498D01*
X525496Y343444D01*
X525555Y343380D01*
X525614Y343310D01*
X525673Y343230D01*
X525732Y343144D01*
X525785Y343047D01*
X525844Y342946D01*
X525893Y342833D01*
X525941Y342715D01*
X525984Y342592D01*
X525341Y342442D01*
Y342447D01*
X525330Y342463D01*
X525325Y342495D01*
X525308Y342533D01*
X525292Y342576D01*
X525266Y342624D01*
X525212Y342742D01*
X525142Y342871D01*
X525051Y343005D01*
X524955Y343128D01*
X524896Y343181D01*
X524837Y343230D01*
X524832Y343235D01*
X524821Y343240D01*
X524805Y343251D01*
X524778Y343267D01*
X524746Y343289D01*
X524708Y343310D01*
X524665Y343331D01*
X524612Y343353D01*
X524553Y343374D01*
X524494Y343396D01*
X524355Y343439D01*
X524194Y343465D01*
X524108Y343476D01*
X523963D01*
X523920Y343471D01*
X523872Y343465D01*
X523813Y343460D01*
X523749Y343455D01*
X523685Y343444D01*
X523529Y343406D01*
X523368Y343358D01*
X523288Y343326D01*
X523208Y343289D01*
X523133Y343246D01*
X523058Y343198D01*
X523052Y343192D01*
X523041Y343187D01*
X523020Y343171D01*
X522993Y343149D01*
X522966Y343122D01*
X522929Y343085D01*
X522891Y343047D01*
X522849Y343005D01*
X522806Y342951D01*
X522757Y342897D01*
X522672Y342774D01*
X522591Y342629D01*
X522522Y342463D01*
Y342458D01*
X522516Y342442D01*
X522505Y342415D01*
X522500Y342383D01*
X522489Y342340D01*
X522473Y342292D01*
X522463Y342233D01*
X522447Y342174D01*
X522430Y342104D01*
X522420Y342029D01*
X522393Y341868D01*
X522377Y341697D01*
X522371Y341515D01*
Y341509D01*
Y341488D01*
Y341456D01*
X522377Y341408D01*
Y341354D01*
X522382Y341290D01*
X522388Y341220D01*
X522393Y341139D01*
X522404Y341054D01*
X522414Y340968D01*
X522447Y340780D01*
X522495Y340593D01*
X522554Y340411D01*
Y340405D01*
X522565Y340389D01*
X522575Y340368D01*
X522586Y340336D01*
X522607Y340293D01*
X522634Y340250D01*
X522693Y340148D01*
X522774Y340030D01*
X522870Y339918D01*
X522988Y339805D01*
X523052Y339757D01*
X523122Y339709D01*
X523127D01*
X523138Y339698D01*
X523159Y339687D01*
X523191Y339671D01*
X523229Y339655D01*
X523272Y339633D01*
X523320Y339617D01*
X523374Y339596D01*
X523497Y339553D01*
X523642Y339516D01*
X523797Y339489D01*
X523877Y339483D01*
X523963Y339478D01*
X524017D01*
X524054Y339483D01*
X524103Y339489D01*
X524156Y339494D01*
X524221Y339505D01*
X524285Y339516D01*
X524435Y339553D01*
X524510Y339580D01*
X524590Y339612D01*
X524671Y339650D01*
X524746Y339692D01*
X524821Y339741D01*
X524896Y339794D01*
X524901Y339800D01*
X524912Y339810D01*
X524933Y339826D01*
X524960Y339853D01*
X524987Y339885D01*
X525024Y339928D01*
X525062Y339977D01*
X525105Y340030D01*
X525148Y340094D01*
X525191Y340164D01*
X525233Y340239D01*
X525276Y340325D01*
X525314Y340416D01*
X525351Y340518D01*
X525389Y340625D01*
X525416Y340737D01*
X526069Y340571D01*
Y340561D01*
X526059Y340534D01*
X526048Y340496D01*
X526027Y340437D01*
X526005Y340373D01*
X525973Y340293D01*
X525941Y340207D01*
X525898Y340116D01*
X525850Y340014D01*
X525796Y339918D01*
X525737Y339810D01*
X525668Y339709D01*
X525592Y339612D01*
X525512Y339516D01*
X525421Y339425D01*
X525325Y339339D01*
X525319Y339333D01*
X525298Y339323D01*
X525271Y339301D01*
X525228Y339274D01*
X525180Y339242D01*
X525116Y339205D01*
X525046Y339167D01*
X524960Y339130D01*
X524869Y339092D01*
X524772Y339055D01*
X524665Y339017D01*
X524547Y338985D01*
X524424Y338958D01*
X524296Y338937D01*
X524162Y338926D01*
X524017Y338921D01*
X523942D01*
X523883Y338926D01*
X523819Y338931D01*
X523738Y338937D01*
X523652Y338947D01*
X523556Y338964D01*
X523454Y338980D01*
X523347Y339001D01*
X523240Y339028D01*
X523133Y339055D01*
X523020Y339092D01*
X522913Y339135D01*
X522811Y339183D01*
X522715Y339242D01*
X522709Y339248D01*
X522693Y339258D01*
X522666Y339274D01*
X522634Y339301D01*
X522591Y339339D01*
X522543Y339376D01*
X522489Y339425D01*
X522430Y339483D01*
X522371Y339548D01*
X522307Y339617D01*
X522248Y339692D01*
X522184Y339778D01*
X522120Y339869D01*
X522061Y339966D01*
X522007Y340073D01*
X521954Y340186D01*
X521948Y340191D01*
X521943Y340212D01*
X521932Y340250D01*
X521916Y340293D01*
X521894Y340352D01*
X521873Y340416D01*
X521852Y340496D01*
X521825Y340582D01*
X521803Y340679D01*
X521777Y340780D01*
X521755Y340888D01*
X521739Y341006D01*
X521707Y341252D01*
X521702Y341381D01*
X521696Y341509D01*
Y341520D01*
Y341541D01*
Y341584D01*
X521702Y341638D01*
X521707Y341708D01*
X521712Y341788D01*
X521723Y341874D01*
X521734Y341970D01*
X521750Y342072D01*
X521766Y342179D01*
X521819Y342410D01*
X521857Y342522D01*
X521894Y342635D01*
X521937Y342753D01*
X521991Y342860D01*
X521996Y342865D01*
X522007Y342887D01*
X522023Y342914D01*
X522045Y342956D01*
X522077Y343005D01*
X522114Y343058D01*
X522157Y343117D01*
X522205Y343187D01*
X522264Y343251D01*
X522323Y343326D01*
X522393Y343396D01*
X522468Y343471D01*
X522548Y343540D01*
X522634Y343610D01*
X522731Y343675D01*
X522827Y343733D01*
X522832Y343739D01*
X522854Y343744D01*
X522881Y343760D01*
X522924Y343782D01*
X522972Y343803D01*
X523036Y343830D01*
X523106Y343857D01*
X523181Y343884D01*
X523266Y343910D01*
X523363Y343937D01*
X523460Y343964D01*
X523567Y343985D01*
X523786Y344023D01*
X523904Y344028D01*
X524028Y344034D01*
X524097D01*
X524151Y344028D01*
D02*
G37*
G36*
X506063D02*
X506122Y344023D01*
X506181Y344017D01*
X506250Y344012D01*
X506400Y343991D01*
X506567Y343959D01*
X506733Y343910D01*
X506894Y343851D01*
X506899D01*
X506910Y343841D01*
X506936Y343835D01*
X506963Y343819D01*
X506995Y343798D01*
X507038Y343776D01*
X507129Y343723D01*
X507237Y343648D01*
X507344Y343557D01*
X507446Y343455D01*
X507537Y343331D01*
X507542Y343326D01*
X507547Y343315D01*
X507558Y343299D01*
X507574Y343273D01*
X507590Y343240D01*
X507612Y343203D01*
X507628Y343155D01*
X507655Y343106D01*
X507697Y342994D01*
X507735Y342860D01*
X507767Y342715D01*
X507783Y342554D01*
X507156Y342506D01*
Y342511D01*
X507151Y342528D01*
Y342549D01*
X507146Y342581D01*
X507135Y342624D01*
X507124Y342667D01*
X507092Y342769D01*
X507049Y342881D01*
X506985Y342999D01*
X506910Y343112D01*
X506861Y343160D01*
X506808Y343208D01*
X506802Y343214D01*
X506797Y343219D01*
X506776Y343230D01*
X506754Y343246D01*
X506722Y343262D01*
X506685Y343283D01*
X506642Y343305D01*
X506593Y343331D01*
X506535Y343353D01*
X506470Y343374D01*
X506400Y343396D01*
X506325Y343412D01*
X506240Y343428D01*
X506149Y343439D01*
X506052Y343449D01*
X505897D01*
X505854Y343444D01*
X505806D01*
X505752Y343439D01*
X505688Y343433D01*
X505623Y343423D01*
X505479Y343396D01*
X505339Y343358D01*
X505205Y343305D01*
X505141Y343267D01*
X505088Y343230D01*
X505082D01*
X505077Y343219D01*
X505045Y343192D01*
X505002Y343144D01*
X504953Y343080D01*
X504905Y343005D01*
X504862Y342914D01*
X504830Y342817D01*
X504825Y342763D01*
X504819Y342704D01*
Y342699D01*
Y342694D01*
X504825Y342662D01*
X504830Y342613D01*
X504841Y342554D01*
X504868Y342485D01*
X504900Y342410D01*
X504943Y342340D01*
X505007Y342270D01*
X505018Y342265D01*
X505028Y342254D01*
X505050Y342238D01*
X505077Y342222D01*
X505109Y342206D01*
X505152Y342185D01*
X505200Y342158D01*
X505259Y342131D01*
X505329Y342104D01*
X505409Y342077D01*
X505500Y342045D01*
X505607Y342013D01*
X505720Y341981D01*
X505849Y341943D01*
X505993Y341911D01*
X506004D01*
X506031Y341906D01*
X506068Y341895D01*
X506122Y341879D01*
X506186Y341868D01*
X506261Y341847D01*
X506342Y341831D01*
X506427Y341804D01*
X506609Y341756D01*
X506792Y341708D01*
X506878Y341681D01*
X506953Y341654D01*
X507028Y341627D01*
X507086Y341600D01*
X507092D01*
X507108Y341590D01*
X507129Y341579D01*
X507156Y341563D01*
X507194Y341547D01*
X507237Y341520D01*
X507328Y341461D01*
X507435Y341391D01*
X507537Y341306D01*
X507639Y341204D01*
X507681Y341150D01*
X507724Y341097D01*
Y341091D01*
X507735Y341081D01*
X507746Y341064D01*
X507756Y341043D01*
X507772Y341016D01*
X507789Y340979D01*
X507831Y340893D01*
X507869Y340791D01*
X507901Y340673D01*
X507923Y340539D01*
X507933Y340395D01*
Y340389D01*
Y340378D01*
Y340357D01*
X507928Y340330D01*
Y340293D01*
X507923Y340255D01*
X507906Y340153D01*
X507880Y340041D01*
X507837Y339918D01*
X507778Y339789D01*
X507746Y339719D01*
X507703Y339655D01*
Y339650D01*
X507692Y339639D01*
X507681Y339623D01*
X507660Y339596D01*
X507612Y339537D01*
X507537Y339457D01*
X507446Y339371D01*
X507333Y339280D01*
X507204Y339194D01*
X507054Y339114D01*
X507049D01*
X507033Y339103D01*
X507011Y339098D01*
X506979Y339081D01*
X506942Y339071D01*
X506894Y339055D01*
X506840Y339033D01*
X506776Y339017D01*
X506711Y339001D01*
X506636Y338980D01*
X506475Y338953D01*
X506299Y338931D01*
X506106Y338921D01*
X506041D01*
X505993Y338926D01*
X505934D01*
X505870Y338931D01*
X505795Y338937D01*
X505709Y338947D01*
X505532Y338969D01*
X505345Y339001D01*
X505157Y339049D01*
X504975Y339114D01*
X504970D01*
X504953Y339124D01*
X504932Y339135D01*
X504900Y339151D01*
X504862Y339173D01*
X504819Y339194D01*
X504718Y339258D01*
X504605Y339339D01*
X504487Y339441D01*
X504369Y339558D01*
X504268Y339698D01*
X504262Y339703D01*
X504257Y339714D01*
X504246Y339735D01*
X504230Y339767D01*
X504208Y339805D01*
X504187Y339848D01*
X504160Y339902D01*
X504139Y339960D01*
X504112Y340019D01*
X504091Y340089D01*
X504048Y340244D01*
X504016Y340411D01*
X504005Y340502D01*
X503999Y340593D01*
X504616Y340646D01*
Y340641D01*
Y340630D01*
X504621Y340609D01*
X504627Y340582D01*
X504632Y340550D01*
X504637Y340518D01*
X504659Y340427D01*
X504686Y340330D01*
X504718Y340228D01*
X504761Y340127D01*
X504814Y340030D01*
X504819Y340019D01*
X504846Y339993D01*
X504884Y339950D01*
X504937Y339896D01*
X505007Y339832D01*
X505093Y339773D01*
X505195Y339709D01*
X505313Y339650D01*
X505318D01*
X505329Y339644D01*
X505345Y339639D01*
X505372Y339628D01*
X505404Y339617D01*
X505441Y339601D01*
X505484Y339591D01*
X505532Y339580D01*
X505645Y339553D01*
X505779Y339526D01*
X505918Y339510D01*
X506074Y339505D01*
X506138D01*
X506170Y339510D01*
X506208D01*
X506293Y339521D01*
X506395Y339532D01*
X506508Y339548D01*
X506620Y339575D01*
X506727Y339612D01*
X506733D01*
X506738Y339617D01*
X506754Y339623D01*
X506776Y339633D01*
X506824Y339660D01*
X506888Y339692D01*
X506958Y339735D01*
X507033Y339789D01*
X507097Y339848D01*
X507156Y339918D01*
X507161Y339928D01*
X507178Y339950D01*
X507204Y339993D01*
X507231Y340046D01*
X507253Y340111D01*
X507280Y340180D01*
X507295Y340261D01*
X507301Y340341D01*
Y340346D01*
Y340352D01*
Y340378D01*
X507295Y340427D01*
X507285Y340480D01*
X507269Y340545D01*
X507242Y340614D01*
X507210Y340684D01*
X507161Y340748D01*
X507156Y340754D01*
X507135Y340775D01*
X507103Y340807D01*
X507054Y340850D01*
X506995Y340893D01*
X506915Y340941D01*
X506824Y340989D01*
X506717Y341038D01*
X506706Y341043D01*
X506695Y341048D01*
X506674Y341054D01*
X506652Y341059D01*
X506620Y341070D01*
X506577Y341086D01*
X506535Y341097D01*
X506475Y341113D01*
X506417Y341134D01*
X506342Y341150D01*
X506261Y341172D01*
X506170Y341199D01*
X506074Y341220D01*
X505961Y341252D01*
X505838Y341279D01*
X505832D01*
X505811Y341284D01*
X505774Y341295D01*
X505731Y341306D01*
X505672Y341322D01*
X505607Y341338D01*
X505543Y341359D01*
X505468Y341381D01*
X505307Y341429D01*
X505152Y341483D01*
X505077Y341509D01*
X505007Y341536D01*
X504943Y341563D01*
X504889Y341590D01*
X504884D01*
X504873Y341600D01*
X504857Y341611D01*
X504830Y341622D01*
X504766Y341659D01*
X504691Y341713D01*
X504600Y341783D01*
X504514Y341858D01*
X504428Y341949D01*
X504359Y342045D01*
Y342051D01*
X504353Y342056D01*
X504342Y342072D01*
X504332Y342094D01*
X504305Y342152D01*
X504273Y342228D01*
X504241Y342319D01*
X504214Y342426D01*
X504192Y342544D01*
X504187Y342667D01*
Y342672D01*
Y342683D01*
Y342704D01*
X504192Y342731D01*
Y342763D01*
X504198Y342801D01*
X504214Y342897D01*
X504241Y343005D01*
X504273Y343117D01*
X504326Y343240D01*
X504396Y343364D01*
Y343369D01*
X504407Y343380D01*
X504417Y343396D01*
X504434Y343417D01*
X504487Y343476D01*
X504557Y343551D01*
X504643Y343632D01*
X504750Y343712D01*
X504873Y343792D01*
X505018Y343862D01*
X505023D01*
X505034Y343867D01*
X505061Y343878D01*
X505088Y343889D01*
X505125Y343900D01*
X505173Y343916D01*
X505227Y343932D01*
X505286Y343948D01*
X505350Y343964D01*
X505420Y343980D01*
X505570Y344007D01*
X505741Y344028D01*
X505924Y344034D01*
X506015D01*
X506063Y344028D01*
D02*
G37*
G36*
X520871Y343364D02*
X517945D01*
Y341852D01*
X520683D01*
Y341268D01*
X517945D01*
Y339585D01*
X520983D01*
Y339001D01*
X517291D01*
Y343948D01*
X520871D01*
Y343364D01*
D02*
G37*
G36*
X667366D02*
X665737D01*
Y339001D01*
X665083D01*
Y343364D01*
X663454D01*
Y343948D01*
X667366D01*
Y343364D01*
D02*
G37*
G36*
X512419D02*
X509493D01*
Y341852D01*
X512231D01*
Y341268D01*
X509493D01*
Y339585D01*
X512532D01*
Y339001D01*
X508839D01*
Y343948D01*
X512419D01*
Y343364D01*
D02*
G37*
G36*
X514059Y339585D02*
X516498D01*
Y339001D01*
X513405D01*
Y343948D01*
X514059D01*
Y339585D01*
D02*
G37*
%LPC*%
G36*
X879306Y542843D02*
X878224D01*
Y541347D01*
X879398D01*
X879440Y541353D01*
X879531D01*
X879633Y541358D01*
X879741Y541369D01*
X879837Y541385D01*
X879880Y541390D01*
X879917Y541401D01*
X879923D01*
X879928Y541406D01*
X879960Y541417D01*
X880003Y541433D01*
X880057Y541460D01*
X880116Y541492D01*
X880180Y541535D01*
X880239Y541589D01*
X880293Y541647D01*
X880298Y541658D01*
X880314Y541680D01*
X880335Y541717D01*
X880357Y541765D01*
X880378Y541830D01*
X880400Y541905D01*
X880416Y541985D01*
X880421Y542081D01*
Y542087D01*
Y542092D01*
Y542124D01*
X880416Y542167D01*
X880405Y542226D01*
X880389Y542296D01*
X880368Y542371D01*
X880341Y542446D01*
X880298Y542516D01*
X880293Y542526D01*
X880276Y542548D01*
X880250Y542580D01*
X880212Y542617D01*
X880164Y542660D01*
X880105Y542703D01*
X880041Y542741D01*
X879960Y542773D01*
X879950Y542778D01*
X879939D01*
X879917Y542784D01*
X879896Y542789D01*
X879864Y542794D01*
X879826Y542800D01*
X879789Y542810D01*
X879741Y542816D01*
X879682Y542821D01*
X879623Y542826D01*
X879553Y542832D01*
X879478Y542837D01*
X879398D01*
X879306Y542843D01*
D02*
G37*
G36*
X879365Y540763D02*
X878224D01*
Y539064D01*
X879564D01*
X879633Y539070D01*
X879703D01*
X879778Y539075D01*
X879848Y539080D01*
X879901Y539086D01*
X879912D01*
X879939Y539091D01*
X879982Y539102D01*
X880035Y539118D01*
X880094Y539134D01*
X880153Y539161D01*
X880218Y539187D01*
X880276Y539220D01*
X880282Y539225D01*
X880303Y539236D01*
X880330Y539257D01*
X880368Y539289D01*
X880405Y539327D01*
X880448Y539375D01*
X880491Y539429D01*
X880528Y539493D01*
X880534Y539504D01*
X880545Y539525D01*
X880561Y539563D01*
X880582Y539616D01*
X880598Y539675D01*
X880614Y539745D01*
X880625Y539825D01*
X880630Y539911D01*
Y539916D01*
Y539922D01*
Y539938D01*
Y539959D01*
X880625Y540007D01*
X880614Y540077D01*
X880593Y540152D01*
X880571Y540233D01*
X880534Y540313D01*
X880486Y540393D01*
X880480Y540404D01*
X880459Y540425D01*
X880427Y540463D01*
X880384Y540506D01*
X880325Y540554D01*
X880255Y540597D01*
X880180Y540640D01*
X880089Y540677D01*
X880084D01*
X880078Y540683D01*
X880062Y540688D01*
X880041Y540693D01*
X880014Y540699D01*
X879987Y540704D01*
X879950Y540715D01*
X879907Y540720D01*
X879853Y540731D01*
X879799Y540736D01*
X879741Y540742D01*
X879676Y540752D01*
X879531Y540758D01*
X879365Y540763D01*
D02*
G37*
G36*
X674982Y343401D02*
X673315D01*
Y341767D01*
X674795D01*
X674832Y341772D01*
X674875D01*
X674977Y341777D01*
X675089Y341788D01*
X675207Y341804D01*
X675320Y341825D01*
X675422Y341858D01*
X675427D01*
X675432Y341863D01*
X675464Y341874D01*
X675507Y341895D01*
X675566Y341927D01*
X675625Y341970D01*
X675690Y342018D01*
X675754Y342083D01*
X675807Y342152D01*
X675813Y342163D01*
X675829Y342190D01*
X675850Y342228D01*
X675877Y342286D01*
X675899Y342351D01*
X675920Y342426D01*
X675936Y342511D01*
X675941Y342597D01*
Y342603D01*
Y342613D01*
Y342629D01*
X675936Y342656D01*
Y342683D01*
X675931Y342720D01*
X675909Y342801D01*
X675877Y342892D01*
X675834Y342989D01*
X675770Y343080D01*
X675727Y343128D01*
X675684Y343171D01*
X675679Y343176D01*
X675674Y343181D01*
X675658Y343192D01*
X675636Y343208D01*
X675609Y343224D01*
X675572Y343246D01*
X675534Y343267D01*
X675486Y343289D01*
X675432Y343310D01*
X675373Y343326D01*
X675309Y343348D01*
X675239Y343364D01*
X675159Y343380D01*
X675073Y343390D01*
X674982Y343401D01*
D02*
G37*
G36*
X669735Y343433D02*
Y343428D01*
X669730Y343412D01*
X669725Y343385D01*
X669719Y343353D01*
X669708Y343305D01*
X669698Y343256D01*
X669682Y343198D01*
X669666Y343133D01*
X669650Y343064D01*
X669628Y342989D01*
X669580Y342828D01*
X669526Y342656D01*
X669467Y342479D01*
X668921Y341027D01*
X670609D01*
X670089Y342399D01*
Y342404D01*
X670078Y342426D01*
X670068Y342458D01*
X670051Y342506D01*
X670030Y342554D01*
X670009Y342619D01*
X669982Y342688D01*
X669955Y342763D01*
X669902Y342929D01*
X669843Y343101D01*
X669784Y343273D01*
X669735Y343433D01*
D02*
G37*
G36*
X1006231Y618432D02*
Y618426D01*
X1006225Y618410D01*
X1006220Y618383D01*
X1006215Y618351D01*
X1006204Y618303D01*
X1006193Y618255D01*
X1006177Y618196D01*
X1006161Y618131D01*
X1006145Y618062D01*
X1006123Y617987D01*
X1006075Y617826D01*
X1006021Y617654D01*
X1005963Y617477D01*
X1005416Y616025D01*
X1007104D01*
X1006584Y617397D01*
Y617402D01*
X1006574Y617424D01*
X1006563Y617456D01*
X1006547Y617504D01*
X1006525Y617553D01*
X1006504Y617617D01*
X1006477Y617687D01*
X1006450Y617762D01*
X1006397Y617928D01*
X1006338Y618099D01*
X1006279Y618271D01*
X1006231Y618432D01*
D02*
G37*
%LPD*%
D31*
X778510Y690880D02*
G03*
X740410Y652780I0J-38100D01*
G01*
X923290Y758190D02*
G03*
X885190Y720090I0J-38100D01*
G01*
X840740Y543560D02*
G03*
X802640Y505460I0J-38100D01*
G01*
X985520Y612140D02*
G03*
X947420Y572770I635J-38735D01*
G01*
X403860Y655320D02*
G03*
X365760Y617220I0J-38100D01*
G01*
X309880Y563880D02*
G03*
X271780Y525780I0J-38100D01*
G01*
X401320Y472440D02*
G03*
X363220Y434340I0J-38100D01*
G01*
X492760Y563880D02*
G03*
X454660Y527050I-635J-37465D01*
G01*
X526250Y203750D02*
X528250Y201750D01*
X522250Y203750D02*
X526250D01*
X525750Y179500D02*
X528250Y182000D01*
X519000Y179500D02*
X525750D01*
X528250Y182000D02*
Y201750D01*
X483250Y203750D02*
X522250D01*
X480250Y181750D02*
Y200750D01*
X483250Y203750D01*
X482500Y179500D02*
X520250D01*
X480250Y181750D02*
X482500Y179500D01*
X418250Y345500D02*
X420250Y347500D01*
X418250Y341500D02*
Y345500D01*
X440000Y347500D02*
X442500Y345000D01*
Y338250D02*
Y345000D01*
X420250Y347500D02*
X440000D01*
X418250Y302500D02*
Y341500D01*
X421250Y299500D02*
X440250D01*
X418250Y302500D02*
X421250Y299500D01*
X442500Y301750D02*
Y339500D01*
X440250Y299500D02*
X442500Y301750D01*
X293500Y108250D02*
X318000D01*
X320750Y105500D01*
Y94500D02*
Y105500D01*
X317750Y91500D02*
X320750Y94500D01*
X294500Y91500D02*
X317750D01*
X291000Y95000D02*
X294500Y91500D01*
X291000Y95000D02*
Y105750D01*
X293500Y108250D01*
X387250Y147250D02*
X389500Y149500D01*
Y187250D01*
X365250Y150250D02*
X368250Y147250D01*
X387250D01*
X365250Y150250D02*
Y189250D01*
X367250Y195250D02*
X387000D01*
X389500Y186000D02*
Y192750D01*
X387000Y195250D02*
X389500Y192750D01*
X365250Y189250D02*
Y193250D01*
X367250Y195250D01*
X418000Y146750D02*
X420250Y149000D01*
Y186750D01*
X396000Y149750D02*
X399000Y146750D01*
X418000D01*
X396000Y149750D02*
Y188750D01*
X398000Y194750D02*
X417750D01*
X420250Y185500D02*
Y192250D01*
X417750Y194750D02*
X420250Y192250D01*
X396000Y188750D02*
Y192750D01*
X398000Y194750D01*
X286750Y200750D02*
X289000Y198500D01*
X326750D01*
X286750Y219750D02*
X289750Y222750D01*
X286750Y200750D02*
Y219750D01*
X289750Y222750D02*
X328750D01*
X334750Y201000D02*
Y220750D01*
X325500Y198500D02*
X332250D01*
X334750Y201000D01*
X328750Y222750D02*
X332750D01*
X334750Y220750D01*
X343750Y204500D02*
X346000Y202250D01*
X383750D01*
X343750Y223500D02*
X346750Y226500D01*
X343750Y204500D02*
Y223500D01*
X346750Y226500D02*
X385750D01*
X391750Y204750D02*
Y224500D01*
X382500Y202250D02*
X389250D01*
X391750Y204750D01*
X385750Y226500D02*
X389750D01*
X391750Y224500D01*
X470500Y227250D02*
X472750Y229500D01*
Y267250D01*
X448500Y230250D02*
X451500Y227250D01*
X470500D01*
X448500Y230250D02*
Y269250D01*
X450500Y275250D02*
X470250D01*
X472750Y266000D02*
Y272750D01*
X470250Y275250D02*
X472750Y272750D01*
X448500Y269250D02*
Y273250D01*
X450500Y275250D01*
X426250Y200000D02*
X428500Y197750D01*
X466250D01*
X426250Y219000D02*
X429250Y222000D01*
X426250Y200000D02*
Y219000D01*
X429250Y222000D02*
X468250D01*
X474250Y200250D02*
Y220000D01*
X465000Y197750D02*
X471750D01*
X474250Y200250D01*
X468250Y222000D02*
X472250D01*
X474250Y220000D01*
X347250Y89500D02*
X349500Y87250D01*
X387250D01*
X347250Y108500D02*
X350250Y111500D01*
X347250Y89500D02*
Y108500D01*
X350250Y111500D02*
X389250D01*
X395250Y89750D02*
Y109500D01*
X386000Y87250D02*
X392750D01*
X395250Y89750D01*
X389250Y111500D02*
X393250D01*
X395250Y109500D01*
X347250Y119250D02*
X349500Y117000D01*
X387250D01*
X347250Y138250D02*
X350250Y141250D01*
X347250Y119250D02*
Y138250D01*
X350250Y141250D02*
X389250D01*
X395250Y119500D02*
Y139250D01*
X386000Y117000D02*
X392750D01*
X395250Y119500D01*
X389250Y141250D02*
X393250D01*
X395250Y139250D01*
X469750Y299750D02*
X472000Y302000D01*
Y333250D01*
X450750Y299750D02*
X469750D01*
X447750Y302750D02*
Y332750D01*
Y302750D02*
X450750Y299750D01*
X467500Y337750D02*
X472000Y333250D01*
X452750Y337750D02*
X467500D01*
X447750Y332750D02*
X452750Y337750D01*
X447750Y332750D02*
X447750Y332750D01*
X260250Y144750D02*
X279250D01*
X281500Y147000D02*
Y184750D01*
X279250Y144750D02*
X281500Y147000D01*
X257250Y147750D02*
X260250Y144750D01*
X257250Y147750D02*
Y186750D01*
X281500Y183500D02*
Y190250D01*
X279000Y192750D02*
X281500Y190250D01*
X259250Y192750D02*
X279000D01*
X257250Y190750D02*
X259250Y192750D01*
X257250Y186750D02*
Y190750D01*
X297180Y132080D02*
X299720D01*
Y129540D02*
Y132080D01*
X297180Y129540D02*
X299720D01*
X297180D02*
Y132080D01*
X321250Y191747D02*
Y183416D01*
X322916Y181750D01*
X326248D01*
X327915Y183416D01*
Y191747D01*
X337911Y181750D02*
X331247D01*
X337911Y188414D01*
Y190081D01*
X336245Y191747D01*
X332913D01*
X331247Y190081D01*
X370753Y258500D02*
Y265165D01*
Y261832D01*
X380750D01*
X372419Y275161D02*
X370753Y273495D01*
Y270163D01*
X372419Y268497D01*
X374086D01*
X375752Y270163D01*
Y273495D01*
X377418Y275161D01*
X379084D01*
X380750Y273495D01*
Y270163D01*
X379084Y268497D01*
X380750Y278494D02*
X370753D01*
Y283492D01*
X372419Y285158D01*
X375752D01*
X377418Y283492D01*
Y278494D01*
X327003Y91250D02*
Y97914D01*
Y94582D01*
X337000D01*
X327003Y101247D02*
X337000D01*
X332002D01*
Y107911D01*
X327003D01*
X337000D01*
X327003Y117908D02*
Y111244D01*
X337000D01*
Y117908D01*
X332002Y111244D02*
Y114576D01*
X337000Y121240D02*
X327003D01*
Y126239D01*
X328669Y127905D01*
X332002D01*
X333668Y126239D01*
Y121240D01*
Y124573D02*
X337000Y127905D01*
Y131237D02*
X327003D01*
X330336Y134569D01*
X327003Y137902D01*
X337000D01*
X399000Y94500D02*
Y104497D01*
X403998D01*
X405664Y102831D01*
Y99498D01*
X403998Y97832D01*
X399000D01*
X402332D02*
X405664Y94500D01*
X415661D02*
X408997D01*
X415661Y101165D01*
Y102831D01*
X413995Y104497D01*
X410663D01*
X408997Y102831D01*
X418993D02*
X420660Y104497D01*
X423992D01*
X425658Y102831D01*
Y96166D01*
X423992Y94500D01*
X420660D01*
X418993Y96166D01*
Y102831D01*
X399750Y128250D02*
Y138247D01*
X404748D01*
X406414Y136581D01*
Y133248D01*
X404748Y131582D01*
X399750D01*
X403082D02*
X406414Y128250D01*
X409747D02*
X413079D01*
X411413D01*
Y138247D01*
X409747Y136581D01*
X418077Y129916D02*
X419744Y128250D01*
X423076D01*
X424742Y129916D01*
Y136581D01*
X423076Y138247D01*
X419744D01*
X418077Y136581D01*
Y134915D01*
X419744Y133248D01*
X424742D01*
X340000Y146250D02*
Y154247D01*
X343999D01*
X345332Y152914D01*
Y150249D01*
X343999Y148916D01*
X340000D01*
X342666D02*
X345332Y146250D01*
X347997D02*
X350663D01*
X349330D01*
Y154247D01*
X347997Y152914D01*
X354662D02*
X355995Y154247D01*
X358661D01*
X359994Y152914D01*
Y151582D01*
X358661Y150249D01*
X359994Y148916D01*
Y147583D01*
X358661Y146250D01*
X355995D01*
X354662Y147583D01*
Y148916D01*
X355995Y150249D01*
X354662Y151582D01*
Y152914D01*
X355995Y150249D02*
X358661D01*
X434250Y162000D02*
X424253D01*
Y166998D01*
X425919Y168664D01*
X429252D01*
X430918Y166998D01*
Y162000D01*
Y165332D02*
X434250Y168664D01*
Y171997D02*
Y175329D01*
Y173663D01*
X424253D01*
X425919Y171997D01*
X424253Y180327D02*
Y186992D01*
X425919D01*
X432584Y180327D01*
X434250D01*
X366250Y230250D02*
X358253D01*
Y234249D01*
X359585Y235582D01*
X362251D01*
X363584Y234249D01*
Y230250D01*
Y232916D02*
X366250Y235582D01*
Y238247D02*
Y240913D01*
Y239580D01*
X358253D01*
X359585Y238247D01*
X366250Y250244D02*
Y244912D01*
X360918Y250244D01*
X359585D01*
X358253Y248911D01*
Y246245D01*
X359585Y244912D01*
X469250Y177750D02*
X459253D01*
Y182748D01*
X460919Y184415D01*
X464252D01*
X465918Y182748D01*
Y177750D01*
Y181082D02*
X469250Y184415D01*
X467584Y187747D02*
X469250Y189413D01*
Y192745D01*
X467584Y194411D01*
X460919D01*
X459253Y192745D01*
Y189413D01*
X460919Y187747D01*
X462585D01*
X464252Y189413D01*
Y194411D01*
X456500Y279000D02*
Y288997D01*
X461498D01*
X463164Y287331D01*
Y283998D01*
X461498Y282332D01*
X456500D01*
X459832D02*
X463164Y279000D01*
X466497Y287331D02*
X468163Y288997D01*
X471495D01*
X473161Y287331D01*
Y285665D01*
X471495Y283998D01*
X473161Y282332D01*
Y280666D01*
X471495Y279000D01*
X468163D01*
X466497Y280666D01*
Y282332D01*
X468163Y283998D01*
X466497Y285665D01*
Y287331D01*
X468163Y283998D02*
X471495D01*
X287919Y233414D02*
X286253Y231748D01*
Y228416D01*
X287919Y226750D01*
X294584D01*
X296250Y228416D01*
Y231748D01*
X294584Y233414D01*
X296250Y236747D02*
Y240079D01*
Y238413D01*
X286253D01*
X287919Y236747D01*
X296250Y245077D02*
Y248410D01*
Y246744D01*
X286253D01*
X287919Y245077D01*
X291665Y191331D02*
X289998Y192997D01*
X286666D01*
X285000Y191331D01*
Y184666D01*
X286666Y183000D01*
X289998D01*
X291665Y184666D01*
X294997Y183000D02*
X298329D01*
X296663D01*
Y192997D01*
X294997Y191331D01*
X303327D02*
X304993Y192997D01*
X308326D01*
X309992Y191331D01*
Y184666D01*
X308326Y183000D01*
X304993D01*
X303327Y184666D01*
Y191331D01*
X739394Y711795D02*
Y710129D01*
X742726Y706796D01*
X746059Y710129D01*
Y711795D01*
X742726Y706796D02*
Y701798D01*
X749391D02*
X752723D01*
X751057D01*
Y711795D01*
X749391Y710129D01*
X876747Y736250D02*
X866750Y729585D01*
X876747D02*
X866750Y736250D01*
Y719589D02*
Y726253D01*
X873415Y719589D01*
X875081D01*
X876747Y721255D01*
Y724587D01*
X875081Y726253D01*
X699856Y263797D02*
X697580Y264407D01*
X694695Y262740D01*
X694085Y260464D01*
X694918Y259022D01*
X697194Y258412D01*
X700079Y260078D01*
X702355Y259468D01*
X703188Y258025D01*
X702579Y255749D01*
X699693Y254083D01*
X697417Y254693D01*
X701909Y266906D02*
X707681Y270238D01*
X704795Y268572D01*
X709793Y259914D01*
X715565Y263247D02*
X712233Y269018D01*
X713452Y273570D01*
X718004Y272351D01*
X721337Y266579D01*
X718837Y270908D01*
X713066Y267575D01*
X724222Y268245D02*
X719224Y276903D01*
X723553Y279402D01*
X725829Y278792D01*
X727495Y275906D01*
X726885Y273630D01*
X722556Y271131D01*
X725442Y272797D02*
X729994Y271577D01*
X727881Y281901D02*
X733653Y285233D01*
X730767Y283567D01*
X735766Y274910D01*
X741537Y278242D02*
X744423Y279908D01*
X742980Y279075D01*
X737982Y287733D01*
X737372Y285457D01*
X483106Y350297D02*
X480830Y350907D01*
X477944Y349240D01*
X477335Y346964D01*
X478168Y345522D01*
X480444Y344912D01*
X483330Y346578D01*
X485606Y345968D01*
X486438Y344525D01*
X485829Y342249D01*
X482943Y340583D01*
X480667Y341193D01*
X490931Y356738D02*
X485159Y353406D01*
X490158Y344748D01*
X495929Y348081D01*
X487658Y349077D02*
X490544Y350743D01*
X493816Y358404D02*
X498815Y349747D01*
X504587Y353079D01*
X508246Y366735D02*
X502474Y363403D01*
X507472Y354745D01*
X513244Y358077D01*
X504973Y359074D02*
X507859Y360740D01*
X517736Y370290D02*
X515460Y370900D01*
X512574Y369234D01*
X511964Y366958D01*
X515297Y361186D01*
X517573Y360577D01*
X520459Y362243D01*
X521068Y364519D01*
X519789Y373399D02*
X525561Y376732D01*
X522675Y375065D01*
X527673Y366408D01*
X533445Y369740D02*
X536331Y371407D01*
X534888Y370573D01*
X529889Y379231D01*
X529280Y376955D01*
X887250Y505247D02*
Y495250D01*
X892248D01*
X893914Y496916D01*
Y498582D01*
X892248Y500248D01*
X887250D01*
X892248D01*
X893914Y501914D01*
Y503581D01*
X892248Y505247D01*
X887250D01*
X903911Y495250D02*
X897247D01*
X903911Y501914D01*
Y503581D01*
X902245Y505247D01*
X898913D01*
X897247Y503581D01*
X948690Y621538D02*
Y628203D01*
X952022Y631535D01*
X955355Y628203D01*
Y621538D01*
Y626536D01*
X948690D01*
X958687Y621538D02*
X962019D01*
X960353D01*
Y631535D01*
X958687Y629869D01*
X450914Y352331D02*
X449248Y353997D01*
X445916D01*
X444250Y352331D01*
Y345666D01*
X445916Y344000D01*
X449248D01*
X450914Y345666D01*
X454247Y344000D02*
X457579D01*
X455913D01*
Y353997D01*
X454247Y352331D01*
X469242Y344000D02*
X462577D01*
X469242Y350664D01*
Y352331D01*
X467576Y353997D01*
X464244D01*
X462577Y352331D01*
X257503Y256500D02*
X267500D01*
Y261498D01*
X265834Y263165D01*
X264168D01*
X262502Y261498D01*
Y256500D01*
Y261498D01*
X260835Y263165D01*
X259169D01*
X257503Y261498D01*
Y256500D01*
X260835Y268163D02*
Y271495D01*
X262502Y273161D01*
X267500D01*
Y268163D01*
X265834Y266497D01*
X264168Y268163D01*
Y273161D01*
X259169Y278160D02*
X260835D01*
Y276494D01*
Y279826D01*
Y278160D01*
X265834D01*
X267500Y279826D01*
Y289823D02*
Y286490D01*
X265834Y284824D01*
X262502D01*
X260835Y286490D01*
Y289823D01*
X262502Y291489D01*
X264168D01*
Y284824D01*
X260835Y294821D02*
X267500D01*
X264168D01*
X262502Y296487D01*
X260835Y298153D01*
Y299819D01*
Y304818D02*
X265834D01*
X267500Y306484D01*
Y311482D01*
X269166D01*
X270832Y309816D01*
Y308150D01*
X267500Y311482D02*
X260835D01*
X257503Y314815D02*
Y318147D01*
Y316481D01*
X267500D01*
Y314815D01*
Y318147D01*
Y323145D02*
X260835D01*
Y328144D01*
X262502Y329810D01*
X267500D01*
X417415Y352081D02*
X415748Y353747D01*
X412416D01*
X410750Y352081D01*
Y345416D01*
X412416Y343750D01*
X415748D01*
X417415Y345416D01*
X420747Y343750D02*
X424079D01*
X422413D01*
Y353747D01*
X420747Y352081D01*
X429077D02*
X430744Y353747D01*
X434076D01*
X435742Y352081D01*
Y350415D01*
X434076Y348748D01*
X432410D01*
X434076D01*
X435742Y347082D01*
Y345416D01*
X434076Y343750D01*
X430744D01*
X429077Y345416D01*
X412250Y674497D02*
Y666166D01*
X413916Y664500D01*
X417248D01*
X418914Y666166D01*
Y674497D01*
X422247Y664500D02*
Y674497D01*
X427245D01*
X428911Y672831D01*
Y669498D01*
X427245Y667832D01*
X422247D01*
X432244Y664500D02*
X435576D01*
X433910D01*
Y674497D01*
X432244Y672831D01*
X448250Y490750D02*
X438253D01*
Y495748D01*
X439919Y497415D01*
X443252D01*
X444918Y495748D01*
Y490750D01*
Y494082D02*
X448250Y497415D01*
X438253Y500747D02*
Y504079D01*
Y502413D01*
X448250D01*
Y500747D01*
Y504079D01*
X439919Y515742D02*
X438253Y514076D01*
Y510744D01*
X439919Y509077D01*
X446584D01*
X448250Y510744D01*
Y514076D01*
X446584Y515742D01*
X443252D01*
Y512410D01*
X438253Y519074D02*
X448250D01*
X443252D01*
Y525739D01*
X438253D01*
X448250D01*
X438253Y529071D02*
Y535736D01*
Y532403D01*
X448250D01*
Y539068D02*
Y542400D01*
Y540734D01*
X438253D01*
X439919Y539068D01*
X272880Y582989D02*
Y572992D01*
X279545D01*
X289541Y582989D02*
X282877D01*
Y572992D01*
X289541D01*
X282877Y577990D02*
X286209D01*
X299538Y582989D02*
X292874D01*
Y577990D01*
X296206D01*
X292874D01*
Y572992D01*
X302870Y582989D02*
X309535D01*
X306203D01*
Y572992D01*
X312867D02*
X316199D01*
X314533D01*
Y582989D01*
X312867Y581323D01*
X364474Y491295D02*
Y481298D01*
X369472D01*
X371138Y482964D01*
Y489629D01*
X369472Y491295D01*
X364474D01*
X379469D02*
X376137D01*
X374471Y489629D01*
Y482964D01*
X376137Y481298D01*
X379469D01*
X381135Y482964D01*
Y489629D01*
X379469Y491295D01*
X384468D02*
Y481298D01*
X387800Y484630D01*
X391132Y481298D01*
Y491295D01*
X394464Y481298D02*
Y491295D01*
X401129Y481298D01*
Y491295D01*
X404461Y481298D02*
X407793D01*
X406127D01*
Y491295D01*
X404461Y489629D01*
X559250Y213000D02*
X565914D01*
X569247Y209668D01*
X565914Y206336D01*
X559250D01*
X564248D01*
Y213000D01*
Y203003D02*
Y196339D01*
X559250Y193006D02*
X569247D01*
Y188008D01*
X567581Y186342D01*
X564248D01*
X562582Y188008D01*
Y193006D01*
Y189674D02*
X559250Y186342D01*
Y183010D02*
Y179677D01*
Y181343D01*
X569247D01*
X567581Y183010D01*
X564000Y260250D02*
Y266915D01*
X567332Y270247D01*
X570664Y266915D01*
Y260250D01*
Y265248D01*
X564000D01*
X573997D02*
X580661D01*
X583994Y260250D02*
Y270247D01*
X588992D01*
X590658Y268581D01*
Y265248D01*
X588992Y263582D01*
X583994D01*
X587326D02*
X590658Y260250D01*
X593990Y268581D02*
X595657Y270247D01*
X598989D01*
X600655Y268581D01*
Y266915D01*
X598989Y265248D01*
X597323D01*
X598989D01*
X600655Y263582D01*
Y261916D01*
X598989Y260250D01*
X595657D01*
X593990Y261916D01*
X484500Y209750D02*
Y216415D01*
X487832Y219747D01*
X491165Y216415D01*
Y209750D01*
Y214748D01*
X484500D01*
X494497D02*
X501161D01*
X504494Y209750D02*
Y219747D01*
X509492D01*
X511158Y218081D01*
Y214748D01*
X509492Y213082D01*
X504494D01*
X507826D02*
X511158Y209750D01*
X521155Y219747D02*
X514490D01*
Y214748D01*
X517823Y216415D01*
X519489D01*
X521155Y214748D01*
Y211416D01*
X519489Y209750D01*
X516157D01*
X514490Y211416D01*
X320250Y668000D02*
Y671332D01*
Y669666D01*
X310253D01*
X311919Y668000D01*
X320250Y682995D02*
Y676331D01*
X313585Y682995D01*
X311919D01*
X310253Y681329D01*
Y677997D01*
X311919Y676331D01*
X320250Y686327D02*
X310253D01*
X313585Y689660D01*
X310253Y692992D01*
X320250D01*
X310253Y696324D02*
X320250D01*
X315252D01*
Y702989D01*
X310253D01*
X320250D01*
X310253Y706321D02*
Y712986D01*
X311919D01*
X318584Y706321D01*
X320250D01*
Y712986D01*
X516414Y634331D02*
X514748Y635997D01*
X511416D01*
X509750Y634331D01*
Y627666D01*
X511416Y626000D01*
X514748D01*
X516414Y627666D01*
X519747Y626000D02*
X523079D01*
X521413D01*
Y635997D01*
X519747Y634331D01*
X534742Y635997D02*
X531410Y634331D01*
X528077Y630998D01*
Y627666D01*
X529743Y626000D01*
X533076D01*
X534742Y627666D01*
Y629332D01*
X533076Y630998D01*
X528077D01*
X629015Y655096D02*
X627349Y653429D01*
Y650097D01*
X629015Y648431D01*
X635679D01*
X637345Y650097D01*
Y653429D01*
X635679Y655096D01*
X637345Y658428D02*
Y661760D01*
Y660094D01*
X627349D01*
X629015Y658428D01*
X627349Y666758D02*
Y673423D01*
X629015D01*
X635679Y666758D01*
X637345D01*
X267915Y779831D02*
X266248Y781497D01*
X262916D01*
X261250Y779831D01*
Y773166D01*
X262916Y771500D01*
X266248D01*
X267915Y773166D01*
X271247Y771500D02*
X274579D01*
X272913D01*
Y781497D01*
X271247Y779831D01*
X279577Y773166D02*
X281244Y771500D01*
X284576D01*
X286242Y773166D01*
Y779831D01*
X284576Y781497D01*
X281244D01*
X279577Y779831D01*
Y778165D01*
X281244Y776498D01*
X286242D01*
X298165Y782581D02*
X296498Y784247D01*
X293166D01*
X291500Y782581D01*
Y775916D01*
X293166Y774250D01*
X296498D01*
X298165Y775916D01*
X308161Y774250D02*
X301497D01*
X308161Y780915D01*
Y782581D01*
X306495Y784247D01*
X303163D01*
X301497Y782581D01*
X316492Y774250D02*
Y784247D01*
X311494Y779248D01*
X318158D01*
X644241Y754389D02*
Y764386D01*
X649239D01*
X650906Y762720D01*
Y759387D01*
X649239Y757721D01*
X644241D01*
X647573D02*
X650906Y754389D01*
X654238D02*
X657570D01*
X655904D01*
Y764386D01*
X654238Y762720D01*
X662568D02*
X664235Y764386D01*
X667567D01*
X669233Y762720D01*
Y761053D01*
X667567Y759387D01*
X665901D01*
X667567D01*
X669233Y757721D01*
Y756055D01*
X667567Y754389D01*
X664235D01*
X662568Y756055D01*
X616250Y680250D02*
Y690247D01*
X621248D01*
X622915Y688581D01*
Y685248D01*
X621248Y683582D01*
X616250D01*
X619582D02*
X622915Y680250D01*
X626247D02*
X629579D01*
X627913D01*
Y690247D01*
X626247Y688581D01*
X639576Y680250D02*
Y690247D01*
X634577Y685248D01*
X641242D01*
X601500Y776000D02*
X611497D01*
Y771002D01*
X609831Y769335D01*
X606498D01*
X604832Y771002D01*
Y776000D01*
Y772668D02*
X601500Y769335D01*
Y766003D02*
Y762671D01*
Y764337D01*
X611497D01*
X609831Y766003D01*
X611497Y751008D02*
Y757673D01*
X606498D01*
X608164Y754340D01*
Y752674D01*
X606498Y751008D01*
X603166D01*
X601500Y752674D01*
Y756006D01*
X603166Y757673D01*
X529500Y785000D02*
Y794997D01*
X534498D01*
X536165Y793331D01*
Y789998D01*
X534498Y788332D01*
X529500D01*
X532832D02*
X536165Y785000D01*
X546161D02*
X539497D01*
X546161Y791665D01*
Y793331D01*
X544495Y794997D01*
X541163D01*
X539497Y793331D01*
X549494D02*
X551160Y794997D01*
X554492D01*
X556158Y793331D01*
Y791665D01*
X554492Y789998D01*
X552826D01*
X554492D01*
X556158Y788332D01*
Y786666D01*
X554492Y785000D01*
X551160D01*
X549494Y786666D01*
X345083Y712408D02*
Y709076D01*
X346749Y707410D01*
X353414D01*
X355080Y709076D01*
Y712408D01*
X353414Y714074D01*
X346749D01*
X345083Y712408D01*
X346749Y724071D02*
X345083Y722405D01*
Y719073D01*
X346749Y717407D01*
X348415D01*
X350082Y719073D01*
Y722405D01*
X351748Y724071D01*
X353414D01*
X355080Y722405D01*
Y719073D01*
X353414Y717407D01*
X346749Y734068D02*
X345083Y732402D01*
Y729070D01*
X346749Y727403D01*
X353414D01*
X355080Y729070D01*
Y732402D01*
X353414Y734068D01*
X589165Y185331D02*
X587498Y186997D01*
X584166D01*
X582500Y185331D01*
Y178666D01*
X584166Y177000D01*
X587498D01*
X589165Y178666D01*
Y181998D01*
X585832D01*
D34*
X374000Y664750D02*
Y778400D01*
X326000D02*
X374000D01*
X326000Y664750D02*
Y778400D01*
Y664750D02*
X374000D01*
D73*
X256300Y200800D02*
Y251600D01*
Y200800D02*
X281700D01*
Y251600D01*
X256300D02*
X281700D01*
X257810Y88900D02*
X283210D01*
X257810D02*
Y139700D01*
X283210D01*
Y88900D02*
Y139700D01*
X392500Y271000D02*
Y277000D01*
X398500D01*
X392500Y237000D02*
Y243000D01*
Y237000D02*
X398500D01*
X426500D02*
X432500D01*
Y243000D01*
Y271000D02*
Y272500D01*
X428000Y277000D02*
X432500Y272500D01*
X426500Y277000D02*
X428000D01*
D76*
X816350Y653000D02*
G03*
X816350Y653000I-38100J0D01*
G01*
X961350Y720000D02*
G03*
X961350Y720000I-38100J0D01*
G01*
X441850Y617250D02*
G03*
X441850Y617250I-38100J0D01*
G01*
X530850Y525750D02*
G03*
X530850Y525750I-38100J0D01*
G01*
X347850Y526000D02*
G03*
X347850Y526000I-38100J0D01*
G01*
X439350Y434250D02*
G03*
X439350Y434250I-38100J0D01*
G01*
X878850Y505500D02*
G03*
X878850Y505500I-38100J0D01*
G01*
X1023620Y574040D02*
G03*
X1023620Y574040I-38100J0D01*
G01*
D77*
X423000Y284000D02*
G03*
X423000Y284000I-500J0D01*
G01*
X423207D02*
G03*
X423207Y284000I-707J0D01*
G01*
X423914D02*
G03*
X423914Y284000I-1414J0D01*
G01*
D78*
X617250Y697000D02*
Y745001D01*
X637250D01*
Y697000D02*
Y745001D01*
X617250Y697000D02*
X637250D01*
X293000Y718250D02*
Y766251D01*
X313000D01*
Y718250D02*
Y766251D01*
X293000Y718250D02*
X313000D01*
X592750Y741000D02*
Y789000D01*
X572750Y741000D02*
X592750D01*
X572750D02*
Y789000D01*
X592750D01*
X561499Y237251D02*
X597501D01*
Y255249D01*
X561499D02*
X597501D01*
X561499Y237251D02*
Y255249D01*
X555499Y179749D02*
Y215751D01*
X537501D02*
X555499D01*
X537501Y179749D02*
Y215751D01*
Y179749D02*
X555499D01*
X516500Y762500D02*
Y782500D01*
Y762500D02*
X564501D01*
Y782500D01*
X516500D02*
X564501D01*
X264250Y715249D02*
X284250D01*
Y763251D01*
X264250D02*
X284250D01*
X264250Y715249D02*
Y763251D01*
X643250Y646750D02*
X657250Y646751D01*
Y678749D01*
X643250Y678749D02*
X657250Y678749D01*
X643250Y646750D02*
Y678749D01*
X642750Y697749D02*
X662750D01*
Y745751D01*
X642750D02*
X662750D01*
X642750Y697749D02*
Y745751D01*
X497999Y639750D02*
Y659750D01*
Y639750D02*
X546001D01*
Y659750D01*
X497999D02*
X546001D01*
D79*
X327152Y137668D02*
X332232D01*
X292608D02*
X297688D01*
X292608Y172212D02*
Y177292D01*
X327152D02*
X332232D01*
Y137668D02*
Y142748D01*
X292608Y137668D02*
Y142748D01*
X332232Y172212D02*
Y177292D01*
X292608D02*
X297688D01*
M02*
